<?xml version="1.0" encoding="utf-8"?>
<!-- Generator: Adobe Illustrator 23.0.6, SVG Export Plug-In . SVG Version: 6.00 Build 0)  -->
<svg version="1.1" id="Layer_1" xmlns="http://www.w3.org/2000/svg" xmlns:xlink="http://www.w3.org/1999/xlink" x="0px" y="0px"
	 viewBox="0 0 129.77 129.77" style="enable-background:new 0 0 129.77 129.77;" xml:space="preserve">
<style type="text/css">
	.st0{fill:#F05454;}
	.st1{fill:#CE3837;}
	.st2{display:none;fill:#FFFFFF;}
</style>
<g>
	<g>
		<path class="st0" d="M77.09,29.34c0.82-0.62,1.76-1.13,2.8-1.48c4.72-1.61,10.01,0.6,12.18,5.09c2.51,5.21,0.11,11.38-5.16,13.56
			c-0.96,0.4-1.94,0.63-2.93,0.72c-0.27,0.02-0.43-0.3-0.25-0.5c0.04-0.04,0.07-0.08,0.1-0.12c-1.02,0.12-2.03,0.09-2.99-0.07
			c-0.26-0.04-0.32-0.38-0.1-0.52c3.1-1.92,4.97-5.38,4.53-9.06c0-0.01,0-0.01,0-0.02c-0.15-1.24-0.68-2.42-1.5-3.36
			c-1.65-1.9-3.96-3.09-6.43-3.36C76.91,30.17,76.74,29.6,77.09,29.34z"/>
		<g>
			<path class="st1" d="M86.52,36.89c-0.34-2.29-1.37-4.17-2.61-5.04c-0.15-0.11-0.18-0.46-0.04-0.55c0.31-0.2,0.65-0.32,1.01-0.34
				c1.81-0.12,3.64,2.17,4.19,5.25c0.61,3.46-0.57,6.56-2.55,6.86c-0.36,0.05-0.73,0.01-1.09-0.12c-0.1-0.04-0.14-0.25-0.06-0.34
				C86.38,41.46,86.87,39.28,86.52,36.89z"/>
		</g>
	</g>
	<g>
		<g>
			<g>
				<path class="st0" d="M44.21,59.01c0-3.78,2.1-7.06,5.2-8.75c0.39-0.21,0.31-0.79-0.12-0.9c-0.94-0.25-1.94-0.36-2.97-0.31
					c-5.11,0.23-9.26,4.37-9.5,9.48c-0.27,5.73,4.29,10.45,9.96,10.45c1.04,0,2.04-0.16,2.98-0.46c0.26-0.08,0.28-0.44,0.04-0.56
					C46.5,66.34,44.21,62.94,44.21,59.01z"/>
			</g>
			<g>
				<path class="st1" d="M43.14,59.01c0-2.31,0.65-4.33,1.61-5.36c0.12-0.13,0.09-0.48-0.04-0.55c-0.29-0.15-0.6-0.22-0.92-0.19
					c-1.58,0.14-2.86,2.68-2.94,5.81c-0.08,3.51,1.33,6.41,3.08,6.41c0.32,0,0.63-0.1,0.92-0.28c0.08-0.05,0.09-0.27,0.01-0.34
					C43.84,63.5,43.14,61.42,43.14,59.01z"/>
			</g>
		</g>
		<g>
			<g>
				<path class="st0" d="M61.32,35.69c1.85-3.29,5.29-5.13,8.82-5.09c0.44,0.01,0.65-0.54,0.34-0.84c-0.7-0.68-1.52-1.26-2.44-1.72
					c-4.57-2.3-10.21-0.72-12.92,3.61c-3.04,4.86-1.38,11.22,3.56,13.99c0.91,0.51,1.86,0.86,2.82,1.06
					c0.27,0.06,0.46-0.24,0.31-0.47C59.71,43.2,59.39,39.12,61.32,35.69z"/>
			</g>
		</g>
		<g>
			<g>
				<path class="st0" d="M67.94,58.64c0.93-3.66-0.3-7.36-2.88-9.76c-0.32-0.3-0.1-0.84,0.34-0.84c0.97-0.01,1.97,0.13,2.95,0.43
					c4.9,1.48,7.89,6.51,6.87,11.52c-1.15,5.62-6.73,9.08-12.23,7.68c-1.01-0.26-1.94-0.66-2.77-1.17c-0.23-0.14-0.17-0.5,0.1-0.55
					C63.92,65.18,66.97,62.45,67.94,58.64z"/>
			</g>
		</g>
		<g>
			<g>
				<path class="st0" d="M51.22,79.44c-3.05-2.23-6.94-2.46-10.13-0.96c-0.4,0.19-0.82-0.22-0.66-0.62c0.36-0.91,0.85-1.78,1.5-2.58
					c3.2-3.99,8.98-4.91,13.25-2.09c4.79,3.16,5.92,9.63,2.58,14.21c-0.61,0.84-1.33,1.55-2.12,2.14c-0.22,0.16-0.52-0.03-0.47-0.3
					C55.8,85.61,54.4,81.76,51.22,79.44z"/>
			</g>
		</g>
		<g>
			<path class="st0" d="M29.66,97.01h1.05l2.17,5.64h-1.06l-0.53-1.49h-2.25l-0.53,1.49h-1.02L29.66,97.01z M29.31,100.41h1.72
				l-0.85-2.43h-0.02L29.31,100.41z"/>
			<path class="st0" d="M33.32,97.01h0.9v2.09h0.02c0.06-0.1,0.14-0.19,0.23-0.27c0.09-0.08,0.19-0.15,0.3-0.2
				c0.11-0.06,0.22-0.1,0.34-0.13c0.12-0.03,0.24-0.04,0.35-0.04c0.32,0,0.6,0.06,0.84,0.17c0.24,0.11,0.44,0.27,0.6,0.47
				c0.16,0.2,0.28,0.43,0.36,0.69c0.08,0.26,0.12,0.55,0.12,0.85c0,0.27-0.04,0.54-0.11,0.8c-0.07,0.26-0.18,0.49-0.32,0.68
				c-0.15,0.2-0.33,0.36-0.55,0.47c-0.22,0.12-0.48,0.18-0.78,0.18c-0.14,0-0.28-0.01-0.41-0.03c-0.14-0.02-0.27-0.05-0.4-0.11
				c-0.13-0.05-0.24-0.12-0.34-0.21c-0.1-0.08-0.19-0.19-0.26-0.33h-0.02v0.56h-0.85V97.01z M36.46,100.61
				c0-0.18-0.02-0.36-0.07-0.54c-0.05-0.17-0.12-0.33-0.21-0.46c-0.09-0.13-0.21-0.24-0.36-0.32c-0.14-0.08-0.31-0.12-0.49-0.12
				c-0.38,0-0.67,0.13-0.86,0.4c-0.19,0.26-0.29,0.61-0.29,1.05c0,0.21,0.03,0.4,0.08,0.57c0.05,0.18,0.12,0.33,0.23,0.45
				s0.22,0.23,0.36,0.3c0.14,0.07,0.3,0.11,0.49,0.11c0.21,0,0.38-0.04,0.52-0.13c0.14-0.08,0.26-0.19,0.35-0.33
				c0.09-0.13,0.16-0.29,0.2-0.46C36.44,100.97,36.46,100.79,36.46,100.61z"/>
			<path class="st0" d="M38.12,98.57h0.85v0.6l0.02,0.02c0.14-0.23,0.32-0.4,0.54-0.53c0.22-0.13,0.47-0.19,0.73-0.19
				c0.45,0,0.8,0.12,1.06,0.35c0.26,0.23,0.39,0.58,0.39,1.04v2.8h-0.9v-2.57c-0.01-0.32-0.08-0.55-0.21-0.7
				c-0.13-0.14-0.32-0.22-0.59-0.22c-0.15,0-0.29,0.03-0.41,0.08c-0.12,0.06-0.22,0.13-0.31,0.23c-0.08,0.1-0.15,0.21-0.2,0.34
				c-0.05,0.13-0.07,0.27-0.07,0.42v2.41h-0.9V98.57z"/>
			<path class="st0" d="M44.53,102.76c-0.33,0-0.62-0.05-0.87-0.16c-0.26-0.11-0.47-0.26-0.65-0.45c-0.18-0.19-0.31-0.42-0.4-0.68
				c-0.09-0.26-0.14-0.55-0.14-0.87c0-0.31,0.05-0.6,0.14-0.86c0.09-0.26,0.23-0.49,0.4-0.68c0.18-0.19,0.39-0.34,0.65-0.45
				c0.26-0.11,0.55-0.16,0.87-0.16c0.33,0,0.62,0.05,0.87,0.16c0.26,0.11,0.47,0.26,0.65,0.45c0.18,0.19,0.31,0.42,0.4,0.68
				c0.09,0.26,0.14,0.55,0.14,0.86c0,0.32-0.05,0.61-0.14,0.87c-0.09,0.26-0.23,0.49-0.4,0.68c-0.18,0.19-0.39,0.34-0.65,0.45
				C45.15,102.71,44.85,102.76,44.53,102.76z M44.53,102.05c0.2,0,0.37-0.04,0.52-0.13c0.15-0.08,0.27-0.19,0.36-0.33
				c0.09-0.14,0.16-0.29,0.21-0.46c0.04-0.17,0.07-0.35,0.07-0.53c0-0.17-0.02-0.35-0.07-0.52c-0.04-0.17-0.11-0.33-0.21-0.46
				c-0.09-0.13-0.22-0.24-0.36-0.33c-0.15-0.08-0.32-0.13-0.52-0.13c-0.2,0-0.37,0.04-0.52,0.13c-0.15,0.08-0.27,0.19-0.36,0.33
				c-0.09,0.13-0.16,0.29-0.21,0.46c-0.04,0.17-0.07,0.35-0.07,0.52c0,0.18,0.02,0.35,0.07,0.53c0.04,0.17,0.11,0.33,0.21,0.46
				c0.09,0.14,0.22,0.25,0.36,0.33C44.15,102.01,44.33,102.05,44.53,102.05z"/>
			<path class="st0" d="M47.34,98.57h0.85v0.79h0.02c0.03-0.11,0.08-0.22,0.15-0.32c0.08-0.11,0.17-0.2,0.28-0.29
				c0.11-0.09,0.23-0.16,0.36-0.21c0.13-0.05,0.27-0.08,0.4-0.08c0.11,0,0.18,0,0.22,0.01c0.04,0.01,0.08,0.01,0.12,0.02v0.87
				c-0.06-0.01-0.13-0.02-0.19-0.03c-0.07-0.01-0.13-0.01-0.19-0.01c-0.15,0-0.3,0.03-0.43,0.09c-0.13,0.06-0.25,0.15-0.35,0.27
				c-0.1,0.12-0.18,0.26-0.24,0.44c-0.06,0.17-0.09,0.37-0.09,0.6v1.94h-0.9V98.57z"/>
			<path class="st0" d="M50.12,98.57h0.85v0.57H51c0.07-0.1,0.14-0.19,0.22-0.28c0.08-0.08,0.17-0.16,0.26-0.21
				c0.1-0.06,0.21-0.1,0.34-0.14c0.13-0.03,0.27-0.05,0.43-0.05c0.25,0,0.48,0.06,0.69,0.17c0.21,0.11,0.36,0.28,0.45,0.51
				c0.15-0.21,0.33-0.38,0.53-0.5c0.2-0.12,0.45-0.18,0.75-0.18c0.43,0,0.77,0.11,1.01,0.32c0.24,0.21,0.36,0.56,0.36,1.06v2.82
				h-0.9v-2.39c0-0.16-0.01-0.31-0.02-0.45c-0.01-0.13-0.04-0.25-0.09-0.35c-0.05-0.1-0.13-0.17-0.23-0.23
				c-0.1-0.05-0.24-0.08-0.41-0.08c-0.31,0-0.53,0.1-0.66,0.28c-0.14,0.19-0.21,0.46-0.21,0.81v2.39h-0.9v-2.62
				c0-0.28-0.05-0.5-0.15-0.64c-0.1-0.14-0.29-0.22-0.56-0.22c-0.12,0-0.23,0.02-0.34,0.07c-0.11,0.05-0.2,0.12-0.28,0.21
				c-0.08,0.09-0.15,0.2-0.2,0.33c-0.05,0.13-0.08,0.28-0.08,0.45v2.43h-0.9V98.57z"/>
			<path class="st0" d="M60.42,101.74c0,0.11,0.01,0.19,0.04,0.24c0.03,0.05,0.09,0.07,0.17,0.07c0.03,0,0.06,0,0.09,0
				c0.04,0,0.08-0.01,0.13-0.02v0.62c-0.03,0.01-0.07,0.02-0.12,0.04c-0.05,0.01-0.1,0.03-0.15,0.04c-0.05,0.01-0.11,0.02-0.16,0.02
				c-0.05,0.01-0.1,0.01-0.13,0.01c-0.18,0-0.34-0.04-0.46-0.11c-0.12-0.07-0.2-0.2-0.24-0.39c-0.18,0.17-0.4,0.3-0.66,0.38
				c-0.26,0.08-0.51,0.12-0.75,0.12c-0.18,0-0.36-0.02-0.53-0.08c-0.17-0.05-0.32-0.12-0.45-0.22c-0.13-0.1-0.23-0.22-0.31-0.37
				c-0.08-0.15-0.11-0.33-0.11-0.53c0-0.25,0.05-0.46,0.14-0.62c0.09-0.16,0.21-0.28,0.36-0.37c0.15-0.09,0.32-0.15,0.51-0.19
				c0.19-0.04,0.38-0.07,0.56-0.09c0.16-0.03,0.32-0.05,0.47-0.07c0.15-0.01,0.28-0.04,0.39-0.07c0.11-0.03,0.2-0.08,0.27-0.15
				c0.07-0.07,0.1-0.16,0.1-0.3c0-0.12-0.03-0.21-0.08-0.28c-0.06-0.07-0.12-0.13-0.21-0.17c-0.08-0.04-0.17-0.07-0.27-0.08
				c-0.1-0.01-0.19-0.02-0.28-0.02c-0.25,0-0.46,0.05-0.62,0.16c-0.16,0.11-0.26,0.27-0.28,0.49h-0.9c0.02-0.26,0.08-0.48,0.19-0.66
				c0.11-0.17,0.25-0.31,0.42-0.42c0.17-0.11,0.36-0.18,0.58-0.22c0.22-0.04,0.44-0.06,0.66-0.06c0.2,0,0.4,0.02,0.59,0.06
				c0.19,0.04,0.37,0.11,0.53,0.21s0.28,0.22,0.38,0.37c0.09,0.15,0.14,0.33,0.14,0.55V101.74z M59.52,100.6
				c-0.14,0.09-0.31,0.14-0.51,0.16c-0.2,0.02-0.4,0.05-0.6,0.08c-0.09,0.02-0.19,0.04-0.28,0.07c-0.09,0.03-0.17,0.07-0.24,0.12
				s-0.12,0.12-0.16,0.2c-0.04,0.08-0.06,0.18-0.06,0.3c0,0.1,0.03,0.18,0.09,0.25c0.06,0.07,0.13,0.12,0.21,0.16
				c0.08,0.04,0.17,0.07,0.27,0.08c0.1,0.02,0.19,0.02,0.26,0.02c0.1,0,0.21-0.01,0.32-0.04c0.12-0.03,0.23-0.07,0.33-0.13
				c0.1-0.06,0.19-0.14,0.26-0.24c0.07-0.1,0.1-0.22,0.1-0.36V100.6z"/>
			<path class="st0" d="M61.41,97.01h0.9v5.64h-0.9V97.01z"/>
			<path class="st0" d="M65.61,97.01h2.74c0.51,0,0.91,0.12,1.22,0.35c0.31,0.23,0.46,0.58,0.46,1.05c0,0.28-0.07,0.53-0.21,0.73
				c-0.14,0.2-0.34,0.36-0.6,0.47v0.02c0.35,0.07,0.61,0.24,0.79,0.49c0.18,0.26,0.27,0.58,0.27,0.96c0,0.22-0.04,0.43-0.12,0.62
				c-0.08,0.19-0.2,0.36-0.37,0.5c-0.17,0.14-0.38,0.25-0.65,0.33c-0.26,0.08-0.58,0.12-0.94,0.12h-2.59V97.01z M66.6,99.37h1.61
				c0.24,0,0.43-0.07,0.59-0.2c0.16-0.13,0.24-0.33,0.24-0.58c0-0.28-0.07-0.48-0.21-0.6c-0.14-0.12-0.35-0.17-0.62-0.17H66.6V99.37
				z M66.6,101.84h1.75c0.3,0,0.53-0.08,0.7-0.23c0.17-0.16,0.25-0.38,0.25-0.66c0-0.28-0.08-0.49-0.25-0.64
				c-0.17-0.15-0.4-0.23-0.7-0.23H66.6V101.84z"/>
			<path class="st0" d="M71.07,97.01h0.9v5.64h-0.9V97.01z"/>
			<path class="st0" d="M74.83,102.76c-0.33,0-0.62-0.05-0.87-0.16c-0.26-0.11-0.47-0.26-0.65-0.45c-0.18-0.19-0.31-0.42-0.4-0.68
				c-0.09-0.26-0.14-0.55-0.14-0.87c0-0.31,0.05-0.6,0.14-0.86c0.09-0.26,0.23-0.49,0.4-0.68c0.18-0.19,0.39-0.34,0.65-0.45
				c0.26-0.11,0.55-0.16,0.87-0.16c0.33,0,0.62,0.05,0.87,0.16c0.26,0.11,0.47,0.26,0.65,0.45c0.18,0.19,0.31,0.42,0.4,0.68
				c0.09,0.26,0.14,0.55,0.14,0.86c0,0.32-0.05,0.61-0.14,0.87c-0.09,0.26-0.23,0.49-0.4,0.68c-0.18,0.19-0.39,0.34-0.65,0.45
				C75.44,102.71,75.15,102.76,74.83,102.76z M74.83,102.05c0.2,0,0.37-0.04,0.52-0.13c0.15-0.08,0.27-0.19,0.36-0.33
				c0.09-0.14,0.16-0.29,0.21-0.46c0.04-0.17,0.07-0.35,0.07-0.53c0-0.17-0.02-0.35-0.07-0.52c-0.04-0.17-0.11-0.33-0.21-0.46
				c-0.09-0.13-0.22-0.24-0.36-0.33c-0.15-0.08-0.32-0.13-0.52-0.13c-0.2,0-0.37,0.04-0.52,0.13c-0.15,0.08-0.27,0.19-0.36,0.33
				c-0.09,0.13-0.16,0.29-0.21,0.46c-0.04,0.17-0.07,0.35-0.07,0.52c0,0.18,0.02,0.35,0.07,0.53c0.04,0.17,0.11,0.33,0.21,0.46
				c0.09,0.14,0.22,0.25,0.36,0.33C74.45,102.01,74.63,102.05,74.83,102.05z"/>
			<path class="st0" d="M79.51,102.76c-0.33,0-0.62-0.05-0.87-0.16c-0.26-0.11-0.47-0.26-0.65-0.45c-0.18-0.19-0.31-0.42-0.4-0.68
				c-0.09-0.26-0.14-0.55-0.14-0.87c0-0.31,0.05-0.6,0.14-0.86c0.09-0.26,0.23-0.49,0.4-0.68c0.18-0.19,0.39-0.34,0.65-0.45
				c0.26-0.11,0.55-0.16,0.87-0.16c0.33,0,0.62,0.05,0.87,0.16c0.26,0.11,0.47,0.26,0.65,0.45c0.18,0.19,0.31,0.42,0.4,0.68
				c0.09,0.26,0.14,0.55,0.14,0.86c0,0.32-0.05,0.61-0.14,0.87c-0.09,0.26-0.23,0.49-0.4,0.68c-0.18,0.19-0.39,0.34-0.65,0.45
				C80.13,102.71,79.84,102.76,79.51,102.76z M79.51,102.05c0.2,0,0.37-0.04,0.52-0.13c0.15-0.08,0.27-0.19,0.36-0.33
				c0.09-0.14,0.16-0.29,0.21-0.46c0.04-0.17,0.07-0.35,0.07-0.53c0-0.17-0.02-0.35-0.07-0.52c-0.04-0.17-0.11-0.33-0.21-0.46
				c-0.09-0.13-0.22-0.24-0.36-0.33c-0.15-0.08-0.32-0.13-0.52-0.13c-0.2,0-0.37,0.04-0.52,0.13c-0.15,0.08-0.27,0.19-0.36,0.33
				c-0.09,0.13-0.16,0.29-0.21,0.46c-0.04,0.17-0.07,0.35-0.07,0.52c0,0.18,0.02,0.35,0.07,0.53c0.04,0.17,0.11,0.33,0.21,0.46
				c0.09,0.14,0.22,0.25,0.36,0.33C79.14,102.01,79.31,102.05,79.51,102.05z"/>
			<path class="st0" d="M86.17,102.65h-0.85v-0.55H85.3c-0.12,0.24-0.3,0.41-0.53,0.51c-0.23,0.1-0.48,0.15-0.73,0.15
				c-0.32,0-0.6-0.06-0.84-0.17s-0.44-0.27-0.6-0.46c-0.16-0.19-0.28-0.43-0.36-0.69c-0.08-0.27-0.12-0.55-0.12-0.86
				c0-0.37,0.05-0.69,0.15-0.96c0.1-0.27,0.23-0.49,0.4-0.66c0.17-0.17,0.36-0.3,0.57-0.38c0.21-0.08,0.43-0.12,0.65-0.12
				c0.13,0,0.26,0.01,0.39,0.04c0.13,0.02,0.26,0.06,0.38,0.11c0.12,0.05,0.23,0.12,0.34,0.2c0.1,0.08,0.19,0.18,0.26,0.29h0.02
				v-2.09h0.9V102.65z M83.03,100.65c0,0.17,0.02,0.35,0.07,0.51c0.04,0.17,0.11,0.32,0.21,0.45c0.09,0.13,0.21,0.24,0.35,0.32
				c0.14,0.08,0.31,0.12,0.51,0.12c0.2,0,0.37-0.04,0.52-0.13c0.14-0.08,0.26-0.19,0.36-0.33c0.09-0.14,0.16-0.29,0.21-0.46
				c0.04-0.17,0.07-0.35,0.07-0.53c0-0.45-0.1-0.81-0.3-1.06c-0.2-0.25-0.48-0.38-0.83-0.38c-0.21,0-0.39,0.04-0.53,0.13
				c-0.15,0.09-0.26,0.2-0.36,0.34c-0.09,0.14-0.16,0.3-0.2,0.47C83.05,100.29,83.03,100.47,83.03,100.65z"/>
			<path class="st0" d="M93.28,98.8c-0.04-0.16-0.1-0.31-0.17-0.45c-0.07-0.14-0.17-0.26-0.28-0.36c-0.12-0.1-0.25-0.18-0.41-0.23
				c-0.16-0.06-0.34-0.08-0.54-0.08c-0.3,0-0.56,0.06-0.78,0.18c-0.22,0.12-0.4,0.28-0.53,0.49c-0.14,0.2-0.24,0.43-0.3,0.69
				c-0.07,0.26-0.1,0.52-0.1,0.79c0,0.27,0.03,0.53,0.1,0.79c0.07,0.26,0.17,0.49,0.3,0.69c0.14,0.2,0.31,0.36,0.53,0.49
				c0.22,0.12,0.48,0.18,0.78,0.18c0.22,0,0.42-0.04,0.58-0.11c0.17-0.08,0.31-0.18,0.43-0.32c0.12-0.13,0.22-0.29,0.28-0.47
				c0.07-0.18,0.11-0.37,0.13-0.58h0.96c-0.02,0.34-0.09,0.65-0.22,0.92c-0.12,0.28-0.29,0.52-0.5,0.72
				c-0.21,0.2-0.46,0.36-0.74,0.47s-0.6,0.17-0.94,0.17c-0.42,0-0.8-0.08-1.13-0.23c-0.33-0.16-0.62-0.37-0.85-0.64
				c-0.23-0.27-0.41-0.58-0.53-0.94c-0.12-0.36-0.19-0.74-0.19-1.15c0-0.4,0.06-0.78,0.19-1.14c0.12-0.36,0.3-0.67,0.53-0.94
				c0.23-0.27,0.51-0.48,0.85-0.64c0.33-0.16,0.71-0.24,1.13-0.24c0.32,0,0.61,0.04,0.89,0.13c0.28,0.09,0.53,0.21,0.74,0.38
				c0.21,0.17,0.39,0.37,0.52,0.6c0.13,0.24,0.21,0.51,0.24,0.81H93.28z"/>
			<path class="st0" d="M95.75,100.84c0,0.16,0.02,0.31,0.07,0.46c0.04,0.15,0.11,0.28,0.2,0.39s0.2,0.2,0.34,0.26
				c0.14,0.07,0.3,0.1,0.49,0.1c0.26,0,0.48-0.06,0.64-0.17c0.16-0.11,0.28-0.28,0.36-0.51h0.85c-0.05,0.22-0.13,0.42-0.24,0.59
				c-0.12,0.17-0.26,0.32-0.42,0.44c-0.16,0.12-0.35,0.21-0.55,0.27c-0.2,0.06-0.41,0.09-0.64,0.09c-0.32,0-0.61-0.05-0.85-0.16
				c-0.25-0.11-0.46-0.25-0.63-0.44c-0.17-0.19-0.3-0.42-0.39-0.68c-0.09-0.26-0.13-0.55-0.13-0.87c0-0.29,0.05-0.56,0.14-0.83
				c0.09-0.26,0.22-0.49,0.4-0.69c0.17-0.2,0.38-0.35,0.62-0.47c0.24-0.12,0.52-0.17,0.82-0.17c0.32,0,0.61,0.07,0.87,0.2
				c0.26,0.13,0.47,0.31,0.64,0.53c0.17,0.22,0.29,0.48,0.37,0.76c0.08,0.29,0.1,0.58,0.06,0.89H95.75z M97.86,100.25
				c-0.01-0.14-0.04-0.28-0.09-0.41c-0.05-0.13-0.12-0.25-0.21-0.34c-0.09-0.1-0.19-0.18-0.32-0.24c-0.12-0.06-0.26-0.09-0.41-0.09
				c-0.16,0-0.3,0.03-0.43,0.08c-0.13,0.06-0.24,0.13-0.33,0.23c-0.09,0.1-0.17,0.21-0.22,0.34c-0.06,0.13-0.09,0.27-0.09,0.43
				H97.86z"/>
			<path class="st0" d="M99.47,97.01h0.9v5.64h-0.9V97.01z"/>
			<path class="st0" d="M101.37,97.01h0.9v5.64h-0.9V97.01z"/>
		</g>
	</g>
</g>
<circle class="st2" cx="64.88" cy="64.88" r="64.88"/>
</svg>
