<?xml version="1.0" encoding="utf-8"?>
<!-- Generator: Adobe Illustrator 23.0.6, SVG Export Plug-In . SVG Version: 6.00 Build 0)  -->
<svg version="1.1" id="Layer_1" xmlns="http://www.w3.org/2000/svg" xmlns:xlink="http://www.w3.org/1999/xlink" x="0px" y="0px"
	 viewBox="0 0 599.04 367.2" style="enable-background:new 0 0 599.04 367.2;" xml:space="preserve">
<style type="text/css">
	.st0{fill:#EA3F54;}
	.st1{fill:#ECAAAA;}
	.st2{fill:#F05454;}
	.st3{fill:#CE3837;}
	.st4{fill:none;stroke:#FCCFBF;stroke-width:2;stroke-miterlimit:10;}
</style>
<title>badVein</title>
<path class="st0" d="M342.17,289.4l67.71-43.43c0,0-65.44-11.56-100.51-35.39c-23.38-15.88-34.93-39.93-29.62-46.46
	c11.3-13.91,44.74-0.15,81.19,6.13c23.25,4,69.21,24.44,90.76,34.06l52.58,23.47l59.63-39.2c0,0-107-52.95-184.59-58.16
	s-79.78-8.71-107.88-18.31c-31.52-10.78-102-48.57-102-48.57l0,0c-10.11,9.8-17.93,18.33-31.87,20.46c-10,1.53-26,0.51-32.08-1
	l-24.32-9.14l3.26,10.8c1.01,4.65,4.01,8.62,8.21,10.86l90.38,48.16c10.38,7.36,17.48,18.48,19.78,31
	c1.31,7.17,2.42,14.23,4.3,18.67c8.61,20.3,27.72,45.82,135,96"/>
<path class="st1" d="M563.51,188.11l0.54-0.18c0,0-110.81-70.82-188.42-76.07s-79.79-8.75-107.89-18.33
	C236.22,82.75,165.77,47,165.77,47l-9.42,15.78c-8.35,14-24,22.25-40.21,20.47c-6-0.66-11.66-2-16.87-2.91l-17-6.9l97.05,51.67
	c10.38,7.36,17.48,18.48,19.78,31c1.31,7.17,2.42,14.23,4.3,18.67c8.28,19.51,26.27,43.85,123,90.31
	c6.46,19.07,22,32.53,40.26,32.53c24,0,43.44-23.34,43.44-52.12h-1.08l0.7-0.26c0,0-68.95-29.41-104-53.23
	c-23.43-15.9-34.98-39.9-29.67-46.45c11.3-13.91,44.74-0.15,81.19,6.13c23.26,4,69.21,24.44,90.76,34.06l42.1,18.79
	c5.51,17.25,19.41,29.52,35.73,29.52c21.15,0.05,38.34-20.57,38.34-45.95H563.51z"/>
<g id="Sickle_Cells">
	<path class="st2" d="M298.92,205.52c2.34,1.06,3.92,3.32,4.1,5.88c0.01,0.19,0.17,0.33,0.36,0.32c0.1,0,0.19-0.05,0.25-0.13
		c2.34-3.07,1.75-7.47-1.32-9.81c-3.07-2.34-7.47-1.75-9.81,1.32c-0.28,0.36-0.51,0.75-0.72,1.16c-0.3,0.63-0.49,1.31-0.58,2
		c-0.01,0.12,0.09,0.23,0.21,0.23c0.05,0,0.1-0.01,0.14-0.04C293.63,204.75,296.49,204.39,298.92,205.52z"/>
	<path class="st3" d="M299.24,204.83c1.27,0.49,2.33,1.4,3,2.59c0.07,0.12,0.22,0.18,0.36,0.14c0.18-0.13,0.32-0.32,0.39-0.53
		c0.37-1.06-0.88-2.62-2.87-3.58c-2.22-1.08-4.49-1-5,0.1c-0.1,0.21-0.13,0.44-0.09,0.67c0,0.07,0.14,0.14,0.21,0.11
		C296.59,204,298.01,204.18,299.24,204.83z"/>
	<path class="st2" d="M301.31,232.11c0.86,3.77-1.5,7.52-5.27,8.38c-0.46,0.1-0.93,0.16-1.41,0.17c-3.86,0.11-7.08-2.94-7.19-6.8
		c0-0.16,0-0.31,0-0.47c0.02-0.71,0.15-1.42,0.39-2.09c0.05-0.11,0.18-0.16,0.29-0.11c0.05,0.02,0.09,0.06,0.11,0.11
		c0.01,0.03,0.03,0.07,0.05,0.1c0.21-0.67,0.52-1.31,0.91-1.9c0.06-0.09,0.19-0.11,0.28-0.04c0.04,0.03,0.07,0.08,0.08,0.13
		c0.29,2.57,2.04,4.73,4.49,5.55l0,0c0.84,0.26,1.75,0.26,2.59,0c1.68-0.52,3.11-1.64,4-3.15c0.03-0.19,0.21-0.31,0.4-0.28
		C301.22,231.74,301.34,231.92,301.31,232.11z"/>
	<path class="st3" d="M293.72,235.9c1.31,0.45,2.74,0.38,4-0.21c0.14-0.06,0.31,0,0.37,0.14c0.03,0.25,0.01,0.51-0.08,0.75
		c-0.45,1.2-2.45,1.7-4.59,1.15c-2.39-0.62-4-2.28-3.65-3.64c0.07-0.25,0.21-0.48,0.39-0.66c0.08-0.05,0.19-0.02,0.24,0.06
		C291.13,234.71,292.33,235.58,293.72,235.9z"/>
	<path class="st2" d="M307.76,222.78c1.52,2.07,1.79,4.81,0.69,7.14c-0.08,0.17-0.01,0.37,0.16,0.45c0.09,0.04,0.19,0.04,0.28,0.01
		c0.65-0.27,1.26-0.62,1.81-1.06c3.08-2.36,3.66-6.76,1.3-9.83c-2.36-3.08-6.76-3.66-9.84-1.31c-0.58,0.42-1.09,0.93-1.51,1.5
		c-0.07,0.09-0.05,0.23,0.05,0.29c0.05,0.03,0.11,0.05,0.16,0.04C303.51,219.54,306.18,220.61,307.76,222.78z"/>
	<path class="st2" d="M285.17,217.64c2,1.61,4.73,2,7.1,1c0.17-0.07,0.37,0.01,0.45,0.18c0.04,0.09,0.04,0.19-0.01,0.28
		c-0.29,0.64-0.68,1.24-1.14,1.77c-2.49,2.97-6.91,3.36-9.88,0.88s-3.36-6.91-0.88-9.88c0.45-0.55,0.97-1.04,1.56-1.44
		c0.1-0.06,0.24-0.03,0.3,0.07c0.03,0.05,0.04,0.1,0.03,0.16C282.13,213.27,283.09,215.97,285.17,217.64z"/>
	<path class="st2" d="M276.74,200.84c2.24-1.26,3.61-3.65,3.57-6.22c-0.01-0.19,0.14-0.34,0.33-0.35c0.1,0,0.19,0.04,0.26,0.11
		c0.51,0.51,0.94,1.09,1.27,1.73c1.83,3.42,0.53,7.67-2.89,9.5s-7.67,0.53-9.5-2.89c-0.35-0.62-0.61-1.3-0.75-2
		c-0.02-0.11,0.05-0.23,0.16-0.25c0.05-0.01,0.11,0,0.16,0.03C271.55,202.01,274.41,202.14,276.74,200.84z"/>
</g>
<g id="Sickle_Cells-2">
	<path class="st2" d="M304.65,242.36c0,2.57,1.41,4.94,3.67,6.16c0.17,0.1,0.22,0.31,0.12,0.48c-0.05,0.08-0.12,0.14-0.21,0.16
		c-0.68,0.18-1.39,0.25-2.09,0.21c-3.87-0.09-6.93-3.3-6.84-7.17c0.09-3.87,3.3-6.93,7.17-6.83l0,0c0.71,0,1.41,0.11,2.09,0.32
		c0.11,0.05,0.16,0.18,0.11,0.29c-0.02,0.05-0.06,0.09-0.11,0.11C306.17,237.27,304.65,239.7,304.65,242.36z"/>
	<path class="st3" d="M303.89,242.36c-0.07,1.35,0.33,2.69,1.14,3.78c0.08,0.09,0.06,0.34,0,0.38c-0.2,0.11-0.42,0.16-0.65,0.14
		c-1.11-0.1-2-1.89-2.07-4.1c-0.05-2.47,0.94-4.51,2.17-4.51c0.23,0,0.46,0.07,0.65,0.2c0.06,0.07,0.06,0.17,0,0.24
		C304.25,239.58,303.81,240.96,303.89,242.36z"/>
	<path class="st2" d="M327.82,255.53c3.16,2.23,7.52,1.49,9.76-1.67c2.23-3.16,1.49-7.52-1.67-9.76c-0.37-0.26-0.76-0.49-1.18-0.67
		c-0.66-0.27-1.35-0.45-2.06-0.51c-0.12-0.01-0.22,0.09-0.23,0.21c0,0.05,0.02,0.11,0.05,0.15l0.08,0.08
		c-0.7-0.08-1.41-0.06-2.11,0.05c-0.11,0.02-0.18,0.12-0.17,0.23c0.01,0.06,0.04,0.11,0.1,0.14c2.22,1.32,3.47,3.81,3.19,6.38l0,0
		c-0.1,0.87-0.44,1.69-1,2.36c-1.16,1.33-2.78,2.17-4.53,2.37c-0.19-0.02-0.36,0.12-0.39,0.31
		C327.65,255.33,327.71,255.46,327.82,255.53z"/>
	<path class="st3" d="M334.46,250.21c-0.13,1.37-0.79,2.64-1.84,3.54c-0.11,0.08-0.13,0.33,0,0.39c0.21,0.14,0.46,0.22,0.71,0.24
		c1.28,0.09,2.57-1.52,3-3.7c0.43-2.43-0.39-4.62-1.8-4.83c-0.26-0.03-0.52,0-0.76,0.09c-0.07,0-0.1,0.18-0.05,0.24
		C334.51,247.36,334.78,248.82,334.46,250.21z"/>
	<path class="st2" d="M316.7,257.55c1.26,2.25,3.65,3.62,6.22,3.58c0.19,0,0.34,0.15,0.34,0.34c0,0.09-0.04,0.19-0.11,0.25
		c-2.86,2.6-7.28,2.4-9.89-0.46c-2.6-2.86-2.4-7.28,0.46-9.89c0.34-0.31,0.72-0.59,1.12-0.83c0.62-0.35,1.3-0.61,2-0.75
		c0.11-0.03,0.23,0.04,0.26,0.15c0.02,0.06,0,0.13-0.04,0.18C315.53,252.32,315.39,255.21,316.7,257.55z"/>
	<path class="st2" d="M321.37,234.89c0.64,2.48-0.12,5.12-2,6.87c-0.14,0.14-0.14,0.36-0.01,0.49c0.06,0.07,0.15,0.1,0.25,0.11
		c0.7,0,1.41-0.11,2.08-0.31c3.66-1.24,5.63-5.21,4.39-8.87c-1.24-3.66-5.21-5.63-8.87-4.39c-0.43,0.15-0.85,0.34-1.25,0.56
		c-0.1,0.06-0.14,0.19-0.08,0.29c0.03,0.06,0.09,0.09,0.15,0.1C318.65,230.29,320.72,232.29,321.37,234.89z"/>
	<path class="st2" d="M309.59,220.23c-2.08,1.52-4.82,1.78-7.14,0.67c-0.18-0.08-0.38,0-0.46,0.18c-0.04,0.08-0.04,0.18-0.01,0.26
		c0.27,0.65,0.62,1.27,1.06,1.82c2.36,3.07,6.76,3.65,9.84,1.29s3.65-6.76,1.29-9.84c-0.42-0.57-0.92-1.08-1.49-1.5
		c-0.09-0.08-0.22-0.06-0.3,0.02c-0.04,0.05-0.06,0.12-0.04,0.19C312.82,215.97,311.75,218.65,309.59,220.23z"/>
</g>
<g id="Sickle_Cells-3">
	<path class="st2" d="M244.53,190.78c-0.68-2.48,0.06-5.13,1.92-6.91c0.13-0.14,0.13-0.36-0.01-0.49c-0.06-0.06-0.15-0.09-0.24-0.1
		c-0.7,0.01-1.4,0.13-2.07,0.34c-3.72,1.1-5.84,5.02-4.74,8.74s5.02,5.84,8.74,4.74l0,0c0.69-0.19,1.35-0.48,1.95-0.86
		c0.1-0.07,0.12-0.21,0.04-0.31c-0.03-0.04-0.07-0.07-0.12-0.08C247.36,195.34,245.23,193.38,244.53,190.78z"/>
	<path class="st3" d="M243.8,190.98c-0.44-1.3-0.41-2.72,0.1-4c0.06-0.11,0-0.34-0.13-0.36c-0.22-0.06-0.44-0.06-0.66,0
		c-1,0.39-1.45,2.34-0.92,4.49c0.59,2.4,2.08,4.11,3.27,3.79c0.22-0.07,0.42-0.19,0.58-0.36c0.03-0.08,0.01-0.18-0.06-0.24
		C244.87,193.5,244.09,192.32,243.8,190.98z"/>
	<path class="st2" d="M263.44,172.01c0.46-0.59,1.01-1.1,1.63-1.52c3.15-2.27,7.53-1.56,9.8,1.59c2.27,3.15,1.56,7.53-1.59,9.8
		c-0.57,0.43-1.19,0.76-1.86,1c-0.11,0.04-0.23-0.01-0.27-0.12c-0.02-0.06-0.02-0.13,0.01-0.18v-0.1c-0.64,0.26-1.31,0.43-2,0.5
		c-0.1,0.02-0.2-0.05-0.22-0.15c-0.01-0.07,0.01-0.13,0.06-0.18c1.79-1.86,2.34-4.59,1.41-7l0,0c-0.33-0.81-0.9-1.51-1.63-2
		c-1.47-0.98-3.25-1.38-5-1.1c-0.19,0.03-0.37-0.11-0.39-0.3C263.37,172.17,263.39,172.08,263.44,172.01z"/>
	<path class="st3" d="M271.24,175.41c-0.49-1.29-1.45-2.35-2.7-2.94c-0.12,0-0.21-0.28-0.13-0.37c0.17-0.19,0.39-0.33,0.63-0.42
		c1.21-0.42,2.87,0.8,3.81,2.8c1.06,2.24,0.83,4.57-0.47,5.13c-0.24,0.1-0.5,0.15-0.76,0.12c-0.08,0-0.14-0.14-0.11-0.22
		C271.99,178.16,271.89,176.68,271.24,175.41z"/>
	<path class="st2" d="M305.17,125.48c-0.73,0.15-1.49,0.19-2.23,0.1c-3.87-0.31-6.74-3.7-6.43-7.57c0.31-3.87,3.7-6.74,7.57-6.43
		c0.71,0.03,1.41,0.17,2.08,0.42c0.11,0.04,0.16,0.17,0.12,0.27c-0.02,0.05-0.06,0.1-0.12,0.12h-0.11c0.67,0.22,1.31,0.54,1.89,0.94
		c0.09,0.07,0.1,0.21,0.03,0.3c-0.03,0.04-0.08,0.07-0.13,0.07c-2.57,0.25-4.76,1.97-5.61,4.41l0,0c-0.28,0.84-0.3,1.74-0.06,2.59
		c0.48,1.7,1.58,3.15,3.09,4.07c0.2,0.02,0.33,0.2,0.31,0.4S305.37,125.5,305.17,125.48z"/>
	<path class="st3" d="M301.47,117.83c-0.47,1.3-0.42,2.74,0.15,4c0.06,0.14,0,0.3-0.14,0.36c-0.25,0.04-0.51,0-0.75-0.09
		c-1.19-0.46-1.67-2.47-1.09-4.6c0.65-2.39,2.34-4,3.69-3.6c0.25,0.07,0.48,0.21,0.66,0.4c0.05,0,0,0.2-0.06,0.23
		C302.69,115.25,301.8,116.44,301.47,117.83z"/>
	<path class="st2" d="M252.17,172.97c0.62-2.5,2.57-4.45,5.06-5.09c0.18-0.05,0.29-0.23,0.24-0.42c-0.02-0.09-0.09-0.17-0.17-0.21
		c-0.62-0.34-1.3-0.59-2-0.72c-3.78-0.86-7.54,1.5-8.4,5.29c-0.86,3.78,1.5,7.54,5.29,8.4c0.69,0.17,1.4,0.24,2.11,0.2
		c0.12-0.01,0.2-0.11,0.19-0.22c0-0.06-0.03-0.11-0.07-0.15C252.37,178.31,251.5,175.56,252.17,172.97z"/>
	<path class="st2" d="M339.06,239.56c-2.04-1.56-3.06-4.11-2.66-6.65c0.02-0.19-0.11-0.37-0.31-0.39c-0.09-0.01-0.18,0.01-0.25,0.07
		c-0.56,0.43-1.04,0.95-1.44,1.53c-2.29,3.13-1.6,7.52,1.53,9.81c3.13,2.29,7.52,1.6,9.81-1.53l0,0c0.43-0.56,0.77-1.19,1-1.86
		c0.04-0.11-0.02-0.23-0.13-0.27c-0.05-0.02-0.11-0.02-0.16,0.01C344.05,241.47,341.18,241.19,339.06,239.56z"/>
	<path class="st2" d="M371.27,262.22c-2.57-0.17-5.02,1.08-6.39,3.25c-0.1,0.16-0.31,0.2-0.47,0.1c-0.08-0.05-0.13-0.13-0.15-0.22
		c-0.6-3.82,2-7.4,5.82-8.01c3.82-0.6,7.4,2,8.01,5.82c0.07,0.44,0.1,0.88,0.08,1.33c-0.05,0.71-0.2,1.41-0.46,2.07
		c-0.05,0.11-0.18,0.16-0.29,0.11c-0.05-0.02-0.09-0.06-0.11-0.11C376.3,264.07,373.95,262.39,371.27,262.22z"/>
	<path class="st2" d="M262.62,193.62c-0.04-2.57-1.48-4.92-3.76-6.11c-0.17-0.09-0.23-0.29-0.14-0.46c0.04-0.08,0.12-0.15,0.21-0.17
		c0.68-0.19,1.38-0.27,2.09-0.25c3.87,0.03,6.98,3.19,6.94,7.05c-0.03,3.87-3.19,6.98-7.05,6.95c-0.71,0.01-1.42-0.08-2.1-0.28
		c-0.11-0.05-0.16-0.18-0.11-0.29c0.02-0.05,0.06-0.09,0.11-0.11C261.18,198.74,262.66,196.28,262.62,193.62z"/>
	<path class="st2" d="M255.07,210.85c-2.4-0.92-5.11-0.45-7.06,1.22c-0.14,0.12-0.36,0.11-0.48-0.03c-0.07-0.08-0.1-0.18-0.08-0.28
		c0.08-0.69,0.26-1.36,0.54-2c1.47-3.59,5.58-5.31,9.16-3.83c3.59,1.47,5.31,5.58,3.84,9.16c-0.24,0.66-0.58,1.28-1,1.84
		c-0.07,0.09-0.2,0.12-0.29,0.05c-0.05-0.04-0.08-0.09-0.09-0.16C259.38,214.12,257.61,211.79,255.07,210.85z"/>
</g>
<g id="Sickle_Cells-4">
	<path class="st2" d="M272.23,200.11c0-2.57-1.4-4.93-3.66-6.16c-0.17-0.1-0.22-0.31-0.12-0.48c0.05-0.08,0.12-0.14,0.21-0.16
		c0.68-0.18,1.39-0.25,2.09-0.21c3.87,0.09,6.93,3.3,6.83,7.17c-0.09,3.87-3.3,6.93-7.17,6.83c-0.71,0-1.42-0.11-2.1-0.32
		c-0.11-0.05-0.16-0.18-0.11-0.29c0.02-0.05,0.06-0.09,0.11-0.11C270.71,205.2,272.23,202.77,272.23,200.11z"/>
	<path class="st3" d="M272.99,200.11c0.07-1.35-0.33-2.69-1.13-3.78c-0.08-0.09-0.07-0.34,0-0.38c0.19-0.11,0.42-0.16,0.64-0.14
		c1.12,0.1,2,1.89,2.07,4.1c0.06,2.47-0.93,4.51-2.17,4.51c-0.23,0-0.46-0.07-0.65-0.2c-0.05-0.07-0.05-0.17,0-0.24
		C272.63,202.89,273.08,201.51,272.99,200.11z"/>
	<path class="st2" d="M249.07,186.9c-3.16-2.23-7.52-1.49-9.76,1.67c-2.23,3.16-1.49,7.52,1.67,9.76c0.37,0.26,0.76,0.49,1.18,0.67
		c0.66,0.27,1.35,0.45,2.06,0.51c0.12,0.01,0.22-0.07,0.23-0.18c0.01-0.07-0.02-0.13-0.06-0.18l-0.07-0.08
		c0.7,0.08,1.41,0.06,2.11-0.05c0.11-0.02,0.18-0.13,0.16-0.24c-0.01-0.06-0.05-0.11-0.1-0.13c-2.22-1.32-3.46-3.81-3.19-6.38l0,0
		c0.1-0.88,0.47-1.7,1.05-2.36c1.16-1.33,2.78-2.18,4.53-2.37c0.19,0,0.35-0.16,0.34-0.36C249.22,187.07,249.16,186.96,249.07,186.9
		z"/>
	<path class="st3" d="M242.43,192.22c0.13-1.37,0.79-2.64,1.84-3.54c0.1-0.11,0.1-0.28,0-0.39c-0.21-0.14-0.46-0.23-0.72-0.24
		c-1.28-0.09-2.56,1.52-2.95,3.7c-0.43,2.43,0.4,4.62,1.8,4.83c0.26,0.04,0.52,0,0.77-0.09c0.07,0,0.1-0.18,0-0.24
		C242.38,195.06,242.11,193.61,242.43,192.22z"/>
	<path class="st2" d="M197.54,84.11c-0.61-0.44-1.29-0.77-2-1c-3.63-1.36-7.68,0.47-9.04,4.1s0.47,7.68,4.1,9.04
		c0.66,0.27,1.35,0.44,2.06,0.51c0.12,0.01,0.22-0.09,0.23-0.21c0-0.05-0.02-0.11-0.05-0.15l-0.07-0.09c0.7,0.1,1.4,0.1,2.1,0
		c0.11-0.02,0.18-0.12,0.17-0.23c-0.01-0.06-0.04-0.11-0.1-0.14c-2.22-1.32-3.47-3.82-3.19-6.39l0,0c0.11-0.9,0.48-1.75,1.08-2.44
		c1.16-1.33,2.77-2.17,4.52-2.36c0.19,0,0.35-0.16,0.34-0.36C197.69,84.28,197.63,84.17,197.54,84.11z"/>
	<path class="st3" d="M190.89,89.44c0.13-1.38,0.79-2.65,1.84-3.55c0.11-0.07,0.13-0.32,0-0.38c-0.21-0.14-0.46-0.23-0.71-0.25
		c-1.28-0.08-2.57,1.53-2.95,3.7c-0.43,2.44,0.4,4.63,1.8,4.83c0.26,0.04,0.52,0.01,0.76-0.08c0.07-0.06,0.09-0.16,0.05-0.24
		C190.87,92.29,190.58,90.83,190.89,89.44z"/>
	<path class="st2" d="M470.46,163.8c-0.69,0.29-1.33,0.69-1.9,1.18c-3.01,2.44-3.47,6.87-1.02,9.88c2.44,3.01,6.87,3.47,9.88,1.02
		c0.57-0.43,1.07-0.95,1.48-1.53c0.06-0.1,0.03-0.24-0.08-0.3c-0.04-0.03-0.09-0.04-0.14-0.03h-0.11c0.42-0.56,0.75-1.18,1-1.84
		c0.03-0.11-0.02-0.22-0.13-0.25c-0.05-0.02-0.1-0.01-0.15,0.01c-2.26,1.25-5.05,1.06-7.13-0.47l0,0c-0.7-0.54-1.23-1.27-1.51-2.11
		c-0.55-1.67-0.47-3.49,0.25-5.1c0.07-0.18-0.02-0.38-0.2-0.45C470.62,163.78,470.54,163.78,470.46,163.8z"/>
	<path class="st3" d="M471.7,172.22c-1.13-0.81-1.89-2.02-2.14-3.38c0-0.13-0.21-0.27-0.32-0.22c-0.23,0.12-0.43,0.29-0.57,0.5
		c-0.72,1,0,3,1.71,4.41c1.88,1.6,4.19,2,5.07,0.89c0.17-0.21,0.28-0.45,0.32-0.71c0-0.07-0.11-0.17-0.18-0.16
		C474.17,173.66,472.76,173.18,471.7,172.22z"/>
	<path class="st2" d="M260.17,184.88c-1.26-2.24-3.64-3.62-6.21-3.58c-0.19,0.01-0.34-0.14-0.35-0.33c0-0.1,0.04-0.19,0.11-0.26
		c0.51-0.49,1.09-0.9,1.72-1.22c3.42-1.82,7.68-0.52,9.5,2.9c1.82,3.42,0.52,7.68-2.91,9.49c-0.62,0.35-1.3,0.61-2,0.75
		c-0.11,0.03-0.23-0.04-0.26-0.15c-0.02-0.06,0-0.13,0.04-0.18C261.34,190.11,261.48,187.22,260.17,184.88z"/>
	<path class="st2" d="M255.52,207.54c-0.64-2.48,0.12-5.12,2-6.87c0.14-0.14,0.14-0.36,0.01-0.49c-0.06-0.07-0.15-0.1-0.25-0.11
		c-0.7,0-1.41,0.11-2.08,0.31c-3.74,1.04-5.92,4.91-4.88,8.65c1.04,3.74,4.91,5.92,8.65,4.88c0.7-0.17,1.38-0.45,2-0.83
		c0.1-0.06,0.14-0.19,0.08-0.29c-0.03-0.06-0.09-0.09-0.15-0.1C258.27,212.15,256.18,210.15,255.52,207.54z"/>
	<path class="st2" d="M267.3,222.2c2.08-1.52,4.82-1.78,7.14-0.67c0.17,0.08,0.37,0.01,0.45-0.16c0.04-0.09,0.04-0.19,0.01-0.28
		c-1.4-3.6-5.46-5.38-9.07-3.98c-0.46,0.18-0.91,0.41-1.32,0.69c-3.24,2.11-4.15,6.45-2.04,9.69c0.07,0.11,0.14,0.21,0.22,0.31
		c0.42,0.57,0.93,1.08,1.5,1.5c0.09,0.07,0.23,0.05,0.29-0.05c0.03-0.05,0.05-0.11,0.04-0.16
		C264.05,226.45,265.13,223.77,267.3,222.2z"/>
</g>
<g id="Sickle_Cells-5">
	<path class="st2" d="M278.17,212.11c0-2.58,1.4-4.94,3.67-6.17c0.16-0.09,0.22-0.3,0.13-0.46c-0.05-0.09-0.13-0.15-0.22-0.17
		c-0.68-0.18-1.39-0.25-2.09-0.22c-3.85,0.3-6.74,3.67-6.43,7.52s3.67,6.74,7.52,6.43c0.45-0.04,0.9-0.11,1.34-0.24
		c0.11-0.04,0.16-0.17,0.12-0.27c-0.02-0.05-0.06-0.1-0.12-0.12C279.68,217.24,278.16,214.79,278.17,212.11z"/>
	<path class="st3" d="M277.39,212.11c-0.08-1.35,0.32-2.69,1.13-3.78c0.08-0.09,0.07-0.34,0-0.39c-0.2-0.11-0.42-0.15-0.64-0.13
		c-1.12,0.1-2,1.88-2.07,4.09c-0.06,2.47,0.93,4.51,2.17,4.51c0.23-0.01,0.45-0.07,0.65-0.19c0.05-0.07,0.05-0.17,0-0.24
		C277.75,214.89,277.31,213.51,277.39,212.11z"/>
	<path class="st2" d="M301.31,198.96c3.16-2.23,7.52-1.49,9.76,1.67c2.23,3.16,1.49,7.52-1.67,9.76c-0.37,0.26-0.76,0.49-1.18,0.67
		c-0.66,0.27-1.35,0.44-2.06,0.5c-0.12,0.01-0.22-0.07-0.23-0.18c-0.01-0.06,0.01-0.12,0.05-0.17l0.08-0.09
		c-0.7,0.11-1.41,0.11-2.11,0c-0.11-0.02-0.18-0.12-0.17-0.23c0.01-0.06,0.04-0.11,0.1-0.14c2.23-1.31,3.47-3.81,3.19-6.38l0,0
		c-0.1-0.88-0.47-1.7-1.05-2.37c-1.16-1.33-2.78-2.17-4.53-2.37c-0.18,0.05-0.38-0.06-0.42-0.24
		C301.02,199.2,301.12,199.01,301.31,198.96z"/>
	<path class="st3" d="M307.95,204.28c-0.13-1.38-0.79-2.65-1.84-3.55c-0.11-0.08-0.13-0.33,0-0.39c0.22-0.14,0.46-0.22,0.72-0.24
		c1.27-0.09,2.56,1.53,3,3.7c0.43,2.44-0.4,4.62-1.8,4.83c-0.26,0.04-0.52,0.01-0.77-0.08c-0.07-0.07-0.07-0.17,0-0.24
		C308.03,207.12,308.28,205.66,307.95,204.28z"/>
	<path class="st2" d="M290.17,196.94c1.25-2.25,3.64-3.63,6.22-3.59c0.19,0,0.34-0.15,0.34-0.34c0-0.09-0.04-0.19-0.11-0.25
		c-0.5-0.49-1.08-0.9-1.71-1.21c-3.42-1.82-7.68-0.52-9.5,2.9c-1.82,3.42-0.52,7.68,2.9,9.5c0.63,0.35,1.3,0.6,2,0.75
		c0.11,0.03,0.23-0.04,0.26-0.15c0.02-0.06,0-0.13-0.04-0.18C289,202.17,288.86,199.28,290.17,196.94z"/>
	<path class="st2" d="M294.86,219.6c0.65-2.49-0.12-5.13-2-6.88c-0.14-0.13-0.15-0.34-0.02-0.48c0.07-0.07,0.16-0.11,0.26-0.11
		c0.7-0.01,1.41,0.09,2.08,0.3c3.74,1.04,5.92,4.92,4.88,8.65s-4.92,5.92-8.65,4.88l0,0c-0.69-0.17-1.35-0.45-1.95-0.83
		c-0.1-0.06-0.14-0.19-0.08-0.29c0.03-0.06,0.09-0.09,0.15-0.1C292.14,224.19,294.21,222.19,294.86,219.6z"/>
	<path class="st2" d="M283.08,234.26c-2.07-1.52-4.82-1.78-7.14-0.68c-0.17,0.08-0.37,0.01-0.45-0.16
		c-0.04-0.09-0.04-0.19-0.01-0.28c1.53-3.55,5.66-5.18,9.2-3.65s5.18,5.66,3.65,9.2c-0.18,0.41-0.39,0.8-0.64,1.16
		c-0.42,0.58-0.93,1.09-1.5,1.51c-0.09,0.07-0.23,0.05-0.29-0.05c-0.03-0.05-0.05-0.11-0.04-0.16
		C286.33,238.52,285.25,235.84,283.08,234.26z"/>
	<path class="st2" d="M140.97,91.44c-2.07-1.52-4.82-1.78-7.14-0.68c-0.18,0.08-0.38,0-0.46-0.18c-0.04-0.08-0.04-0.18-0.01-0.26
		c0.27-0.65,0.62-1.27,1.06-1.82c2.36-3.08,6.77-3.67,9.85-1.31c3.08,2.36,3.67,6.77,1.31,9.85c-0.42,0.57-0.93,1.08-1.5,1.51
		c-0.09,0.07-0.23,0.05-0.29-0.05c-0.03-0.05-0.05-0.11-0.04-0.16C144.22,95.7,143.14,93.02,140.97,91.44z"/>
</g>
<g id="Sickle_Cells-6">
	<path class="st2" d="M311.61,210c2.57-0.01,4.94,1.4,6.17,3.66c0.09,0.16,0.3,0.22,0.46,0.13c0.09-0.05,0.15-0.13,0.17-0.22
		c0.18-0.68,0.25-1.39,0.22-2.09c-0.09-3.88-3.31-6.95-7.19-6.86s-6.95,3.31-6.86,7.19l0,0c0,0.71,0.11,1.42,0.32,2.1
		c0.05,0.11,0.18,0.16,0.29,0.11c0.05-0.02,0.09-0.06,0.11-0.11C306.48,211.51,308.93,209.99,311.61,210z"/>
	<path class="st3" d="M311.61,209.24c1.35-0.08,2.69,0.32,3.78,1.13c0.09,0.08,0.34,0.07,0.39,0c0.1-0.2,0.15-0.42,0.13-0.64
		c-0.1-1.12-1.89-2-4.09-2.07c-2.48-0.06-4.52,0.93-4.52,2.17c0,0.23,0.07,0.46,0.2,0.65c0.07,0.06,0.17,0.06,0.24,0
		C308.83,209.6,310.21,209.16,311.61,209.24z"/>
	<path class="st2" d="M324.78,233.16c0.44,0.61,0.78,1.28,1,2c1.37,3.62-0.46,7.66-4.08,9.02c-3.62,1.37-7.66-0.46-9.02-4.07
		c-0.27-0.66-0.44-1.35-0.5-2.06c-0.01-0.12,0.08-0.22,0.2-0.22c0.06,0,0.11,0.02,0.15,0.05l0.09,0.07
		c-0.09-0.7-0.07-1.41,0.05-2.11c0.02-0.11,0.13-0.18,0.24-0.15c0.05,0.01,0.09,0.04,0.12,0.08c1.32,2.23,3.82,3.47,6.39,3.19l0,0
		c0.88-0.11,1.7-0.47,2.37-1.05c1.32-1.16,2.17-2.78,2.36-4.53c-0.01-0.19,0.15-0.35,0.34-0.36
		C324.6,233.02,324.71,233.07,324.78,233.16z"/>
	<path class="st3" d="M319.46,239.8c1.38-0.13,2.65-0.79,3.55-1.84c0.11-0.11,0.28-0.11,0.39,0c0.13,0.22,0.22,0.46,0.24,0.72
		c0.08,1.28-1.53,2.56-3.7,3c-2.44,0.43-4.63-0.4-4.83-1.8c-0.04-0.26-0.01-0.52,0.08-0.77c0.07-0.07,0.17-0.07,0.24,0
		C316.62,239.88,318.08,240.13,319.46,239.8z"/>
	<path class="st2" d="M326.8,222.04c2.24,1.26,3.62,3.65,3.59,6.22c0,0.19,0.15,0.34,0.34,0.34c0.09,0,0.19-0.04,0.25-0.11
		c0.49-0.5,0.9-1.08,1.21-1.71c1.82-3.42,0.52-7.68-2.9-9.49s-7.68-0.52-9.49,2.9c-0.35,0.62-0.61,1.3-0.75,2
		c-0.03,0.11,0.04,0.23,0.15,0.26c0.06,0.02,0.13,0,0.18-0.04C321.57,220.87,324.46,220.73,326.8,222.04z"/>
	<path class="st2" d="M304.17,226.71c2.49,0.65,5.13-0.12,6.88-2c0.13-0.14,0.34-0.15,0.48-0.02c0.07,0.07,0.11,0.16,0.11,0.26
		c0,0.7-0.1,1.41-0.3,2.08c-1.04,3.74-4.92,5.92-8.65,4.88s-5.92-4.92-4.88-8.65l0,0c0.17-0.7,0.45-1.38,0.82-2
		c0.06-0.1,0.19-0.14,0.29-0.08c0.06,0.03,0.09,0.09,0.1,0.15C299.56,223.96,301.56,226.05,304.17,226.71z"/>
	<path class="st2" d="M289.48,214.93c1.52-2.08,1.78-4.82,0.67-7.14c-0.08-0.17-0.01-0.37,0.16-0.45c0.09-0.04,0.19-0.04,0.28-0.01
		c3.6,1.4,5.38,5.46,3.98,9.07c-0.18,0.46-0.41,0.91-0.69,1.32c-2.11,3.24-6.45,4.15-9.69,2.04c-0.11-0.07-0.21-0.14-0.31-0.22
		c-0.58-0.42-1.09-0.92-1.51-1.5c-0.07-0.09-0.05-0.23,0.05-0.29c0.05-0.03,0.11-0.05,0.16-0.04
		C285.22,218.18,287.9,217.1,289.48,214.93z"/>
</g>
<g id="Sickle_Cells-7">
	<path class="st2" d="M258.61,215.75c0,2.57,1.41,4.94,3.67,6.16c0.17,0.1,0.22,0.31,0.12,0.48c-0.05,0.08-0.12,0.14-0.21,0.16
		c-0.68,0.18-1.39,0.25-2.09,0.22c-3.87-0.09-6.93-3.3-6.84-7.17c0.09-3.87,3.3-6.93,7.16-6.83c0.71,0,1.41,0.11,2.09,0.32
		c0.11,0.05,0.16,0.18,0.11,0.29c-0.02,0.05-0.06,0.09-0.11,0.11C260.13,210.66,258.62,213.09,258.61,215.75z"/>
	<path class="st3" d="M257.85,215.75c-0.07,1.35,0.33,2.69,1.14,3.78c0.09,0.12,0.09,0.27,0,0.39c-0.2,0.1-0.43,0.15-0.65,0.13
		c-1.11-0.1-2-1.89-2.07-4.09c0-2.48,0.94-4.52,2.17-4.52c0.23,0,0.46,0.07,0.65,0.2c0.06,0.07,0.06,0.17,0,0.24
		C258.21,212.97,257.77,214.35,257.85,215.75z"/>
	<path class="st2" d="M281.78,228.92c3.16,2.23,7.52,1.49,9.76-1.67c2.23-3.16,1.49-7.52-1.67-9.76c-0.37-0.26-0.76-0.49-1.18-0.67
		c-0.66-0.27-1.35-0.44-2.06-0.51c-0.12-0.01-0.22,0.09-0.23,0.21c0,0.05,0.02,0.11,0.05,0.15l0.08,0.09c-0.7-0.1-1.41-0.1-2.11,0
		c-0.11,0.02-0.18,0.12-0.17,0.23c0.01,0.06,0.04,0.11,0.1,0.14c2.23,1.32,3.47,3.82,3.19,6.39l0,0c-0.11,0.87-0.48,1.7-1.05,2.37
		c-1.16,1.32-2.78,2.16-4.53,2.36c-0.19-0.02-0.37,0.11-0.39,0.3C281.55,228.71,281.63,228.86,281.78,228.92z"/>
	<path class="st3" d="M288.42,223.6c-0.13,1.38-0.79,2.65-1.84,3.55c-0.11,0.07-0.13,0.32,0,0.38c0.21,0.14,0.46,0.23,0.71,0.25
		c1.28,0.08,2.57-1.53,2.95-3.7c0.43-2.44-0.39-4.63-1.8-4.84c-0.26-0.03-0.52,0-0.76,0.09c-0.06,0.07-0.06,0.17,0,0.24
		C288.47,220.75,288.74,222.21,288.42,223.6z"/>
	<path class="st2" d="M270.66,230.94c1.26,2.25,3.65,3.62,6.22,3.58c0.19,0.01,0.34,0.17,0.34,0.36c0,0.09-0.04,0.17-0.11,0.24
		c-0.51,0.48-1.08,0.89-1.71,1.21c-3.42,1.82-7.68,0.52-9.5-2.9s-0.52-7.68,2.9-9.5c0.62-0.35,1.3-0.61,2-0.75
		c0.11-0.03,0.23,0.04,0.26,0.15c0.02,0.06,0,0.13-0.04,0.18C269.49,225.71,269.35,228.6,270.66,230.94z"/>
	<path class="st2" d="M275.33,208.28c0.65,2.49-0.12,5.13-2,6.88c-0.14,0.13-0.15,0.34-0.02,0.48c0.07,0.07,0.16,0.11,0.26,0.11
		c0.71,0,1.41-0.1,2.08-0.31c3.66-1.24,5.63-5.21,4.39-8.87c-1.24-3.66-5.21-5.63-8.87-4.39c-0.43,0.15-0.85,0.34-1.25,0.56
		c-0.1,0.06-0.14,0.19-0.08,0.29c0.03,0.06,0.09,0.09,0.15,0.1C272.61,203.68,274.68,205.68,275.33,208.28z"/>
	<path class="st2" d="M263.55,193.62c-2.08,1.52-4.82,1.78-7.14,0.67c-0.18-0.08-0.38,0-0.46,0.18c-0.04,0.08-0.04,0.18-0.01,0.26
		c0.27,0.65,0.62,1.27,1.06,1.82c2.36,3.08,6.77,3.67,9.86,1.32c3.08-2.36,3.67-6.77,1.31-9.86l0,0c-0.42-0.57-0.92-1.08-1.49-1.5
		c-0.09-0.08-0.22-0.06-0.3,0.02c-0.04,0.05-0.06,0.12-0.04,0.19C266.81,189.36,265.73,192.05,263.55,193.62z"/>
</g>
<path class="st2" d="M253.53,179l4.32-5.26c0.93-1.13,2.6-1.3,3.73-0.37l0.01,0.01c1.13,0.93,1.3,2.6,0.37,3.73l-4.32,5.26
	c-0.93,1.13-2.6,1.3-3.73,0.37l-0.01-0.01C252.76,181.8,252.6,180.13,253.53,179z"/>
<ellipse transform="matrix(0.6345 -0.773 0.773 0.6345 -43.1566 263.2508)" class="st3" cx="256.75" cy="177.25" rx="3.61" ry="0.6"/>
<path class="st2" d="M350.94,246.69L350.94,246.69c0.16-1.46,1.47-2.52,2.92-2.36l6.77,0.74c1.45,0.16,2.51,1.47,2.35,2.92l0,0.01
	c-0.16,1.45-1.47,2.51-2.92,2.35l-6.77-0.74C351.83,249.45,350.78,248.15,350.94,246.69z"/>
<ellipse transform="matrix(0.1083 -0.9941 0.9941 0.1083 73.7758 574.414)" class="st3" cx="357.1" cy="246.08" rx="0.6" ry="3.61"/>
<ellipse transform="matrix(0.9395 -0.3425 0.3425 0.9395 -44.6737 87.798)" class="st2" cx="226.25" cy="170.38" rx="6.38" ry="4.06"/>
<ellipse transform="matrix(0.9395 -0.3425 0.3425 0.9395 -44.3676 87.6501)" class="st3" cx="225.98" cy="169.44" rx="3.11" ry="1.39"/>
<ellipse transform="matrix(0.6665 -0.7455 0.7455 0.6665 -17.4682 205.3254)" class="st2" cx="220.77" cy="122.19" rx="4.06" ry="6.38"/>
<ellipse transform="matrix(0.6665 -0.7455 0.7455 0.6665 -16.7258 205.6215)" class="st3" cx="221.47" cy="121.51" rx="1.39" ry="3.11"/>
<ellipse transform="matrix(0.9977 -0.0675 0.0675 0.9977 -8.7262 27.7463)" class="st2" cx="406.27" cy="143.02" rx="6.38" ry="4.06"/>
<ellipse transform="matrix(0.9977 -0.0675 0.0675 0.9977 -8.659 27.7436)" class="st3" cx="406.26" cy="142.02" rx="3.11" ry="1.39"/>
<ellipse transform="matrix(0.9395 -0.3425 0.3425 0.9395 -21.7657 59.4247)" class="st2" cx="157.37" cy="91.34" rx="6.38" ry="4.06"/>
<ellipse transform="matrix(0.9395 -0.3425 0.3425 0.9395 -21.4583 59.2721)" class="st3" cx="157.09" cy="90.39" rx="3.11" ry="1.39"/>
<ellipse transform="matrix(0.5512 -0.8344 0.8344 0.5512 -51.1389 367.0695)" class="st2" cx="315.65" cy="231.07" rx="4.06" ry="6.38"/>
<ellipse transform="matrix(0.5512 -0.8344 0.8344 0.5512 -50.2127 367.0935)" class="st3" cx="316.13" cy="230.22" rx="1.39" ry="3.11"/>
<path class="st4" d="M82.1,71.94l98.07,53.63c10.39,7.36,17.49,18.48,19.78,31c1.32,7.17,2.42,14.24,4.3,18.67
	c8.28,19.52,26.27,43.86,123,90.32c6.46,19.07,22,32.52,40.26,32.52c24,0,43.44-23.33,43.44-52.12l0,0c0,0-69.32-29.66-104.4-53.49
	c-23.38-15.88-34.93-39.93-29.62-46.47c11.24-13.89,44.69-0.14,81.13,6.11c23.26,4,69.22,24.45,90.76,34.06l42.1,18.79
	c5.51,17.26,19.41,29.53,35.73,29.53c21.15,0,38.3-20.57,38.3-45.94l-0.08-0.18l0,0c0,0-110.81-70.85-188.42-76.07
	s-79.79-8.71-107.89-18.32C237.05,83.2,165.77,47,165.77,47"/>
<g id="Sickle_Cells-8">
	<path class="st2" d="M327.56,244.11c-2.06,1.54-4.8,1.82-7.13,0.74c-0.18-0.07-0.38,0.01-0.46,0.19c-0.03,0.08-0.04,0.18,0,0.26
		c0.27,0.65,0.63,1.26,1.08,1.81c2.39,3.05,6.8,3.59,9.85,1.21s3.59-6.8,1.21-9.85l0,0c-0.42-0.57-0.93-1.08-1.51-1.49
		c-0.09-0.07-0.23-0.05-0.29,0.05c-0.03,0.05-0.05,0.11-0.04,0.16C330.77,239.82,329.72,242.51,327.56,244.11z"/>
	<path class="st3" d="M328.02,244.69c-1.04,0.87-2.35,1.34-3.71,1.34c-0.13,0-0.32,0.15-0.3,0.26c0.03,0.22,0.13,0.43,0.28,0.6
		c0.75,0.83,2.72,0.49,4.52-0.79c2-1.43,3.06-3.45,2.32-4.44c-0.14-0.18-0.33-0.32-0.54-0.4c-0.09,0-0.17,0.05-0.2,0.14
		C330.03,242.75,329.19,243.92,328.02,244.69z"/>
	<path class="st2" d="M303.17,233.37c-3.67-1.23-5.64-5.19-4.42-8.86c1.23-3.67,5.19-5.64,8.86-4.42c0.39,0.13,0.77,0.3,1.14,0.5
		c0.61,0.37,1.16,0.83,1.63,1.36c0.08,0.09,0.07,0.22-0.02,0.3c-0.04,0.04-0.1,0.06-0.15,0.05h-0.12c0.49,0.51,0.9,1.09,1.22,1.72
		c0.05,0.1,0,0.22-0.1,0.26c-0.05,0.02-0.1,0.02-0.15,0.01c-2.38-0.97-5.11-0.48-7,1.26l0,0c-0.64,0.61-1.08,1.4-1.27,2.26
		c-0.36,1.71-0.07,3.49,0.81,5c0.15,0.12,0.18,0.34,0.07,0.5C303.55,233.46,303.32,233.49,303.17,233.37z"/>
	<path class="st3" d="M303.46,224.86c-1.03,0.93-1.65,2.22-1.74,3.6c0,0.13-0.19,0.29-0.3,0.25c-0.24-0.09-0.45-0.24-0.62-0.43
		c-0.83-1-0.31-3,1.21-4.57c1.69-1.8,3.94-2.44,4.95-1.45c0.18,0.19,0.31,0.42,0.39,0.67c0,0.07-0.09,0.18-0.17,0.18
		C305.75,223.16,304.41,223.79,303.46,224.86z"/>
	<path class="st2" d="M308.17,243.49c-2.55,0.33-5.07-0.76-6.58-2.84c-0.11-0.16-0.32-0.2-0.47-0.09c-0.08,0.06-0.14,0.15-0.15,0.25
		c-0.09,0.7-0.08,1.41,0.05,2.1c0.59,3.84,4.17,6.47,8.01,5.89c3.84-0.59,6.47-4.17,5.88-8.01c-0.1-0.69-0.3-1.37-0.59-2
		c-0.05-0.11-0.18-0.16-0.29-0.11c-0.05,0.02-0.09,0.06-0.11,0.11C313.06,241.33,310.83,243.15,308.17,243.49z"/>
	<path class="st2" d="M323.57,226.21c-2.38,0.98-4.04,3.18-4.31,5.74c-0.02,0.19-0.19,0.32-0.38,0.29
		c-0.09-0.01-0.17-0.06-0.23-0.13c-0.42-0.57-0.76-1.19-1-1.85c-1.19-3.68,0.83-7.62,4.51-8.81c3.68-1.19,7.62,0.83,8.81,4.51
		c0.14,0.42,0.23,0.86,0.29,1.3c0.01,0.12-0.07,0.22-0.18,0.23c-0.07,0.01-0.13-0.02-0.18-0.06
		C328.89,225.65,326.05,225.18,323.57,226.21z"/>
	<path class="st2" d="M342.36,226.9c0.02,2.57,1.45,4.93,3.73,6.13c0.17,0.09,0.23,0.29,0.14,0.46c-0.05,0.09-0.13,0.15-0.22,0.17
		c-0.68,0.19-1.39,0.27-2.09,0.24c-3.87-0.05-6.96-3.23-6.91-7.1c0.05-3.87,3.23-6.96,7.1-6.9c0.71-0.01,1.42,0.09,2.1,0.3
		c0.11,0.04,0.16,0.17,0.12,0.27c-0.02,0.05-0.06,0.1-0.12,0.12C343.83,221.79,342.34,224.24,342.36,226.9z"/>
</g>
<path class="st0" d="M342.17,289.4l67.71-43.43c0,0-65.44-11.56-100.51-35.39c-23.38-15.88-34.93-39.93-29.62-46.46
	c11.3-13.91,44.74-0.15,81.19,6.13c23.25,4,69.21,24.44,90.76,34.06l52.58,23.47l59.63-39.2c0,0-107-52.95-184.59-58.16
	s-79.78-8.71-107.88-18.31c-31.52-10.78-102-48.57-102-48.57l0,0c-10.11,9.8-17.93,18.33-31.87,20.46c-10,1.53-26,0.51-32.08-1
	l-24.32-9.14l3.26,10.8c1.01,4.65,4.01,8.62,8.21,10.86l90.38,48.16c10.38,7.36,17.48,18.48,19.78,31
	c1.31,7.17,2.42,14.23,4.3,18.67c8.61,20.3,27.72,45.82,135,96"/>
<path class="st1" d="M563.51,188.11l0.54-0.18c0,0-110.81-70.82-188.42-76.07s-79.79-8.75-107.89-18.33
	C236.22,82.75,165.77,47,165.77,47l-9.42,15.78c-8.35,14-24,22.25-40.21,20.47c-6-0.66-11.66-2-16.87-2.91l-17-6.9l97.05,51.67
	c10.38,7.36,17.48,18.48,19.78,31c1.31,7.17,2.42,14.23,4.3,18.67c8.28,19.51,26.27,43.85,123,90.31
	c6.46,19.07,22,32.53,40.26,32.53c24,0,43.44-23.34,43.44-52.12h-1.08l0.7-0.26c0,0-68.95-29.41-104-53.23
	c-23.43-15.9-34.98-39.9-29.67-46.45c11.3-13.91,44.74-0.15,81.19,6.13c23.26,4,69.21,24.44,90.76,34.06l42.1,18.79
	c5.51,17.25,19.41,29.52,35.73,29.52c21.15,0.05,38.34-20.57,38.34-45.95H563.51z"/>
<g id="Sickle_Cells-9">
	<path class="st2" d="M298.92,205.52c2.34,1.06,3.92,3.32,4.1,5.88c0.01,0.19,0.17,0.33,0.36,0.32c0.1,0,0.19-0.05,0.25-0.13
		c2.34-3.07,1.75-7.47-1.32-9.81c-3.07-2.34-7.47-1.75-9.81,1.32c-0.28,0.36-0.51,0.75-0.72,1.16c-0.3,0.63-0.49,1.31-0.58,2
		c-0.01,0.12,0.09,0.23,0.21,0.23c0.05,0,0.1-0.01,0.14-0.04C293.63,204.75,296.49,204.39,298.92,205.52z"/>
	<path class="st3" d="M299.24,204.83c1.27,0.49,2.33,1.4,3,2.59c0.07,0.12,0.22,0.18,0.36,0.14c0.18-0.13,0.32-0.32,0.39-0.53
		c0.37-1.06-0.88-2.62-2.87-3.58c-2.22-1.08-4.49-1-5,0.1c-0.1,0.21-0.13,0.44-0.09,0.67c0,0.07,0.14,0.14,0.21,0.11
		C296.59,204,298.01,204.18,299.24,204.83z"/>
	<path class="st2" d="M301.31,232.11c0.86,3.77-1.5,7.52-5.27,8.38c-0.46,0.1-0.93,0.16-1.41,0.17c-3.86,0.11-7.08-2.94-7.19-6.8
		c0-0.16,0-0.31,0-0.47c0.02-0.71,0.15-1.42,0.39-2.09c0.05-0.11,0.18-0.16,0.29-0.11c0.05,0.02,0.09,0.06,0.11,0.11
		c0.01,0.03,0.03,0.07,0.05,0.1c0.21-0.67,0.52-1.31,0.91-1.9c0.06-0.09,0.19-0.11,0.28-0.04c0.04,0.03,0.07,0.08,0.08,0.13
		c0.29,2.57,2.04,4.73,4.49,5.55l0,0c0.84,0.26,1.75,0.26,2.59,0c1.68-0.52,3.11-1.64,4-3.15c0.03-0.19,0.21-0.31,0.4-0.28
		C301.22,231.74,301.34,231.92,301.31,232.11z"/>
	<path class="st3" d="M293.72,235.9c1.31,0.45,2.74,0.38,4-0.21c0.14-0.06,0.31,0,0.37,0.14c0.03,0.25,0.01,0.51-0.08,0.75
		c-0.45,1.2-2.45,1.7-4.59,1.15c-2.39-0.62-4-2.28-3.65-3.64c0.07-0.25,0.21-0.48,0.39-0.66c0.08-0.05,0.19-0.02,0.24,0.06
		C291.13,234.71,292.33,235.58,293.72,235.9z"/>
	<path class="st2" d="M307.76,222.78c1.52,2.07,1.79,4.81,0.69,7.14c-0.08,0.17-0.01,0.37,0.16,0.45c0.09,0.04,0.19,0.04,0.28,0.01
		c0.65-0.27,1.26-0.62,1.81-1.06c3.08-2.36,3.66-6.76,1.3-9.83c-2.36-3.08-6.76-3.66-9.84-1.31c-0.58,0.42-1.09,0.93-1.51,1.5
		c-0.07,0.09-0.05,0.23,0.05,0.29c0.05,0.03,0.11,0.05,0.16,0.04C303.51,219.54,306.18,220.61,307.76,222.78z"/>
	<path class="st2" d="M285.17,217.64c2,1.61,4.73,2,7.1,1c0.17-0.07,0.37,0.01,0.45,0.18c0.04,0.09,0.04,0.19-0.01,0.28
		c-0.29,0.64-0.68,1.24-1.14,1.77c-2.49,2.97-6.91,3.36-9.88,0.88s-3.36-6.91-0.88-9.88c0.45-0.55,0.97-1.04,1.56-1.44
		c0.1-0.06,0.24-0.03,0.3,0.07c0.03,0.05,0.04,0.1,0.03,0.16C282.13,213.27,283.09,215.97,285.17,217.64z"/>
	<path class="st2" d="M276.74,200.84c2.24-1.26,3.61-3.65,3.57-6.22c-0.01-0.19,0.14-0.34,0.33-0.35c0.1,0,0.19,0.04,0.26,0.11
		c0.51,0.51,0.94,1.09,1.27,1.73c1.83,3.42,0.53,7.67-2.89,9.5s-7.67,0.53-9.5-2.89c-0.35-0.62-0.61-1.3-0.75-2
		c-0.02-0.11,0.05-0.23,0.16-0.25c0.05-0.01,0.11,0,0.16,0.03C271.55,202.01,274.41,202.14,276.74,200.84z"/>
</g>
<g id="Sickle_Cells-10">
	<path class="st2" d="M304.65,242.36c0,2.57,1.41,4.94,3.67,6.16c0.17,0.1,0.22,0.31,0.12,0.48c-0.05,0.08-0.12,0.14-0.21,0.16
		c-0.68,0.18-1.39,0.25-2.09,0.21c-3.87-0.09-6.93-3.3-6.84-7.17c0.09-3.87,3.3-6.93,7.17-6.83l0,0c0.71,0,1.41,0.11,2.09,0.32
		c0.11,0.05,0.16,0.18,0.11,0.29c-0.02,0.05-0.06,0.09-0.11,0.11C306.17,237.27,304.65,239.7,304.65,242.36z"/>
	<path class="st3" d="M303.89,242.36c-0.07,1.35,0.33,2.69,1.14,3.78c0.08,0.09,0.06,0.34,0,0.38c-0.2,0.11-0.42,0.16-0.65,0.14
		c-1.11-0.1-2-1.89-2.07-4.1c-0.05-2.47,0.94-4.51,2.17-4.51c0.23,0,0.46,0.07,0.65,0.2c0.06,0.07,0.06,0.17,0,0.24
		C304.25,239.58,303.81,240.96,303.89,242.36z"/>
	<path class="st2" d="M327.82,255.53c3.16,2.23,7.52,1.49,9.76-1.67c2.23-3.16,1.49-7.52-1.67-9.76c-0.37-0.26-0.76-0.49-1.18-0.67
		c-0.66-0.27-1.35-0.45-2.06-0.51c-0.12-0.01-0.22,0.09-0.23,0.21c0,0.05,0.02,0.11,0.05,0.15l0.08,0.08
		c-0.7-0.08-1.41-0.06-2.11,0.05c-0.11,0.02-0.18,0.12-0.17,0.23c0.01,0.06,0.04,0.11,0.1,0.14c2.22,1.32,3.47,3.81,3.19,6.38l0,0
		c-0.1,0.87-0.44,1.69-1,2.36c-1.16,1.33-2.78,2.17-4.53,2.37c-0.19-0.02-0.36,0.12-0.39,0.31
		C327.65,255.33,327.71,255.46,327.82,255.53z"/>
	<path class="st3" d="M334.46,250.21c-0.13,1.37-0.79,2.64-1.84,3.54c-0.11,0.08-0.13,0.33,0,0.39c0.21,0.14,0.46,0.22,0.71,0.24
		c1.28,0.09,2.57-1.52,3-3.7c0.43-2.43-0.39-4.62-1.8-4.83c-0.26-0.03-0.52,0-0.76,0.09c-0.07,0-0.1,0.18-0.05,0.24
		C334.51,247.36,334.78,248.82,334.46,250.21z"/>
	<path class="st2" d="M316.7,257.55c1.26,2.25,3.65,3.62,6.22,3.58c0.19,0,0.34,0.15,0.34,0.34c0,0.09-0.04,0.19-0.11,0.25
		c-2.86,2.6-7.28,2.4-9.89-0.46c-2.6-2.86-2.4-7.28,0.46-9.89c0.34-0.31,0.72-0.59,1.12-0.83c0.62-0.35,1.3-0.61,2-0.75
		c0.11-0.03,0.23,0.04,0.26,0.15c0.02,0.06,0,0.13-0.04,0.18C315.53,252.32,315.39,255.21,316.7,257.55z"/>
	<path class="st2" d="M321.37,234.89c0.64,2.48-0.12,5.12-2,6.87c-0.14,0.14-0.14,0.36-0.01,0.49c0.06,0.07,0.15,0.1,0.25,0.11
		c0.7,0,1.41-0.11,2.08-0.31c3.66-1.24,5.63-5.21,4.39-8.87c-1.24-3.66-5.21-5.63-8.87-4.39c-0.43,0.15-0.85,0.34-1.25,0.56
		c-0.1,0.06-0.14,0.19-0.08,0.29c0.03,0.06,0.09,0.09,0.15,0.1C318.65,230.29,320.72,232.29,321.37,234.89z"/>
	<path class="st2" d="M309.59,220.23c-2.08,1.52-4.82,1.78-7.14,0.67c-0.18-0.08-0.38,0-0.46,0.18c-0.04,0.08-0.04,0.18-0.01,0.26
		c0.27,0.65,0.62,1.27,1.06,1.82c2.36,3.07,6.76,3.65,9.84,1.29s3.65-6.76,1.29-9.84c-0.42-0.57-0.92-1.08-1.49-1.5
		c-0.09-0.08-0.22-0.06-0.3,0.02c-0.04,0.05-0.06,0.12-0.04,0.19C312.82,215.97,311.75,218.65,309.59,220.23z"/>
</g>
<g id="Sickle_Cells-11">
	<path class="st2" d="M244.53,190.78c-0.68-2.48,0.06-5.13,1.92-6.91c0.13-0.14,0.13-0.36-0.01-0.49c-0.06-0.06-0.15-0.09-0.24-0.1
		c-0.7,0.01-1.4,0.13-2.07,0.34c-3.72,1.1-5.84,5.02-4.74,8.74s5.02,5.84,8.74,4.74l0,0c0.69-0.19,1.35-0.48,1.95-0.86
		c0.1-0.07,0.12-0.21,0.04-0.31c-0.03-0.04-0.07-0.07-0.12-0.08C247.36,195.34,245.23,193.38,244.53,190.78z"/>
	<path class="st3" d="M243.8,190.98c-0.44-1.3-0.41-2.72,0.1-4c0.06-0.11,0-0.34-0.13-0.36c-0.22-0.06-0.44-0.06-0.66,0
		c-1,0.39-1.45,2.34-0.92,4.49c0.59,2.4,2.08,4.11,3.27,3.79c0.22-0.07,0.42-0.19,0.58-0.36c0.03-0.08,0.01-0.18-0.06-0.24
		C244.87,193.5,244.09,192.32,243.8,190.98z"/>
	<path class="st2" d="M263.44,172.01c0.46-0.59,1.01-1.1,1.63-1.52c3.15-2.27,7.53-1.56,9.8,1.59c2.27,3.15,1.56,7.53-1.59,9.8
		c-0.57,0.43-1.19,0.76-1.86,1c-0.11,0.04-0.23-0.01-0.27-0.12c-0.02-0.06-0.02-0.13,0.01-0.18v-0.1c-0.64,0.26-1.31,0.43-2,0.5
		c-0.1,0.02-0.2-0.05-0.22-0.15c-0.01-0.07,0.01-0.13,0.06-0.18c1.79-1.86,2.34-4.59,1.41-7l0,0c-0.33-0.81-0.9-1.51-1.63-2
		c-1.47-0.98-3.25-1.38-5-1.1c-0.19,0.03-0.37-0.11-0.39-0.3C263.37,172.17,263.39,172.08,263.44,172.01z"/>
	<path class="st3" d="M271.24,175.41c-0.49-1.29-1.45-2.35-2.7-2.94c-0.12,0-0.21-0.28-0.13-0.37c0.17-0.19,0.39-0.33,0.63-0.42
		c1.21-0.42,2.87,0.8,3.81,2.8c1.06,2.24,0.83,4.57-0.47,5.13c-0.24,0.1-0.5,0.15-0.76,0.12c-0.08,0-0.14-0.14-0.11-0.22
		C271.99,178.16,271.89,176.68,271.24,175.41z"/>
	<path class="st2" d="M305.17,125.48c-0.73,0.15-1.49,0.19-2.23,0.1c-3.87-0.31-6.74-3.7-6.43-7.57c0.31-3.87,3.7-6.74,7.57-6.43
		c0.71,0.03,1.41,0.17,2.08,0.42c0.11,0.04,0.16,0.17,0.12,0.27c-0.02,0.05-0.06,0.1-0.12,0.12h-0.11c0.67,0.22,1.31,0.54,1.89,0.94
		c0.09,0.07,0.1,0.21,0.03,0.3c-0.03,0.04-0.08,0.07-0.13,0.07c-2.57,0.25-4.76,1.97-5.61,4.41l0,0c-0.28,0.84-0.3,1.74-0.06,2.59
		c0.48,1.7,1.58,3.15,3.09,4.07c0.2,0.02,0.33,0.2,0.31,0.4S305.37,125.5,305.17,125.48z"/>
	<path class="st3" d="M301.47,117.83c-0.47,1.3-0.42,2.74,0.15,4c0.06,0.14,0,0.3-0.14,0.36c-0.25,0.04-0.51,0-0.75-0.09
		c-1.19-0.46-1.67-2.47-1.09-4.6c0.65-2.39,2.34-4,3.69-3.6c0.25,0.07,0.48,0.21,0.66,0.4c0.05,0,0,0.2-0.06,0.23
		C302.69,115.25,301.8,116.44,301.47,117.83z"/>
	<path class="st2" d="M252.17,172.97c0.62-2.5,2.57-4.45,5.06-5.09c0.18-0.05,0.29-0.23,0.24-0.42c-0.02-0.09-0.09-0.17-0.17-0.21
		c-0.62-0.34-1.3-0.59-2-0.72c-3.78-0.86-7.54,1.5-8.4,5.29c-0.86,3.78,1.5,7.54,5.29,8.4c0.69,0.17,1.4,0.24,2.11,0.2
		c0.12-0.01,0.2-0.11,0.19-0.22c0-0.06-0.03-0.11-0.07-0.15C252.37,178.31,251.5,175.56,252.17,172.97z"/>
	<path class="st2" d="M339.06,239.56c-2.04-1.56-3.06-4.11-2.66-6.65c0.02-0.19-0.11-0.37-0.31-0.39c-0.09-0.01-0.18,0.01-0.25,0.07
		c-0.56,0.43-1.04,0.95-1.44,1.53c-2.29,3.13-1.6,7.52,1.53,9.81c3.13,2.29,7.52,1.6,9.81-1.53l0,0c0.43-0.56,0.77-1.19,1-1.86
		c0.04-0.11-0.02-0.23-0.13-0.27c-0.05-0.02-0.11-0.02-0.16,0.01C344.05,241.47,341.18,241.19,339.06,239.56z"/>
	<path class="st2" d="M371.27,262.22c-2.57-0.17-5.02,1.08-6.39,3.25c-0.1,0.16-0.31,0.2-0.47,0.1c-0.08-0.05-0.13-0.13-0.15-0.22
		c-0.6-3.82,2-7.4,5.82-8.01c3.82-0.6,7.4,2,8.01,5.82c0.07,0.44,0.1,0.88,0.08,1.33c-0.05,0.71-0.2,1.41-0.46,2.07
		c-0.05,0.11-0.18,0.16-0.29,0.11c-0.05-0.02-0.09-0.06-0.11-0.11C376.3,264.07,373.95,262.39,371.27,262.22z"/>
	<path class="st2" d="M262.62,193.62c-0.04-2.57-1.48-4.92-3.76-6.11c-0.17-0.09-0.23-0.29-0.14-0.46c0.04-0.08,0.12-0.15,0.21-0.17
		c0.68-0.19,1.38-0.27,2.09-0.25c3.87,0.03,6.98,3.19,6.94,7.05c-0.03,3.87-3.19,6.98-7.05,6.95c-0.71,0.01-1.42-0.08-2.1-0.28
		c-0.11-0.05-0.16-0.18-0.11-0.29c0.02-0.05,0.06-0.09,0.11-0.11C261.18,198.74,262.66,196.28,262.62,193.62z"/>
	<path class="st2" d="M255.07,210.85c-2.4-0.92-5.11-0.45-7.06,1.22c-0.14,0.12-0.36,0.11-0.48-0.03c-0.07-0.08-0.1-0.18-0.08-0.28
		c0.08-0.69,0.26-1.36,0.54-2c1.47-3.59,5.58-5.31,9.16-3.83c3.59,1.47,5.31,5.58,3.84,9.16c-0.24,0.66-0.58,1.28-1,1.84
		c-0.07,0.09-0.2,0.12-0.29,0.05c-0.05-0.04-0.08-0.09-0.09-0.16C259.38,214.12,257.61,211.79,255.07,210.85z"/>
</g>
<g id="Sickle_Cells-12">
	<path class="st2" d="M272.23,200.11c0-2.57-1.4-4.93-3.66-6.16c-0.17-0.1-0.22-0.31-0.12-0.48c0.05-0.08,0.12-0.14,0.21-0.16
		c0.68-0.18,1.39-0.25,2.09-0.21c3.87,0.09,6.93,3.3,6.83,7.17c-0.09,3.87-3.3,6.93-7.17,6.83c-0.71,0-1.42-0.11-2.1-0.32
		c-0.11-0.05-0.16-0.18-0.11-0.29c0.02-0.05,0.06-0.09,0.11-0.11C270.71,205.2,272.23,202.77,272.23,200.11z"/>
	<path class="st3" d="M272.99,200.11c0.07-1.35-0.33-2.69-1.13-3.78c-0.08-0.09-0.07-0.34,0-0.38c0.19-0.11,0.42-0.16,0.64-0.14
		c1.12,0.1,2,1.89,2.07,4.1c0.06,2.47-0.93,4.51-2.17,4.51c-0.23,0-0.46-0.07-0.65-0.2c-0.05-0.07-0.05-0.17,0-0.24
		C272.63,202.89,273.08,201.51,272.99,200.11z"/>
	<path class="st2" d="M249.07,186.9c-3.16-2.23-7.52-1.49-9.76,1.67c-2.23,3.16-1.49,7.52,1.67,9.76c0.37,0.26,0.76,0.49,1.18,0.67
		c0.66,0.27,1.35,0.45,2.06,0.51c0.12,0.01,0.22-0.07,0.23-0.18c0.01-0.07-0.02-0.13-0.06-0.18l-0.07-0.08
		c0.7,0.08,1.41,0.06,2.11-0.05c0.11-0.02,0.18-0.13,0.16-0.24c-0.01-0.06-0.05-0.11-0.1-0.13c-2.22-1.32-3.46-3.81-3.19-6.38l0,0
		c0.1-0.88,0.47-1.7,1.05-2.36c1.16-1.33,2.78-2.18,4.53-2.37c0.19,0,0.35-0.16,0.34-0.36C249.22,187.07,249.16,186.96,249.07,186.9
		z"/>
	<path class="st3" d="M242.43,192.22c0.13-1.37,0.79-2.64,1.84-3.54c0.1-0.11,0.1-0.28,0-0.39c-0.21-0.14-0.46-0.23-0.72-0.24
		c-1.28-0.09-2.56,1.52-2.95,3.7c-0.43,2.43,0.4,4.62,1.8,4.83c0.26,0.04,0.52,0,0.77-0.09c0.07,0,0.1-0.18,0-0.24
		C242.38,195.06,242.11,193.61,242.43,192.22z"/>
	<path class="st2" d="M197.54,84.11c-0.61-0.44-1.29-0.77-2-1c-3.63-1.36-7.68,0.47-9.04,4.1s0.47,7.68,4.1,9.04
		c0.66,0.27,1.35,0.44,2.06,0.51c0.12,0.01,0.22-0.09,0.23-0.21c0-0.05-0.02-0.11-0.05-0.15l-0.07-0.09c0.7,0.1,1.4,0.1,2.1,0
		c0.11-0.02,0.18-0.12,0.17-0.23c-0.01-0.06-0.04-0.11-0.1-0.14c-2.22-1.32-3.47-3.82-3.19-6.39l0,0c0.11-0.9,0.48-1.75,1.08-2.44
		c1.16-1.33,2.77-2.17,4.52-2.36c0.19,0,0.35-0.16,0.34-0.36C197.69,84.28,197.63,84.17,197.54,84.11z"/>
	<path class="st3" d="M190.89,89.44c0.13-1.38,0.79-2.65,1.84-3.55c0.11-0.07,0.13-0.32,0-0.38c-0.21-0.14-0.46-0.23-0.71-0.25
		c-1.28-0.08-2.57,1.53-2.95,3.7c-0.43,2.44,0.4,4.63,1.8,4.83c0.26,0.04,0.52,0.01,0.76-0.08c0.07-0.06,0.09-0.16,0.05-0.24
		C190.87,92.29,190.58,90.83,190.89,89.44z"/>
	<path class="st2" d="M470.46,163.8c-0.69,0.29-1.33,0.69-1.9,1.18c-3.01,2.44-3.47,6.87-1.02,9.88c2.44,3.01,6.87,3.47,9.88,1.02
		c0.57-0.43,1.07-0.95,1.48-1.53c0.06-0.1,0.03-0.24-0.08-0.3c-0.04-0.03-0.09-0.04-0.14-0.03h-0.11c0.42-0.56,0.75-1.18,1-1.84
		c0.03-0.11-0.02-0.22-0.13-0.25c-0.05-0.02-0.1-0.01-0.15,0.01c-2.26,1.25-5.05,1.06-7.13-0.47l0,0c-0.7-0.54-1.23-1.27-1.51-2.11
		c-0.55-1.67-0.47-3.49,0.25-5.1c0.07-0.18-0.02-0.38-0.2-0.45C470.62,163.78,470.54,163.78,470.46,163.8z"/>
	<path class="st3" d="M471.7,172.22c-1.13-0.81-1.89-2.02-2.14-3.38c0-0.13-0.21-0.27-0.32-0.22c-0.23,0.12-0.43,0.29-0.57,0.5
		c-0.72,1,0,3,1.71,4.41c1.88,1.6,4.19,2,5.07,0.89c0.17-0.21,0.28-0.45,0.32-0.71c0-0.07-0.11-0.17-0.18-0.16
		C474.17,173.66,472.76,173.18,471.7,172.22z"/>
	<path class="st2" d="M260.17,184.88c-1.26-2.24-3.64-3.62-6.21-3.58c-0.19,0.01-0.34-0.14-0.35-0.33c0-0.1,0.04-0.19,0.11-0.26
		c0.51-0.49,1.09-0.9,1.72-1.22c3.42-1.82,7.68-0.52,9.5,2.9c1.82,3.42,0.52,7.68-2.91,9.49c-0.62,0.35-1.3,0.61-2,0.75
		c-0.11,0.03-0.23-0.04-0.26-0.15c-0.02-0.06,0-0.13,0.04-0.18C261.34,190.11,261.48,187.22,260.17,184.88z"/>
	<path class="st2" d="M255.52,207.54c-0.64-2.48,0.12-5.12,2-6.87c0.14-0.14,0.14-0.36,0.01-0.49c-0.06-0.07-0.15-0.1-0.25-0.11
		c-0.7,0-1.41,0.11-2.08,0.31c-3.74,1.04-5.92,4.91-4.88,8.65c1.04,3.74,4.91,5.92,8.65,4.88c0.7-0.17,1.38-0.45,2-0.83
		c0.1-0.06,0.14-0.19,0.08-0.29c-0.03-0.06-0.09-0.09-0.15-0.1C258.27,212.15,256.18,210.15,255.52,207.54z"/>
	<path class="st2" d="M267.3,222.2c2.08-1.52,4.82-1.78,7.14-0.67c0.17,0.08,0.37,0.01,0.45-0.16c0.04-0.09,0.04-0.19,0.01-0.28
		c-1.4-3.6-5.46-5.38-9.07-3.98c-0.46,0.18-0.91,0.41-1.32,0.69c-3.24,2.11-4.15,6.45-2.04,9.69c0.07,0.11,0.14,0.21,0.22,0.31
		c0.42,0.57,0.93,1.08,1.5,1.5c0.09,0.07,0.23,0.05,0.29-0.05c0.03-0.05,0.05-0.11,0.04-0.16
		C264.05,226.45,265.13,223.77,267.3,222.2z"/>
</g>
<g id="Sickle_Cells-13">
	<path class="st2" d="M278.17,212.11c0-2.58,1.4-4.94,3.67-6.17c0.16-0.09,0.22-0.3,0.13-0.46c-0.05-0.09-0.13-0.15-0.22-0.17
		c-0.68-0.18-1.39-0.25-2.09-0.22c-3.85,0.3-6.74,3.67-6.43,7.52s3.67,6.74,7.52,6.43c0.45-0.04,0.9-0.11,1.34-0.24
		c0.11-0.04,0.16-0.17,0.12-0.27c-0.02-0.05-0.06-0.1-0.12-0.12C279.68,217.24,278.16,214.79,278.17,212.11z"/>
	<path class="st3" d="M277.39,212.11c-0.08-1.35,0.32-2.69,1.13-3.78c0.08-0.09,0.07-0.34,0-0.39c-0.2-0.11-0.42-0.15-0.64-0.13
		c-1.12,0.1-2,1.88-2.07,4.09c-0.06,2.47,0.93,4.51,2.17,4.51c0.23-0.01,0.45-0.07,0.65-0.19c0.05-0.07,0.05-0.17,0-0.24
		C277.75,214.89,277.31,213.51,277.39,212.11z"/>
	<path class="st2" d="M301.31,198.96c3.16-2.23,7.52-1.49,9.76,1.67c2.23,3.16,1.49,7.52-1.67,9.76c-0.37,0.26-0.76,0.49-1.18,0.67
		c-0.66,0.27-1.35,0.44-2.06,0.5c-0.12,0.01-0.22-0.07-0.23-0.18c-0.01-0.06,0.01-0.12,0.05-0.17l0.08-0.09
		c-0.7,0.11-1.41,0.11-2.11,0c-0.11-0.02-0.18-0.12-0.17-0.23c0.01-0.06,0.04-0.11,0.1-0.14c2.23-1.31,3.47-3.81,3.19-6.38l0,0
		c-0.1-0.88-0.47-1.7-1.05-2.37c-1.16-1.33-2.78-2.17-4.53-2.37c-0.18,0.05-0.38-0.06-0.42-0.24
		C301.02,199.2,301.12,199.01,301.31,198.96z"/>
	<path class="st3" d="M307.95,204.28c-0.13-1.38-0.79-2.65-1.84-3.55c-0.11-0.08-0.13-0.33,0-0.39c0.22-0.14,0.46-0.22,0.72-0.24
		c1.27-0.09,2.56,1.53,3,3.7c0.43,2.44-0.4,4.62-1.8,4.83c-0.26,0.04-0.52,0.01-0.77-0.08c-0.07-0.07-0.07-0.17,0-0.24
		C308.03,207.12,308.28,205.66,307.95,204.28z"/>
	<path class="st2" d="M290.17,196.94c1.25-2.25,3.64-3.63,6.22-3.59c0.19,0,0.34-0.15,0.34-0.34c0-0.09-0.04-0.19-0.11-0.25
		c-0.5-0.49-1.08-0.9-1.71-1.21c-3.42-1.82-7.68-0.52-9.5,2.9c-1.82,3.42-0.52,7.68,2.9,9.5c0.63,0.35,1.3,0.6,2,0.75
		c0.11,0.03,0.23-0.04,0.26-0.15c0.02-0.06,0-0.13-0.04-0.18C289,202.17,288.86,199.28,290.17,196.94z"/>
	<path class="st2" d="M294.86,219.6c0.65-2.49-0.12-5.13-2-6.88c-0.14-0.13-0.15-0.34-0.02-0.48c0.07-0.07,0.16-0.11,0.26-0.11
		c0.7-0.01,1.41,0.09,2.08,0.3c3.74,1.04,5.92,4.92,4.88,8.65s-4.92,5.92-8.65,4.88l0,0c-0.69-0.17-1.35-0.45-1.95-0.83
		c-0.1-0.06-0.14-0.19-0.08-0.29c0.03-0.06,0.09-0.09,0.15-0.1C292.14,224.19,294.21,222.19,294.86,219.6z"/>
	<path class="st2" d="M283.08,234.26c-2.07-1.52-4.82-1.78-7.14-0.68c-0.17,0.08-0.37,0.01-0.45-0.16
		c-0.04-0.09-0.04-0.19-0.01-0.28c1.53-3.55,5.66-5.18,9.2-3.65s5.18,5.66,3.65,9.2c-0.18,0.41-0.39,0.8-0.64,1.16
		c-0.42,0.58-0.93,1.09-1.5,1.51c-0.09,0.07-0.23,0.05-0.29-0.05c-0.03-0.05-0.05-0.11-0.04-0.16
		C286.33,238.52,285.25,235.84,283.08,234.26z"/>
	<path class="st2" d="M140.97,91.44c-2.07-1.52-4.82-1.78-7.14-0.68c-0.18,0.08-0.38,0-0.46-0.18c-0.04-0.08-0.04-0.18-0.01-0.26
		c0.27-0.65,0.62-1.27,1.06-1.82c2.36-3.08,6.77-3.67,9.85-1.31c3.08,2.36,3.67,6.77,1.31,9.85c-0.42,0.57-0.93,1.08-1.5,1.51
		c-0.09,0.07-0.23,0.05-0.29-0.05c-0.03-0.05-0.05-0.11-0.04-0.16C144.22,95.7,143.14,93.02,140.97,91.44z"/>
</g>
<g id="Sickle_Cells-14">
	<path class="st2" d="M311.61,210c2.57-0.01,4.94,1.4,6.17,3.66c0.09,0.16,0.3,0.22,0.46,0.13c0.09-0.05,0.15-0.13,0.17-0.22
		c0.18-0.68,0.25-1.39,0.22-2.09c-0.09-3.88-3.31-6.95-7.19-6.86s-6.95,3.31-6.86,7.19l0,0c0,0.71,0.11,1.42,0.32,2.1
		c0.05,0.11,0.18,0.16,0.29,0.11c0.05-0.02,0.09-0.06,0.11-0.11C306.48,211.51,308.93,209.99,311.61,210z"/>
	<path class="st3" d="M311.61,209.24c1.35-0.08,2.69,0.32,3.78,1.13c0.09,0.08,0.34,0.07,0.39,0c0.1-0.2,0.15-0.42,0.13-0.64
		c-0.1-1.12-1.89-2-4.09-2.07c-2.48-0.06-4.52,0.93-4.52,2.17c0,0.23,0.07,0.46,0.2,0.65c0.07,0.06,0.17,0.06,0.24,0
		C308.83,209.6,310.21,209.16,311.61,209.24z"/>
	<path class="st2" d="M324.78,233.16c0.44,0.61,0.78,1.28,1,2c1.37,3.62-0.46,7.66-4.08,9.02c-3.62,1.37-7.66-0.46-9.02-4.07
		c-0.27-0.66-0.44-1.35-0.5-2.06c-0.01-0.12,0.08-0.22,0.2-0.22c0.06,0,0.11,0.02,0.15,0.05l0.09,0.07
		c-0.09-0.7-0.07-1.41,0.05-2.11c0.02-0.11,0.13-0.18,0.24-0.15c0.05,0.01,0.09,0.04,0.12,0.08c1.32,2.23,3.82,3.47,6.39,3.19l0,0
		c0.88-0.11,1.7-0.47,2.37-1.05c1.32-1.16,2.17-2.78,2.36-4.53c-0.01-0.19,0.15-0.35,0.34-0.36
		C324.6,233.02,324.71,233.07,324.78,233.16z"/>
	<path class="st3" d="M319.46,239.8c1.38-0.13,2.65-0.79,3.55-1.84c0.11-0.11,0.28-0.11,0.39,0c0.13,0.22,0.22,0.46,0.24,0.72
		c0.08,1.28-1.53,2.56-3.7,3c-2.44,0.43-4.63-0.4-4.83-1.8c-0.04-0.26-0.01-0.52,0.08-0.77c0.07-0.07,0.17-0.07,0.24,0
		C316.62,239.88,318.08,240.13,319.46,239.8z"/>
	<path class="st2" d="M326.8,222.04c2.24,1.26,3.62,3.65,3.59,6.22c0,0.19,0.15,0.34,0.34,0.34c0.09,0,0.19-0.04,0.25-0.11
		c0.49-0.5,0.9-1.08,1.21-1.71c1.82-3.42,0.52-7.68-2.9-9.49s-7.68-0.52-9.49,2.9c-0.35,0.62-0.61,1.3-0.75,2
		c-0.03,0.11,0.04,0.23,0.15,0.26c0.06,0.02,0.13,0,0.18-0.04C321.57,220.87,324.46,220.73,326.8,222.04z"/>
	<path class="st2" d="M304.17,226.71c2.49,0.65,5.13-0.12,6.88-2c0.13-0.14,0.34-0.15,0.48-0.02c0.07,0.07,0.11,0.16,0.11,0.26
		c0,0.7-0.1,1.41-0.3,2.08c-1.04,3.74-4.92,5.92-8.65,4.88s-5.92-4.92-4.88-8.65l0,0c0.17-0.7,0.45-1.38,0.82-2
		c0.06-0.1,0.19-0.14,0.29-0.08c0.06,0.03,0.09,0.09,0.1,0.15C299.56,223.96,301.56,226.05,304.17,226.71z"/>
	<path class="st2" d="M289.48,214.93c1.52-2.08,1.78-4.82,0.67-7.14c-0.08-0.17-0.01-0.37,0.16-0.45c0.09-0.04,0.19-0.04,0.28-0.01
		c3.6,1.4,5.38,5.46,3.98,9.07c-0.18,0.46-0.41,0.91-0.69,1.32c-2.11,3.24-6.45,4.15-9.69,2.04c-0.11-0.07-0.21-0.14-0.31-0.22
		c-0.58-0.42-1.09-0.92-1.51-1.5c-0.07-0.09-0.05-0.23,0.05-0.29c0.05-0.03,0.11-0.05,0.16-0.04
		C285.22,218.18,287.9,217.1,289.48,214.93z"/>
</g>
<g id="Sickle_Cells-15">
	<path class="st2" d="M258.61,215.75c0,2.57,1.41,4.94,3.67,6.16c0.17,0.1,0.22,0.31,0.12,0.48c-0.05,0.08-0.12,0.14-0.21,0.16
		c-0.68,0.18-1.39,0.25-2.09,0.22c-3.87-0.09-6.93-3.3-6.84-7.17c0.09-3.87,3.3-6.93,7.16-6.83c0.71,0,1.41,0.11,2.09,0.32
		c0.11,0.05,0.16,0.18,0.11,0.29c-0.02,0.05-0.06,0.09-0.11,0.11C260.13,210.66,258.62,213.09,258.61,215.75z"/>
	<path class="st3" d="M257.85,215.75c-0.07,1.35,0.33,2.69,1.14,3.78c0.09,0.12,0.09,0.27,0,0.39c-0.2,0.1-0.43,0.15-0.65,0.13
		c-1.11-0.1-2-1.89-2.07-4.09c0-2.48,0.94-4.52,2.17-4.52c0.23,0,0.46,0.07,0.65,0.2c0.06,0.07,0.06,0.17,0,0.24
		C258.21,212.97,257.77,214.35,257.85,215.75z"/>
	<path class="st2" d="M281.78,228.92c3.16,2.23,7.52,1.49,9.76-1.67c2.23-3.16,1.49-7.52-1.67-9.76c-0.37-0.26-0.76-0.49-1.18-0.67
		c-0.66-0.27-1.35-0.44-2.06-0.51c-0.12-0.01-0.22,0.09-0.23,0.21c0,0.05,0.02,0.11,0.05,0.15l0.08,0.09c-0.7-0.1-1.41-0.1-2.11,0
		c-0.11,0.02-0.18,0.12-0.17,0.23c0.01,0.06,0.04,0.11,0.1,0.14c2.23,1.32,3.47,3.82,3.19,6.39l0,0c-0.11,0.87-0.48,1.7-1.05,2.37
		c-1.16,1.32-2.78,2.16-4.53,2.36c-0.19-0.02-0.37,0.11-0.39,0.3C281.55,228.71,281.63,228.86,281.78,228.92z"/>
	<path class="st3" d="M288.42,223.6c-0.13,1.38-0.79,2.65-1.84,3.55c-0.11,0.07-0.13,0.32,0,0.38c0.21,0.14,0.46,0.23,0.71,0.25
		c1.28,0.08,2.57-1.53,2.95-3.7c0.43-2.44-0.39-4.63-1.8-4.84c-0.26-0.03-0.52,0-0.76,0.09c-0.06,0.07-0.06,0.17,0,0.24
		C288.47,220.75,288.74,222.21,288.42,223.6z"/>
	<path class="st2" d="M270.66,230.94c1.26,2.25,3.65,3.62,6.22,3.58c0.19,0.01,0.34,0.17,0.34,0.36c0,0.09-0.04,0.17-0.11,0.24
		c-0.51,0.48-1.08,0.89-1.71,1.21c-3.42,1.82-7.68,0.52-9.5-2.9s-0.52-7.68,2.9-9.5c0.62-0.35,1.3-0.61,2-0.75
		c0.11-0.03,0.23,0.04,0.26,0.15c0.02,0.06,0,0.13-0.04,0.18C269.49,225.71,269.35,228.6,270.66,230.94z"/>
	<path class="st2" d="M275.33,208.28c0.65,2.49-0.12,5.13-2,6.88c-0.14,0.13-0.15,0.34-0.02,0.48c0.07,0.07,0.16,0.11,0.26,0.11
		c0.71,0,1.41-0.1,2.08-0.31c3.66-1.24,5.63-5.21,4.39-8.87c-1.24-3.66-5.21-5.63-8.87-4.39c-0.43,0.15-0.85,0.34-1.25,0.56
		c-0.1,0.06-0.14,0.19-0.08,0.29c0.03,0.06,0.09,0.09,0.15,0.1C272.61,203.68,274.68,205.68,275.33,208.28z"/>
	<path class="st2" d="M263.55,193.62c-2.08,1.52-4.82,1.78-7.14,0.67c-0.18-0.08-0.38,0-0.46,0.18c-0.04,0.08-0.04,0.18-0.01,0.26
		c0.27,0.65,0.62,1.27,1.06,1.82c2.36,3.08,6.77,3.67,9.86,1.32c3.08-2.36,3.67-6.77,1.31-9.86l0,0c-0.42-0.57-0.92-1.08-1.49-1.5
		c-0.09-0.08-0.22-0.06-0.3,0.02c-0.04,0.05-0.06,0.12-0.04,0.19C266.81,189.36,265.73,192.05,263.55,193.62z"/>
</g>
<path class="st2" d="M253.9,182.73L253.9,182.73c-1.14-0.93-1.3-2.6-0.37-3.74l4.32-5.26c0.93-1.13,2.6-1.3,3.73-0.37l0.01,0.01
	c1.13,0.93,1.3,2.6,0.37,3.73l-4.32,5.26C256.7,183.5,255.03,183.66,253.9,182.73z"/>
<ellipse transform="matrix(0.6345 -0.773 0.773 0.6345 -43.1566 263.2508)" class="st3" cx="256.75" cy="177.25" rx="3.61" ry="0.6"/>
<path class="st2" d="M350.94,246.69L350.94,246.69c0.16-1.46,1.47-2.52,2.92-2.36l6.77,0.74c1.45,0.16,2.51,1.47,2.35,2.92l0,0.01
	c-0.16,1.45-1.47,2.51-2.92,2.35l-6.77-0.74C351.83,249.45,350.78,248.15,350.94,246.69z"/>
<ellipse transform="matrix(0.1083 -0.9941 0.9941 0.1083 73.7758 574.414)" class="st3" cx="357.1" cy="246.08" rx="0.6" ry="3.61"/>
<ellipse transform="matrix(0.9395 -0.3425 0.3425 0.9395 -44.6737 87.798)" class="st2" cx="226.25" cy="170.38" rx="6.38" ry="4.06"/>
<ellipse transform="matrix(0.9395 -0.3425 0.3425 0.9395 -44.3676 87.6501)" class="st3" cx="225.98" cy="169.44" rx="3.11" ry="1.39"/>
<ellipse transform="matrix(0.6665 -0.7455 0.7455 0.6665 -17.4682 205.3254)" class="st2" cx="220.77" cy="122.19" rx="4.06" ry="6.38"/>
<ellipse transform="matrix(0.6665 -0.7455 0.7455 0.6665 -16.7258 205.6215)" class="st3" cx="221.47" cy="121.51" rx="1.39" ry="3.11"/>
<ellipse transform="matrix(0.9977 -0.0675 0.0675 0.9977 -8.7262 27.7463)" class="st2" cx="406.27" cy="143.02" rx="6.38" ry="4.06"/>
<ellipse transform="matrix(0.9977 -0.0675 0.0675 0.9977 -8.659 27.7436)" class="st3" cx="406.26" cy="142.02" rx="3.11" ry="1.39"/>
<ellipse transform="matrix(0.9395 -0.3425 0.3425 0.9395 -21.7657 59.4247)" class="st2" cx="157.37" cy="91.34" rx="6.38" ry="4.06"/>
<ellipse transform="matrix(0.9395 -0.3425 0.3425 0.9395 -21.4583 59.2721)" class="st3" cx="157.09" cy="90.39" rx="3.11" ry="1.39"/>
<ellipse transform="matrix(0.5512 -0.8344 0.8344 0.5512 -51.1389 367.0695)" class="st2" cx="315.65" cy="231.07" rx="4.06" ry="6.38"/>
<ellipse transform="matrix(0.5512 -0.8344 0.8344 0.5512 -50.2127 367.0935)" class="st3" cx="316.13" cy="230.22" rx="1.39" ry="3.11"/>
<path class="st4" d="M82.1,71.94l98.07,53.63c10.39,7.36,17.49,18.48,19.78,31c1.32,7.17,2.42,14.24,4.3,18.67
	c8.28,19.52,26.27,43.86,123,90.32c6.46,19.07,22,32.52,40.26,32.52c24,0,43.44-23.33,43.44-52.12l0,0c0,0-69.32-29.66-104.4-53.49
	c-23.38-15.88-34.93-39.93-29.62-46.47c11.24-13.89,44.69-0.14,81.13,6.11c23.26,4,69.22,24.45,90.76,34.06l42.1,18.79
	c5.51,17.26,19.41,29.53,35.73,29.53c21.15,0,38.3-20.57,38.3-45.94l-0.08-0.18l0,0c0,0-110.81-70.85-188.42-76.07
	s-79.79-8.71-107.89-18.32C237.05,83.2,165.77,47,165.77,47"/>
<g id="Sickle_Cells-16">
	<path class="st2" d="M327.56,244.11c-2.06,1.54-4.8,1.82-7.13,0.74c-0.18-0.07-0.38,0.01-0.46,0.19c-0.03,0.08-0.04,0.18,0,0.26
		c0.27,0.65,0.63,1.26,1.08,1.81c2.39,3.05,6.8,3.59,9.85,1.21s3.59-6.8,1.21-9.85l0,0c-0.42-0.57-0.93-1.08-1.51-1.49
		c-0.09-0.07-0.23-0.05-0.29,0.05c-0.03,0.05-0.05,0.11-0.04,0.16C330.77,239.82,329.72,242.51,327.56,244.11z"/>
	<path class="st3" d="M328.02,244.69c-1.04,0.87-2.35,1.34-3.71,1.34c-0.13,0-0.32,0.15-0.3,0.26c0.03,0.22,0.13,0.43,0.28,0.6
		c0.75,0.83,2.72,0.49,4.52-0.79c2-1.43,3.06-3.45,2.32-4.44c-0.14-0.18-0.33-0.32-0.54-0.4c-0.09,0-0.17,0.05-0.2,0.14
		C330.03,242.75,329.19,243.92,328.02,244.69z"/>
	<path class="st2" d="M303.17,233.37c-3.67-1.23-5.64-5.19-4.42-8.86c1.23-3.67,5.19-5.64,8.86-4.42c0.39,0.13,0.77,0.3,1.14,0.5
		c0.61,0.37,1.16,0.83,1.63,1.36c0.08,0.09,0.07,0.22-0.02,0.3c-0.04,0.04-0.1,0.06-0.15,0.05h-0.12c0.49,0.51,0.9,1.09,1.22,1.72
		c0.05,0.1,0,0.22-0.1,0.26c-0.05,0.02-0.1,0.02-0.15,0.01c-2.38-0.97-5.11-0.48-7,1.26l0,0c-0.64,0.61-1.08,1.4-1.27,2.26
		c-0.36,1.71-0.07,3.49,0.81,5c0.15,0.12,0.18,0.34,0.07,0.5C303.55,233.46,303.32,233.49,303.17,233.37z"/>
	<path class="st3" d="M303.46,224.86c-1.03,0.93-1.65,2.22-1.74,3.6c0,0.13-0.19,0.29-0.3,0.25c-0.24-0.09-0.45-0.24-0.62-0.43
		c-0.83-1-0.31-3,1.21-4.57c1.69-1.8,3.94-2.44,4.95-1.45c0.18,0.19,0.31,0.42,0.39,0.67c0,0.07-0.09,0.18-0.17,0.18
		C305.75,223.16,304.41,223.79,303.46,224.86z"/>
	<path class="st2" d="M308.17,243.49c-2.55,0.33-5.07-0.76-6.58-2.84c-0.11-0.16-0.32-0.2-0.47-0.09c-0.08,0.06-0.14,0.15-0.15,0.25
		c-0.09,0.7-0.08,1.41,0.05,2.1c0.59,3.84,4.17,6.47,8.01,5.89c3.84-0.59,6.47-4.17,5.88-8.01c-0.1-0.69-0.3-1.37-0.59-2
		c-0.05-0.11-0.18-0.16-0.29-0.11c-0.05,0.02-0.09,0.06-0.11,0.11C313.06,241.33,310.83,243.15,308.17,243.49z"/>
	<path class="st2" d="M323.57,226.21c-2.38,0.98-4.04,3.18-4.31,5.74c-0.02,0.19-0.19,0.32-0.38,0.29
		c-0.09-0.01-0.17-0.06-0.23-0.13c-0.42-0.57-0.76-1.19-1-1.85c-1.19-3.68,0.83-7.62,4.51-8.81c3.68-1.19,7.62,0.83,8.81,4.51
		c0.14,0.42,0.23,0.86,0.29,1.3c0.01,0.12-0.07,0.22-0.18,0.23c-0.07,0.01-0.13-0.02-0.18-0.06
		C328.89,225.65,326.05,225.18,323.57,226.21z"/>
	<path class="st2" d="M342.36,226.9c0.02,2.57,1.45,4.93,3.73,6.13c0.17,0.09,0.23,0.29,0.14,0.46c-0.05,0.09-0.13,0.15-0.22,0.17
		c-0.68,0.19-1.39,0.27-2.09,0.24c-3.87-0.05-6.96-3.23-6.91-7.1c0.05-3.87,3.23-6.96,7.1-6.9c0.71-0.01,1.42,0.09,2.1,0.3
		c0.11,0.04,0.16,0.17,0.12,0.27c-0.02,0.05-0.06,0.1-0.12,0.12C343.83,221.79,342.34,224.24,342.36,226.9z"/>
</g>
</svg>
