<?xml version="1.0" encoding="utf-8"?>
<!-- Generator: Adobe Illustrator 23.0.6, SVG Export Plug-In . SVG Version: 6.00 Build 0)  -->
<svg version="1.1" id="Layer_1" xmlns="http://www.w3.org/2000/svg" xmlns:xlink="http://www.w3.org/1999/xlink" x="0px" y="0px"
	 viewBox="0 0 599 367.2" style="enable-background:new 0 0 599 367.2;" xml:space="preserve">
<style type="text/css">
	.st0{fill:#EA3F54;}
	.st1{fill:#ECAAAA;}
	.st2{fill:#F05454;}
	.st3{fill:#CE3837;}
	.st4{fill:none;stroke:#FCCFBF;stroke-width:2;stroke-miterlimit:10;}
</style>
<title>badVein</title>
<path class="st0" d="M342.2,290.4l67.7-43.4c0,0-65.4-11.6-100.5-35.4c-23.4-15.9-34.9-39.9-29.6-46.5c11.3-13.9,44.7-0.1,81.2,6.1
	c23.2,4,69.2,24.4,90.8,34.1l52.6,23.5l59.6-39.2c0,0-107-52.9-184.6-58.2s-79.8-8.7-107.9-18.3c-31.5-10.8-102-48.6-102-48.6l0,0
	c-10.1,9.8-17.9,18.3-31.9,20.5c-10,1.5-26,0.5-32.1-1l-24.3-9.1l3.3,10.8c1,4.7,4,8.6,8.2,10.9l90.4,48.2
	c10.4,7.4,17.5,18.5,19.8,31c1.3,7.2,2.4,14.2,4.3,18.7C215.7,214.7,234.8,240.2,342.2,290.4"/>
<path class="st1" d="M563.5,189.1l0.5-0.2c0,0-110.8-70.8-188.4-76.1s-79.8-8.8-107.9-18.3c-31.5-10.8-102-46.5-102-46.5l-9.4,15.8
	c-8.4,14-24,22.2-40.2,20.5c-6-0.7-11.7-2-16.9-2.9l-17-6.9l97.1,51.7c10.4,7.4,17.5,18.5,19.8,31c1.3,7.2,2.4,14.2,4.3,18.7
	c8.3,19.5,26.3,43.8,123,90.3c6.5,19.1,22,32.5,40.3,32.5c24,0,43.4-23.3,43.4-52.1H409l0.7-0.3c0,0-68.9-29.4-104-53.2
	c-23.4-15.9-35-39.9-29.7-46.4c11.3-13.9,44.7-0.1,81.2,6.1c23.3,4,69.2,24.4,90.8,34.1l42.1,18.8c5.5,17.2,19.4,29.5,35.7,29.5
	c21.2,0.1,38.3-20.6,38.3-45.9L563.5,189.1L563.5,189.1z"/>
<g id="Sickle_Cells">
	<path class="st2" d="M298.9,206.5c2.3,1.1,3.9,3.3,4.1,5.9c0,0.2,0.2,0.3,0.4,0.3c0.1,0,0.2-0.1,0.2-0.1c2.3-3.1,1.8-7.5-1.3-9.8
		s-7.5-1.8-9.8,1.3c-0.3,0.4-0.5,0.8-0.7,1.2c-0.3,0.6-0.5,1.3-0.6,2c0,0.1,0.1,0.2,0.2,0.2c0,0,0.1,0,0.1,0
		C293.6,205.8,296.5,205.4,298.9,206.5z"/>
	<path class="st3" d="M299.2,205.8c1.3,0.5,2.3,1.4,3,2.6c0.1,0.1,0.2,0.2,0.4,0.1c0.2-0.1,0.3-0.3,0.4-0.5c0.4-1.1-0.9-2.6-2.9-3.6
		c-2.2-1.1-4.5-1-5,0.1c-0.1,0.2-0.1,0.4-0.1,0.7c0,0.1,0.1,0.1,0.2,0.1C296.6,205,298,205.2,299.2,205.8z"/>
	<path class="st2" d="M301.3,233.1c0.9,3.8-1.5,7.5-5.3,8.4c-0.5,0.1-0.9,0.2-1.4,0.2c-3.9,0.1-7.1-2.9-7.2-6.8c0-0.2,0-0.3,0-0.5
		c0-0.7,0.1-1.4,0.4-2.1c0-0.1,0.2-0.2,0.3-0.1c0,0,0.1,0.1,0.1,0.1c0,0,0,0.1,0,0.1c0.2-0.7,0.5-1.3,0.9-1.9c0.1-0.1,0.2-0.1,0.3,0
		c0,0,0.1,0.1,0.1,0.1c0.3,2.6,2,4.7,4.5,5.6l0,0c0.8,0.3,1.8,0.3,2.6,0c1.7-0.5,3.1-1.6,4-3.1c0-0.2,0.2-0.3,0.4-0.3
		C301.2,232.7,301.3,232.9,301.3,233.1z"/>
	<path class="st3" d="M293.7,236.9c1.3,0.4,2.7,0.4,4-0.2c0.1-0.1,0.3,0,0.4,0.1c0,0.2,0,0.5-0.1,0.8c-0.5,1.2-2.5,1.7-4.6,1.1
		c-2.4-0.6-4-2.3-3.6-3.6c0.1-0.2,0.2-0.5,0.4-0.7c0.1-0.1,0.2,0,0.2,0.1C291.1,235.7,292.3,236.6,293.7,236.9z"/>
	<path class="st2" d="M307.8,223.8c1.5,2.1,1.8,4.8,0.7,7.1c-0.1,0.2,0,0.4,0.2,0.4c0.1,0,0.2,0,0.3,0c0.6-0.3,1.3-0.6,1.8-1.1
		c3.1-2.4,3.7-6.8,1.3-9.8c-2.4-3.1-6.8-3.7-9.8-1.3c-0.6,0.4-1.1,0.9-1.5,1.5c-0.1,0.1,0,0.2,0,0.3c0,0,0.1,0.1,0.2,0
		C303.5,220.5,306.2,221.6,307.8,223.8z"/>
	<path class="st2" d="M285.2,218.6c2,1.6,4.7,2,7.1,1c0.2-0.1,0.4,0,0.5,0.2c0,0.1,0,0.2,0,0.3c-0.3,0.6-0.7,1.2-1.1,1.8
		c-2.5,3-6.9,3.4-9.9,0.9s-3.4-6.9-0.9-9.9c0.5-0.6,1-1,1.6-1.4c0.1-0.1,0.2,0,0.3,0.1c0,0.1,0,0.1,0,0.2
		C282.1,214.3,283.1,217,285.2,218.6z"/>
	<path class="st2" d="M276.7,201.8c2.2-1.3,3.6-3.6,3.6-6.2c0-0.2,0.1-0.3,0.3-0.4c0.1,0,0.2,0,0.3,0.1c0.5,0.5,0.9,1.1,1.3,1.7
		c1.8,3.4,0.5,7.7-2.9,9.5s-7.7,0.5-9.5-2.9c-0.4-0.6-0.6-1.3-0.8-2c0-0.1,0-0.2,0.2-0.2c0,0,0.1,0,0.2,0
		C271.5,203,274.4,203.1,276.7,201.8z"/>
</g>
<g id="Sickle_Cells-2">
	<path class="st2" d="M304.6,243.4c0,2.6,1.4,4.9,3.7,6.2c0.2,0.1,0.2,0.3,0.1,0.5c0,0.1-0.1,0.1-0.2,0.2c-0.7,0.2-1.4,0.2-2.1,0.2
		c-3.9-0.1-6.9-3.3-6.8-7.2s3.3-6.9,7.2-6.8l0,0c0.7,0,1.4,0.1,2.1,0.3c0.1,0.1,0.2,0.2,0.1,0.3c0,0.1-0.1,0.1-0.1,0.1
		C306.2,238.3,304.6,240.7,304.6,243.4z"/>
	<path class="st3" d="M303.9,243.4c-0.1,1.4,0.3,2.7,1.1,3.8c0.1,0.1,0.1,0.3,0,0.4c-0.2,0.1-0.4,0.2-0.6,0.1
		c-1.1-0.1-2-1.9-2.1-4.1c0-2.5,0.9-4.5,2.2-4.5c0.2,0,0.5,0.1,0.6,0.2c0.1,0.1,0.1,0.2,0,0.2C304.2,240.6,303.8,242,303.9,243.4z"
		/>
	<path class="st2" d="M327.8,256.5c3.2,2.2,7.5,1.5,9.8-1.7c2.2-3.2,1.5-7.5-1.7-9.8c-0.4-0.3-0.8-0.5-1.2-0.7
		c-0.7-0.3-1.4-0.4-2.1-0.5c-0.1,0-0.2,0.1-0.2,0.2c0,0.1,0,0.1,0,0.1l0.1,0.1c-0.7-0.1-1.4-0.1-2.1,0.1c-0.1,0-0.2,0.1-0.2,0.2
		c0,0.1,0,0.1,0.1,0.1c2.2,1.3,3.5,3.8,3.2,6.4l0,0c-0.1,0.9-0.4,1.7-1,2.4c-1.2,1.3-2.8,2.2-4.5,2.4c-0.2,0-0.4,0.1-0.4,0.3
		C327.6,256.3,327.7,256.5,327.8,256.5z"/>
	<path class="st3" d="M334.5,251.2c-0.1,1.4-0.8,2.6-1.8,3.5c-0.1,0.1-0.1,0.3,0,0.4c0.2,0.1,0.5,0.2,0.7,0.2c1.3,0.1,2.6-1.5,3-3.7
		c0.4-2.4-0.4-4.6-1.8-4.8c-0.3,0-0.5,0-0.8,0.1c-0.1,0-0.1,0.2,0,0.2C334.5,248.4,334.8,249.8,334.5,251.2z"/>
	<path class="st2" d="M316.7,258.5c1.3,2.2,3.6,3.6,6.2,3.6c0.2,0,0.3,0.1,0.3,0.3c0,0.1,0,0.2-0.1,0.2c-2.9,2.6-7.3,2.4-9.9-0.5
		c-2.6-2.9-2.4-7.3,0.5-9.9c0.3-0.3,0.7-0.6,1.1-0.8c0.6-0.4,1.3-0.6,2-0.8c0.1,0,0.2,0,0.3,0.1c0,0.1,0,0.1,0,0.2
		C315.5,253.3,315.4,256.2,316.7,258.5z"/>
	<path class="st2" d="M321.4,235.9c0.6,2.5-0.1,5.1-2,6.9c-0.1,0.1-0.1,0.4,0,0.5c0.1,0.1,0.1,0.1,0.2,0.1c0.7,0,1.4-0.1,2.1-0.3
		c3.7-1.2,5.6-5.2,4.4-8.9c-1.2-3.7-5.2-5.6-8.9-4.4c-0.4,0.1-0.9,0.3-1.2,0.6c-0.1,0.1-0.1,0.2-0.1,0.3c0,0.1,0.1,0.1,0.1,0.1
		C318.6,231.3,320.7,233.3,321.4,235.9z"/>
	<path class="st2" d="M309.6,221.2c-2.1,1.5-4.8,1.8-7.1,0.7c-0.2-0.1-0.4,0-0.5,0.2c0,0.1,0,0.2,0,0.3c0.3,0.6,0.6,1.3,1.1,1.8
		c2.4,3.1,6.8,3.6,9.8,1.3s3.6-6.8,1.3-9.8c-0.4-0.6-0.9-1.1-1.5-1.5c-0.1-0.1-0.2-0.1-0.3,0c0,0.1-0.1,0.1,0,0.2
		C312.8,217,311.8,219.6,309.6,221.2z"/>
</g>
<g id="Sickle_Cells-3">
	<path class="st2" d="M244.5,191.8c-0.7-2.5,0.1-5.1,1.9-6.9c0.1-0.1,0.1-0.4,0-0.5c-0.1-0.1-0.1-0.1-0.2-0.1
		c-0.7,0-1.4,0.1-2.1,0.3c-3.7,1.1-5.8,5-4.7,8.7s5,5.8,8.7,4.7l0,0c0.7-0.2,1.4-0.5,1.9-0.9c0.1-0.1,0.1-0.2,0-0.3
		c0,0-0.1-0.1-0.1-0.1C247.4,196.3,245.2,194.4,244.5,191.8z"/>
	<path class="st3" d="M243.8,192c-0.4-1.3-0.4-2.7,0.1-4c0.1-0.1,0-0.3-0.1-0.4c-0.2-0.1-0.4-0.1-0.7,0c-1,0.4-1.4,2.3-0.9,4.5
		c0.6,2.4,2.1,4.1,3.3,3.8c0.2-0.1,0.4-0.2,0.6-0.4c0-0.1,0-0.2-0.1-0.2C244.9,194.5,244.1,193.3,243.8,192z"/>
	<path class="st2" d="M263.4,173c0.5-0.6,1-1.1,1.6-1.5c3.1-2.3,7.5-1.6,9.8,1.6s1.6,7.5-1.6,9.8c-0.6,0.4-1.2,0.8-1.9,1
		c-0.1,0-0.2,0-0.3-0.1c0-0.1,0-0.1,0-0.2v-0.1c-0.6,0.3-1.3,0.4-2,0.5c-0.1,0-0.2-0.1-0.2-0.1c0-0.1,0-0.1,0.1-0.2
		c1.8-1.9,2.3-4.6,1.4-7l0,0c-0.3-0.8-0.9-1.5-1.6-2c-1.5-1-3.2-1.4-5-1.1c-0.2,0-0.4-0.1-0.4-0.3
		C263.4,173.2,263.4,173.1,263.4,173z"/>
	<path class="st3" d="M271.2,176.4c-0.5-1.3-1.5-2.4-2.7-2.9c-0.1,0-0.2-0.3-0.1-0.4c0.2-0.2,0.4-0.3,0.6-0.4
		c1.2-0.4,2.9,0.8,3.8,2.8c1.1,2.2,0.8,4.6-0.5,5.1c-0.2,0.1-0.5,0.1-0.8,0.1c-0.1,0-0.1-0.1-0.1-0.2
		C272,179.2,271.9,177.7,271.2,176.4z"/>
	<path class="st2" d="M305.2,126.5c-0.7,0.2-1.5,0.2-2.2,0.1c-3.9-0.3-6.7-3.7-6.4-7.6s3.7-6.7,7.6-6.4c0.7,0,1.4,0.2,2.1,0.4
		c0.1,0,0.2,0.2,0.1,0.3c0,0.1-0.1,0.1-0.1,0.1h-0.1c0.7,0.2,1.3,0.5,1.9,0.9c0.1,0.1,0.1,0.2,0,0.3c0,0-0.1,0.1-0.1,0.1
		c-2.6,0.2-4.8,2-5.6,4.4l0,0c-0.3,0.8-0.3,1.7-0.1,2.6c0.5,1.7,1.6,3.2,3.1,4.1c0.2,0,0.3,0.2,0.3,0.4S305.4,126.5,305.2,126.5z"/>
	<path class="st3" d="M301.5,118.8c-0.5,1.3-0.4,2.7,0.1,4c0.1,0.1,0,0.3-0.1,0.4c-0.2,0-0.5,0-0.8-0.1c-1.2-0.5-1.7-2.5-1.1-4.6
		c0.6-2.4,2.3-4,3.7-3.6c0.2,0.1,0.5,0.2,0.7,0.4c0,0,0,0.2-0.1,0.2C302.7,116.2,301.8,117.4,301.5,118.8z"/>
	<path class="st2" d="M252.2,174c0.6-2.5,2.6-4.4,5.1-5.1c0.2-0.1,0.3-0.2,0.2-0.4c0-0.1-0.1-0.2-0.2-0.2c-0.6-0.3-1.3-0.6-2-0.7
		c-3.8-0.9-7.5,1.5-8.4,5.3c-0.9,3.8,1.5,7.5,5.3,8.4c0.7,0.2,1.4,0.2,2.1,0.2c0.1,0,0.2-0.1,0.2-0.2c0-0.1,0-0.1-0.1-0.1
		C252.4,179.3,251.5,176.6,252.2,174z"/>
	<path class="st2" d="M339.1,240.6c-2-1.6-3.1-4.1-2.7-6.6c0-0.2-0.1-0.4-0.3-0.4c-0.1,0-0.2,0-0.2,0.1c-0.6,0.4-1,0.9-1.4,1.5
		c-2.3,3.1-1.6,7.5,1.5,9.8s7.5,1.6,9.8-1.5l0,0c0.4-0.6,0.8-1.2,1-1.9c0-0.1,0-0.2-0.1-0.3c0,0-0.1,0-0.2,0
		C344,242.5,341.2,242.2,339.1,240.6z"/>
	<path class="st2" d="M371.3,263.2c-2.6-0.2-5,1.1-6.4,3.2c-0.1,0.2-0.3,0.2-0.5,0.1c-0.1,0-0.1-0.1-0.1-0.2c-0.6-3.8,2-7.4,5.8-8
		c3.8-0.6,7.4,2,8,5.8c0.1,0.4,0.1,0.9,0.1,1.3c0,0.7-0.2,1.4-0.5,2.1c0,0.1-0.2,0.2-0.3,0.1c0,0-0.1-0.1-0.1-0.1
		C376.3,265.1,374,263.4,371.3,263.2z"/>
	<path class="st2" d="M262.6,194.6c0-2.6-1.5-4.9-3.8-6.1c-0.2-0.1-0.2-0.3-0.1-0.5c0-0.1,0.1-0.1,0.2-0.2c0.7-0.2,1.4-0.3,2.1-0.2
		c3.9,0,7,3.2,6.9,7.1c0,3.9-3.2,7-7,6.9c-0.7,0-1.4-0.1-2.1-0.3c-0.1-0.1-0.2-0.2-0.1-0.3c0-0.1,0.1-0.1,0.1-0.1
		C261.2,199.7,262.7,197.3,262.6,194.6z"/>
	<path class="st2" d="M255.1,211.9c-2.4-0.9-5.1-0.4-7.1,1.2c-0.1,0.1-0.4,0.1-0.5,0c-0.1-0.1-0.1-0.2-0.1-0.3
		c0.1-0.7,0.3-1.4,0.5-2c1.5-3.6,5.6-5.3,9.2-3.8c3.6,1.5,5.3,5.6,3.8,9.2c-0.2,0.7-0.6,1.3-1,1.8c-0.1,0.1-0.2,0.1-0.3,0.1
		c0,0-0.1-0.1-0.1-0.2C259.4,215.1,257.6,212.8,255.1,211.9z"/>
</g>
<g id="Sickle_Cells-4">
	<path class="st2" d="M272.2,201.1c0-2.6-1.4-4.9-3.7-6.2c-0.2-0.1-0.2-0.3-0.1-0.5c0-0.1,0.1-0.1,0.2-0.2c0.7-0.2,1.4-0.2,2.1-0.2
		c3.9,0.1,6.9,3.3,6.8,7.2c-0.1,3.9-3.3,6.9-7.2,6.8c-0.7,0-1.4-0.1-2.1-0.3c-0.1-0.1-0.2-0.2-0.1-0.3c0-0.1,0.1-0.1,0.1-0.1
		C270.7,206.2,272.2,203.8,272.2,201.1z"/>
	<path class="st3" d="M273,201.1c0.1-1.4-0.3-2.7-1.1-3.8c-0.1-0.1-0.1-0.3,0-0.4c0.2-0.1,0.4-0.2,0.6-0.1c1.1,0.1,2,1.9,2.1,4.1
		c0.1,2.5-0.9,4.5-2.2,4.5c-0.2,0-0.5-0.1-0.6-0.2c0-0.1,0-0.2,0-0.2C272.6,203.9,273.1,202.5,273,201.1z"/>
	<path class="st2" d="M249.1,187.9c-3.2-2.2-7.5-1.5-9.8,1.7c-2.2,3.2-1.5,7.5,1.7,9.8c0.4,0.3,0.8,0.5,1.2,0.7
		c0.7,0.3,1.4,0.4,2.1,0.5c0.1,0,0.2-0.1,0.2-0.2c0-0.1,0-0.1-0.1-0.2l-0.1-0.1c0.7,0.1,1.4,0.1,2.1-0.1c0.1,0,0.2-0.1,0.2-0.2
		c0-0.1-0.1-0.1-0.1-0.1c-2.2-1.3-3.5-3.8-3.2-6.4l0,0c0.1-0.9,0.5-1.7,1.1-2.4c1.2-1.3,2.8-2.2,4.5-2.4c0.2,0,0.4-0.2,0.3-0.4
		C249.2,188.1,249.2,188,249.1,187.9z"/>
	<path class="st3" d="M242.4,193.2c0.1-1.4,0.8-2.6,1.8-3.5c0.1-0.1,0.1-0.3,0-0.4c-0.2-0.1-0.5-0.2-0.7-0.2
		c-1.3-0.1-2.6,1.5-2.9,3.7c-0.4,2.4,0.4,4.6,1.8,4.8c0.3,0,0.5,0,0.8-0.1c0.1,0,0.1-0.2,0-0.2C242.4,196.1,242.1,194.6,242.4,193.2
		z"/>
	<path class="st2" d="M197.5,85.1c-0.6-0.4-1.3-0.8-2-1c-3.6-1.4-7.7,0.5-9,4.1s0.5,7.7,4.1,9c0.7,0.3,1.4,0.4,2.1,0.5
		c0.1,0,0.2-0.1,0.2-0.2c0-0.1,0-0.1-0.1-0.2l-0.1-0.1c0.7,0.1,1.4,0.1,2.1,0c0.1,0,0.2-0.1,0.2-0.2c0-0.1,0-0.1-0.1-0.1
		c-2.2-1.3-3.5-3.8-3.2-6.4l0,0c0.1-0.9,0.5-1.8,1.1-2.4c1.2-1.3,2.8-2.2,4.5-2.4c0.2,0,0.4-0.2,0.3-0.4
		C197.7,85.3,197.6,85.2,197.5,85.1z"/>
	<path class="st3" d="M190.9,90.4c0.1-1.4,0.8-2.7,1.8-3.6c0.1-0.1,0.1-0.3,0-0.4c-0.2-0.1-0.5-0.2-0.7-0.2
		c-1.3-0.1-2.6,1.5-2.9,3.7c-0.4,2.4,0.4,4.6,1.8,4.8c0.3,0,0.5,0,0.8-0.1c0.1-0.1,0.1-0.2,0.1-0.2
		C190.9,93.3,190.6,91.8,190.9,90.4z"/>
	<path class="st2" d="M470.5,164.8c-0.7,0.3-1.3,0.7-1.9,1.2c-3,2.4-3.5,6.9-1,9.9c2.4,3,6.9,3.5,9.9,1c0.6-0.4,1.1-0.9,1.5-1.5
		c0.1-0.1,0-0.2-0.1-0.3c0,0-0.1,0-0.1,0h-0.1c0.4-0.6,0.8-1.2,1-1.8c0-0.1,0-0.2-0.1-0.2c0,0-0.1,0-0.1,0c-2.3,1.2-5,1.1-7.1-0.5
		l0,0c-0.7-0.5-1.2-1.3-1.5-2.1c-0.5-1.7-0.5-3.5,0.2-5.1c0.1-0.2,0-0.4-0.2-0.4C470.6,164.8,470.5,164.8,470.5,164.8z"/>
	<path class="st3" d="M471.7,173.2c-1.1-0.8-1.9-2-2.1-3.4c0-0.1-0.2-0.3-0.3-0.2c-0.2,0.1-0.4,0.3-0.6,0.5c-0.7,1,0,3,1.7,4.4
		c1.9,1.6,4.2,2,5.1,0.9c0.2-0.2,0.3-0.4,0.3-0.7c0-0.1-0.1-0.2-0.2-0.2C474.2,174.7,472.8,174.2,471.7,173.2z"/>
	<path class="st2" d="M260.2,185.9c-1.3-2.2-3.6-3.6-6.2-3.6c-0.2,0-0.3-0.1-0.4-0.3c0-0.1,0-0.2,0.1-0.3c0.5-0.5,1.1-0.9,1.7-1.2
		c3.4-1.8,7.7-0.5,9.5,2.9s0.5,7.7-2.9,9.5c-0.6,0.4-1.3,0.6-2,0.8c-0.1,0-0.2,0-0.3-0.1c0-0.1,0-0.1,0-0.2
		C261.3,191.1,261.5,188.2,260.2,185.9z"/>
	<path class="st2" d="M255.5,208.5c-0.6-2.5,0.1-5.1,2-6.9c0.1-0.1,0.1-0.4,0-0.5c-0.1-0.1-0.1-0.1-0.2-0.1c-0.7,0-1.4,0.1-2.1,0.3
		c-3.7,1-5.9,4.9-4.9,8.6c1,3.7,4.9,5.9,8.7,4.9c0.7-0.2,1.4-0.4,2-0.8c0.1-0.1,0.1-0.2,0.1-0.3c0-0.1-0.1-0.1-0.1-0.1
		C258.3,213.1,256.2,211.1,255.5,208.5z"/>
	<path class="st2" d="M267.3,223.2c2.1-1.5,4.8-1.8,7.1-0.7c0.2,0.1,0.4,0,0.5-0.2c0-0.1,0-0.2,0-0.3c-1.4-3.6-5.5-5.4-9.1-4
		c-0.5,0.2-0.9,0.4-1.3,0.7c-3.2,2.1-4.1,6.4-2,9.7c0.1,0.1,0.1,0.2,0.2,0.3c0.4,0.6,0.9,1.1,1.5,1.5c0.1,0.1,0.2,0.1,0.3-0.1
		c0-0.1,0-0.1,0-0.2C264,227.4,265.1,224.8,267.3,223.2z"/>
</g>
<g id="Sickle_Cells-5">
	<path class="st2" d="M278.2,213.1c0-2.6,1.4-4.9,3.7-6.2c0.2-0.1,0.2-0.3,0.1-0.5c0-0.1-0.1-0.1-0.2-0.2c-0.7-0.2-1.4-0.2-2.1-0.2
		c-3.9,0.3-6.7,3.7-6.4,7.5s3.7,6.7,7.5,6.4c0.5,0,0.9-0.1,1.3-0.2c0.1,0,0.2-0.2,0.1-0.3c0-0.1-0.1-0.1-0.1-0.1
		C279.7,218.2,278.2,215.8,278.2,213.1z"/>
	<path class="st3" d="M277.4,213.1c-0.1-1.4,0.3-2.7,1.1-3.8c0.1-0.1,0.1-0.3,0-0.4c-0.2-0.1-0.4-0.1-0.6-0.1
		c-1.1,0.1-2,1.9-2.1,4.1c-0.1,2.5,0.9,4.5,2.2,4.5c0.2,0,0.5-0.1,0.6-0.2c0-0.1,0-0.2,0-0.2C277.8,215.9,277.3,214.5,277.4,213.1z"
		/>
	<path class="st2" d="M301.3,200c3.2-2.2,7.5-1.5,9.8,1.7c2.2,3.2,1.5,7.5-1.7,9.8c-0.4,0.3-0.8,0.5-1.2,0.7
		c-0.7,0.3-1.4,0.4-2.1,0.5c-0.1,0-0.2-0.1-0.2-0.2c0-0.1,0-0.1,0-0.2l0.1-0.1c-0.7,0.1-1.4,0.1-2.1,0c-0.1,0-0.2-0.1-0.2-0.2
		c0-0.1,0-0.1,0.1-0.1c2.2-1.3,3.5-3.8,3.2-6.4l0,0c-0.1-0.9-0.5-1.7-1-2.4c-1.2-1.3-2.8-2.2-4.5-2.4c-0.2,0.1-0.4-0.1-0.4-0.2
		C301,200.2,301.1,200,301.3,200z"/>
	<path class="st3" d="M308,205.3c-0.1-1.4-0.8-2.6-1.8-3.6c-0.1-0.1-0.1-0.3,0-0.4c0.2-0.1,0.5-0.2,0.7-0.2c1.3-0.1,2.6,1.5,3,3.7
		c0.4,2.4-0.4,4.6-1.8,4.8c-0.3,0-0.5,0-0.8-0.1c-0.1-0.1-0.1-0.2,0-0.2C308,208.1,308.3,206.7,308,205.3z"/>
	<path class="st2" d="M290.2,197.9c1.2-2.2,3.6-3.6,6.2-3.6c0.2,0,0.3-0.1,0.3-0.3c0-0.1,0-0.2-0.1-0.2c-0.5-0.5-1.1-0.9-1.7-1.2
		c-3.4-1.8-7.7-0.5-9.5,2.9s-0.5,7.7,2.9,9.5c0.6,0.4,1.3,0.6,2,0.8c0.1,0,0.2,0,0.3-0.1c0-0.1,0-0.1,0-0.2
		C289,203.2,288.9,200.3,290.2,197.9z"/>
	<path class="st2" d="M294.9,220.6c0.6-2.5-0.1-5.1-2-6.9c-0.1-0.1-0.1-0.3,0-0.5c0.1-0.1,0.2-0.1,0.3-0.1c0.7,0,1.4,0.1,2.1,0.3
		c3.7,1,5.9,4.9,4.9,8.6s-4.9,5.9-8.6,4.9l0,0c-0.7-0.2-1.4-0.4-2-0.8c-0.1-0.1-0.1-0.2-0.1-0.3c0-0.1,0.1-0.1,0.1-0.1
		C292.1,225.2,294.2,223.2,294.9,220.6z"/>
	<path class="st2" d="M283.1,235.3c-2.1-1.5-4.8-1.8-7.1-0.7c-0.2,0.1-0.4,0-0.5-0.2c0-0.1,0-0.2,0-0.3c1.5-3.6,5.7-5.2,9.2-3.6
		s5.2,5.7,3.6,9.2c-0.2,0.4-0.4,0.8-0.6,1.2c-0.4,0.6-0.9,1.1-1.5,1.5c-0.1,0.1-0.2,0.1-0.3-0.1c0-0.1,0-0.1,0-0.2
		C286.3,239.5,285.2,236.8,283.1,235.3z"/>
	<path class="st2" d="M141,92.4c-2.1-1.5-4.8-1.8-7.1-0.7c-0.2,0.1-0.4,0-0.5-0.2c0-0.1,0-0.2,0-0.3c0.3-0.7,0.6-1.3,1.1-1.8
		c2.4-3.1,6.8-3.7,9.9-1.3s3.7,6.8,1.3,9.8c-0.4,0.6-0.9,1.1-1.5,1.5c-0.1,0.1-0.2,0.1-0.3-0.1c0-0.1-0.1-0.1,0-0.2
		C144.2,96.7,143.1,94,141,92.4z"/>
</g>
<g id="Sickle_Cells-6">
	<path class="st2" d="M311.6,211c2.6,0,4.9,1.4,6.2,3.7c0.1,0.2,0.3,0.2,0.5,0.1c0.1-0.1,0.1-0.1,0.2-0.2c0.2-0.7,0.2-1.4,0.2-2.1
		c-0.1-3.9-3.3-6.9-7.2-6.9s-7,3.3-6.9,7.2l0,0c0,0.7,0.1,1.4,0.3,2.1c0,0.1,0.2,0.2,0.3,0.1c0,0,0.1-0.1,0.1-0.1
		C306.5,212.5,308.9,211,311.6,211z"/>
	<path class="st3" d="M311.6,210.2c1.4-0.1,2.7,0.3,3.8,1.1c0.1,0.1,0.3,0.1,0.4,0c0.1-0.2,0.1-0.4,0.1-0.6c-0.1-1.1-1.9-2-4.1-2.1
		c-2.5-0.1-4.5,0.9-4.5,2.2c0,0.2,0.1,0.5,0.2,0.6c0.1,0.1,0.2,0.1,0.2,0C308.8,210.6,310.2,210.2,311.6,210.2z"/>
	<path class="st2" d="M324.8,234.2c0.4,0.6,0.8,1.3,1,2c1.4,3.6-0.5,7.7-4.1,9c-3.6,1.4-7.7-0.5-9-4.1c-0.3-0.7-0.4-1.4-0.5-2.1
		c0-0.1,0.1-0.2,0.2-0.2c0.1,0,0.1,0,0.1,0.1l0.1,0.1c-0.1-0.7-0.1-1.4,0-2.1c0-0.1,0.1-0.2,0.2-0.1c0,0,0.1,0,0.1,0.1
		c1.3,2.2,3.8,3.5,6.4,3.2l0,0c0.9-0.1,1.7-0.5,2.4-1.1c1.3-1.2,2.2-2.8,2.4-4.5c0-0.2,0.1-0.4,0.3-0.4
		C324.6,234,324.7,234.1,324.8,234.2z"/>
	<path class="st3" d="M319.5,240.8c1.4-0.1,2.6-0.8,3.5-1.8c0.1-0.1,0.3-0.1,0.4,0c0.1,0.2,0.2,0.5,0.2,0.7c0.1,1.3-1.5,2.6-3.7,3
		c-2.4,0.4-4.6-0.4-4.8-1.8c0-0.3,0-0.5,0.1-0.8c0.1-0.1,0.2-0.1,0.2,0C316.6,240.9,318.1,241.1,319.5,240.8z"/>
	<path class="st2" d="M326.8,223c2.2,1.3,3.6,3.6,3.6,6.2c0,0.2,0.1,0.3,0.3,0.3c0.1,0,0.2,0,0.2-0.1c0.5-0.5,0.9-1.1,1.2-1.7
		c1.8-3.4,0.5-7.7-2.9-9.5s-7.7-0.5-9.5,2.9c-0.4,0.6-0.6,1.3-0.8,2c0,0.1,0,0.2,0.1,0.3c0.1,0,0.1,0,0.2,0
		C321.6,221.9,324.5,221.7,326.8,223z"/>
	<path class="st2" d="M304.2,227.7c2.5,0.6,5.1-0.1,6.9-2c0.1-0.1,0.3-0.1,0.5,0c0.1,0.1,0.1,0.2,0.1,0.3c0,0.7-0.1,1.4-0.3,2.1
		c-1,3.7-4.9,5.9-8.6,4.9s-5.9-4.9-4.9-8.6l0,0c0.2-0.7,0.5-1.4,0.8-2c0.1-0.1,0.2-0.1,0.3-0.1c0.1,0,0.1,0.1,0.1,0.1
		C299.6,225,301.6,227.1,304.2,227.7z"/>
	<path class="st2" d="M289.5,215.9c1.5-2.1,1.8-4.8,0.7-7.1c-0.1-0.2,0-0.4,0.2-0.4c0.1,0,0.2,0,0.3,0c3.6,1.4,5.4,5.5,4,9.1
		c-0.2,0.5-0.4,0.9-0.7,1.3c-2.1,3.2-6.5,4.1-9.7,2c-0.1-0.1-0.2-0.1-0.3-0.2c-0.6-0.4-1.1-0.9-1.5-1.5c-0.1-0.1,0-0.2,0-0.3
		c0,0,0.1-0.1,0.2,0C285.2,219.2,287.9,218.1,289.5,215.9z"/>
</g>
<g id="Sickle_Cells-7">
	<path class="st2" d="M258.6,216.8c0,2.6,1.4,4.9,3.7,6.2c0.2,0.1,0.2,0.3,0.1,0.5c0,0.1-0.1,0.1-0.2,0.2c-0.7,0.2-1.4,0.2-2.1,0.2
		c-3.9-0.1-6.9-3.3-6.8-7.2s3.3-6.9,7.2-6.8c0.7,0,1.4,0.1,2.1,0.3c0.1,0.1,0.2,0.2,0.1,0.3c0,0.1-0.1,0.1-0.1,0.1
		C260.1,211.7,258.6,214.1,258.6,216.8z"/>
	<path class="st3" d="M257.9,216.8c-0.1,1.4,0.3,2.7,1.1,3.8c0.1,0.1,0.1,0.3,0,0.4c-0.2,0.1-0.4,0.1-0.6,0.1
		c-1.1-0.1-2-1.9-2.1-4.1c0-2.5,0.9-4.5,2.2-4.5c0.2,0,0.5,0.1,0.6,0.2c0.1,0.1,0.1,0.2,0,0.2C258.2,214,257.8,215.4,257.9,216.8z"
		/>
	<path class="st2" d="M281.8,229.9c3.2,2.2,7.5,1.5,9.8-1.7c2.2-3.2,1.5-7.5-1.7-9.8c-0.4-0.3-0.8-0.5-1.2-0.7
		c-0.7-0.3-1.4-0.4-2.1-0.5c-0.1,0-0.2,0.1-0.2,0.2c0,0.1,0,0.1,0,0.1l0.1,0.1c-0.7-0.1-1.4-0.1-2.1,0c-0.1,0-0.2,0.1-0.2,0.2
		c0,0.1,0,0.1,0.1,0.1c2.2,1.3,3.5,3.8,3.2,6.4l0,0c-0.1,0.9-0.5,1.7-1,2.4c-1.2,1.3-2.8,2.2-4.5,2.4c-0.2,0-0.4,0.1-0.4,0.3
		C281.5,229.7,281.6,229.9,281.8,229.9z"/>
	<path class="st3" d="M288.4,224.6c-0.1,1.4-0.8,2.6-1.8,3.6c-0.1,0.1-0.1,0.3,0,0.4c0.2,0.1,0.5,0.2,0.7,0.2c1.3,0.1,2.6-1.5,3-3.7
		c0.4-2.4-0.4-4.6-1.8-4.8c-0.3,0-0.5,0-0.8,0.1c-0.1,0.1-0.1,0.2,0,0.2C288.5,221.8,288.7,223.2,288.4,224.6z"/>
	<path class="st2" d="M270.7,231.9c1.3,2.2,3.6,3.6,6.2,3.6c0.2,0,0.3,0.2,0.3,0.4c0,0.1,0,0.2-0.1,0.2c-0.5,0.5-1.1,0.9-1.7,1.2
		c-3.4,1.8-7.7,0.5-9.5-2.9s-0.5-7.7,2.9-9.5c0.6-0.4,1.3-0.6,2-0.8c0.1,0,0.2,0,0.3,0.1c0,0.1,0,0.1,0,0.2
		C269.5,226.7,269.4,229.6,270.7,231.9z"/>
	<path class="st2" d="M275.3,209.3c0.6,2.5-0.1,5.1-2,6.9c-0.1,0.1-0.1,0.3,0,0.5c0.1,0.1,0.2,0.1,0.3,0.1c0.7,0,1.4-0.1,2.1-0.3
		c3.7-1.2,5.6-5.2,4.4-8.9c-1.2-3.7-5.2-5.6-8.9-4.4c-0.4,0.1-0.9,0.3-1.2,0.6c-0.1,0.1-0.1,0.2-0.1,0.3c0,0.1,0.1,0.1,0.1,0.1
		C272.6,204.7,274.7,206.7,275.3,209.3z"/>
	<path class="st2" d="M263.5,194.6c-2.1,1.5-4.8,1.8-7.1,0.7c-0.2-0.1-0.4,0-0.5,0.2c0,0.1,0,0.2,0,0.3c0.3,0.6,0.6,1.3,1.1,1.8
		c2.4,3.1,6.8,3.7,9.9,1.3c3.1-2.4,3.7-6.8,1.3-9.9l0,0c-0.4-0.6-0.9-1.1-1.5-1.5c-0.1-0.1-0.2-0.1-0.3,0c0,0.1-0.1,0.1,0,0.2
		C266.8,190.4,265.7,193.1,263.5,194.6z"/>
</g>
<path class="st2" d="M253.5,180l4.3-5.3c0.9-1.1,2.6-1.3,3.7-0.4l0,0c1.1,0.9,1.3,2.6,0.4,3.7l-4.3,5.3c-0.9,1.1-2.6,1.3-3.7,0.4
	l0,0C252.8,182.8,252.6,181.1,253.5,180z"/>
<ellipse transform="matrix(0.6345 -0.773 0.773 0.6345 -43.9201 263.6244)" class="st3" cx="256.8" cy="178.2" rx="3.6" ry="0.6"/>
<path class="st2" d="M350.9,247.7L350.9,247.7c0.2-1.5,1.5-2.5,2.9-2.4l6.8,0.7c1.5,0.2,2.5,1.5,2.4,2.9v0c-0.2,1.4-1.5,2.5-2.9,2.4
	l-6.8-0.7C351.8,250.4,350.8,249.1,350.9,247.7z"/>
<ellipse transform="matrix(0.1083 -0.9941 0.9941 0.1083 72.7875 575.2906)" class="st3" cx="357.1" cy="247.1" rx="0.6" ry="3.6"/>
<ellipse transform="matrix(0.9395 -0.3425 0.3425 0.9395 -45.0143 87.8554)" class="st2" cx="226.2" cy="171.4" rx="6.4" ry="4.1"/>
<ellipse transform="matrix(0.9395 -0.3425 0.3425 0.9395 -44.7091 87.7063)" class="st3" cx="226" cy="170.4" rx="3.1" ry="1.4"/>
<ellipse transform="matrix(0.6665 -0.7455 0.7455 0.6665 -18.2063 205.6635)" class="st2" cx="220.8" cy="123.2" rx="4.1" ry="6.4"/>
<ellipse transform="matrix(0.6665 -0.7455 0.7455 0.6665 -17.466 205.9604)" class="st3" cx="221.5" cy="122.5" rx="1.4" ry="3.1"/>
<ellipse transform="matrix(0.9977 -6.750130e-02 6.750130e-02 0.9977 -8.7945 27.7518)" class="st2" cx="406.3" cy="144" rx="6.4" ry="4.1"/>
<ellipse transform="matrix(0.9977 -6.750130e-02 6.750130e-02 0.9977 -8.7271 27.7488)" class="st3" cx="406.3" cy="143" rx="3.1" ry="1.4"/>
<ellipse transform="matrix(0.9395 -0.3425 0.3425 0.9395 -22.1085 59.4843)" class="st2" cx="157.4" cy="92.3" rx="6.4" ry="4.1"/>
<ellipse transform="matrix(0.9395 -0.3425 0.3425 0.9395 -21.8004 59.3306)" class="st3" cx="157.1" cy="91.4" rx="3.1" ry="1.4"/>
<ellipse transform="matrix(0.5512 -0.8344 0.8344 0.5512 -51.9554 367.5243)" class="st2" cx="315.7" cy="232.1" rx="4.1" ry="6.4"/>
<ellipse transform="matrix(0.5512 -0.8344 0.8344 0.5512 -51.0342 367.5468)" class="st3" cx="316.1" cy="231.2" rx="1.4" ry="3.1"/>
<path class="st4" d="M81.2,74.9l99,51.7c10.4,7.4,17.5,18.5,19.8,31c1.3,7.2,2.4,14.2,4.3,18.7c8.3,19.5,26.3,43.9,123,90.3
	c6.5,19.1,22,32.5,40.3,32.5c24,0,43.4-23.3,43.4-52.1l0,0c0,0-69.3-29.7-104.4-53.5c-23.4-15.9-34.9-39.9-29.6-46.5
	c11.2-13.9,44.7-0.1,81.1,6.1c23.3,4,69.2,24.4,90.8,34.1l42.1,18.8c5.5,17.3,19.4,29.5,35.7,29.5c21.2,0,38.3-20.6,38.3-45.9
	l-0.1-0.2l0,0c0,0-110.8-70.8-188.4-76.1s-79.8-8.7-107.9-18.3c-31.5-10.8-102.8-47-102.8-47"/>
<g id="Sickle_Cells-8">
	<path class="st2" d="M327.6,245.1c-2.1,1.5-4.8,1.8-7.1,0.7c-0.2-0.1-0.4,0-0.5,0.2c0,0.1,0,0.2,0,0.3c0.3,0.6,0.6,1.3,1.1,1.8
		c2.4,3.1,6.8,3.6,9.9,1.2s3.6-6.8,1.2-9.9l0,0c-0.4-0.6-0.9-1.1-1.5-1.5c-0.1-0.1-0.2-0.1-0.3,0.1c0,0.1,0,0.1,0,0.2
		C330.8,240.8,329.7,243.5,327.6,245.1z"/>
	<path class="st3" d="M328,245.7c-1,0.9-2.4,1.3-3.7,1.3c-0.1,0-0.3,0.1-0.3,0.3c0,0.2,0.1,0.4,0.3,0.6c0.8,0.8,2.7,0.5,4.5-0.8
		c2-1.4,3.1-3.4,2.3-4.4c-0.1-0.2-0.3-0.3-0.5-0.4c-0.1,0-0.2,0.1-0.2,0.1C330,243.8,329.2,244.9,328,245.7z"/>
	<path class="st2" d="M303.2,234.4c-3.7-1.2-5.6-5.2-4.4-8.9c1.2-3.7,5.2-5.6,8.9-4.4c0.4,0.1,0.8,0.3,1.1,0.5
		c0.6,0.4,1.2,0.8,1.6,1.4c0.1,0.1,0.1,0.2,0,0.3c0,0-0.1,0.1-0.1,0.1h-0.1c0.5,0.5,0.9,1.1,1.2,1.7c0,0.1,0,0.2-0.1,0.3
		c0,0-0.1,0-0.1,0c-2.4-1-5.1-0.5-7,1.3l0,0c-0.6,0.6-1.1,1.4-1.3,2.3c-0.4,1.7-0.1,3.5,0.8,5c0.1,0.1,0.2,0.3,0.1,0.5
		C303.5,234.5,303.3,234.5,303.2,234.4z"/>
	<path class="st3" d="M303.5,225.9c-1,0.9-1.6,2.2-1.7,3.6c0,0.1-0.2,0.3-0.3,0.2c-0.2-0.1-0.5-0.2-0.6-0.4c-0.8-1-0.3-3,1.2-4.6
		c1.7-1.8,3.9-2.4,5-1.4c0.2,0.2,0.3,0.4,0.4,0.7c0,0.1-0.1,0.2-0.2,0.2C305.8,224.2,304.4,224.8,303.5,225.9z"/>
	<path class="st2" d="M308.2,244.5c-2.5,0.3-5.1-0.8-6.6-2.8c-0.1-0.2-0.3-0.2-0.5-0.1c-0.1,0.1-0.1,0.1-0.1,0.2
		c-0.1,0.7-0.1,1.4,0,2.1c0.6,3.8,4.2,6.5,8,5.9c3.8-0.6,6.5-4.2,5.9-8c-0.1-0.7-0.3-1.4-0.6-2c0-0.1-0.2-0.2-0.3-0.1
		c0,0-0.1,0.1-0.1,0.1C313.1,242.3,310.8,244.1,308.2,244.5z"/>
	<path class="st2" d="M323.6,227.2c-2.4,1-4,3.2-4.3,5.7c0,0.2-0.2,0.3-0.4,0.3c-0.1,0-0.2-0.1-0.2-0.1c-0.4-0.6-0.8-1.2-1-1.9
		c-1.2-3.7,0.8-7.6,4.5-8.8c3.7-1.2,7.6,0.8,8.8,4.5c0.1,0.4,0.2,0.9,0.3,1.3c0,0.1-0.1,0.2-0.2,0.2c-0.1,0-0.1,0-0.2-0.1
		C328.9,226.6,326,226.2,323.6,227.2z"/>
	<path class="st2" d="M342.4,227.9c0,2.6,1.5,4.9,3.7,6.1c0.2,0.1,0.2,0.3,0.1,0.5c0,0.1-0.1,0.1-0.2,0.2c-0.7,0.2-1.4,0.3-2.1,0.2
		c-3.9-0.1-7-3.2-6.9-7.1c0-3.9,3.2-7,7.1-6.9c0.7,0,1.4,0.1,2.1,0.3c0.1,0,0.2,0.2,0.1,0.3c0,0.1-0.1,0.1-0.1,0.1
		C343.8,222.8,342.3,225.2,342.4,227.9z"/>
</g>
<path class="st0" d="M342.2,290.4l67.7-43.4c0,0-65.4-11.6-100.5-35.4c-23.4-15.9-34.9-39.9-29.6-46.5c11.3-13.9,44.7-0.1,81.2,6.1
	c23.2,4,69.2,24.4,90.8,34.1l52.6,23.5l59.6-39.2c0,0-107-52.9-184.6-58.2s-79.8-8.7-107.9-18.3c-31.5-10.8-102-48.6-102-48.6l0,0
	c-10.1,9.8-17.9,18.3-31.9,20.5c-10,1.5-26,0.5-32.1-1l-24.3-9.1l3.3,10.8c1,4.7,4,8.6,8.2,10.9l90.4,48.2
	c10.4,7.4,17.5,18.5,19.8,31c1.3,7.2,2.4,14.2,4.3,18.7C215.7,214.7,234.8,240.2,342.2,290.4"/>
<path class="st1" d="M563.5,189.1l0.5-0.2c0,0-110.8-70.8-188.4-76.1s-79.8-8.8-107.9-18.3c-31.5-10.8-102-46.5-102-46.5l-9.4,15.8
	c-8.4,14-24,22.2-40.2,20.5c-6-0.7-11.7-2-16.9-2.9l-17-6.9l97.1,51.7c10.4,7.4,17.5,18.5,19.8,31c1.3,7.2,2.4,14.2,4.3,18.7
	c8.3,19.5,26.3,43.8,123,90.3c6.5,19.1,22,32.5,40.3,32.5c24,0,43.4-23.3,43.4-52.1H409l0.7-0.3c0,0-68.9-29.4-104-53.2
	c-23.4-15.9-35-39.9-29.7-46.4c11.3-13.9,44.7-0.1,81.2,6.1c23.3,4,69.2,24.4,90.8,34.1l42.1,18.8c5.5,17.2,19.4,29.5,35.7,29.5
	c21.2,0.1,38.3-20.6,38.3-45.9L563.5,189.1L563.5,189.1z"/>
<g id="Sickle_Cells-9">
	<path class="st2" d="M298.9,206.5c2.3,1.1,3.9,3.3,4.1,5.9c0,0.2,0.2,0.3,0.4,0.3c0.1,0,0.2-0.1,0.2-0.1c2.3-3.1,1.8-7.5-1.3-9.8
		s-7.5-1.8-9.8,1.3c-0.3,0.4-0.5,0.8-0.7,1.2c-0.3,0.6-0.5,1.3-0.6,2c0,0.1,0.1,0.2,0.2,0.2c0,0,0.1,0,0.1,0
		C293.6,205.8,296.5,205.4,298.9,206.5z"/>
	<path class="st3" d="M299.2,205.8c1.3,0.5,2.3,1.4,3,2.6c0.1,0.1,0.2,0.2,0.4,0.1c0.2-0.1,0.3-0.3,0.4-0.5c0.4-1.1-0.9-2.6-2.9-3.6
		c-2.2-1.1-4.5-1-5,0.1c-0.1,0.2-0.1,0.4-0.1,0.7c0,0.1,0.1,0.1,0.2,0.1C296.6,205,298,205.2,299.2,205.8z"/>
	<path class="st2" d="M301.3,233.1c0.9,3.8-1.5,7.5-5.3,8.4c-0.5,0.1-0.9,0.2-1.4,0.2c-3.9,0.1-7.1-2.9-7.2-6.8c0-0.2,0-0.3,0-0.5
		c0-0.7,0.1-1.4,0.4-2.1c0-0.1,0.2-0.2,0.3-0.1c0,0,0.1,0.1,0.1,0.1c0,0,0,0.1,0,0.1c0.2-0.7,0.5-1.3,0.9-1.9c0.1-0.1,0.2-0.1,0.3,0
		c0,0,0.1,0.1,0.1,0.1c0.3,2.6,2,4.7,4.5,5.6l0,0c0.8,0.3,1.8,0.3,2.6,0c1.7-0.5,3.1-1.6,4-3.1c0-0.2,0.2-0.3,0.4-0.3
		C301.2,232.7,301.3,232.9,301.3,233.1z"/>
	<path class="st3" d="M293.7,236.9c1.3,0.4,2.7,0.4,4-0.2c0.1-0.1,0.3,0,0.4,0.1c0,0.2,0,0.5-0.1,0.8c-0.5,1.2-2.5,1.7-4.6,1.1
		c-2.4-0.6-4-2.3-3.6-3.6c0.1-0.2,0.2-0.5,0.4-0.7c0.1-0.1,0.2,0,0.2,0.1C291.1,235.7,292.3,236.6,293.7,236.9z"/>
	<path class="st2" d="M307.8,223.8c1.5,2.1,1.8,4.8,0.7,7.1c-0.1,0.2,0,0.4,0.2,0.4c0.1,0,0.2,0,0.3,0c0.6-0.3,1.3-0.6,1.8-1.1
		c3.1-2.4,3.7-6.8,1.3-9.8c-2.4-3.1-6.8-3.7-9.8-1.3c-0.6,0.4-1.1,0.9-1.5,1.5c-0.1,0.1,0,0.2,0,0.3c0,0,0.1,0.1,0.2,0
		C303.5,220.5,306.2,221.6,307.8,223.8z"/>
	<path class="st2" d="M285.2,218.6c2,1.6,4.7,2,7.1,1c0.2-0.1,0.4,0,0.5,0.2c0,0.1,0,0.2,0,0.3c-0.3,0.6-0.7,1.2-1.1,1.8
		c-2.5,3-6.9,3.4-9.9,0.9s-3.4-6.9-0.9-9.9c0.5-0.6,1-1,1.6-1.4c0.1-0.1,0.2,0,0.3,0.1c0,0.1,0,0.1,0,0.2
		C282.1,214.3,283.1,217,285.2,218.6z"/>
	<path class="st2" d="M276.7,201.8c2.2-1.3,3.6-3.6,3.6-6.2c0-0.2,0.1-0.3,0.3-0.4c0.1,0,0.2,0,0.3,0.1c0.5,0.5,0.9,1.1,1.3,1.7
		c1.8,3.4,0.5,7.7-2.9,9.5s-7.7,0.5-9.5-2.9c-0.4-0.6-0.6-1.3-0.8-2c0-0.1,0-0.2,0.2-0.2c0,0,0.1,0,0.2,0
		C271.5,203,274.4,203.1,276.7,201.8z"/>
</g>
<g id="Sickle_Cells-10">
	<path class="st2" d="M304.6,243.4c0,2.6,1.4,4.9,3.7,6.2c0.2,0.1,0.2,0.3,0.1,0.5c0,0.1-0.1,0.1-0.2,0.2c-0.7,0.2-1.4,0.2-2.1,0.2
		c-3.9-0.1-6.9-3.3-6.8-7.2s3.3-6.9,7.2-6.8l0,0c0.7,0,1.4,0.1,2.1,0.3c0.1,0.1,0.2,0.2,0.1,0.3c0,0.1-0.1,0.1-0.1,0.1
		C306.2,238.3,304.6,240.7,304.6,243.4z"/>
	<path class="st3" d="M303.9,243.4c-0.1,1.4,0.3,2.7,1.1,3.8c0.1,0.1,0.1,0.3,0,0.4c-0.2,0.1-0.4,0.2-0.6,0.1
		c-1.1-0.1-2-1.9-2.1-4.1c0-2.5,0.9-4.5,2.2-4.5c0.2,0,0.5,0.1,0.6,0.2c0.1,0.1,0.1,0.2,0,0.2C304.2,240.6,303.8,242,303.9,243.4z"
		/>
	<path class="st2" d="M327.8,256.5c3.2,2.2,7.5,1.5,9.8-1.7c2.2-3.2,1.5-7.5-1.7-9.8c-0.4-0.3-0.8-0.5-1.2-0.7
		c-0.7-0.3-1.4-0.4-2.1-0.5c-0.1,0-0.2,0.1-0.2,0.2c0,0.1,0,0.1,0,0.1l0.1,0.1c-0.7-0.1-1.4-0.1-2.1,0.1c-0.1,0-0.2,0.1-0.2,0.2
		c0,0.1,0,0.1,0.1,0.1c2.2,1.3,3.5,3.8,3.2,6.4l0,0c-0.1,0.9-0.4,1.7-1,2.4c-1.2,1.3-2.8,2.2-4.5,2.4c-0.2,0-0.4,0.1-0.4,0.3
		C327.6,256.3,327.7,256.5,327.8,256.5z"/>
	<path class="st3" d="M334.5,251.2c-0.1,1.4-0.8,2.6-1.8,3.5c-0.1,0.1-0.1,0.3,0,0.4c0.2,0.1,0.5,0.2,0.7,0.2c1.3,0.1,2.6-1.5,3-3.7
		c0.4-2.4-0.4-4.6-1.8-4.8c-0.3,0-0.5,0-0.8,0.1c-0.1,0-0.1,0.2,0,0.2C334.5,248.4,334.8,249.8,334.5,251.2z"/>
	<path class="st2" d="M316.7,258.5c1.3,2.2,3.6,3.6,6.2,3.6c0.2,0,0.3,0.1,0.3,0.3c0,0.1,0,0.2-0.1,0.2c-2.9,2.6-7.3,2.4-9.9-0.5
		c-2.6-2.9-2.4-7.3,0.5-9.9c0.3-0.3,0.7-0.6,1.1-0.8c0.6-0.4,1.3-0.6,2-0.8c0.1,0,0.2,0,0.3,0.1c0,0.1,0,0.1,0,0.2
		C315.5,253.3,315.4,256.2,316.7,258.5z"/>
	<path class="st2" d="M321.4,235.9c0.6,2.5-0.1,5.1-2,6.9c-0.1,0.1-0.1,0.4,0,0.5c0.1,0.1,0.1,0.1,0.2,0.1c0.7,0,1.4-0.1,2.1-0.3
		c3.7-1.2,5.6-5.2,4.4-8.9c-1.2-3.7-5.2-5.6-8.9-4.4c-0.4,0.1-0.9,0.3-1.2,0.6c-0.1,0.1-0.1,0.2-0.1,0.3c0,0.1,0.1,0.1,0.1,0.1
		C318.6,231.3,320.7,233.3,321.4,235.9z"/>
	<path class="st2" d="M309.6,221.2c-2.1,1.5-4.8,1.8-7.1,0.7c-0.2-0.1-0.4,0-0.5,0.2c0,0.1,0,0.2,0,0.3c0.3,0.6,0.6,1.3,1.1,1.8
		c2.4,3.1,6.8,3.6,9.8,1.3s3.6-6.8,1.3-9.8c-0.4-0.6-0.9-1.1-1.5-1.5c-0.1-0.1-0.2-0.1-0.3,0c0,0.1-0.1,0.1,0,0.2
		C312.8,217,311.8,219.6,309.6,221.2z"/>
</g>
<g id="Sickle_Cells-11">
	<path class="st2" d="M244.5,191.8c-0.7-2.5,0.1-5.1,1.9-6.9c0.1-0.1,0.1-0.4,0-0.5c-0.1-0.1-0.1-0.1-0.2-0.1
		c-0.7,0-1.4,0.1-2.1,0.3c-3.7,1.1-5.8,5-4.7,8.7s5,5.8,8.7,4.7l0,0c0.7-0.2,1.4-0.5,1.9-0.9c0.1-0.1,0.1-0.2,0-0.3
		c0,0-0.1-0.1-0.1-0.1C247.4,196.3,245.2,194.4,244.5,191.8z"/>
	<path class="st3" d="M243.8,192c-0.4-1.3-0.4-2.7,0.1-4c0.1-0.1,0-0.3-0.1-0.4c-0.2-0.1-0.4-0.1-0.7,0c-1,0.4-1.4,2.3-0.9,4.5
		c0.6,2.4,2.1,4.1,3.3,3.8c0.2-0.1,0.4-0.2,0.6-0.4c0-0.1,0-0.2-0.1-0.2C244.9,194.5,244.1,193.3,243.8,192z"/>
	<path class="st2" d="M263.4,173c0.5-0.6,1-1.1,1.6-1.5c3.1-2.3,7.5-1.6,9.8,1.6s1.6,7.5-1.6,9.8c-0.6,0.4-1.2,0.8-1.9,1
		c-0.1,0-0.2,0-0.3-0.1c0-0.1,0-0.1,0-0.2v-0.1c-0.6,0.3-1.3,0.4-2,0.5c-0.1,0-0.2-0.1-0.2-0.1c0-0.1,0-0.1,0.1-0.2
		c1.8-1.9,2.3-4.6,1.4-7l0,0c-0.3-0.8-0.9-1.5-1.6-2c-1.5-1-3.2-1.4-5-1.1c-0.2,0-0.4-0.1-0.4-0.3
		C263.4,173.2,263.4,173.1,263.4,173z"/>
	<path class="st3" d="M271.2,176.4c-0.5-1.3-1.5-2.4-2.7-2.9c-0.1,0-0.2-0.3-0.1-0.4c0.2-0.2,0.4-0.3,0.6-0.4
		c1.2-0.4,2.9,0.8,3.8,2.8c1.1,2.2,0.8,4.6-0.5,5.1c-0.2,0.1-0.5,0.1-0.8,0.1c-0.1,0-0.1-0.1-0.1-0.2
		C272,179.2,271.9,177.7,271.2,176.4z"/>
	<path class="st2" d="M305.2,126.5c-0.7,0.2-1.5,0.2-2.2,0.1c-3.9-0.3-6.7-3.7-6.4-7.6s3.7-6.7,7.6-6.4c0.7,0,1.4,0.2,2.1,0.4
		c0.1,0,0.2,0.2,0.1,0.3c0,0.1-0.1,0.1-0.1,0.1h-0.1c0.7,0.2,1.3,0.5,1.9,0.9c0.1,0.1,0.1,0.2,0,0.3c0,0-0.1,0.1-0.1,0.1
		c-2.6,0.2-4.8,2-5.6,4.4l0,0c-0.3,0.8-0.3,1.7-0.1,2.6c0.5,1.7,1.6,3.2,3.1,4.1c0.2,0,0.3,0.2,0.3,0.4S305.4,126.5,305.2,126.5z"/>
	<path class="st3" d="M301.5,118.8c-0.5,1.3-0.4,2.7,0.1,4c0.1,0.1,0,0.3-0.1,0.4c-0.2,0-0.5,0-0.8-0.1c-1.2-0.5-1.7-2.5-1.1-4.6
		c0.6-2.4,2.3-4,3.7-3.6c0.2,0.1,0.5,0.2,0.7,0.4c0,0,0,0.2-0.1,0.2C302.7,116.2,301.8,117.4,301.5,118.8z"/>
	<path class="st2" d="M252.2,174c0.6-2.5,2.6-4.4,5.1-5.1c0.2-0.1,0.3-0.2,0.2-0.4c0-0.1-0.1-0.2-0.2-0.2c-0.6-0.3-1.3-0.6-2-0.7
		c-3.8-0.9-7.5,1.5-8.4,5.3c-0.9,3.8,1.5,7.5,5.3,8.4c0.7,0.2,1.4,0.2,2.1,0.2c0.1,0,0.2-0.1,0.2-0.2c0-0.1,0-0.1-0.1-0.1
		C252.4,179.3,251.5,176.6,252.2,174z"/>
	<path class="st2" d="M339.1,240.6c-2-1.6-3.1-4.1-2.7-6.6c0-0.2-0.1-0.4-0.3-0.4c-0.1,0-0.2,0-0.2,0.1c-0.6,0.4-1,0.9-1.4,1.5
		c-2.3,3.1-1.6,7.5,1.5,9.8s7.5,1.6,9.8-1.5l0,0c0.4-0.6,0.8-1.2,1-1.9c0-0.1,0-0.2-0.1-0.3c0,0-0.1,0-0.2,0
		C344,242.5,341.2,242.2,339.1,240.6z"/>
	<path class="st2" d="M371.3,263.2c-2.6-0.2-5,1.1-6.4,3.2c-0.1,0.2-0.3,0.2-0.5,0.1c-0.1,0-0.1-0.1-0.1-0.2c-0.6-3.8,2-7.4,5.8-8
		c3.8-0.6,7.4,2,8,5.8c0.1,0.4,0.1,0.9,0.1,1.3c0,0.7-0.2,1.4-0.5,2.1c0,0.1-0.2,0.2-0.3,0.1c0,0-0.1-0.1-0.1-0.1
		C376.3,265.1,374,263.4,371.3,263.2z"/>
	<path class="st2" d="M262.6,194.6c0-2.6-1.5-4.9-3.8-6.1c-0.2-0.1-0.2-0.3-0.1-0.5c0-0.1,0.1-0.1,0.2-0.2c0.7-0.2,1.4-0.3,2.1-0.2
		c3.9,0,7,3.2,6.9,7.1c0,3.9-3.2,7-7,6.9c-0.7,0-1.4-0.1-2.1-0.3c-0.1-0.1-0.2-0.2-0.1-0.3c0-0.1,0.1-0.1,0.1-0.1
		C261.2,199.7,262.7,197.3,262.6,194.6z"/>
	<path class="st2" d="M255.1,211.9c-2.4-0.9-5.1-0.4-7.1,1.2c-0.1,0.1-0.4,0.1-0.5,0c-0.1-0.1-0.1-0.2-0.1-0.3
		c0.1-0.7,0.3-1.4,0.5-2c1.5-3.6,5.6-5.3,9.2-3.8c3.6,1.5,5.3,5.6,3.8,9.2c-0.2,0.7-0.6,1.3-1,1.8c-0.1,0.1-0.2,0.1-0.3,0.1
		c0,0-0.1-0.1-0.1-0.2C259.4,215.1,257.6,212.8,255.1,211.9z"/>
</g>
<g id="Sickle_Cells-12">
	<path class="st2" d="M272.2,201.1c0-2.6-1.4-4.9-3.7-6.2c-0.2-0.1-0.2-0.3-0.1-0.5c0-0.1,0.1-0.1,0.2-0.2c0.7-0.2,1.4-0.2,2.1-0.2
		c3.9,0.1,6.9,3.3,6.8,7.2c-0.1,3.9-3.3,6.9-7.2,6.8c-0.7,0-1.4-0.1-2.1-0.3c-0.1-0.1-0.2-0.2-0.1-0.3c0-0.1,0.1-0.1,0.1-0.1
		C270.7,206.2,272.2,203.8,272.2,201.1z"/>
	<path class="st3" d="M273,201.1c0.1-1.4-0.3-2.7-1.1-3.8c-0.1-0.1-0.1-0.3,0-0.4c0.2-0.1,0.4-0.2,0.6-0.1c1.1,0.1,2,1.9,2.1,4.1
		c0.1,2.5-0.9,4.5-2.2,4.5c-0.2,0-0.5-0.1-0.6-0.2c0-0.1,0-0.2,0-0.2C272.6,203.9,273.1,202.5,273,201.1z"/>
	<path class="st2" d="M249.1,187.9c-3.2-2.2-7.5-1.5-9.8,1.7c-2.2,3.2-1.5,7.5,1.7,9.8c0.4,0.3,0.8,0.5,1.2,0.7
		c0.7,0.3,1.4,0.4,2.1,0.5c0.1,0,0.2-0.1,0.2-0.2c0-0.1,0-0.1-0.1-0.2l-0.1-0.1c0.7,0.1,1.4,0.1,2.1-0.1c0.1,0,0.2-0.1,0.2-0.2
		c0-0.1-0.1-0.1-0.1-0.1c-2.2-1.3-3.5-3.8-3.2-6.4l0,0c0.1-0.9,0.5-1.7,1.1-2.4c1.2-1.3,2.8-2.2,4.5-2.4c0.2,0,0.4-0.2,0.3-0.4
		C249.2,188.1,249.2,188,249.1,187.9z"/>
	<path class="st3" d="M242.4,193.2c0.1-1.4,0.8-2.6,1.8-3.5c0.1-0.1,0.1-0.3,0-0.4c-0.2-0.1-0.5-0.2-0.7-0.2
		c-1.3-0.1-2.6,1.5-2.9,3.7c-0.4,2.4,0.4,4.6,1.8,4.8c0.3,0,0.5,0,0.8-0.1c0.1,0,0.1-0.2,0-0.2C242.4,196.1,242.1,194.6,242.4,193.2
		z"/>
	<path class="st2" d="M197.5,85.1c-0.6-0.4-1.3-0.8-2-1c-3.6-1.4-7.7,0.5-9,4.1s0.5,7.7,4.1,9c0.7,0.3,1.4,0.4,2.1,0.5
		c0.1,0,0.2-0.1,0.2-0.2c0-0.1,0-0.1-0.1-0.2l-0.1-0.1c0.7,0.1,1.4,0.1,2.1,0c0.1,0,0.2-0.1,0.2-0.2c0-0.1,0-0.1-0.1-0.1
		c-2.2-1.3-3.5-3.8-3.2-6.4l0,0c0.1-0.9,0.5-1.8,1.1-2.4c1.2-1.3,2.8-2.2,4.5-2.4c0.2,0,0.4-0.2,0.3-0.4
		C197.7,85.3,197.6,85.2,197.5,85.1z"/>
	<path class="st3" d="M190.9,90.4c0.1-1.4,0.8-2.7,1.8-3.6c0.1-0.1,0.1-0.3,0-0.4c-0.2-0.1-0.5-0.2-0.7-0.2
		c-1.3-0.1-2.6,1.5-2.9,3.7c-0.4,2.4,0.4,4.6,1.8,4.8c0.3,0,0.5,0,0.8-0.1c0.1-0.1,0.1-0.2,0.1-0.2
		C190.9,93.3,190.6,91.8,190.9,90.4z"/>
	<path class="st2" d="M470.5,164.8c-0.7,0.3-1.3,0.7-1.9,1.2c-3,2.4-3.5,6.9-1,9.9c2.4,3,6.9,3.5,9.9,1c0.6-0.4,1.1-0.9,1.5-1.5
		c0.1-0.1,0-0.2-0.1-0.3c0,0-0.1,0-0.1,0h-0.1c0.4-0.6,0.8-1.2,1-1.8c0-0.1,0-0.2-0.1-0.2c0,0-0.1,0-0.1,0c-2.3,1.2-5,1.1-7.1-0.5
		l0,0c-0.7-0.5-1.2-1.3-1.5-2.1c-0.5-1.7-0.5-3.5,0.2-5.1c0.1-0.2,0-0.4-0.2-0.4C470.6,164.8,470.5,164.8,470.5,164.8z"/>
	<path class="st3" d="M471.7,173.2c-1.1-0.8-1.9-2-2.1-3.4c0-0.1-0.2-0.3-0.3-0.2c-0.2,0.1-0.4,0.3-0.6,0.5c-0.7,1,0,3,1.7,4.4
		c1.9,1.6,4.2,2,5.1,0.9c0.2-0.2,0.3-0.4,0.3-0.7c0-0.1-0.1-0.2-0.2-0.2C474.2,174.7,472.8,174.2,471.7,173.2z"/>
	<path class="st2" d="M260.2,185.9c-1.3-2.2-3.6-3.6-6.2-3.6c-0.2,0-0.3-0.1-0.4-0.3c0-0.1,0-0.2,0.1-0.3c0.5-0.5,1.1-0.9,1.7-1.2
		c3.4-1.8,7.7-0.5,9.5,2.9s0.5,7.7-2.9,9.5c-0.6,0.4-1.3,0.6-2,0.8c-0.1,0-0.2,0-0.3-0.1c0-0.1,0-0.1,0-0.2
		C261.3,191.1,261.5,188.2,260.2,185.9z"/>
	<path class="st2" d="M255.5,208.5c-0.6-2.5,0.1-5.1,2-6.9c0.1-0.1,0.1-0.4,0-0.5c-0.1-0.1-0.1-0.1-0.2-0.1c-0.7,0-1.4,0.1-2.1,0.3
		c-3.7,1-5.9,4.9-4.9,8.6c1,3.7,4.9,5.9,8.7,4.9c0.7-0.2,1.4-0.4,2-0.8c0.1-0.1,0.1-0.2,0.1-0.3c0-0.1-0.1-0.1-0.1-0.1
		C258.3,213.1,256.2,211.1,255.5,208.5z"/>
	<path class="st2" d="M267.3,223.2c2.1-1.5,4.8-1.8,7.1-0.7c0.2,0.1,0.4,0,0.5-0.2c0-0.1,0-0.2,0-0.3c-1.4-3.6-5.5-5.4-9.1-4
		c-0.5,0.2-0.9,0.4-1.3,0.7c-3.2,2.1-4.1,6.4-2,9.7c0.1,0.1,0.1,0.2,0.2,0.3c0.4,0.6,0.9,1.1,1.5,1.5c0.1,0.1,0.2,0.1,0.3-0.1
		c0-0.1,0-0.1,0-0.2C264,227.4,265.1,224.8,267.3,223.2z"/>
</g>
<g id="Sickle_Cells-13">
	<path class="st2" d="M278.2,213.1c0-2.6,1.4-4.9,3.7-6.2c0.2-0.1,0.2-0.3,0.1-0.5c0-0.1-0.1-0.1-0.2-0.2c-0.7-0.2-1.4-0.2-2.1-0.2
		c-3.9,0.3-6.7,3.7-6.4,7.5s3.7,6.7,7.5,6.4c0.5,0,0.9-0.1,1.3-0.2c0.1,0,0.2-0.2,0.1-0.3c0-0.1-0.1-0.1-0.1-0.1
		C279.7,218.2,278.2,215.8,278.2,213.1z"/>
	<path class="st3" d="M277.4,213.1c-0.1-1.4,0.3-2.7,1.1-3.8c0.1-0.1,0.1-0.3,0-0.4c-0.2-0.1-0.4-0.1-0.6-0.1
		c-1.1,0.1-2,1.9-2.1,4.1c-0.1,2.5,0.9,4.5,2.2,4.5c0.2,0,0.5-0.1,0.6-0.2c0-0.1,0-0.2,0-0.2C277.8,215.9,277.3,214.5,277.4,213.1z"
		/>
	<path class="st2" d="M301.3,200c3.2-2.2,7.5-1.5,9.8,1.7c2.2,3.2,1.5,7.5-1.7,9.8c-0.4,0.3-0.8,0.5-1.2,0.7
		c-0.7,0.3-1.4,0.4-2.1,0.5c-0.1,0-0.2-0.1-0.2-0.2c0-0.1,0-0.1,0-0.2l0.1-0.1c-0.7,0.1-1.4,0.1-2.1,0c-0.1,0-0.2-0.1-0.2-0.2
		c0-0.1,0-0.1,0.1-0.1c2.2-1.3,3.5-3.8,3.2-6.4l0,0c-0.1-0.9-0.5-1.7-1-2.4c-1.2-1.3-2.8-2.2-4.5-2.4c-0.2,0.1-0.4-0.1-0.4-0.2
		C301,200.2,301.1,200,301.3,200z"/>
	<path class="st3" d="M308,205.3c-0.1-1.4-0.8-2.6-1.8-3.6c-0.1-0.1-0.1-0.3,0-0.4c0.2-0.1,0.5-0.2,0.7-0.2c1.3-0.1,2.6,1.5,3,3.7
		c0.4,2.4-0.4,4.6-1.8,4.8c-0.3,0-0.5,0-0.8-0.1c-0.1-0.1-0.1-0.2,0-0.2C308,208.1,308.3,206.7,308,205.3z"/>
	<path class="st2" d="M290.2,197.9c1.2-2.2,3.6-3.6,6.2-3.6c0.2,0,0.3-0.1,0.3-0.3c0-0.1,0-0.2-0.1-0.2c-0.5-0.5-1.1-0.9-1.7-1.2
		c-3.4-1.8-7.7-0.5-9.5,2.9s-0.5,7.7,2.9,9.5c0.6,0.4,1.3,0.6,2,0.8c0.1,0,0.2,0,0.3-0.1c0-0.1,0-0.1,0-0.2
		C289,203.2,288.9,200.3,290.2,197.9z"/>
	<path class="st2" d="M294.9,220.6c0.6-2.5-0.1-5.1-2-6.9c-0.1-0.1-0.1-0.3,0-0.5c0.1-0.1,0.2-0.1,0.3-0.1c0.7,0,1.4,0.1,2.1,0.3
		c3.7,1,5.9,4.9,4.9,8.6s-4.9,5.9-8.6,4.9l0,0c-0.7-0.2-1.4-0.4-2-0.8c-0.1-0.1-0.1-0.2-0.1-0.3c0-0.1,0.1-0.1,0.1-0.1
		C292.1,225.2,294.2,223.2,294.9,220.6z"/>
	<path class="st2" d="M283.1,235.3c-2.1-1.5-4.8-1.8-7.1-0.7c-0.2,0.1-0.4,0-0.5-0.2c0-0.1,0-0.2,0-0.3c1.5-3.6,5.7-5.2,9.2-3.6
		s5.2,5.7,3.6,9.2c-0.2,0.4-0.4,0.8-0.6,1.2c-0.4,0.6-0.9,1.1-1.5,1.5c-0.1,0.1-0.2,0.1-0.3-0.1c0-0.1,0-0.1,0-0.2
		C286.3,239.5,285.2,236.8,283.1,235.3z"/>
	<path class="st2" d="M141,92.4c-2.1-1.5-4.8-1.8-7.1-0.7c-0.2,0.1-0.4,0-0.5-0.2c0-0.1,0-0.2,0-0.3c0.3-0.7,0.6-1.3,1.1-1.8
		c2.4-3.1,6.8-3.7,9.9-1.3s3.7,6.8,1.3,9.8c-0.4,0.6-0.9,1.1-1.5,1.5c-0.1,0.1-0.2,0.1-0.3-0.1c0-0.1-0.1-0.1,0-0.2
		C144.2,96.7,143.1,94,141,92.4z"/>
</g>
<g id="Sickle_Cells-14">
	<path class="st2" d="M311.6,211c2.6,0,4.9,1.4,6.2,3.7c0.1,0.2,0.3,0.2,0.5,0.1c0.1-0.1,0.1-0.1,0.2-0.2c0.2-0.7,0.2-1.4,0.2-2.1
		c-0.1-3.9-3.3-6.9-7.2-6.9s-7,3.3-6.9,7.2l0,0c0,0.7,0.1,1.4,0.3,2.1c0,0.1,0.2,0.2,0.3,0.1c0,0,0.1-0.1,0.1-0.1
		C306.5,212.5,308.9,211,311.6,211z"/>
	<path class="st3" d="M311.6,210.2c1.4-0.1,2.7,0.3,3.8,1.1c0.1,0.1,0.3,0.1,0.4,0c0.1-0.2,0.1-0.4,0.1-0.6c-0.1-1.1-1.9-2-4.1-2.1
		c-2.5-0.1-4.5,0.9-4.5,2.2c0,0.2,0.1,0.5,0.2,0.6c0.1,0.1,0.2,0.1,0.2,0C308.8,210.6,310.2,210.2,311.6,210.2z"/>
	<path class="st2" d="M324.8,234.2c0.4,0.6,0.8,1.3,1,2c1.4,3.6-0.5,7.7-4.1,9c-3.6,1.4-7.7-0.5-9-4.1c-0.3-0.7-0.4-1.4-0.5-2.1
		c0-0.1,0.1-0.2,0.2-0.2c0.1,0,0.1,0,0.1,0.1l0.1,0.1c-0.1-0.7-0.1-1.4,0-2.1c0-0.1,0.1-0.2,0.2-0.1c0,0,0.1,0,0.1,0.1
		c1.3,2.2,3.8,3.5,6.4,3.2l0,0c0.9-0.1,1.7-0.5,2.4-1.1c1.3-1.2,2.2-2.8,2.4-4.5c0-0.2,0.1-0.4,0.3-0.4
		C324.6,234,324.7,234.1,324.8,234.2z"/>
	<path class="st3" d="M319.5,240.8c1.4-0.1,2.6-0.8,3.5-1.8c0.1-0.1,0.3-0.1,0.4,0c0.1,0.2,0.2,0.5,0.2,0.7c0.1,1.3-1.5,2.6-3.7,3
		c-2.4,0.4-4.6-0.4-4.8-1.8c0-0.3,0-0.5,0.1-0.8c0.1-0.1,0.2-0.1,0.2,0C316.6,240.9,318.1,241.1,319.5,240.8z"/>
	<path class="st2" d="M326.8,223c2.2,1.3,3.6,3.6,3.6,6.2c0,0.2,0.1,0.3,0.3,0.3c0.1,0,0.2,0,0.2-0.1c0.5-0.5,0.9-1.1,1.2-1.7
		c1.8-3.4,0.5-7.7-2.9-9.5s-7.7-0.5-9.5,2.9c-0.4,0.6-0.6,1.3-0.8,2c0,0.1,0,0.2,0.1,0.3c0.1,0,0.1,0,0.2,0
		C321.6,221.9,324.5,221.7,326.8,223z"/>
	<path class="st2" d="M304.2,227.7c2.5,0.6,5.1-0.1,6.9-2c0.1-0.1,0.3-0.1,0.5,0c0.1,0.1,0.1,0.2,0.1,0.3c0,0.7-0.1,1.4-0.3,2.1
		c-1,3.7-4.9,5.9-8.6,4.9s-5.9-4.9-4.9-8.6l0,0c0.2-0.7,0.5-1.4,0.8-2c0.1-0.1,0.2-0.1,0.3-0.1c0.1,0,0.1,0.1,0.1,0.1
		C299.6,225,301.6,227.1,304.2,227.7z"/>
	<path class="st2" d="M289.5,215.9c1.5-2.1,1.8-4.8,0.7-7.1c-0.1-0.2,0-0.4,0.2-0.4c0.1,0,0.2,0,0.3,0c3.6,1.4,5.4,5.5,4,9.1
		c-0.2,0.5-0.4,0.9-0.7,1.3c-2.1,3.2-6.5,4.1-9.7,2c-0.1-0.1-0.2-0.1-0.3-0.2c-0.6-0.4-1.1-0.9-1.5-1.5c-0.1-0.1,0-0.2,0-0.3
		c0,0,0.1-0.1,0.2,0C285.2,219.2,287.9,218.1,289.5,215.9z"/>
</g>
<g id="Sickle_Cells-15">
	<path class="st2" d="M258.6,216.8c0,2.6,1.4,4.9,3.7,6.2c0.2,0.1,0.2,0.3,0.1,0.5c0,0.1-0.1,0.1-0.2,0.2c-0.7,0.2-1.4,0.2-2.1,0.2
		c-3.9-0.1-6.9-3.3-6.8-7.2s3.3-6.9,7.2-6.8c0.7,0,1.4,0.1,2.1,0.3c0.1,0.1,0.2,0.2,0.1,0.3c0,0.1-0.1,0.1-0.1,0.1
		C260.1,211.7,258.6,214.1,258.6,216.8z"/>
	<path class="st3" d="M257.9,216.8c-0.1,1.4,0.3,2.7,1.1,3.8c0.1,0.1,0.1,0.3,0,0.4c-0.2,0.1-0.4,0.1-0.6,0.1
		c-1.1-0.1-2-1.9-2.1-4.1c0-2.5,0.9-4.5,2.2-4.5c0.2,0,0.5,0.1,0.6,0.2c0.1,0.1,0.1,0.2,0,0.2C258.2,214,257.8,215.4,257.9,216.8z"
		/>
	<path class="st2" d="M281.8,229.9c3.2,2.2,7.5,1.5,9.8-1.7c2.2-3.2,1.5-7.5-1.7-9.8c-0.4-0.3-0.8-0.5-1.2-0.7
		c-0.7-0.3-1.4-0.4-2.1-0.5c-0.1,0-0.2,0.1-0.2,0.2c0,0.1,0,0.1,0,0.1l0.1,0.1c-0.7-0.1-1.4-0.1-2.1,0c-0.1,0-0.2,0.1-0.2,0.2
		c0,0.1,0,0.1,0.1,0.1c2.2,1.3,3.5,3.8,3.2,6.4l0,0c-0.1,0.9-0.5,1.7-1,2.4c-1.2,1.3-2.8,2.2-4.5,2.4c-0.2,0-0.4,0.1-0.4,0.3
		C281.5,229.7,281.6,229.9,281.8,229.9z"/>
	<path class="st3" d="M288.4,224.6c-0.1,1.4-0.8,2.6-1.8,3.6c-0.1,0.1-0.1,0.3,0,0.4c0.2,0.1,0.5,0.2,0.7,0.2c1.3,0.1,2.6-1.5,3-3.7
		c0.4-2.4-0.4-4.6-1.8-4.8c-0.3,0-0.5,0-0.8,0.1c-0.1,0.1-0.1,0.2,0,0.2C288.5,221.8,288.7,223.2,288.4,224.6z"/>
	<path class="st2" d="M270.7,231.9c1.3,2.2,3.6,3.6,6.2,3.6c0.2,0,0.3,0.2,0.3,0.4c0,0.1,0,0.2-0.1,0.2c-0.5,0.5-1.1,0.9-1.7,1.2
		c-3.4,1.8-7.7,0.5-9.5-2.9s-0.5-7.7,2.9-9.5c0.6-0.4,1.3-0.6,2-0.8c0.1,0,0.2,0,0.3,0.1c0,0.1,0,0.1,0,0.2
		C269.5,226.7,269.4,229.6,270.7,231.9z"/>
	<path class="st2" d="M275.3,209.3c0.6,2.5-0.1,5.1-2,6.9c-0.1,0.1-0.1,0.3,0,0.5c0.1,0.1,0.2,0.1,0.3,0.1c0.7,0,1.4-0.1,2.1-0.3
		c3.7-1.2,5.6-5.2,4.4-8.9c-1.2-3.7-5.2-5.6-8.9-4.4c-0.4,0.1-0.9,0.3-1.2,0.6c-0.1,0.1-0.1,0.2-0.1,0.3c0,0.1,0.1,0.1,0.1,0.1
		C272.6,204.7,274.7,206.7,275.3,209.3z"/>
	<path class="st2" d="M263.5,194.6c-2.1,1.5-4.8,1.8-7.1,0.7c-0.2-0.1-0.4,0-0.5,0.2c0,0.1,0,0.2,0,0.3c0.3,0.6,0.6,1.3,1.1,1.8
		c2.4,3.1,6.8,3.7,9.9,1.3c3.1-2.4,3.7-6.8,1.3-9.9l0,0c-0.4-0.6-0.9-1.1-1.5-1.5c-0.1-0.1-0.2-0.1-0.3,0c0,0.1-0.1,0.1,0,0.2
		C266.8,190.4,265.7,193.1,263.5,194.6z"/>
</g>
<path class="st2" d="M253.9,183.7L253.9,183.7c-1.1-0.9-1.3-2.6-0.4-3.7l4.3-5.3c0.9-1.1,2.6-1.3,3.7-0.4l0,0
	c1.1,0.9,1.3,2.6,0.4,3.7l-4.3,5.3C256.7,184.5,255,184.7,253.9,183.7z"/>
<ellipse transform="matrix(0.6345 -0.773 0.773 0.6345 -43.9201 263.6244)" class="st3" cx="256.8" cy="178.2" rx="3.6" ry="0.6"/>
<path class="st2" d="M350.9,247.7L350.9,247.7c0.2-1.5,1.5-2.5,2.9-2.4l6.8,0.7c1.5,0.2,2.5,1.5,2.4,2.9v0c-0.2,1.4-1.5,2.5-2.9,2.4
	l-6.8-0.7C351.8,250.4,350.8,249.1,350.9,247.7z"/>
<ellipse transform="matrix(0.1083 -0.9941 0.9941 0.1083 72.7875 575.2906)" class="st3" cx="357.1" cy="247.1" rx="0.6" ry="3.6"/>
<ellipse transform="matrix(0.9395 -0.3425 0.3425 0.9395 -45.0143 87.8554)" class="st2" cx="226.2" cy="171.4" rx="6.4" ry="4.1"/>
<ellipse transform="matrix(0.9395 -0.3425 0.3425 0.9395 -44.7091 87.7063)" class="st3" cx="226" cy="170.4" rx="3.1" ry="1.4"/>
<ellipse transform="matrix(0.6665 -0.7455 0.7455 0.6665 -18.2063 205.6635)" class="st2" cx="220.8" cy="123.2" rx="4.1" ry="6.4"/>
<ellipse transform="matrix(0.6665 -0.7455 0.7455 0.6665 -17.466 205.9604)" class="st3" cx="221.5" cy="122.5" rx="1.4" ry="3.1"/>
<ellipse transform="matrix(0.9977 -6.750130e-02 6.750130e-02 0.9977 -8.7945 27.7518)" class="st2" cx="406.3" cy="144" rx="6.4" ry="4.1"/>
<ellipse transform="matrix(0.9977 -6.750130e-02 6.750130e-02 0.9977 -8.7271 27.7488)" class="st3" cx="406.3" cy="143" rx="3.1" ry="1.4"/>
<ellipse transform="matrix(0.9395 -0.3425 0.3425 0.9395 -22.1085 59.4843)" class="st2" cx="157.4" cy="92.3" rx="6.4" ry="4.1"/>
<ellipse transform="matrix(0.9395 -0.3425 0.3425 0.9395 -21.8004 59.3306)" class="st3" cx="157.1" cy="91.4" rx="3.1" ry="1.4"/>
<ellipse transform="matrix(0.5512 -0.8344 0.8344 0.5512 -51.9554 367.5243)" class="st2" cx="315.7" cy="232.1" rx="4.1" ry="6.4"/>
<ellipse transform="matrix(0.5512 -0.8344 0.8344 0.5512 -51.0342 367.5468)" class="st3" cx="316.1" cy="231.2" rx="1.4" ry="3.1"/>
<path class="st4" d="M81.2,74.9l99,51.7c10.4,7.4,17.5,18.5,19.8,31c1.3,7.2,2.4,14.2,4.3,18.7c8.3,19.5,26.3,43.9,123,90.3
	c6.5,19.1,22,32.5,40.3,32.5c24,0,43.4-23.3,43.4-52.1l0,0c0,0-69.3-29.7-104.4-53.5c-23.4-15.9-34.9-39.9-29.6-46.5
	c11.2-13.9,44.7-0.1,81.1,6.1c23.3,4,69.2,24.4,90.8,34.1l42.1,18.8c5.5,17.3,19.4,29.5,35.7,29.5c21.2,0,38.3-20.6,38.3-45.9
	l-0.1-0.2l0,0c0,0-110.8-70.8-188.4-76.1s-79.8-8.7-107.9-18.3c-31.5-10.8-102.8-47-102.8-47"/>
<g id="Sickle_Cells-16">
	<path class="st2" d="M327.6,245.1c-2.1,1.5-4.8,1.8-7.1,0.7c-0.2-0.1-0.4,0-0.5,0.2c0,0.1,0,0.2,0,0.3c0.3,0.6,0.6,1.3,1.1,1.8
		c2.4,3.1,6.8,3.6,9.9,1.2s3.6-6.8,1.2-9.9l0,0c-0.4-0.6-0.9-1.1-1.5-1.5c-0.1-0.1-0.2-0.1-0.3,0.1c0,0.1,0,0.1,0,0.2
		C330.8,240.8,329.7,243.5,327.6,245.1z"/>
	<path class="st3" d="M328,245.7c-1,0.9-2.4,1.3-3.7,1.3c-0.1,0-0.3,0.1-0.3,0.3c0,0.2,0.1,0.4,0.3,0.6c0.8,0.8,2.7,0.5,4.5-0.8
		c2-1.4,3.1-3.4,2.3-4.4c-0.1-0.2-0.3-0.3-0.5-0.4c-0.1,0-0.2,0.1-0.2,0.1C330,243.8,329.2,244.9,328,245.7z"/>
	<path class="st2" d="M303.2,234.4c-3.7-1.2-5.6-5.2-4.4-8.9c1.2-3.7,5.2-5.6,8.9-4.4c0.4,0.1,0.8,0.3,1.1,0.5
		c0.6,0.4,1.2,0.8,1.6,1.4c0.1,0.1,0.1,0.2,0,0.3c0,0-0.1,0.1-0.1,0.1h-0.1c0.5,0.5,0.9,1.1,1.2,1.7c0,0.1,0,0.2-0.1,0.3
		c0,0-0.1,0-0.1,0c-2.4-1-5.1-0.5-7,1.3l0,0c-0.6,0.6-1.1,1.4-1.3,2.3c-0.4,1.7-0.1,3.5,0.8,5c0.1,0.1,0.2,0.3,0.1,0.5
		C303.5,234.5,303.3,234.5,303.2,234.4z"/>
	<path class="st3" d="M303.5,225.9c-1,0.9-1.6,2.2-1.7,3.6c0,0.1-0.2,0.3-0.3,0.2c-0.2-0.1-0.5-0.2-0.6-0.4c-0.8-1-0.3-3,1.2-4.6
		c1.7-1.8,3.9-2.4,5-1.4c0.2,0.2,0.3,0.4,0.4,0.7c0,0.1-0.1,0.2-0.2,0.2C305.8,224.2,304.4,224.8,303.5,225.9z"/>
	<path class="st2" d="M308.2,244.5c-2.5,0.3-5.1-0.8-6.6-2.8c-0.1-0.2-0.3-0.2-0.5-0.1c-0.1,0.1-0.1,0.1-0.1,0.2
		c-0.1,0.7-0.1,1.4,0,2.1c0.6,3.8,4.2,6.5,8,5.9c3.8-0.6,6.5-4.2,5.9-8c-0.1-0.7-0.3-1.4-0.6-2c0-0.1-0.2-0.2-0.3-0.1
		c0,0-0.1,0.1-0.1,0.1C313.1,242.3,310.8,244.1,308.2,244.5z"/>
	<path class="st2" d="M323.6,227.2c-2.4,1-4,3.2-4.3,5.7c0,0.2-0.2,0.3-0.4,0.3c-0.1,0-0.2-0.1-0.2-0.1c-0.4-0.6-0.8-1.2-1-1.9
		c-1.2-3.7,0.8-7.6,4.5-8.8c3.7-1.2,7.6,0.8,8.8,4.5c0.1,0.4,0.2,0.9,0.3,1.3c0,0.1-0.1,0.2-0.2,0.2c-0.1,0-0.1,0-0.2-0.1
		C328.9,226.6,326,226.2,323.6,227.2z"/>
	<path class="st2" d="M342.4,227.9c0,2.6,1.5,4.9,3.7,6.1c0.2,0.1,0.2,0.3,0.1,0.5c0,0.1-0.1,0.1-0.2,0.2c-0.7,0.2-1.4,0.3-2.1,0.2
		c-3.9-0.1-7-3.2-6.9-7.1c0-3.9,3.2-7,7.1-6.9c0.7,0,1.4,0.1,2.1,0.3c0.1,0,0.2,0.2,0.1,0.3c0,0.1-0.1,0.1-0.1,0.1
		C343.8,222.8,342.3,225.2,342.4,227.9z"/>
</g>
<g id="Sickle_Cells-15_1_">
	<path class="st2" d="M273.8,212.8c0,2.6,1.4,4.9,3.7,6.2c0.2,0.1,0.2,0.3,0.1,0.5c0,0.1-0.1,0.1-0.2,0.2c-0.7,0.2-1.4,0.2-2.1,0.2
		c-3.9-0.1-6.9-3.3-6.8-7.2s3.3-6.9,7.2-6.8c0.7,0,1.4,0.1,2.1,0.3c0.1,0.1,0.2,0.2,0.1,0.3c0,0.1-0.1,0.1-0.1,0.1
		C275.3,207.8,273.8,210.2,273.8,212.8z"/>
	<path class="st3" d="M273.1,212.8c-0.1,1.4,0.3,2.7,1.1,3.8c0.1,0.1,0.1,0.3,0,0.4c-0.2,0.1-0.4,0.1-0.6,0.1
		c-1.1-0.1-2-1.9-2.1-4.1c0-2.5,0.9-4.5,2.2-4.5c0.2,0,0.5,0.1,0.6,0.2c0.1,0.1,0.1,0.2,0,0.2C273.4,210.1,273,211.4,273.1,212.8z"
		/>
	<path class="st2" d="M297,226c3.2,2.2,7.5,1.5,9.8-1.7c2.2-3.2,1.5-7.5-1.7-9.8c-0.4-0.3-0.8-0.5-1.2-0.7c-0.7-0.3-1.4-0.4-2.1-0.5
		c-0.1,0-0.2,0.1-0.2,0.2c0,0.1,0,0.1,0,0.1l0.1,0.1c-0.7-0.1-1.4-0.1-2.1,0c-0.1,0-0.2,0.1-0.2,0.2c0,0.1,0,0.1,0.1,0.1
		c2.2,1.3,3.5,3.8,3.2,6.4l0,0c-0.1,0.9-0.5,1.7-1,2.4c-1.2,1.3-2.8,2.2-4.5,2.4c-0.2,0-0.4,0.1-0.4,0.3
		C296.8,225.8,296.8,226,297,226z"/>
	<path class="st3" d="M303.6,220.7c-0.1,1.4-0.8,2.6-1.8,3.6c-0.1,0.1-0.1,0.3,0,0.4c0.2,0.1,0.5,0.2,0.7,0.2c1.3,0.1,2.6-1.5,3-3.7
		c0.4-2.4-0.4-4.6-1.8-4.8c-0.3,0-0.5,0-0.8,0.1c-0.1,0.1-0.1,0.2,0,0.2C303.7,217.8,303.9,219.3,303.6,220.7z"/>
	<path class="st2" d="M285.9,228c1.3,2.2,3.6,3.6,6.2,3.6c0.2,0,0.3,0.2,0.3,0.4c0,0.1,0,0.2-0.1,0.2c-0.5,0.5-1.1,0.9-1.7,1.2
		c-3.4,1.8-7.7,0.5-9.5-2.9s-0.5-7.7,2.9-9.5c0.6-0.4,1.3-0.6,2-0.8c0.1,0,0.2,0,0.3,0.1c0,0.1,0,0.1,0,0.2
		C284.7,222.8,284.6,225.7,285.9,228z"/>
	<path class="st2" d="M290.5,205.4c0.6,2.5-0.1,5.1-2,6.9c-0.1,0.1-0.1,0.3,0,0.5c0.1,0.1,0.2,0.1,0.3,0.1c0.7,0,1.4-0.1,2.1-0.3
		c3.7-1.2,5.6-5.2,4.4-8.9c-1.2-3.7-5.2-5.6-8.9-4.4c-0.4,0.1-0.9,0.3-1.2,0.6c-0.1,0.1-0.1,0.2-0.1,0.3c0,0.1,0.1,0.1,0.1,0.1
		C287.8,200.8,289.9,202.8,290.5,205.4z"/>
	<path class="st2" d="M278.8,190.7c-2.1,1.5-4.8,1.8-7.1,0.7c-0.2-0.1-0.4,0-0.5,0.2c0,0.1,0,0.2,0,0.3c0.3,0.6,0.6,1.3,1.1,1.8
		c2.4,3.1,6.8,3.7,9.9,1.3c3.1-2.4,3.7-6.8,1.3-9.9l0,0c-0.4-0.6-0.9-1.1-1.5-1.5c-0.1-0.1-0.2-0.1-0.3,0c0,0.1-0.1,0.1,0,0.2
		C282,186.5,280.9,189.1,278.8,190.7z"/>
</g>
<g id="Sickle_Cells-16_1_">
	<path class="st2" d="M288.2,233.7c-2.6-0.3-4.7-2-5.6-4.4c-0.1-0.2-0.3-0.3-0.5-0.2c-0.1,0-0.2,0.1-0.2,0.2
		c-0.3,0.7-0.4,1.3-0.5,2.1c-0.4,3.9,2.4,7.3,6.2,7.7s7.3-2.4,7.7-6.2l0,0c0.1-0.7,0.1-1.4,0-2.1c0-0.1-0.1-0.2-0.2-0.2
		c-0.1,0-0.1,0-0.1,0.1C293.5,232.8,290.9,234,288.2,233.7z"/>
	<path class="st3" d="M288.2,234.4c-1.4-0.1-2.6-0.7-3.6-1.6c-0.1-0.1-0.3-0.1-0.4,0c-0.1,0.2-0.2,0.4-0.2,0.6
		c0,1.1,1.6,2.2,3.8,2.6c2.4,0.4,4.6-0.3,4.8-1.6c0-0.2,0-0.5-0.1-0.7c-0.1-0.1-0.2-0.1-0.2,0C291,234.4,289.5,234.7,288.2,234.4z"
		/>
	<path class="st2" d="M278.2,209c-1.8-3.4-0.4-7.7,3-9.4c3.4-1.8,7.7-0.4,9.4,3c0.2,0.4,0.3,0.8,0.5,1.2c0.2,0.7,0.3,1.4,0.2,2.1
		c0,0.1-0.1,0.2-0.2,0.2c-0.1,0-0.1,0-0.1-0.1l-0.1-0.1c0,0.7-0.1,1.4-0.3,2.1c0,0.1-0.2,0.2-0.3,0.1c0,0-0.1-0.1-0.1-0.1
		c-1-2.4-3.3-3.9-5.9-4l0,0c-0.9,0-1.8,0.3-2.5,0.7c-1.4,1-2.5,2.5-2.9,4.2c0,0.2-0.1,0.4-0.3,0.4
		C278.4,209.3,278.3,209.2,278.2,209z"/>
	<path class="st3" d="M284.4,203.1c-1.4-0.1-2.7,0.4-3.8,1.4c-0.1,0.1-0.3,0.1-0.4,0c-0.1-0.2-0.2-0.5-0.1-0.7
		c0.1-1.3,1.9-2.4,4.1-2.4c2.5-0.1,4.5,1,4.6,2.4c0,0.3-0.1,0.5-0.2,0.8c0,0.1-0.2,0.1-0.2,0C287.2,203.5,285.8,203,284.4,203.1z"/>
	<path class="st2" d="M274.8,219.7c-2.1-1.5-3.1-4.1-2.7-6.6c0-0.2-0.1-0.4-0.3-0.4c-0.1,0-0.2,0-0.3,0.1c-0.6,0.4-1,1-1.4,1.5
		c-2.3,3.2-1.5,7.5,1.6,9.8c3.2,2.3,7.5,1.5,9.8-1.6c0.4-0.6,0.7-1.2,1-1.8c0-0.1,0-0.2-0.1-0.3c0,0-0.1,0-0.2,0
		C279.8,221.6,276.9,221.3,274.8,219.7z"/>
	<path class="st2" d="M297.9,218.1c-2.4-1-5.1-0.5-7.1,1.1c-0.1,0.1-0.4,0.1-0.5-0.1c-0.1-0.1-0.1-0.2-0.1-0.3
		c0.1-0.7,0.3-1.4,0.6-2c1.7-3.5,5.9-4.9,9.4-3.2c3.5,1.7,4.9,5.9,3.2,9.4c-0.2,0.4-0.4,0.8-0.7,1.1c-0.1,0.1-0.2,0.1-0.3,0
		c-0.1,0-0.1-0.1-0.1-0.2C302.1,221.4,300.3,219.1,297.9,218.1z"/>
	<path class="st2" d="M310.8,231.7c-1.8,1.9-2.4,4.5-1.6,7c0.1,0.2,0,0.4-0.2,0.4c-0.1,0-0.2,0-0.3,0c-0.6-0.3-1.2-0.8-1.7-1.3
		c-2.7-2.7-2.7-7.2,0-9.9c2.7-2.7,7.2-2.7,9.9,0c0.5,0.5,1,1.1,1.3,1.7c0.1,0.1,0,0.2-0.1,0.3c0,0-0.1,0-0.2,0
		C315.5,229,312.7,229.7,310.8,231.7z"/>
</g>
<g id="Sickle_Cells-15_2_">
	<path class="st2" d="M272,211.1c0,2.6,1.4,4.9,3.7,6.2c0.2,0.1,0.2,0.3,0.1,0.5c0,0.1-0.1,0.1-0.2,0.2c-0.7,0.2-1.4,0.2-2.1,0.2
		c-3.9-0.1-6.9-3.3-6.8-7.2s3.3-6.9,7.2-6.8c0.7,0,1.4,0.1,2.1,0.3c0.1,0.1,0.2,0.2,0.1,0.3c0,0.1-0.1,0.1-0.1,0.1
		C273.5,206,272,208.5,272,211.1z"/>
	<path class="st3" d="M271.2,211.1c-0.1,1.4,0.3,2.7,1.1,3.8c0.1,0.1,0.1,0.3,0,0.4c-0.2,0.1-0.4,0.1-0.6,0.1
		c-1.1-0.1-2-1.9-2.1-4.1c0-2.5,0.9-4.5,2.2-4.5c0.2,0,0.5,0.1,0.6,0.2c0.1,0.1,0.1,0.2,0,0.2C271.6,208.4,271.1,209.7,271.2,211.1z
		"/>
	<path class="st2" d="M295.1,224.3c3.2,2.2,7.5,1.5,9.8-1.7c2.2-3.2,1.5-7.5-1.7-9.8c-0.4-0.3-0.8-0.5-1.2-0.7
		c-0.7-0.3-1.4-0.4-2.1-0.5c-0.1,0-0.2,0.1-0.2,0.2c0,0.1,0,0.1,0,0.1l0.1,0.1c-0.7-0.1-1.4-0.1-2.1,0c-0.1,0-0.2,0.1-0.2,0.2
		c0,0.1,0,0.1,0.1,0.1c2.2,1.3,3.5,3.8,3.2,6.4l0,0c-0.1,0.9-0.5,1.7-1,2.4c-1.2,1.3-2.8,2.2-4.5,2.4c-0.2,0-0.4,0.1-0.4,0.3
		C294.9,224.1,295,224.2,295.1,224.3z"/>
	<path class="st3" d="M301.8,219c-0.1,1.4-0.8,2.6-1.8,3.6c-0.1,0.1-0.1,0.3,0,0.4c0.2,0.1,0.5,0.2,0.7,0.2c1.3,0.1,2.6-1.5,3-3.7
		c0.4-2.4-0.4-4.6-1.8-4.8c-0.3,0-0.5,0-0.8,0.1c-0.1,0.1-0.1,0.2,0,0.2C301.8,216.1,302.1,217.6,301.8,219z"/>
	<path class="st2" d="M284,226.3c1.3,2.2,3.6,3.6,6.2,3.6c0.2,0,0.3,0.2,0.3,0.4c0,0.1,0,0.2-0.1,0.2c-0.5,0.5-1.1,0.9-1.7,1.2
		c-3.4,1.8-7.7,0.5-9.5-2.9s-0.5-7.7,2.9-9.5c0.6-0.4,1.3-0.6,2-0.8c0.1,0,0.2,0,0.3,0.1c0,0.1,0,0.1,0,0.2
		C282.8,221.1,282.7,224,284,226.3z"/>
	<path class="st2" d="M288.7,203.7c0.6,2.5-0.1,5.1-2,6.9c-0.1,0.1-0.1,0.3,0,0.5c0.1,0.1,0.2,0.1,0.3,0.1c0.7,0,1.4-0.1,2.1-0.3
		c3.7-1.2,5.6-5.2,4.4-8.9c-1.2-3.7-5.2-5.6-8.9-4.4c-0.4,0.1-0.9,0.3-1.2,0.6c-0.1,0.1-0.1,0.2-0.1,0.3c0,0.1,0.1,0.1,0.1,0.1
		C286,199.1,288,201.1,288.7,203.7z"/>
	<path class="st2" d="M276.9,189c-2.1,1.5-4.8,1.8-7.1,0.7c-0.2-0.1-0.4,0-0.5,0.2c0,0.1,0,0.2,0,0.3c0.3,0.6,0.6,1.3,1.1,1.8
		c2.4,3.1,6.8,3.7,9.9,1.3c3.1-2.4,3.7-6.8,1.3-9.9l0,0c-0.4-0.6-0.9-1.1-1.5-1.5c-0.1-0.1-0.2-0.1-0.3,0c0,0.1-0.1,0.1,0,0.2
		C280.2,184.7,279.1,187.4,276.9,189z"/>
</g>
<g id="Sickle_Cells-15_3_">
	<path class="st2" d="M281.1,225.5c0,2.6,1.4,4.9,3.7,6.2c0.2,0.1,0.2,0.3,0.1,0.5c0,0.1-0.1,0.1-0.2,0.2c-0.7,0.2-1.4,0.2-2.1,0.2
		c-3.9-0.1-6.9-3.3-6.8-7.2s3.3-6.9,7.2-6.8c0.7,0,1.4,0.1,2.1,0.3c0.1,0.1,0.2,0.2,0.1,0.3c0,0.1-0.1,0.1-0.1,0.1
		C282.7,220.4,281.1,222.9,281.1,225.5z"/>
	<path class="st3" d="M280.4,225.5c-0.1,1.4,0.3,2.7,1.1,3.8c0.1,0.1,0.1,0.3,0,0.4c-0.2,0.1-0.4,0.1-0.6,0.1
		c-1.1-0.1-2-1.9-2.1-4.1c0-2.5,0.9-4.5,2.2-4.5c0.2,0,0.5,0.1,0.6,0.2c0.1,0.1,0.1,0.2,0,0.2C280.7,222.8,280.3,224.1,280.4,225.5z
		"/>
	<path class="st2" d="M304.3,238.7c3.2,2.2,7.5,1.5,9.8-1.7c2.2-3.2,1.5-7.5-1.7-9.8c-0.4-0.3-0.8-0.5-1.2-0.7
		c-0.7-0.3-1.4-0.4-2.1-0.5c-0.1,0-0.2,0.1-0.2,0.2c0,0.1,0,0.1,0,0.1l0.1,0.1c-0.7-0.1-1.4-0.1-2.1,0c-0.1,0-0.2,0.1-0.2,0.2
		c0,0.1,0,0.1,0.1,0.1c2.2,1.3,3.5,3.8,3.2,6.4l0,0c-0.1,0.9-0.5,1.7-1,2.4c-1.2,1.3-2.8,2.2-4.5,2.4c-0.2,0-0.4,0.1-0.4,0.3
		C304.1,238.5,304.2,238.6,304.3,238.7z"/>
	<path class="st3" d="M310.9,233.4c-0.1,1.4-0.8,2.6-1.8,3.6c-0.1,0.1-0.1,0.3,0,0.4c0.2,0.1,0.5,0.2,0.7,0.2c1.3,0.1,2.6-1.5,3-3.7
		c0.4-2.4-0.4-4.6-1.8-4.8c-0.3,0-0.5,0-0.8,0.1c-0.1,0.1-0.1,0.2,0,0.2C311,230.5,311.3,232,310.9,233.4z"/>
	<path class="st2" d="M293.2,240.7c1.3,2.2,3.6,3.6,6.2,3.6c0.2,0,0.3,0.2,0.3,0.4c0,0.1,0,0.2-0.1,0.2c-0.5,0.5-1.1,0.9-1.7,1.2
		c-3.4,1.8-7.7,0.5-9.5-2.9s-0.5-7.7,2.9-9.5c0.6-0.4,1.3-0.6,2-0.8c0.1,0,0.2,0,0.3,0.1c0,0.1,0,0.1,0,0.2
		C292,235.5,291.9,238.4,293.2,240.7z"/>
	<path class="st2" d="M297.9,218.1c0.6,2.5-0.1,5.1-2,6.9c-0.1,0.1-0.1,0.3,0,0.5c0.1,0.1,0.2,0.1,0.3,0.1c0.7,0,1.4-0.1,2.1-0.3
		c3.7-1.2,5.6-5.2,4.4-8.9c-1.2-3.7-5.2-5.6-8.9-4.4c-0.4,0.1-0.9,0.3-1.2,0.6c-0.1,0.1-0.1,0.2-0.1,0.3c0,0.1,0.1,0.1,0.1,0.1
		C295.1,213.5,297.2,215.5,297.9,218.1z"/>
	<path class="st2" d="M286.1,203.4c-2.1,1.5-4.8,1.8-7.1,0.7c-0.2-0.1-0.4,0-0.5,0.2c0,0.1,0,0.2,0,0.3c0.3,0.6,0.6,1.3,1.1,1.8
		c2.4,3.1,6.8,3.7,9.9,1.3c3.1-2.4,3.7-6.8,1.3-9.9l0,0c-0.4-0.6-0.9-1.1-1.5-1.5c-0.1-0.1-0.2-0.1-0.3,0c0,0.1-0.1,0.1,0,0.2
		C289.3,199.1,288.3,201.8,286.1,203.4z"/>
</g>
<g id="Sickle_Cells-15_4_">
	<path class="st2" d="M284.5,223.3c2.5-0.5,4.5-2.4,5.2-4.9c0.1-0.2,0.3-0.3,0.4-0.2c0.1,0,0.2,0.1,0.2,0.2c0.3,0.6,0.5,1.3,0.7,2
		c0.7,3.8-1.8,7.5-5.6,8.2c-3.8,0.7-7.5-1.8-8.2-5.5c-0.2-0.7-0.2-1.4-0.1-2.1c0-0.1,0.1-0.2,0.3-0.2c0.1,0,0.1,0,0.1,0.1
		C279.2,222.9,281.9,223.8,284.5,223.3z"/>
	<path class="st3" d="M284.6,224c1.3-0.2,2.6-0.9,3.5-1.9c0.1-0.1,0.2-0.1,0.4-0.1c0.1,0.2,0.2,0.4,0.3,0.6c0.1,1.1-1.4,2.4-3.6,2.9
		c-2.4,0.5-4.6,0-4.9-1.2c0-0.2,0-0.5,0.1-0.7c0.1-0.1,0.2-0.1,0.2-0.1C281.9,224.3,283.3,224.4,284.6,224z"/>
	<path class="st2" d="M292.4,197.8c1.5-3.6-0.1-7.7-3.7-9.2c-3.6-1.5-7.7,0.1-9.2,3.7c-0.2,0.4-0.3,0.8-0.4,1.3
		c-0.1,0.7-0.1,1.4-0.1,2.1c0,0.1,0.1,0.2,0.3,0.2c0,0,0.1,0,0.1-0.1l0.1-0.1c0.1,0.7,0.2,1.4,0.4,2.1c0,0.1,0.2,0.2,0.3,0.1
		c0.1,0,0.1-0.1,0.1-0.1c0.8-2.5,3-4.2,5.6-4.5l0,0c0.9-0.1,1.8,0.1,2.5,0.5c1.5,0.9,2.7,2.3,3.3,3.9c0,0.2,0.2,0.3,0.4,0.3
		C292.3,198.1,292.4,198,292.4,197.8z"/>
	<path class="st3" d="M285.8,192.5c1.4-0.2,2.8,0.2,3.9,1c0.1,0.1,0.3,0.1,0.4-0.1c0.1-0.2,0.1-0.5,0.1-0.7c-0.2-1.3-2-2.2-4.2-2.1
		c-2.5,0.1-4.4,1.4-4.3,2.8c0,0.3,0.1,0.5,0.2,0.7c0.1,0,0.2,0,0.2-0.1C283,193,284.4,192.5,285.8,192.5z"/>
	<path class="st2" d="M296.8,208.3c1.9-1.7,2.8-4.3,2.2-6.8c0-0.2,0.1-0.4,0.3-0.4c0.1,0,0.2,0,0.3,0.1c0.6,0.4,1.1,0.9,1.5,1.4
		c2.5,3,2.1,7.4-0.8,9.9c-3,2.5-7.4,2.1-9.9-0.8c-0.5-0.5-0.9-1.1-1.2-1.8c-0.1-0.1,0-0.2,0.1-0.3c0.1,0,0.1,0,0.2,0
		C291.9,210.5,294.8,210.1,296.8,208.3z"/>
	<path class="st2" d="M273.6,208.5c2.3-1.2,5-1,7.1,0.5c0.2,0.1,0.4,0.1,0.5-0.1c0.1-0.1,0.1-0.2,0.1-0.3c-0.2-0.7-0.4-1.4-0.7-2
		c-2-3.3-6.3-4.4-9.6-2.4c-3.3,2-4.4,6.3-2.4,9.6c0.2,0.4,0.5,0.8,0.8,1.1c0.1,0.1,0.2,0.1,0.3,0c0.1,0,0.1-0.1,0.1-0.2
		C269.7,212.2,271.2,209.7,273.6,208.5z"/>
	<path class="st2" d="M261.8,223.2c1.9,1.7,2.8,4.3,2.2,6.8c0,0.2,0.1,0.4,0.3,0.4c0.1,0,0.2,0,0.3,0c0.6-0.4,1.1-0.9,1.6-1.4
		c2.5-3,2.1-7.4-0.8-9.9c-3-2.5-7.4-2.1-9.9,0.8l0,0c-0.5,0.5-0.9,1.1-1.1,1.8c-0.1,0.1,0,0.2,0.1,0.3c0.1,0,0.1,0,0.2,0
		C257,220.9,259.8,221.4,261.8,223.2z"/>
</g>
</svg>
