<?xml version="1.0" encoding="utf-8"?>
<!-- Generator: Adobe Illustrator 23.0.6, SVG Export Plug-In . SVG Version: 6.00 Build 0)  -->
<svg version="1.1" id="Layer_1" xmlns="http://www.w3.org/2000/svg" xmlns:xlink="http://www.w3.org/1999/xlink" x="0px" y="0px"
	 viewBox="0 0 64.06 106.19" style="enable-background:new 0 0 64.06 106.19;" xml:space="preserve">
<style type="text/css">
	.st0{fill:#FFFFFF;}
	.st1{fill:#EEBC9A;}
	.st2{fill:#332F2F;}
	.st3{fill:#161916;}
	.st4{fill:#F4EFED;}
	.st5{fill:#BB957F;}
	.st6{fill:#DCCFCA;}
	.st7{fill:#DD1C49;}
	.st8{fill:#D0AE9C;}
	.st9{fill:#EADDD7;}
	.st10{fill:#D8CCC6;}
	.st11{fill:none;stroke:#3A3535;stroke-miterlimit:10;}
	.st12{fill:#282422;}
</style>
<ellipse class="st0" cx="29.86" cy="41.4" rx="29.86" ry="41.4"/>
<ellipse transform="matrix(0.6366 -0.7712 0.7712 0.6366 -45.4708 47.4253)" class="st1" cx="27.58" cy="71.96" rx="6.28" ry="10.63"/>
<path class="st2" d="M17.7,58.82c0,0-9.51,12.62-14.94,13.58c-5.43,0.96,19.11,46.55,43.09,30.29s17.37-20.18,17.37-20.18
	l-5.19-6.05c-3.03-3.53-6.68-6.42-10.75-8.52l-11.77-6.06L17.7,58.82z"/>
<path class="st3" d="M33.35,63.05c0,0,9.43,25.62,6.54,30.71l6.42,7.52c0,0,4.45-7.69,4.86-11.33
	C51.57,86.3,33.35,63.05,33.35,63.05z"/>
<polygon class="st4" points="26.69,64.7 24.28,53.62 38.2,59.04 42.26,64.01 32.07,66.39 "/>
<path class="st5" d="M28.75,68.8L28.75,68.8c-2.62,0-4.74-2.12-4.74-4.74V53.57c0-2.62,2.12-4.74,4.74-4.74h0
	c2.62,0,4.74,2.12,4.74,4.74v10.49C33.48,66.68,31.36,68.8,28.75,68.8z"/>
<path class="st6" d="M18.67,57.29v5.25l6.93,8.28c0,0,7.14,2.46,8.77,5.96h6.13L31,60.69l-12.33-7.94V57.29z"/>
<path class="st4" d="M32.97,64.77"/>
<path class="st7" d="M24.47,71.75l10.67,12.41l6.16,7.16c0,0,1.61-13.15-1.9-17.69C35.89,69.09,24.47,71.75,24.47,71.75z"/>
<g>
	<ellipse class="st1" cx="30.21" cy="25.43" rx="17.99" ry="17.64"/>
	
		<ellipse transform="matrix(0.9819 -0.1894 0.1894 0.9819 -5.9257 6.2433)" class="st1" cx="29.71" cy="34.13" rx="18.8" ry="24.04"/>
	<g>
		<path class="st8" d="M25.27,8.47L25.27,8.47c-12.62,3.7-15.64,15.76-14.02,28.8c1.3,10.49,7.81,17.3,12.96,18.95
			c-0.21-0.89-1.3-4.72-2.12-7.58c-0.8-2.78-3.27-5.53-3.41-8.42c-0.25-5.2,0.69-7.45,3.38-11.37
			C19.71,23.88,14.71,15.63,25.27,8.47z"/>
	</g>
	<g>
		<path class="st9" d="M24.06,49.58l4.91-5.1c1.39-1.45,3.47-1.82,5.23-0.93l2.09,1.06c0.89,0.45,0.85,1.73-0.06,2.12l-11.02,4.75
			C24.12,51.95,23.21,50.46,24.06,49.58z"/>
		<path class="st9" d="M47.01,50.42l-4.07-5.28c-0.92-1.2-2.44-1.66-3.81-1.15l-2.3,0.84c-0.78,0.29-0.87,1.43-0.14,1.85l9.14,5.27
			C46.75,52.48,47.67,51.28,47.01,50.42z"/>
		<path class="st9" d="M43.32,51.63L43.32,51.63l-5.4-3.52c-0.87-0.57-1.97-0.63-2.9-0.16l-7.42,3.67l0,0
			c-0.05,0.37-0.08,0.74-0.08,1.12c0,4.38,3.55,7.94,7.94,7.94s7.94-3.55,7.94-7.94C43.4,52.37,43.37,52,43.32,51.63z"/>
	</g>
	<path class="st10" d="M14.71,18.85c0-1.12,0.12-2.2,0.35-3.2c-0.12-0.01-0.23-0.02-0.35-0.02c-3.18,0-5.76,4.16-5.76,9.28
		c0,5.13,2.58,9.28,5.76,9.28c2.49,0,4.6-2.53,5.41-6.08C17.1,27.82,14.71,23.79,14.71,18.85z"/>
	<ellipse transform="matrix(0.9819 -0.1894 0.1894 0.9819 -6.7067 2.7996)" class="st1" cx="11.3" cy="36.5" rx="2.86" ry="5.22"/>
	<ellipse transform="matrix(0.9722 -0.2344 0.2344 0.9722 -8.2869 3.8696)" class="st8" cx="12.14" cy="36.8" rx="2.26" ry="3.9"/>
	<path class="st11" d="M30.89,37.17h-2.63c-1.8,0-3.27-1.47-3.27-3.27v0c0-1.8,1.47-3.27,3.27-3.27h2.63c1.8,0,3.27,1.47,3.27,3.27
		v0C34.16,35.7,32.69,37.17,30.89,37.17z"/>
	<path class="st11" d="M43.64,37.17h-2.63c-1.8,0-3.27-1.47-3.27-3.27v0c0-1.8,1.47-3.27,3.27-3.27h2.63c1.8,0,3.27,1.47,3.27,3.27
		v0C46.91,35.7,45.44,37.17,43.64,37.17z"/>
	<line class="st11" x1="46.91" y1="33.9" x2="49.59" y2="33.9"/>
	<path class="st11" d="M34.16,33.9l0.13-0.07c1.04-0.55,2.28-0.55,3.31,0l0.13,0.07"/>
	<line class="st11" x1="24.99" y1="33.9" x2="14.71" y2="34.2"/>
</g>
<path class="st12" d="M16.39,63.62c0.97,6.05,3.32,18.37,6.72,20.98h7.35v8.75l11.84,11.31l2.28-1.26c0.84-0.47,1.66-0.98,2.45-1.54
	L51.06,99L18.43,57.74l-0.16,0.16C16.75,59.39,16.06,61.52,16.39,63.62z"/>
</svg>
