<?xml version="1.0" encoding="utf-8"?>
<!-- Generator: Adobe Illustrator 23.0.6, SVG Export Plug-In . SVG Version: 6.00 Build 0)  -->
<svg version="1.1" id="Layer_1" xmlns="http://www.w3.org/2000/svg" xmlns:xlink="http://www.w3.org/1999/xlink" x="0px" y="0px"
	 viewBox="0 0 459.16 214.27" style="enable-background:new 0 0 459.16 214.27;" xml:space="preserve">
<style type="text/css">
	.st0{fill:#CE3737;}
	.st1{fill:#F19D9E;}
	.st2{fill:none;stroke:#CE3737;stroke-miterlimit:10;}
	.st3{fill:#231F20;}
</style>
<g>
	<g>
		<path class="st0" d="M78.7,28.84c0.32,0,0.65-0.03,0.99-0.08c2.7-0.46,4.77-2.62,5.03-5.44c0.23-2.52-1.19-5.04-3.67-6.06
			c-0.53-0.22-1.1-0.32-1.65-0.48c-0.23,0-0.46,0-0.69,0V28.84z"/>
		<path class="st0" d="M95.42,53.05c-1.54-5.11-3.09-10.21-4.6-15.33c-0.5-1.7-1.13-3.29-2.37-4.6c-1.51-1.6-3.31-2.6-5.55-2.62
			c-1.4-0.01-2.8-0.02-4.2-0.01v36.55c0.27,0,0.55,0,0.84,0c0,0.18,0,0.34,0,0.49c0,6.83,0,13.67,0,20.5c0,2.34,2.37,3.37,4.14,2.47
			c1.01-0.51,1.43-1.39,1.43-2.49c0-6.85,0-13.69,0-20.54c0-0.14,0-0.28,0-0.46c2.55,0,5.06,0,7.6,0
			c-2.72-9.34-5.43-18.64-8.15-27.96c0.53,0,1,0,1.46,0c0.03,0.1,0.07,0.18,0.09,0.26c1.43,4.91,2.85,9.83,4.29,14.74
			c0.17,0.6,0.36,1.21,0.66,1.74c0.49,0.88,1.3,1.33,2.32,1.21c1.1-0.13,1.81-0.78,2.14-1.83C95.74,54.46,95.63,53.75,95.42,53.05z"
			/>
		<path class="st1" d="M78.7,28.84c-0.32,0-0.65-0.03-0.99-0.08c-2.7-0.46-4.77-2.62-5.03-5.44c-0.23-2.52,1.19-5.04,3.67-6.06
			c0.53-0.22,1.1-0.32,1.65-0.48c0.23,0,0.46,0,0.69,0V28.84z"/>
		<path class="st1" d="M61.98,53.05c1.54-5.11,3.09-10.21,4.6-15.33c0.5-1.7,1.13-3.29,2.37-4.6c1.51-1.6,3.31-2.6,5.55-2.62
			c1.4-0.01,2.8-0.02,4.2-0.01v36.55c-0.27,0-0.55,0-0.84,0c0,0.18,0,0.34,0,0.49c0,6.83,0,13.67,0,20.5c0,2.34-2.37,3.37-4.14,2.47
			c-1.01-0.51-1.43-1.39-1.43-2.49c0-6.85,0-13.69,0-20.54c0-0.14,0-0.28,0-0.46c-2.55,0-5.06,0-7.6,0
			c2.72-9.34,5.43-18.64,8.15-27.96c-0.53,0-1,0-1.46,0c-0.03,0.1-0.07,0.18-0.09,0.26c-1.43,4.91-2.85,9.83-4.29,14.74
			c-0.17,0.6-0.36,1.21-0.66,1.74c-0.49,0.88-1.3,1.33-2.32,1.21c-1.1-0.13-1.81-0.78-2.14-1.83
			C61.65,54.46,61.77,53.75,61.98,53.05z"/>
		<path class="st1" d="M128.01,30.49c-2.06,0-4.13,0-6.19,0.01c-0.66,0-1.33,0.07-1.97,0.21c-3.43,0.78-5.7,4.02-5.81,7.29
			c-0.09,2.7-0.03,5.4-0.03,8.1c0,3.72,0,7.45,0.01,11.17c0.01,1.22,0.82,2.15,2.04,2.41c1.15,0.25,2.4-0.33,2.85-1.4
			c0.19-0.46,0.29-1,0.29-1.5c0.02-5.45,0.01-10.89,0.01-16.34c0-0.15,0-0.3,0-0.45c0.45,0,0.84,0,1.27,0c0,0.2,0,0.38,0,0.56
			c0,15.35,0,30.71,0,46.06c0,0.3,0,0.6,0.03,0.9c0.11,1.41,0.77,2.46,2.12,2.94c1.4,0.5,2.69,0.23,3.76-0.83
			c0.79-0.78,0.98-1.79,0.98-2.86c0-8.88,0-17.76,0-26.64c0-0.16,0.01-0.33,0.02-0.49c0.21,0,0.4,0,0.6,0V30.49z"/>
		<path class="st1" d="M128.01,16.77c-0.22,0-0.45,0-0.67,0c-0.07,0.02-0.13,0.06-0.2,0.07c-2.78,0.4-4.95,2.72-5.14,5.53
			c-0.25,3.54,2.6,6.48,6.01,6.47V16.77z"/>
		<path class="st0" d="M128.07,30.49c2.06,0,4.13,0,6.19,0.01c0.66,0,1.33,0.07,1.97,0.21c3.43,0.78,5.7,4.02,5.81,7.29
			c0.09,2.7,0.03,5.4,0.03,8.1c0,3.72,0,7.45-0.01,11.17c-0.01,1.22-0.82,2.15-2.04,2.41c-1.15,0.25-2.4-0.33-2.85-1.4
			c-0.19-0.46-0.29-1-0.29-1.5c-0.02-5.45-0.01-10.89-0.01-16.34c0-0.15,0-0.3,0-0.45c-0.45,0-0.84,0-1.27,0c0,0.2,0,0.38,0,0.56
			c0,15.35,0,30.71,0,46.06c0,0.3,0,0.6-0.03,0.9c-0.11,1.41-0.77,2.46-2.12,2.94c-1.4,0.5-2.69,0.23-3.76-0.83
			c-0.79-0.78-0.98-1.79-0.98-2.86c0-8.88,0-17.76,0-26.64c0-0.16-0.01-0.33-0.02-0.49c-0.21,0-0.4,0-0.6,0V30.49z"/>
		<path class="st0" d="M128.07,16.77c0.22,0,0.45,0,0.67,0c0.07,0.02,0.13,0.06,0.2,0.07c2.78,0.4,4.95,2.72,5.14,5.53
			c0.25,3.54-2.6,6.48-6.01,6.47V16.77z"/>
		<g>
			<path class="st1" d="M33.66,156.12c-1.54-5.11-3.09-10.21-4.6-15.33c-0.5-1.7-1.13-3.29-2.37-4.6c-1.51-1.6-3.31-2.6-5.55-2.62
				c-1.4-0.01-2.8-0.02-4.2-0.01c-1.4,0-2.8,0-4.2,0.01c-2.24,0.02-4.04,1.02-5.55,2.62c-1.24,1.31-1.87,2.9-2.37,4.6
				c-1.51,5.12-3.06,10.22-4.6,15.33c-0.21,0.7-0.33,1.41-0.1,2.13c0.33,1.05,1.05,1.7,2.14,1.83c1.02,0.12,1.83-0.33,2.32-1.21
				c0.3-0.54,0.48-1.15,0.66-1.74c1.44-4.91,2.86-9.83,4.29-14.74c0.02-0.08,0.05-0.16,0.09-0.26c0.46,0,0.92,0,1.46,0
				c-2.72,9.32-5.43,18.62-8.15,27.96c2.54,0,5.05,0,7.6,0c0,0.18,0,0.32,0,0.46c0,6.85,0,13.69,0,20.54c0,1.1,0.42,1.98,1.43,2.49
				c1.77,0.9,4.14-0.13,4.14-2.47c-0.01-6.83,0-13.67,0-20.5c0-0.15,0-0.31,0-0.49c0.29,0,0.56,0,0.84,0s0.55,0,0.84,0
				c0,0.18,0,0.34,0,0.49c0,6.83,0,13.67,0,20.5c0,2.34,2.37,3.37,4.14,2.47c1.01-0.51,1.43-1.39,1.43-2.49c0-6.85,0-13.69,0-20.54
				c0-0.14,0-0.28,0-0.46c2.55,0,5.06,0,7.6,0c-2.72-9.34-5.43-18.64-8.15-27.96c0.53,0,1,0,1.46,0c0.03,0.1,0.07,0.18,0.09,0.26
				c1.43,4.91,2.85,9.83,4.29,14.74c0.17,0.6,0.36,1.21,0.66,1.74c0.49,0.88,1.3,1.33,2.32,1.21c1.1-0.13,1.81-0.78,2.14-1.83
				C33.99,157.53,33.87,156.82,33.66,156.12z"/>
			<path class="st1" d="M15.96,131.82c0.33,0.06,0.66,0.08,0.99,0.08c0.32,0,0.65-0.03,0.99-0.08c2.7-0.46,4.77-2.62,5.03-5.44
				c0.23-2.52-1.19-5.04-3.67-6.06c-0.53-0.22-1.1-0.32-1.65-0.48c-0.23,0-0.46,0-0.69,0s-0.46,0-0.69,0
				c-0.55,0.16-1.12,0.27-1.65,0.48c-2.48,1.02-3.9,3.54-3.67,6.06C11.18,129.2,13.26,131.37,15.96,131.82z"/>
		</g>
		<path class="st1" d="M66.25,133.56c-2.06,0-4.13,0-6.19,0.01c-0.66,0-1.33,0.07-1.97,0.21c-3.43,0.78-5.7,4.02-5.81,7.29
			c-0.09,2.7-0.03,5.4-0.03,8.1c0,3.72,0,7.45,0.01,11.17c0.01,1.22,0.82,2.15,2.04,2.41c1.15,0.25,2.4-0.33,2.85-1.4
			c0.19-0.46,0.29-1,0.29-1.5c0.02-5.45,0.01-10.89,0.01-16.34c0-0.15,0-0.3,0-0.45c0.45,0,0.84,0,1.27,0c0,0.2,0,0.38,0,0.56
			c0,15.35,0,30.71,0,46.06c0,0.3,0,0.6,0.03,0.9c0.11,1.41,0.77,2.46,2.12,2.94c1.4,0.5,2.69,0.23,3.76-0.83
			c0.79-0.78,0.98-1.79,0.98-2.86c0-8.88,0-17.76,0-26.64c0-0.16,0.01-0.33,0.02-0.49c0.21,0,0.4,0,0.6,0V133.56z"/>
		<path class="st1" d="M66.25,119.84c-0.22,0-0.45,0-0.67,0c-0.07,0.02-0.13,0.06-0.2,0.07c-2.78,0.4-4.95,2.72-5.14,5.53
			c-0.25,3.54,2.6,6.48,6.01,6.47V119.84z"/>
		<path class="st0" d="M66.31,133.56c2.06,0,4.13,0,6.19,0.01c0.66,0,1.33,0.07,1.97,0.21c3.43,0.78,5.7,4.02,5.81,7.29
			c0.09,2.7,0.03,5.4,0.03,8.1c0,3.72,0,7.45-0.01,11.17c-0.01,1.22-0.82,2.15-2.04,2.41c-1.15,0.25-2.4-0.33-2.85-1.4
			c-0.19-0.46-0.29-1-0.29-1.5c-0.02-5.45-0.01-10.89-0.01-16.34c0-0.15,0-0.3,0-0.45c-0.45,0-0.84,0-1.27,0c0,0.2,0,0.38,0,0.56
			c0,15.35,0,30.71,0,46.06c0,0.3,0,0.6-0.03,0.9c-0.11,1.41-0.77,2.46-2.12,2.94c-1.4,0.5-2.69,0.23-3.76-0.83
			c-0.79-0.78-0.98-1.79-0.98-2.86c0-8.88,0-17.76,0-26.64c0-0.16-0.01-0.33-0.02-0.49c-0.21,0-0.4,0-0.6,0V133.56z"/>
		<path class="st0" d="M66.31,119.84c0.22,0,0.45,0,0.67,0c0.07,0.02,0.13,0.06,0.2,0.07c2.78,0.4,4.95,2.72,5.14,5.53
			c0.25,3.54-2.6,6.48-6.01,6.47V119.84z"/>
		<path class="st0" d="M146.47,131.91c0.32,0,0.65-0.03,0.99-0.08c2.7-0.46,4.77-2.62,5.03-5.44c0.23-2.52-1.19-5.04-3.67-6.06
			c-0.53-0.22-1.1-0.32-1.65-0.48c-0.23,0-0.46,0-0.69,0V131.91z"/>
		<path class="st0" d="M163.19,156.12c-1.54-5.11-3.09-10.21-4.6-15.33c-0.5-1.7-1.13-3.29-2.37-4.6c-1.51-1.6-3.31-2.6-5.55-2.62
			c-1.4-0.01-2.8-0.02-4.2-0.01v36.55c0.27,0,0.55,0,0.84,0c0,0.18,0,0.34,0,0.49c0,6.83,0,13.67,0,20.5c0,2.34,2.37,3.37,4.14,2.47
			c1.01-0.51,1.43-1.39,1.43-2.49c0-6.85,0-13.69,0-20.54c0-0.14,0-0.28,0-0.46c2.55,0,5.06,0,7.6,0
			c-2.72-9.34-5.43-18.64-8.15-27.96c0.53,0,1,0,1.46,0c0.03,0.1,0.07,0.18,0.09,0.26c1.43,4.91,2.85,9.83,4.29,14.74
			c0.17,0.6,0.36,1.21,0.66,1.74c0.49,0.88,1.3,1.33,2.32,1.21c1.1-0.13,1.81-0.78,2.14-1.83
			C163.52,157.53,163.4,156.82,163.19,156.12z"/>
		<path class="st1" d="M146.47,131.91c-0.32,0-0.65-0.03-0.99-0.08c-2.7-0.46-4.77-2.62-5.03-5.44c-0.23-2.52,1.19-5.04,3.67-6.06
			c0.53-0.22,1.1-0.32,1.65-0.48c0.23,0,0.46,0,0.69,0V131.91z"/>
		<path class="st1" d="M129.76,156.12c1.54-5.11,3.09-10.21,4.6-15.33c0.5-1.7,1.13-3.29,2.37-4.6c1.51-1.6,3.31-2.6,5.55-2.62
			c1.4-0.01,2.8-0.02,4.2-0.01v36.55c-0.27,0-0.55,0-0.84,0c0,0.18,0,0.34,0,0.49c0,6.83,0,13.67,0,20.5c0,2.34-2.37,3.37-4.14,2.47
			c-1.01-0.51-1.43-1.39-1.43-2.49c0-6.85,0-13.69,0-20.54c0-0.14,0-0.28,0-0.46c-2.55,0-5.06,0-7.6,0
			c2.72-9.34,5.43-18.64,8.15-27.96c-0.53,0-1,0-1.46,0c-0.03,0.1-0.07,0.18-0.09,0.26c-1.43,4.91-2.85,9.83-4.29,14.74
			c-0.17,0.6-0.36,1.21-0.66,1.74c-0.49,0.88-1.3,1.33-2.32,1.21c-1.1-0.13-1.81-0.78-2.14-1.83
			C129.43,157.53,129.55,156.82,129.76,156.12z"/>
		<g>
			<path class="st0" d="M189.6,133.57c-0.66,0-1.33,0.07-1.97,0.21c-3.43,0.78-5.7,4.02-5.81,7.29c-0.09,2.7-0.03,5.4-0.02,8.1
				c0,3.72,0,7.45,0.01,11.17c0.01,1.22,0.82,2.15,2.04,2.41c1.15,0.25,2.4-0.33,2.85-1.4c0.19-0.46,0.29-1,0.29-1.5
				c0.02-5.45,0.01-10.89,0.01-16.34c0-0.15,0-0.3,0-0.45c0.45,0,0.84,0,1.27,0c0,0.2,0,0.38,0,0.56c0,15.35,0,30.71,0,46.06
				c0,0.3,0,0.6,0.03,0.9c0.11,1.41,0.77,2.46,2.12,2.94c1.4,0.5,2.69,0.23,3.76-0.83c0.79-0.78,0.98-1.79,0.98-2.86
				c0-8.88,0-17.76,0-26.64c0-0.16,0.01-0.33,0.02-0.49c0.21,0,0.4,0,0.6,0v-29.13C193.72,133.56,191.66,133.56,189.6,133.57z"/>
			<path class="st0" d="M194.91,119.91c-2.78,0.4-4.95,2.72-5.14,5.53c-0.25,3.54,2.6,6.48,6.01,6.47v-12.07c-0.22,0-0.45,0-0.67,0
				C195.04,119.86,194.98,119.9,194.91,119.91z"/>
			<path class="st0" d="M209.81,141.07c-0.1-3.27-2.38-6.51-5.81-7.29c-0.64-0.15-1.31-0.21-1.97-0.21
				c-2.06-0.01-4.13-0.01-6.19-0.01v29.13c0.2,0,0.39,0,0.6,0c0.01,0.17,0.02,0.33,0.02,0.49c0,8.88,0,17.76,0,26.64
				c0,1.07,0.18,2.07,0.98,2.86c1.07,1.06,2.35,1.33,3.76,0.83c1.36-0.48,2.01-1.54,2.12-2.94c0.02-0.3,0.03-0.6,0.03-0.9
				c0-15.35,0-30.71,0-46.06c0-0.18,0-0.36,0-0.56c0.43,0,0.82,0,1.27,0c0,0.14,0,0.3,0,0.45c0,5.45-0.01,10.89,0.01,16.34
				c0,0.5,0.1,1.04,0.29,1.5c0.44,1.07,1.69,1.65,2.85,1.4c1.22-0.26,2.04-1.19,2.04-2.41c0.02-3.72,0.01-7.45,0.01-11.17
				C209.83,146.47,209.89,143.77,209.81,141.07z"/>
			<path class="st0" d="M201.86,125.44c-0.19-2.8-2.35-5.13-5.14-5.53c-0.07-0.01-0.13-0.05-0.2-0.07c-0.22,0-0.45,0-0.67,0v12.07
				C199.26,131.92,202.1,128.98,201.86,125.44z"/>
		</g>
		<polyline class="st2" points="104.9,99.12 23.08,99.12 23.08,111.88 		"/>
		<polyline class="st2" points="104.9,99.12 104.9,73.25 95.64,73.25 114,73.25 		"/>
		<line class="st2" x1="61.76" y1="99.12" x2="61.76" y2="111.88"/>
		<polyline class="st2" points="104.99,99.12 186.81,99.12 186.81,111.88 		"/>
		<line class="st2" x1="148.14" y1="99.12" x2="148.14" y2="111.88"/>
	</g>
	<g>
		<path class="st3" d="M76.85,0.27l4.46,11.42h-1.68l-1.25-3.44h-4.83l-1.28,3.44h-1.55l4.45-11.42H76.85z M77.91,6.98L76,1.65
			h-0.03l-1.94,5.33H77.91z"/>
		<path class="st3" d="M88.15,1.83C87.65,1.46,87,1.28,86.21,1.28c-0.32,0-0.63,0.03-0.94,0.1c-0.31,0.06-0.58,0.17-0.82,0.32
			s-0.43,0.35-0.58,0.6c-0.14,0.25-0.22,0.56-0.22,0.94c0,0.35,0.1,0.64,0.31,0.86c0.21,0.22,0.49,0.4,0.83,0.54
			c0.35,0.14,0.74,0.25,1.18,0.34c0.44,0.09,0.88,0.19,1.34,0.3c0.45,0.11,0.9,0.23,1.34,0.38c0.44,0.14,0.83,0.34,1.18,0.58
			s0.62,0.55,0.83,0.93S90.96,8,90.96,8.56c0,0.61-0.14,1.13-0.41,1.56c-0.27,0.43-0.62,0.78-1.05,1.06
			c-0.43,0.27-0.9,0.47-1.43,0.59c-0.53,0.12-1.05,0.18-1.58,0.18c-0.64,0-1.25-0.08-1.82-0.24c-0.57-0.16-1.07-0.4-1.5-0.73
			c-0.43-0.33-0.77-0.74-1.02-1.25s-0.38-1.11-0.38-1.8h1.44c0,0.48,0.09,0.89,0.28,1.24s0.43,0.63,0.74,0.86s0.66,0.39,1.06,0.5
			c0.41,0.11,0.82,0.16,1.25,0.16c0.34,0,0.68-0.03,1.03-0.1c0.35-0.06,0.66-0.17,0.94-0.33c0.28-0.16,0.5-0.37,0.67-0.63
			c0.17-0.27,0.26-0.61,0.26-1.02c0-0.39-0.1-0.71-0.31-0.96s-0.49-0.45-0.83-0.6c-0.35-0.15-0.74-0.28-1.18-0.38
			c-0.44-0.1-0.88-0.19-1.34-0.3c-0.45-0.1-0.9-0.22-1.34-0.35s-0.83-0.31-1.18-0.53S82.65,5,82.44,4.65s-0.31-0.78-0.31-1.3
			c0-0.58,0.12-1.08,0.35-1.5c0.23-0.42,0.55-0.77,0.94-1.04c0.39-0.27,0.83-0.47,1.33-0.61c0.5-0.13,1.01-0.2,1.53-0.2
			c0.59,0,1.13,0.07,1.63,0.21c0.5,0.14,0.94,0.36,1.32,0.66s0.68,0.67,0.9,1.13s0.34,1,0.36,1.62h-1.44
			C88.96,2.79,88.66,2.2,88.15,1.83z"/>
	</g>
	<g>
		<path class="st3" d="M124.84,0.27l4.46,11.42h-1.68l-1.25-3.44h-4.83l-1.28,3.44h-1.55l4.45-11.42H124.84z M125.89,6.98l-1.9-5.33
			h-0.03l-1.94,5.33H125.89z"/>
		<path class="st3" d="M136.14,1.83c-0.51-0.37-1.15-0.55-1.94-0.55c-0.32,0-0.63,0.03-0.94,0.1c-0.31,0.06-0.58,0.17-0.82,0.32
			s-0.43,0.35-0.58,0.6c-0.14,0.25-0.22,0.56-0.22,0.94c0,0.35,0.1,0.64,0.31,0.86c0.21,0.22,0.49,0.4,0.83,0.54
			c0.35,0.14,0.74,0.25,1.18,0.34c0.44,0.09,0.88,0.19,1.34,0.3c0.45,0.11,0.9,0.23,1.34,0.38c0.44,0.14,0.83,0.34,1.18,0.58
			s0.62,0.55,0.83,0.93s0.31,0.84,0.31,1.41c0,0.61-0.14,1.13-0.41,1.56c-0.27,0.43-0.62,0.78-1.05,1.06
			c-0.43,0.27-0.9,0.47-1.43,0.59c-0.53,0.12-1.05,0.18-1.58,0.18c-0.64,0-1.25-0.08-1.82-0.24c-0.57-0.16-1.07-0.4-1.5-0.73
			c-0.43-0.33-0.77-0.74-1.02-1.25s-0.38-1.11-0.38-1.8h1.44c0,0.48,0.09,0.89,0.28,1.24s0.43,0.63,0.74,0.86s0.66,0.39,1.06,0.5
			c0.41,0.11,0.82,0.16,1.25,0.16c0.34,0,0.68-0.03,1.03-0.1c0.35-0.06,0.66-0.17,0.94-0.33c0.28-0.16,0.5-0.37,0.67-0.63
			c0.17-0.27,0.26-0.61,0.26-1.02c0-0.39-0.1-0.71-0.31-0.96s-0.49-0.45-0.83-0.6c-0.35-0.15-0.74-0.28-1.18-0.38
			c-0.44-0.1-0.88-0.19-1.34-0.3c-0.45-0.1-0.9-0.22-1.34-0.35s-0.83-0.31-1.18-0.53s-0.62-0.5-0.83-0.85s-0.31-0.78-0.31-1.3
			c0-0.58,0.12-1.08,0.35-1.5c0.23-0.42,0.55-0.77,0.94-1.04c0.39-0.27,0.83-0.47,1.33-0.61c0.5-0.13,1.01-0.2,1.53-0.2
			c0.59,0,1.13,0.07,1.63,0.21c0.5,0.14,0.94,0.36,1.32,0.66s0.68,0.67,0.9,1.13s0.34,1,0.36,1.62h-1.44
			C136.94,2.79,136.65,2.2,136.14,1.83z"/>
	</g>
	<g>
		<path class="st3" d="M59.83,202.59l4.46,11.42h-1.68l-1.25-3.44h-4.83l-1.28,3.44H53.7l4.45-11.42H59.83z M60.89,209.29l-1.9-5.33
			h-0.03l-1.94,5.33H60.89z"/>
		<path class="st3" d="M71.14,204.15c-0.51-0.37-1.15-0.55-1.94-0.55c-0.32,0-0.63,0.03-0.94,0.1c-0.31,0.06-0.58,0.17-0.82,0.32
			s-0.43,0.35-0.58,0.6c-0.14,0.25-0.22,0.56-0.22,0.94c0,0.35,0.1,0.64,0.31,0.86c0.21,0.22,0.49,0.4,0.83,0.54
			c0.35,0.14,0.74,0.25,1.18,0.34c0.44,0.09,0.88,0.19,1.34,0.3c0.45,0.11,0.9,0.23,1.34,0.38c0.44,0.14,0.83,0.34,1.18,0.58
			s0.62,0.55,0.83,0.93s0.31,0.84,0.31,1.41c0,0.61-0.14,1.13-0.41,1.56c-0.27,0.43-0.62,0.78-1.05,1.06
			c-0.43,0.27-0.9,0.47-1.43,0.59c-0.53,0.12-1.05,0.18-1.58,0.18c-0.64,0-1.25-0.08-1.82-0.24c-0.57-0.16-1.07-0.4-1.5-0.73
			c-0.43-0.33-0.77-0.74-1.02-1.25s-0.38-1.11-0.38-1.8h1.44c0,0.48,0.09,0.89,0.28,1.24s0.43,0.63,0.74,0.86s0.66,0.39,1.06,0.5
			c0.41,0.11,0.82,0.16,1.25,0.16c0.34,0,0.68-0.03,1.03-0.1c0.35-0.06,0.66-0.17,0.94-0.33c0.28-0.16,0.5-0.37,0.67-0.63
			c0.17-0.27,0.26-0.61,0.26-1.02c0-0.39-0.1-0.71-0.31-0.96s-0.49-0.45-0.83-0.6c-0.35-0.15-0.74-0.28-1.18-0.38
			c-0.44-0.1-0.88-0.19-1.34-0.3c-0.45-0.1-0.9-0.22-1.34-0.35s-0.83-0.31-1.18-0.53s-0.62-0.5-0.83-0.85s-0.31-0.78-0.31-1.3
			c0-0.58,0.12-1.08,0.35-1.5c0.23-0.42,0.55-0.77,0.94-1.04c0.39-0.27,0.83-0.47,1.33-0.61c0.5-0.13,1.01-0.2,1.53-0.2
			c0.59,0,1.13,0.07,1.63,0.21c0.5,0.14,0.94,0.36,1.32,0.66s0.68,0.67,0.9,1.13s0.34,1,0.36,1.62h-1.44
			C71.94,205.11,71.64,204.52,71.14,204.15z"/>
	</g>
	<g>
		<path class="st3" d="M142.82,202.59l4.46,11.42h-1.68l-1.25-3.44h-4.83l-1.28,3.44h-1.55l4.45-11.42H142.82z M143.88,209.29
			l-1.9-5.33h-0.03l-1.94,5.33H143.88z"/>
		<path class="st3" d="M154.12,204.15c-0.51-0.37-1.15-0.55-1.94-0.55c-0.32,0-0.63,0.03-0.94,0.1c-0.31,0.06-0.58,0.17-0.82,0.32
			s-0.43,0.35-0.58,0.6c-0.14,0.25-0.22,0.56-0.22,0.94c0,0.35,0.1,0.64,0.31,0.86c0.21,0.22,0.49,0.4,0.83,0.54
			c0.35,0.14,0.74,0.25,1.18,0.34c0.44,0.09,0.88,0.19,1.34,0.3c0.45,0.11,0.9,0.23,1.34,0.38c0.44,0.14,0.83,0.34,1.18,0.58
			s0.62,0.55,0.83,0.93s0.31,0.84,0.31,1.41c0,0.61-0.14,1.13-0.41,1.56c-0.27,0.43-0.62,0.78-1.05,1.06
			c-0.43,0.27-0.9,0.47-1.43,0.59c-0.53,0.12-1.05,0.18-1.58,0.18c-0.64,0-1.25-0.08-1.82-0.24c-0.57-0.16-1.07-0.4-1.5-0.73
			c-0.43-0.33-0.77-0.74-1.02-1.25s-0.38-1.11-0.38-1.8h1.44c0,0.48,0.09,0.89,0.28,1.24s0.43,0.63,0.74,0.86s0.66,0.39,1.06,0.5
			c0.41,0.11,0.82,0.16,1.25,0.16c0.34,0,0.68-0.03,1.03-0.1c0.35-0.06,0.66-0.17,0.94-0.33c0.28-0.16,0.5-0.37,0.67-0.63
			c0.17-0.27,0.26-0.61,0.26-1.02c0-0.39-0.1-0.71-0.31-0.96s-0.49-0.45-0.83-0.6c-0.35-0.15-0.74-0.28-1.18-0.38
			c-0.44-0.1-0.88-0.19-1.34-0.3c-0.45-0.1-0.9-0.22-1.34-0.35s-0.83-0.31-1.18-0.53s-0.62-0.5-0.83-0.85s-0.31-0.78-0.31-1.3
			c0-0.58,0.12-1.08,0.35-1.5c0.23-0.42,0.55-0.77,0.94-1.04c0.39-0.27,0.83-0.47,1.33-0.61c0.5-0.13,1.01-0.2,1.53-0.2
			c0.59,0,1.13,0.07,1.63,0.21c0.5,0.14,0.94,0.36,1.32,0.66s0.68,0.67,0.9,1.13s0.34,1,0.36,1.62h-1.44
			C154.93,205.11,154.63,204.52,154.12,204.15z"/>
	</g>
	<g>
		<path class="st3" d="M12.36,200.46l4.46,11.42h-1.68l-1.25-3.44H9.07l-1.28,3.44H6.24l4.45-11.42H12.36z M13.42,207.17l-1.9-5.33
			h-0.03l-1.94,5.33H13.42z"/>
		<path class="st3" d="M22.73,200.46l4.46,11.42h-1.68l-1.25-3.44h-4.83l-1.28,3.44H16.6l4.45-11.42H22.73z M23.79,207.17l-1.9-5.33
			h-0.03l-1.94,5.33H23.79z"/>
	</g>
	<g>
		<path class="st3" d="M192.78,202.02c-0.51-0.37-1.15-0.55-1.94-0.55c-0.32,0-0.63,0.03-0.94,0.1c-0.31,0.06-0.58,0.17-0.82,0.32
			s-0.43,0.35-0.58,0.6c-0.14,0.25-0.22,0.56-0.22,0.94c0,0.35,0.1,0.64,0.31,0.86c0.21,0.22,0.49,0.4,0.83,0.54
			c0.35,0.14,0.74,0.25,1.18,0.34c0.44,0.09,0.88,0.19,1.34,0.3c0.45,0.11,0.9,0.23,1.34,0.38c0.44,0.14,0.83,0.34,1.18,0.58
			s0.62,0.55,0.83,0.93s0.31,0.84,0.31,1.41c0,0.61-0.14,1.13-0.41,1.56c-0.27,0.43-0.62,0.78-1.05,1.06
			c-0.43,0.27-0.9,0.47-1.43,0.59c-0.53,0.12-1.05,0.18-1.58,0.18c-0.64,0-1.25-0.08-1.82-0.24c-0.57-0.16-1.07-0.4-1.5-0.73
			c-0.43-0.33-0.77-0.74-1.02-1.25s-0.38-1.11-0.38-1.8h1.44c0,0.48,0.09,0.89,0.28,1.24s0.43,0.63,0.74,0.86s0.66,0.39,1.06,0.5
			c0.41,0.11,0.82,0.16,1.25,0.16c0.34,0,0.68-0.03,1.03-0.1c0.35-0.06,0.66-0.17,0.94-0.33c0.28-0.16,0.5-0.37,0.67-0.63
			c0.17-0.27,0.26-0.61,0.26-1.02c0-0.39-0.1-0.71-0.31-0.96s-0.49-0.45-0.83-0.6c-0.35-0.15-0.74-0.28-1.18-0.38
			c-0.44-0.1-0.88-0.19-1.34-0.3c-0.45-0.1-0.9-0.22-1.34-0.35s-0.83-0.31-1.18-0.53s-0.62-0.5-0.83-0.85s-0.31-0.78-0.31-1.3
			c0-0.58,0.12-1.08,0.35-1.5c0.23-0.42,0.55-0.77,0.94-1.04c0.39-0.27,0.83-0.47,1.33-0.61c0.5-0.13,1.01-0.2,1.53-0.2
			c0.59,0,1.13,0.07,1.63,0.21c0.5,0.14,0.94,0.36,1.32,0.66s0.68,0.67,0.9,1.13s0.34,1,0.36,1.62h-1.44
			C193.58,202.99,193.29,202.39,192.78,202.02z"/>
		<path class="st3" d="M203.15,202.02c-0.51-0.37-1.15-0.55-1.94-0.55c-0.32,0-0.63,0.03-0.94,0.1c-0.31,0.06-0.58,0.17-0.82,0.32
			s-0.43,0.35-0.58,0.6c-0.14,0.25-0.22,0.56-0.22,0.94c0,0.35,0.1,0.64,0.31,0.86c0.21,0.22,0.49,0.4,0.83,0.54
			c0.35,0.14,0.74,0.25,1.18,0.34c0.44,0.09,0.88,0.19,1.34,0.3c0.45,0.11,0.9,0.23,1.34,0.38c0.44,0.14,0.83,0.34,1.18,0.58
			s0.62,0.55,0.83,0.93s0.31,0.84,0.31,1.41c0,0.61-0.14,1.13-0.41,1.56c-0.27,0.43-0.62,0.78-1.05,1.06
			c-0.43,0.27-0.9,0.47-1.43,0.59c-0.53,0.12-1.05,0.18-1.58,0.18c-0.64,0-1.25-0.08-1.82-0.24c-0.57-0.16-1.07-0.4-1.5-0.73
			c-0.43-0.33-0.77-0.74-1.02-1.25s-0.38-1.11-0.38-1.8h1.44c0,0.48,0.09,0.89,0.28,1.24s0.43,0.63,0.74,0.86s0.66,0.39,1.06,0.5
			c0.41,0.11,0.82,0.16,1.25,0.16c0.34,0,0.68-0.03,1.03-0.1c0.35-0.06,0.66-0.17,0.94-0.33c0.28-0.16,0.5-0.37,0.67-0.63
			c0.17-0.27,0.26-0.61,0.26-1.02c0-0.39-0.1-0.71-0.31-0.96s-0.49-0.45-0.83-0.6c-0.35-0.15-0.74-0.28-1.18-0.38
			c-0.44-0.1-0.88-0.19-1.34-0.3c-0.45-0.1-0.9-0.22-1.34-0.35s-0.83-0.31-1.18-0.53s-0.62-0.5-0.83-0.85s-0.31-0.78-0.31-1.3
			c0-0.58,0.12-1.08,0.35-1.5c0.23-0.42,0.55-0.77,0.94-1.04c0.39-0.27,0.83-0.47,1.33-0.61c0.5-0.13,1.01-0.2,1.53-0.2
			c0.59,0,1.13,0.07,1.63,0.21c0.5,0.14,0.94,0.36,1.32,0.66s0.68,0.67,0.9,1.13s0.34,1,0.36,1.62h-1.44
			C203.95,202.99,203.65,202.39,203.15,202.02z"/>
	</g>
</g>
<g>
	<path class="st0" d="M283.72,17.02h-1.61v-1.39c0.34,0,0.64-0.02,0.89-0.07s0.46-0.12,0.64-0.22c0.18-0.1,0.32-0.24,0.43-0.41
		s0.2-0.38,0.28-0.63h1.61v8.5h-2.23V17.02z"/>
	<path class="st0" d="M293.51,14.24v1.61h-2.16v-1.61H293.51z M293.51,16.31v6.49h-2.16v-6.49H293.51z"/>
	<path class="st0" d="M296.5,16.31v0.79h0.02c0.28-0.64,0.8-0.96,1.57-0.96c0.24,0,0.46,0.03,0.67,0.08s0.38,0.15,0.53,0.28
		c0.15,0.14,0.27,0.32,0.36,0.54s0.13,0.51,0.13,0.86v4.9h-2.16v-4.28c0-0.27-0.04-0.47-0.12-0.59c-0.08-0.12-0.22-0.18-0.41-0.18
		c-0.19,0-0.33,0.06-0.41,0.18s-0.12,0.32-0.12,0.59v4.28h-2.16v-6.49H296.5z"/>
	<path class="st0" d="M306.22,14.48h2.42v5.14h0.74v1.61h-0.74v1.58h-2.09v-1.58h-3.02v-1.68L306.22,14.48z M306.63,16.78h-0.02
		l-1.39,2.83h1.42V16.78z"/>
	<path class="st0" d="M313.52,22.43c-0.3-0.88-0.46-1.81-0.46-2.8s0.15-1.93,0.46-2.82c0.3-0.89,0.72-1.74,1.25-2.57h1.75
		c-0.51,0.85-0.88,1.72-1.1,2.61c-0.22,0.89-0.34,1.82-0.34,2.78s0.11,1.88,0.34,2.76s0.59,1.74,1.1,2.59h-1.75
		C314.24,24.15,313.82,23.3,313.52,22.43z"/>
	<path class="st0" d="M316.89,16.01c0.07-0.36,0.21-0.66,0.41-0.91s0.48-0.45,0.84-0.58s0.83-0.2,1.42-0.2
		c0.56,0,1.02,0.06,1.37,0.18c0.35,0.12,0.63,0.29,0.83,0.5c0.2,0.21,0.34,0.46,0.42,0.74s0.11,0.58,0.11,0.9
		c0,0.58-0.1,1.06-0.29,1.45c-0.19,0.39-0.45,0.75-0.77,1.07l-1.32,1.28c-0.1,0.1-0.2,0.2-0.32,0.32s-0.19,0.24-0.23,0.37h2.93v1.68
		h-5.59c0-0.6,0.09-1.17,0.27-1.7c0.18-0.53,0.51-1.05,1-1.55l1.49-1.51c0.22-0.22,0.37-0.42,0.46-0.62s0.14-0.45,0.14-0.77
		c0-0.36-0.05-0.61-0.16-0.74c-0.1-0.14-0.24-0.2-0.42-0.2c-0.08,0-0.16,0.01-0.23,0.04c-0.07,0.03-0.14,0.08-0.2,0.16
		c-0.06,0.08-0.11,0.19-0.14,0.34c-0.04,0.15-0.05,0.34-0.05,0.58v0.36h-2.09C316.78,16.76,316.82,16.36,316.89,16.01z"/>
	<path class="st0" d="M328.13,14.48v1.68h-3.23l-0.1,1.43c0.21-0.19,0.44-0.34,0.7-0.46s0.55-0.17,0.87-0.17
		c0.7,0,1.22,0.22,1.58,0.66c0.36,0.44,0.54,1.12,0.54,2.04c0,0.56-0.05,1.05-0.14,1.46s-0.25,0.75-0.46,1.03
		c-0.22,0.27-0.5,0.47-0.86,0.6c-0.36,0.13-0.8,0.19-1.33,0.19c-0.98,0-1.69-0.21-2.13-0.62c-0.44-0.42-0.65-1.01-0.65-1.78v-0.28
		h2.09v0.29c0,0.4,0.05,0.67,0.16,0.82c0.11,0.14,0.26,0.22,0.45,0.22c0.11,0,0.21-0.02,0.28-0.05s0.14-0.12,0.2-0.25
		c0.06-0.13,0.1-0.31,0.12-0.55c0.02-0.24,0.04-0.56,0.04-0.97c0-0.48-0.05-0.81-0.16-1c-0.11-0.19-0.27-0.28-0.47-0.28
		c-0.18,0-0.33,0.06-0.44,0.17c-0.11,0.11-0.17,0.3-0.17,0.55h-2.02l0.19-4.72H328.13z"/>
	<path class="st0" d="M329.25,15.55c0.06-0.29,0.17-0.53,0.32-0.71c0.15-0.18,0.34-0.32,0.58-0.4s0.54-0.13,0.89-0.13
		s0.65,0.04,0.89,0.13c0.24,0.08,0.43,0.22,0.58,0.4c0.15,0.18,0.25,0.42,0.32,0.71c0.06,0.29,0.1,0.65,0.1,1.06
		c0,0.42-0.03,0.77-0.1,1.06c-0.06,0.29-0.17,0.53-0.32,0.71c-0.15,0.18-0.34,0.32-0.58,0.4c-0.24,0.08-0.54,0.13-0.89,0.13
		s-0.65-0.04-0.89-0.13s-0.43-0.22-0.58-0.4c-0.15-0.18-0.25-0.42-0.32-0.71c-0.06-0.29-0.1-0.65-0.1-1.06
		C329.15,16.2,329.19,15.84,329.25,15.55z M330.64,17.29c0.01,0.18,0.03,0.31,0.06,0.41c0.03,0.1,0.07,0.17,0.13,0.2
		s0.13,0.05,0.22,0.05s0.16-0.02,0.22-0.05c0.06-0.04,0.1-0.1,0.13-0.2c0.03-0.1,0.05-0.24,0.06-0.41c0.01-0.18,0.02-0.4,0.02-0.67
		c0-0.28-0.01-0.51-0.02-0.68c-0.01-0.17-0.03-0.31-0.06-0.41c-0.03-0.1-0.07-0.17-0.13-0.2c-0.06-0.04-0.13-0.05-0.22-0.05
		s-0.16,0.02-0.22,0.05c-0.06,0.04-0.1,0.1-0.13,0.2c-0.03,0.1-0.05,0.24-0.06,0.41c-0.01,0.17-0.02,0.4-0.02,0.68
		C330.62,16.89,330.62,17.11,330.64,17.29z M336.17,14.31l-3.8,8.63h-1.32l3.8-8.63H336.17z M334.41,19.61
		c0.06-0.29,0.17-0.53,0.32-0.71c0.15-0.18,0.34-0.32,0.58-0.4c0.24-0.08,0.54-0.13,0.89-0.13c0.35,0,0.65,0.04,0.89,0.13
		c0.24,0.08,0.43,0.22,0.58,0.4c0.15,0.18,0.25,0.42,0.32,0.71c0.06,0.29,0.1,0.65,0.1,1.06s-0.03,0.77-0.1,1.06
		c-0.06,0.29-0.17,0.53-0.32,0.71c-0.15,0.18-0.34,0.31-0.58,0.38c-0.24,0.07-0.54,0.11-0.89,0.11c-0.35,0-0.65-0.04-0.89-0.11
		c-0.24-0.07-0.43-0.2-0.58-0.38c-0.15-0.18-0.25-0.42-0.32-0.71s-0.1-0.65-0.1-1.06S334.35,19.9,334.41,19.61z M335.8,21.34
		c0.01,0.18,0.03,0.31,0.06,0.41c0.03,0.1,0.07,0.17,0.13,0.2c0.06,0.04,0.13,0.05,0.22,0.05s0.16-0.02,0.22-0.05s0.1-0.1,0.13-0.2
		c0.03-0.1,0.05-0.24,0.06-0.41c0.01-0.18,0.02-0.4,0.02-0.67c0-0.28-0.01-0.51-0.02-0.68c-0.01-0.17-0.03-0.31-0.06-0.41
		c-0.03-0.1-0.07-0.17-0.13-0.2s-0.13-0.05-0.22-0.05s-0.16,0.02-0.22,0.05c-0.06,0.04-0.1,0.1-0.13,0.2
		c-0.03,0.1-0.05,0.24-0.06,0.41c-0.01,0.17-0.02,0.4-0.02,0.68C335.78,20.94,335.78,21.17,335.8,21.34z"/>
	<path class="st0" d="M341.24,16.81c0.3,0.89,0.46,1.83,0.46,2.82s-0.15,1.93-0.46,2.8c-0.3,0.88-0.72,1.73-1.25,2.55h-1.72
		c0.49-0.85,0.84-1.71,1.07-2.59c0.22-0.88,0.34-1.8,0.34-2.76s-0.11-1.89-0.34-2.78c-0.22-0.89-0.58-1.76-1.07-2.61h1.72
		C340.52,15.06,340.93,15.92,341.24,16.81z"/>
	<path class="st3" d="M286.54,36.99c-0.28,0.14-0.89,0.34-1.67,0.34c-1.75,0-2.89-1.19-2.89-2.96c0-1.79,1.22-3.08,3.12-3.08
		c0.62,0,1.17,0.16,1.46,0.3l-0.24,0.82c-0.25-0.14-0.65-0.28-1.22-0.28c-1.33,0-2.05,0.98-2.05,2.19c0,1.34,0.86,2.17,2.01,2.17
		c0.6,0,1-0.16,1.29-0.29L286.54,36.99z"/>
	<path class="st3" d="M287.78,28.69h1.05v3.62h0.02c0.17-0.3,0.43-0.56,0.76-0.74c0.31-0.18,0.68-0.3,1.08-0.3
		c0.78,0,2.03,0.48,2.03,2.48v3.45h-1.05v-3.33c0-0.94-0.35-1.73-1.34-1.73c-0.68,0-1.22,0.48-1.42,1.06
		c-0.06,0.14-0.07,0.3-0.07,0.5v3.5h-1.05V28.69z"/>
	<path class="st3" d="M297.65,37.21l-0.08-0.73h-0.04c-0.32,0.46-0.95,0.86-1.78,0.86c-1.17,0-1.77-0.83-1.77-1.67
		c0-1.4,1.25-2.17,3.49-2.16v-0.12c0-0.48-0.13-1.34-1.32-1.34c-0.54,0-1.1,0.17-1.51,0.43l-0.24-0.7c0.48-0.31,1.17-0.52,1.91-0.52
		c1.78,0,2.21,1.21,2.21,2.37v2.17c0,0.5,0.02,1,0.1,1.39H297.65z M297.5,34.24c-1.15-0.02-2.46,0.18-2.46,1.31
		c0,0.68,0.46,1.01,1,1.01c0.76,0,1.24-0.48,1.4-0.97c0.04-0.11,0.06-0.23,0.06-0.34V34.24z"/>
	<path class="st3" d="M300.22,32.97c0-0.6-0.01-1.09-0.05-1.57h0.94l0.06,0.96h0.02c0.29-0.55,0.96-1.09,1.92-1.09
		c0.8,0,2.05,0.48,2.05,2.47v3.47h-1.05v-3.35c0-0.94-0.35-1.72-1.34-1.72c-0.7,0-1.24,0.49-1.42,1.08
		c-0.05,0.13-0.07,0.31-0.07,0.49v3.49h-1.05V32.97z"/>
	<path class="st3" d="M311.02,36.99c-0.28,0.14-0.89,0.34-1.67,0.34c-1.75,0-2.89-1.19-2.89-2.96c0-1.79,1.22-3.08,3.12-3.08
		c0.62,0,1.17,0.16,1.46,0.3l-0.24,0.82c-0.25-0.14-0.65-0.28-1.22-0.28c-1.33,0-2.05,0.98-2.05,2.19c0,1.34,0.86,2.17,2.01,2.17
		c0.6,0,1-0.16,1.29-0.29L311.02,36.99z"/>
	<path class="st3" d="M312.77,34.5c0.02,1.43,0.94,2.02,1.99,2.02c0.76,0,1.21-0.13,1.61-0.3l0.18,0.75
		c-0.37,0.17-1.01,0.36-1.93,0.36c-1.79,0-2.85-1.18-2.85-2.93s1.03-3.13,2.72-3.13c1.89,0,2.4,1.67,2.4,2.73
		c0,0.22-0.02,0.38-0.04,0.49H312.77z M315.87,33.74c0.01-0.67-0.28-1.72-1.46-1.72c-1.07,0-1.54,0.98-1.62,1.72H315.87z"/>
	<path class="st3" d="M326,34.26c0,2.15-1.49,3.08-2.89,3.08c-1.57,0-2.78-1.15-2.78-2.99c0-1.94,1.27-3.08,2.88-3.08
		C324.87,31.27,326,32.48,326,34.26z M321.39,34.32c0,1.27,0.73,2.23,1.76,2.23c1.01,0,1.76-0.95,1.76-2.25
		c0-0.98-0.49-2.23-1.74-2.23C321.93,32.06,321.39,33.21,321.39,34.32z"/>
	<path class="st3" d="M327.44,37.21v-5h-0.82v-0.8h0.82v-0.28c0-0.82,0.18-1.56,0.67-2.03c0.4-0.38,0.92-0.54,1.42-0.54
		c0.37,0,0.7,0.08,0.9,0.17l-0.14,0.82c-0.16-0.07-0.37-0.13-0.67-0.13c-0.9,0-1.13,0.79-1.13,1.68v0.31h1.4v0.8h-1.4v5H327.44z"/>
	<path class="st3" d="M333.38,28.69h1.05v3.62h0.02c0.17-0.3,0.43-0.56,0.76-0.74c0.31-0.18,0.68-0.3,1.08-0.3
		c0.78,0,2.03,0.48,2.03,2.48v3.45h-1.05v-3.33c0-0.94-0.35-1.73-1.34-1.73c-0.68,0-1.22,0.48-1.42,1.06
		c-0.06,0.14-0.07,0.3-0.07,0.5v3.5h-1.05V28.69z"/>
	<path class="st3" d="M343.25,37.21l-0.08-0.73h-0.04c-0.32,0.46-0.95,0.86-1.78,0.86c-1.17,0-1.77-0.83-1.77-1.67
		c0-1.4,1.25-2.17,3.49-2.16v-0.12c0-0.48-0.13-1.34-1.32-1.34c-0.54,0-1.1,0.17-1.51,0.43l-0.24-0.7c0.48-0.31,1.17-0.52,1.91-0.52
		c1.78,0,2.21,1.21,2.21,2.37v2.17c0,0.5,0.02,1,0.1,1.39H343.25z M343.1,34.24c-1.15-0.02-2.46,0.18-2.46,1.31
		c0,0.68,0.46,1.01,1,1.01c0.76,0,1.24-0.48,1.4-0.97c0.04-0.11,0.06-0.23,0.06-0.34V34.24z"/>
	<path class="st3" d="M346.13,31.4l1.14,3.26c0.19,0.53,0.35,1.01,0.47,1.49h0.04c0.13-0.48,0.3-0.96,0.49-1.49l1.13-3.26h1.1
		l-2.28,5.8h-1.01l-2.21-5.8H346.13z"/>
	<path class="st3" d="M352.67,29.77c0.01,0.36-0.25,0.65-0.67,0.65c-0.37,0-0.64-0.29-0.64-0.65c0-0.37,0.28-0.66,0.66-0.66
		C352.42,29.11,352.67,29.4,352.67,29.77z M351.5,37.21v-5.8h1.05v5.8H351.5z"/>
	<path class="st3" d="M354.31,32.97c0-0.6-0.01-1.09-0.05-1.57h0.94l0.06,0.96h0.02c0.29-0.55,0.96-1.09,1.92-1.09
		c0.8,0,2.05,0.48,2.05,2.47v3.47h-1.05v-3.35c0-0.94-0.35-1.72-1.34-1.72c-0.7,0-1.24,0.49-1.42,1.08
		c-0.05,0.13-0.07,0.31-0.07,0.49v3.49h-1.05V32.97z"/>
	<path class="st3" d="M365.97,31.4c-0.02,0.42-0.05,0.89-0.05,1.59v3.37c0,1.33-0.26,2.15-0.83,2.65c-0.56,0.53-1.38,0.7-2.11,0.7
		c-0.7,0-1.46-0.17-1.93-0.48l0.26-0.8c0.38,0.24,0.98,0.46,1.7,0.46c1.08,0,1.87-0.56,1.87-2.03v-0.65h-0.02
		c-0.32,0.54-0.95,0.97-1.85,0.97c-1.44,0-2.47-1.22-2.47-2.83c0-1.97,1.28-3.08,2.61-3.08c1.01,0,1.56,0.53,1.81,1.01H365
		l0.05-0.88H365.97z M364.88,33.69c0-0.18-0.01-0.34-0.06-0.48c-0.19-0.61-0.71-1.12-1.48-1.12c-1.01,0-1.73,0.85-1.73,2.2
		c0,1.14,0.58,2.09,1.71,2.09c0.65,0,1.24-0.41,1.46-1.08c0.06-0.18,0.08-0.38,0.08-0.56V33.69z"/>
	<path class="st3" d="M282.29,50.33c0.47,0.29,1.15,0.53,1.87,0.53c1.07,0,1.69-0.56,1.69-1.38c0-0.75-0.43-1.19-1.52-1.61
		c-1.32-0.47-2.13-1.15-2.13-2.29c0-1.26,1.04-2.2,2.61-2.2c0.83,0,1.43,0.19,1.79,0.4l-0.29,0.85c-0.26-0.14-0.8-0.38-1.54-0.38
		c-1.1,0-1.52,0.66-1.52,1.21c0,0.76,0.49,1.13,1.61,1.56c1.37,0.53,2.06,1.19,2.06,2.37c0,1.25-0.92,2.33-2.83,2.33
		c-0.78,0-1.63-0.23-2.06-0.52L282.29,50.33z"/>
	<path class="st3" d="M289.49,44.17c0.01,0.36-0.25,0.65-0.67,0.65c-0.37,0-0.64-0.29-0.64-0.65c0-0.37,0.28-0.66,0.66-0.66
		C289.24,43.51,289.49,43.8,289.49,44.17z M288.32,51.61v-5.8h1.05v5.8H288.32z"/>
	<path class="st3" d="M295.26,51.39c-0.28,0.14-0.89,0.34-1.67,0.34c-1.75,0-2.89-1.19-2.89-2.96c0-1.79,1.22-3.08,3.12-3.08
		c0.62,0,1.17,0.16,1.46,0.3l-0.24,0.82c-0.25-0.14-0.65-0.28-1.22-0.28c-1.33,0-2.05,0.98-2.05,2.19c0,1.34,0.86,2.17,2.01,2.17
		c0.6,0,1-0.16,1.29-0.29L295.26,51.39z"/>
	<path class="st3" d="M297.55,48.46h0.02c0.14-0.2,0.35-0.46,0.52-0.66l1.7-2h1.27l-2.24,2.39l2.55,3.42h-1.28l-2-2.78l-0.54,0.6
		v2.18h-1.04v-8.52h1.04V48.46z"/>
	<path class="st3" d="M302.33,43.09h1.05v8.52h-1.05V43.09z"/>
	<path class="st3" d="M305.75,48.89c0.02,1.43,0.94,2.02,1.99,2.02c0.76,0,1.21-0.13,1.61-0.3l0.18,0.75
		c-0.37,0.17-1.01,0.36-1.93,0.36c-1.79,0-2.85-1.18-2.85-2.93s1.03-3.13,2.72-3.13c1.89,0,2.4,1.67,2.4,2.73
		c0,0.22-0.02,0.38-0.04,0.49H305.75z M308.85,48.14c0.01-0.67-0.28-1.71-1.46-1.71c-1.07,0-1.54,0.98-1.62,1.71H308.85z"/>
	<path class="st3" d="M319.41,51.34c-0.38,0.19-1.15,0.38-2.13,0.38c-2.28,0-3.99-1.44-3.99-4.09c0-2.53,1.71-4.25,4.22-4.25
		c1.01,0,1.64,0.22,1.92,0.36l-0.25,0.85c-0.4-0.19-0.96-0.34-1.63-0.34c-1.89,0-3.15,1.21-3.15,3.33c0,1.98,1.14,3.25,3.11,3.25
		c0.64,0,1.28-0.13,1.7-0.34L319.41,51.34z"/>
	<path class="st3" d="M321.14,48.89c0.02,1.43,0.94,2.02,1.99,2.02c0.76,0,1.21-0.13,1.61-0.3l0.18,0.75
		c-0.37,0.17-1.01,0.36-1.93,0.36c-1.79,0-2.85-1.18-2.85-2.93s1.03-3.13,2.72-3.13c1.89,0,2.4,1.67,2.4,2.73
		c0,0.22-0.02,0.38-0.04,0.49H321.14z M324.23,48.14c0.01-0.67-0.28-1.71-1.46-1.71c-1.07,0-1.54,0.98-1.62,1.71H324.23z"/>
	<path class="st3" d="M326.56,43.09h1.05v8.52h-1.05V43.09z"/>
	<path class="st3" d="M329.39,43.09h1.05v8.52h-1.05V43.09z"/>
	<path class="st3" d="M334.81,43.63c0.64-0.1,1.39-0.17,2.22-0.17c1.5,0,2.57,0.35,3.27,1.01c0.72,0.66,1.14,1.59,1.14,2.9
		c0,1.32-0.41,2.4-1.16,3.14c-0.76,0.76-2,1.16-3.57,1.16c-0.74,0-1.37-0.04-1.9-0.1V43.63z M335.85,50.78
		c0.26,0.05,0.65,0.06,1.06,0.06c2.23,0,3.44-1.25,3.44-3.43c0.01-1.91-1.07-3.12-3.27-3.12c-0.54,0-0.95,0.05-1.22,0.11V50.78z"/>
	<path class="st3" d="M343.94,44.17c0.01,0.36-0.25,0.65-0.67,0.65c-0.37,0-0.64-0.29-0.64-0.65c0-0.37,0.28-0.66,0.66-0.66
		C343.69,43.51,343.94,43.8,343.94,44.17z M342.76,51.61v-5.8h1.05v5.8H342.76z"/>
	<path class="st3" d="M345.43,50.53c0.31,0.2,0.86,0.42,1.39,0.42c0.77,0,1.13-0.38,1.13-0.86c0-0.5-0.3-0.78-1.08-1.07
		c-1.04-0.37-1.54-0.95-1.54-1.64c0-0.94,0.76-1.7,2-1.7c0.59,0,1.1,0.17,1.43,0.36l-0.26,0.77c-0.23-0.14-0.65-0.34-1.19-0.34
		c-0.62,0-0.97,0.36-0.97,0.79c0,0.48,0.35,0.7,1.1,0.98c1.01,0.38,1.52,0.89,1.52,1.75c0,1.02-0.79,1.74-2.17,1.74
		c-0.64,0-1.22-0.16-1.63-0.4L345.43,50.53z"/>
	<path class="st3" d="M350.91,48.89c0.02,1.43,0.94,2.02,1.99,2.02c0.76,0,1.21-0.13,1.61-0.3l0.18,0.75
		c-0.37,0.17-1.01,0.36-1.93,0.36c-1.79,0-2.85-1.18-2.85-2.93s1.03-3.13,2.72-3.13c1.89,0,2.4,1.67,2.4,2.73
		c0,0.22-0.02,0.38-0.04,0.49H350.91z M354,48.14c0.01-0.67-0.28-1.71-1.46-1.71c-1.07,0-1.54,0.98-1.62,1.71H354z"/>
	<path class="st3" d="M359.55,51.61l-0.08-0.73h-0.04c-0.32,0.46-0.95,0.86-1.78,0.86c-1.17,0-1.77-0.83-1.77-1.67
		c0-1.4,1.25-2.17,3.49-2.16v-0.12c0-0.48-0.13-1.34-1.32-1.34c-0.54,0-1.1,0.17-1.51,0.43l-0.24-0.7c0.48-0.31,1.17-0.52,1.91-0.52
		c1.78,0,2.21,1.21,2.21,2.37v2.17c0,0.5,0.02,1,0.1,1.39H359.55z M359.39,48.64c-1.15-0.02-2.46,0.18-2.46,1.31
		c0,0.68,0.46,1.01,1,1.01c0.76,0,1.24-0.48,1.4-0.97c0.04-0.11,0.06-0.23,0.06-0.34V48.64z"/>
	<path class="st3" d="M361.97,50.53c0.31,0.2,0.86,0.42,1.39,0.42c0.77,0,1.13-0.38,1.13-0.86c0-0.5-0.3-0.78-1.08-1.07
		c-1.04-0.37-1.54-0.95-1.54-1.64c0-0.94,0.76-1.7,2-1.7c0.59,0,1.1,0.17,1.43,0.36l-0.26,0.77c-0.23-0.14-0.65-0.34-1.19-0.34
		c-0.62,0-0.97,0.36-0.97,0.79c0,0.48,0.35,0.7,1.1,0.98c1.01,0.38,1.52,0.89,1.52,1.75c0,1.02-0.79,1.74-2.17,1.74
		c-0.64,0-1.22-0.16-1.63-0.4L361.97,50.53z"/>
	<path class="st3" d="M367.46,48.89c0.02,1.43,0.94,2.02,1.99,2.02c0.76,0,1.21-0.13,1.61-0.3l0.18,0.75
		c-0.37,0.17-1.01,0.36-1.93,0.36c-1.79,0-2.85-1.18-2.85-2.93s1.03-3.13,2.72-3.13c1.89,0,2.4,1.67,2.4,2.73
		c0,0.22-0.02,0.38-0.04,0.49H367.46z M370.55,48.14c0.01-0.67-0.28-1.71-1.46-1.71c-1.07,0-1.54,0.98-1.62,1.71H370.55z"/>
	<path class="st0" d="M283.72,89.02h-1.61v-1.39c0.34,0,0.64-0.02,0.89-0.07s0.46-0.12,0.64-0.22c0.18-0.1,0.32-0.24,0.43-0.41
		s0.2-0.38,0.28-0.63h1.61v8.5h-2.23V89.02z"/>
	<path class="st0" d="M293.51,86.24v1.61h-2.16v-1.61H293.51z M293.51,88.31v6.49h-2.16v-6.49H293.51z"/>
	<path class="st0" d="M296.5,88.31v0.79h0.02c0.28-0.64,0.8-0.96,1.57-0.96c0.24,0,0.46,0.03,0.67,0.08s0.38,0.15,0.53,0.28
		c0.15,0.14,0.27,0.32,0.36,0.54s0.13,0.51,0.13,0.86v4.9h-2.16v-4.28c0-0.27-0.04-0.47-0.12-0.59c-0.08-0.12-0.22-0.18-0.41-0.18
		c-0.19,0-0.33,0.06-0.41,0.18s-0.12,0.32-0.12,0.59v4.28h-2.16v-6.49H296.5z"/>
	<path class="st0" d="M303.76,88.01c0.07-0.36,0.21-0.66,0.41-0.91s0.48-0.45,0.84-0.58s0.83-0.2,1.42-0.2
		c0.56,0,1.02,0.06,1.37,0.18c0.35,0.12,0.63,0.29,0.83,0.5c0.2,0.21,0.34,0.46,0.42,0.74s0.11,0.58,0.11,0.9
		c0,0.58-0.1,1.06-0.29,1.45c-0.19,0.39-0.45,0.75-0.77,1.07l-1.32,1.28c-0.1,0.1-0.2,0.2-0.32,0.32s-0.19,0.24-0.23,0.37h2.93v1.68
		h-5.59c0-0.6,0.09-1.17,0.27-1.7c0.18-0.53,0.51-1.05,1-1.55l1.49-1.51c0.22-0.22,0.37-0.42,0.46-0.62s0.14-0.45,0.14-0.77
		c0-0.36-0.05-0.61-0.16-0.74c-0.1-0.14-0.24-0.2-0.42-0.2c-0.08,0-0.16,0.01-0.23,0.04c-0.07,0.03-0.14,0.08-0.2,0.16
		c-0.06,0.08-0.11,0.19-0.14,0.34c-0.04,0.15-0.05,0.34-0.05,0.58v0.36h-2.09C303.65,88.76,303.69,88.36,303.76,88.01z"/>
	<path class="st0" d="M313.52,94.43c-0.3-0.88-0.46-1.81-0.46-2.8s0.15-1.93,0.46-2.82c0.3-0.89,0.72-1.74,1.25-2.57h1.75
		c-0.51,0.85-0.88,1.72-1.1,2.61c-0.22,0.89-0.34,1.82-0.34,2.78s0.11,1.88,0.34,2.76s0.59,1.74,1.1,2.59h-1.75
		C314.24,96.15,313.82,95.3,313.52,94.43z"/>
	<path class="st0" d="M321.89,86.48v1.68h-3.23l-0.1,1.43c0.21-0.19,0.44-0.34,0.7-0.46s0.55-0.17,0.87-0.17
		c0.7,0,1.22,0.22,1.58,0.66c0.36,0.44,0.54,1.12,0.54,2.04c0,0.56-0.05,1.05-0.14,1.46s-0.25,0.75-0.46,1.03
		c-0.22,0.27-0.5,0.47-0.86,0.6c-0.36,0.13-0.8,0.19-1.33,0.19c-0.98,0-1.69-0.21-2.13-0.62c-0.44-0.42-0.65-1.01-0.65-1.78v-0.28
		h2.09v0.29c0,0.4,0.05,0.67,0.16,0.82c0.11,0.14,0.26,0.22,0.45,0.22c0.11,0,0.21-0.02,0.28-0.05s0.14-0.12,0.2-0.25
		c0.06-0.13,0.1-0.31,0.12-0.55c0.02-0.24,0.04-0.56,0.04-0.97c0-0.48-0.05-0.81-0.16-1c-0.11-0.19-0.27-0.28-0.47-0.28
		c-0.18,0-0.33,0.06-0.44,0.17c-0.11,0.11-0.17,0.3-0.17,0.55h-2.02l0.19-4.72H321.89z"/>
	<path class="st0" d="M323.11,88.52c0.12-0.56,0.29-1,0.53-1.33c0.24-0.33,0.54-0.56,0.9-0.68s0.79-0.19,1.29-0.19
		s0.93,0.06,1.29,0.19s0.66,0.36,0.9,0.68c0.24,0.33,0.41,0.77,0.53,1.33c0.12,0.56,0.17,1.27,0.17,2.12c0,0.86-0.06,1.57-0.17,2.13
		c-0.12,0.56-0.29,1-0.53,1.32c-0.24,0.32-0.54,0.55-0.9,0.67s-0.79,0.18-1.29,0.18s-0.93-0.06-1.29-0.18s-0.66-0.34-0.9-0.67
		c-0.24-0.32-0.41-0.76-0.53-1.32c-0.12-0.56-0.17-1.27-0.17-2.13C322.94,89.79,323,89.08,323.11,88.52z M325.33,93.26
		c0.1,0.21,0.27,0.32,0.5,0.32c0.23,0,0.4-0.11,0.5-0.32c0.1-0.21,0.16-0.62,0.16-1.22v-2.81c0-0.6-0.05-1.01-0.16-1.22
		c-0.1-0.21-0.27-0.32-0.5-0.32c-0.23,0-0.4,0.11-0.5,0.32c-0.1,0.21-0.16,0.62-0.16,1.22v2.81
		C325.17,92.65,325.22,93.05,325.33,93.26z"/>
	<path class="st0" d="M329.25,87.55c0.06-0.29,0.17-0.53,0.32-0.71c0.15-0.18,0.34-0.32,0.58-0.4s0.54-0.13,0.89-0.13
		s0.65,0.04,0.89,0.13c0.24,0.08,0.43,0.22,0.58,0.4c0.15,0.18,0.25,0.42,0.32,0.71c0.06,0.29,0.1,0.65,0.1,1.06
		c0,0.42-0.03,0.77-0.1,1.06c-0.06,0.29-0.17,0.53-0.32,0.71c-0.15,0.18-0.34,0.32-0.58,0.4c-0.24,0.08-0.54,0.13-0.89,0.13
		s-0.65-0.04-0.89-0.13s-0.43-0.22-0.58-0.4c-0.15-0.18-0.25-0.42-0.32-0.71c-0.06-0.29-0.1-0.65-0.1-1.06
		C329.15,88.2,329.19,87.84,329.25,87.55z M330.64,89.29c0.01,0.18,0.03,0.31,0.06,0.41c0.03,0.1,0.07,0.17,0.13,0.2
		s0.13,0.05,0.22,0.05s0.16-0.02,0.22-0.05c0.06-0.04,0.1-0.1,0.13-0.2c0.03-0.1,0.05-0.24,0.06-0.41c0.01-0.18,0.02-0.4,0.02-0.67
		c0-0.28-0.01-0.51-0.02-0.68c-0.01-0.17-0.03-0.31-0.06-0.41c-0.03-0.1-0.07-0.17-0.13-0.2c-0.06-0.04-0.13-0.05-0.22-0.05
		s-0.16,0.02-0.22,0.05c-0.06,0.04-0.1,0.1-0.13,0.2c-0.03,0.1-0.05,0.24-0.06,0.41c-0.01,0.17-0.02,0.4-0.02,0.68
		C330.62,88.89,330.62,89.11,330.64,89.29z M336.17,86.31l-3.8,8.63h-1.32l3.8-8.63H336.17z M334.41,91.61
		c0.06-0.29,0.17-0.53,0.32-0.71c0.15-0.18,0.34-0.32,0.58-0.4c0.24-0.08,0.54-0.13,0.89-0.13c0.35,0,0.65,0.04,0.89,0.13
		c0.24,0.08,0.43,0.22,0.58,0.4c0.15,0.18,0.25,0.42,0.32,0.71c0.06,0.29,0.1,0.65,0.1,1.06s-0.03,0.77-0.1,1.06
		c-0.06,0.29-0.17,0.53-0.32,0.71c-0.15,0.18-0.34,0.31-0.58,0.38c-0.24,0.07-0.54,0.11-0.89,0.11c-0.35,0-0.65-0.04-0.89-0.11
		c-0.24-0.07-0.43-0.2-0.58-0.38c-0.15-0.18-0.25-0.42-0.32-0.71s-0.1-0.65-0.1-1.06S334.35,91.9,334.41,91.61z M335.8,93.34
		c0.01,0.18,0.03,0.31,0.06,0.41c0.03,0.1,0.07,0.17,0.13,0.2c0.06,0.04,0.13,0.05,0.22,0.05s0.16-0.02,0.22-0.05s0.1-0.1,0.13-0.2
		c0.03-0.1,0.05-0.24,0.06-0.41c0.01-0.18,0.02-0.4,0.02-0.67c0-0.28-0.01-0.51-0.02-0.68c-0.01-0.17-0.03-0.31-0.06-0.41
		c-0.03-0.1-0.07-0.17-0.13-0.2s-0.13-0.05-0.22-0.05s-0.16,0.02-0.22,0.05c-0.06,0.04-0.1,0.1-0.13,0.2
		c-0.03,0.1-0.05,0.24-0.06,0.41c-0.01,0.17-0.02,0.4-0.02,0.68C335.78,92.94,335.78,93.17,335.8,93.34z"/>
	<path class="st0" d="M341.24,88.81c0.3,0.89,0.46,1.83,0.46,2.82s-0.15,1.93-0.46,2.8c-0.3,0.88-0.72,1.73-1.25,2.55h-1.72
		c0.49-0.85,0.84-1.71,1.07-2.59c0.22-0.88,0.34-1.8,0.34-2.76s-0.11-1.89-0.34-2.78c-0.22-0.89-0.58-1.76-1.07-2.61h1.72
		C340.52,87.06,340.93,87.92,341.24,88.81z"/>
	<path class="st3" d="M286.54,108.99c-0.28,0.14-0.89,0.34-1.67,0.34c-1.75,0-2.89-1.19-2.89-2.96c0-1.79,1.22-3.08,3.12-3.08
		c0.62,0,1.17,0.16,1.46,0.3l-0.24,0.82c-0.25-0.14-0.65-0.28-1.22-0.28c-1.33,0-2.05,0.98-2.05,2.19c0,1.34,0.86,2.17,2.01,2.17
		c0.6,0,1-0.16,1.29-0.29L286.54,108.99z"/>
	<path class="st3" d="M287.78,100.69h1.05v3.62h0.02c0.17-0.3,0.43-0.56,0.76-0.74c0.31-0.18,0.68-0.3,1.08-0.3
		c0.78,0,2.03,0.48,2.03,2.48v3.45h-1.05v-3.33c0-0.94-0.35-1.73-1.34-1.73c-0.68,0-1.22,0.48-1.42,1.06
		c-0.06,0.14-0.07,0.3-0.07,0.5v3.5h-1.05V100.69z"/>
	<path class="st3" d="M297.65,109.21l-0.08-0.73h-0.04c-0.32,0.46-0.95,0.86-1.78,0.86c-1.17,0-1.77-0.83-1.77-1.67
		c0-1.4,1.25-2.17,3.49-2.16v-0.12c0-0.48-0.13-1.34-1.32-1.34c-0.54,0-1.1,0.17-1.51,0.43l-0.24-0.7c0.48-0.31,1.17-0.52,1.91-0.52
		c1.78,0,2.21,1.21,2.21,2.37v2.17c0,0.5,0.02,1,0.1,1.39H297.65z M297.5,106.24c-1.15-0.02-2.46,0.18-2.46,1.31
		c0,0.68,0.46,1.01,1,1.01c0.76,0,1.24-0.48,1.4-0.97c0.04-0.11,0.06-0.23,0.06-0.34V106.24z"/>
	<path class="st3" d="M300.22,104.97c0-0.6-0.01-1.09-0.05-1.57h0.94l0.06,0.96h0.02c0.29-0.55,0.96-1.09,1.92-1.09
		c0.8,0,2.05,0.48,2.05,2.47v3.47h-1.05v-3.35c0-0.94-0.35-1.72-1.34-1.72c-0.7,0-1.24,0.49-1.42,1.08
		c-0.05,0.13-0.07,0.31-0.07,0.49v3.49h-1.05V104.97z"/>
	<path class="st3" d="M311.02,108.99c-0.28,0.14-0.89,0.34-1.67,0.34c-1.75,0-2.89-1.19-2.89-2.96c0-1.79,1.22-3.08,3.12-3.08
		c0.62,0,1.17,0.16,1.46,0.3l-0.24,0.82c-0.25-0.14-0.65-0.28-1.22-0.28c-1.33,0-2.05,0.98-2.05,2.19c0,1.34,0.86,2.17,2.01,2.17
		c0.6,0,1-0.16,1.29-0.29L311.02,108.99z"/>
	<path class="st3" d="M312.77,106.5c0.02,1.43,0.94,2.02,1.99,2.02c0.76,0,1.21-0.13,1.61-0.3l0.18,0.75
		c-0.37,0.17-1.01,0.36-1.93,0.36c-1.79,0-2.85-1.18-2.85-2.93s1.03-3.13,2.72-3.13c1.89,0,2.4,1.67,2.4,2.73
		c0,0.22-0.02,0.38-0.04,0.49H312.77z M315.87,105.74c0.01-0.67-0.28-1.72-1.46-1.72c-1.07,0-1.54,0.98-1.62,1.72H315.87z"/>
	<path class="st3" d="M326,106.26c0,2.15-1.49,3.08-2.89,3.08c-1.57,0-2.78-1.15-2.78-2.99c0-1.94,1.27-3.08,2.88-3.08
		C324.87,103.27,326,104.48,326,106.26z M321.39,106.32c0,1.27,0.73,2.23,1.76,2.23c1.01,0,1.76-0.95,1.76-2.25
		c0-0.98-0.49-2.23-1.74-2.23C321.93,104.06,321.39,105.21,321.39,106.32z"/>
	<path class="st3" d="M327.44,109.21v-5h-0.82v-0.8h0.82v-0.28c0-0.82,0.18-1.56,0.67-2.03c0.4-0.38,0.92-0.54,1.42-0.54
		c0.37,0,0.7,0.08,0.9,0.17l-0.14,0.82c-0.16-0.07-0.37-0.13-0.67-0.13c-0.9,0-1.13,0.79-1.13,1.68v0.31h1.4v0.8h-1.4v5H327.44z"/>
	<path class="st3" d="M333.33,109.21c0.02-0.4,0.05-0.98,0.05-1.5v-7.02h1.04v3.65h0.02c0.37-0.65,1.04-1.07,1.98-1.07
		c1.44,0,2.46,1.2,2.45,2.96c0,2.08-1.31,3.11-2.6,3.11c-0.84,0-1.51-0.32-1.94-1.09h-0.04l-0.05,0.96H333.33z M334.42,106.88
		c0,0.13,0.02,0.26,0.05,0.38c0.2,0.73,0.82,1.24,1.58,1.24c1.1,0,1.76-0.9,1.76-2.23c0-1.16-0.6-2.16-1.73-2.16
		c-0.72,0-1.39,0.49-1.61,1.3c-0.02,0.12-0.06,0.26-0.06,0.43V106.88z"/>
	<path class="st3" d="M340.79,106.5c0.02,1.43,0.94,2.02,1.99,2.02c0.76,0,1.21-0.13,1.61-0.3l0.18,0.75
		c-0.37,0.17-1.01,0.36-1.93,0.36c-1.79,0-2.85-1.18-2.85-2.93s1.03-3.13,2.72-3.13c1.89,0,2.4,1.67,2.4,2.73
		c0,0.22-0.02,0.38-0.04,0.49H340.79z M343.89,105.74c0.01-0.67-0.28-1.72-1.46-1.72c-1.07,0-1.54,0.98-1.62,1.72H343.89z"/>
	<path class="st3" d="M347.39,101.77c0.01,0.36-0.25,0.65-0.67,0.65c-0.37,0-0.64-0.29-0.64-0.65c0-0.37,0.28-0.66,0.66-0.66
		C347.14,101.11,347.39,101.4,347.39,101.77z M346.22,109.21v-5.8h1.05v5.8H346.22z"/>
	<path class="st3" d="M349.03,104.97c0-0.6-0.01-1.09-0.05-1.57h0.94l0.06,0.96H350c0.29-0.55,0.96-1.09,1.92-1.09
		c0.8,0,2.05,0.48,2.05,2.47v3.47h-1.05v-3.35c0-0.94-0.35-1.72-1.34-1.72c-0.7,0-1.24,0.49-1.42,1.08
		c-0.05,0.13-0.07,0.31-0.07,0.49v3.49h-1.05V104.97z"/>
	<path class="st3" d="M360.69,103.4c-0.02,0.42-0.05,0.89-0.05,1.59v3.37c0,1.33-0.26,2.15-0.83,2.65c-0.56,0.53-1.38,0.7-2.11,0.7
		c-0.7,0-1.46-0.17-1.93-0.48l0.26-0.8c0.38,0.24,0.98,0.46,1.7,0.46c1.08,0,1.87-0.56,1.87-2.03v-0.65h-0.02
		c-0.32,0.54-0.95,0.97-1.85,0.97c-1.44,0-2.47-1.22-2.47-2.83c0-1.97,1.28-3.08,2.61-3.08c1.01,0,1.56,0.53,1.81,1.01h0.02
		l0.05-0.88H360.69z M359.6,105.69c0-0.18-0.01-0.34-0.06-0.48c-0.19-0.61-0.71-1.12-1.48-1.12c-1.01,0-1.73,0.85-1.73,2.2
		c0,1.14,0.58,2.09,1.71,2.09c0.65,0,1.24-0.41,1.46-1.08c0.06-0.18,0.08-0.38,0.08-0.56V105.69z"/>
	<path class="st3" d="M368.15,109.21l-0.08-0.73h-0.04c-0.32,0.46-0.95,0.86-1.78,0.86c-1.17,0-1.77-0.83-1.77-1.67
		c0-1.4,1.25-2.17,3.49-2.16v-0.12c0-0.48-0.13-1.34-1.32-1.34c-0.54,0-1.1,0.17-1.51,0.43l-0.24-0.7c0.48-0.31,1.17-0.52,1.91-0.52
		c1.78,0,2.21,1.21,2.21,2.37v2.17c0,0.5,0.02,1,0.1,1.39H368.15z M368,106.24c-1.15-0.02-2.46,0.18-2.46,1.31
		c0,0.68,0.46,1.01,1,1.01c0.76,0,1.24-0.48,1.4-0.97c0.04-0.11,0.06-0.23,0.06-0.34V106.24z"/>
	<path class="st3" d="M377.4,108.99c-0.28,0.14-0.89,0.34-1.67,0.34c-1.75,0-2.89-1.19-2.89-2.96c0-1.79,1.22-3.08,3.12-3.08
		c0.62,0,1.17,0.16,1.46,0.3l-0.24,0.82c-0.25-0.14-0.65-0.28-1.22-0.28c-1.33,0-2.05,0.98-2.05,2.19c0,1.34,0.86,2.17,2.01,2.17
		c0.6,0,1-0.16,1.29-0.29L377.4,108.99z"/>
	<path class="st3" d="M381.86,109.21l-0.08-0.73h-0.04c-0.32,0.46-0.95,0.86-1.78,0.86c-1.17,0-1.77-0.83-1.77-1.67
		c0-1.4,1.25-2.17,3.49-2.16v-0.12c0-0.48-0.13-1.34-1.32-1.34c-0.54,0-1.1,0.17-1.51,0.43l-0.24-0.7c0.48-0.31,1.17-0.52,1.91-0.52
		c1.78,0,2.21,1.21,2.21,2.37v2.17c0,0.5,0.02,1,0.1,1.39H381.86z M381.7,106.24c-1.15-0.02-2.46,0.18-2.46,1.31
		c0,0.68,0.46,1.01,1,1.01c0.76,0,1.24-0.48,1.4-0.97c0.04-0.11,0.06-0.23,0.06-0.34V106.24z"/>
	<path class="st3" d="M384.43,105.21c0-0.68-0.01-1.27-0.05-1.81h0.92l0.04,1.14h0.05c0.26-0.78,0.9-1.27,1.61-1.27
		c0.12,0,0.2,0.01,0.3,0.04v1c-0.11-0.02-0.22-0.04-0.36-0.04c-0.74,0-1.27,0.56-1.42,1.36c-0.02,0.14-0.05,0.31-0.05,0.49v3.09
		h-1.04V105.21z"/>
	<path class="st3" d="M388.4,105.21c0-0.68-0.01-1.27-0.05-1.81h0.92l0.04,1.14h0.05c0.26-0.78,0.9-1.27,1.61-1.27
		c0.12,0,0.2,0.01,0.3,0.04v1c-0.11-0.02-0.22-0.04-0.36-0.04c-0.74,0-1.27,0.56-1.42,1.36c-0.02,0.14-0.05,0.31-0.05,0.49v3.09
		h-1.04V105.21z"/>
	<path class="st3" d="M393.54,101.77c0.01,0.36-0.25,0.65-0.67,0.65c-0.37,0-0.64-0.29-0.64-0.65c0-0.37,0.28-0.66,0.66-0.66
		C393.29,101.11,393.54,101.4,393.54,101.77z M392.37,109.21v-5.8h1.05v5.8H392.37z"/>
	<path class="st3" d="M395.76,106.5c0.02,1.43,0.94,2.02,1.99,2.02c0.76,0,1.21-0.13,1.61-0.3l0.18,0.75
		c-0.37,0.17-1.01,0.36-1.93,0.36c-1.79,0-2.85-1.18-2.85-2.93s1.03-3.13,2.72-3.13c1.89,0,2.4,1.67,2.4,2.73
		c0,0.22-0.02,0.38-0.04,0.49H395.76z M398.86,105.74c0.01-0.67-0.28-1.72-1.46-1.72c-1.07,0-1.54,0.98-1.62,1.72H398.86z"/>
	<path class="st3" d="M401.19,105.21c0-0.68-0.01-1.27-0.05-1.81h0.92l0.04,1.14h0.05c0.26-0.78,0.9-1.27,1.61-1.27
		c0.12,0,0.2,0.01,0.3,0.04v1c-0.11-0.02-0.22-0.04-0.36-0.04c-0.74,0-1.27,0.56-1.42,1.36c-0.02,0.14-0.05,0.31-0.05,0.49v3.09
		h-1.04V105.21z"/>
	<path class="st3" d="M287.24,115.28c-0.88,1.17-1.51,2.73-1.51,4.91c0,2.13,0.66,3.67,1.51,4.87h-0.83c-0.76-1-1.57-2.53-1.57-4.87
		c0.01-2.36,0.82-3.9,1.57-4.91H287.24z"/>
	<path class="st3" d="M288.31,123.61c0.02-0.4,0.05-0.98,0.05-1.5v-7.02h1.04v3.65h0.02c0.37-0.65,1.04-1.07,1.98-1.07
		c1.44,0,2.46,1.2,2.45,2.96c0,2.08-1.31,3.11-2.6,3.11c-0.84,0-1.51-0.32-1.94-1.09h-0.04l-0.05,0.96H288.31z M289.4,121.28
		c0,0.13,0.02,0.26,0.05,0.38c0.2,0.73,0.82,1.24,1.58,1.24c1.1,0,1.76-0.9,1.76-2.23c0-1.16-0.6-2.16-1.73-2.16
		c-0.72,0-1.39,0.49-1.61,1.3c-0.02,0.12-0.06,0.26-0.06,0.43V121.28z"/>
	<path class="st3" d="M300.04,122.02c0,0.6,0.01,1.13,0.05,1.58h-0.94l-0.06-0.95h-0.02c-0.28,0.47-0.89,1.08-1.92,1.08
		c-0.91,0-2-0.5-2-2.54v-3.39h1.05v3.21c0,1.1,0.34,1.85,1.3,1.85c0.71,0,1.2-0.49,1.39-0.96c0.06-0.16,0.1-0.35,0.1-0.54v-3.56
		h1.05V122.02z"/>
	<path class="st3" d="M303.07,116.13v1.67h1.51v0.8h-1.51v3.13c0,0.72,0.2,1.13,0.79,1.13c0.28,0,0.48-0.04,0.61-0.07l0.05,0.79
		c-0.2,0.08-0.53,0.14-0.94,0.14c-0.49,0-0.89-0.16-1.14-0.44c-0.3-0.31-0.41-0.83-0.41-1.51v-3.17h-0.9v-0.8h0.9v-1.39
		L303.07,116.13z"/>
	<path class="st3" d="M308.31,119.37c0-0.6-0.01-1.09-0.05-1.57h0.94l0.06,0.96h0.02c0.29-0.55,0.96-1.09,1.92-1.09
		c0.8,0,2.05,0.48,2.05,2.47v3.47h-1.05v-3.35c0-0.94-0.35-1.72-1.34-1.72c-0.7,0-1.24,0.49-1.42,1.08
		c-0.05,0.13-0.07,0.31-0.07,0.49v3.49h-1.05V119.37z"/>
	<path class="st3" d="M320.22,120.66c0,2.15-1.49,3.08-2.89,3.08c-1.57,0-2.78-1.15-2.78-2.99c0-1.94,1.27-3.08,2.88-3.08
		C319.1,117.67,320.22,118.88,320.22,120.66z M315.62,120.71c0,1.27,0.73,2.23,1.76,2.23c1.01,0,1.76-0.95,1.76-2.25
		c0-0.98-0.49-2.23-1.74-2.23C316.16,118.46,315.62,119.61,315.62,120.71z"/>
	<path class="st3" d="M322.83,116.13v1.67h1.51v0.8h-1.51v3.13c0,0.72,0.2,1.13,0.79,1.13c0.28,0,0.48-0.04,0.61-0.07l0.05,0.79
		c-0.2,0.08-0.53,0.14-0.94,0.14c-0.49,0-0.89-0.16-1.14-0.44c-0.3-0.31-0.41-0.83-0.41-1.51v-3.17h-0.9v-0.8h0.9v-1.39
		L322.83,116.13z"/>
	<path class="st3" d="M328.07,115.09h1.05v3.62h0.02c0.17-0.3,0.43-0.56,0.76-0.74c0.31-0.18,0.68-0.3,1.08-0.3
		c0.78,0,2.03,0.48,2.03,2.48v3.45h-1.05v-3.33c0-0.94-0.35-1.73-1.34-1.73c-0.68,0-1.22,0.48-1.42,1.06
		c-0.06,0.14-0.07,0.3-0.07,0.5v3.5h-1.05V115.09z"/>
	<path class="st3" d="M337.95,123.61l-0.08-0.73h-0.04c-0.32,0.46-0.95,0.86-1.78,0.86c-1.17,0-1.77-0.83-1.77-1.67
		c0-1.4,1.25-2.17,3.49-2.16v-0.12c0-0.48-0.13-1.34-1.32-1.34c-0.54,0-1.1,0.17-1.51,0.43l-0.24-0.7c0.48-0.31,1.17-0.52,1.91-0.52
		c1.78,0,2.21,1.21,2.21,2.37v2.17c0,0.5,0.02,1,0.1,1.39H337.95z M337.79,120.64c-1.15-0.02-2.46,0.18-2.46,1.31
		c0,0.68,0.46,1.01,1,1.01c0.76,0,1.24-0.48,1.4-0.97c0.04-0.11,0.06-0.23,0.06-0.34V120.64z"/>
	<path class="st3" d="M340.83,117.8l1.14,3.26c0.19,0.53,0.35,1.01,0.47,1.49h0.04c0.13-0.48,0.3-0.96,0.49-1.49l1.13-3.26h1.1
		l-2.28,5.8h-1.01l-2.21-5.8H340.83z"/>
	<path class="st3" d="M347.37,116.17c0.01,0.36-0.25,0.65-0.67,0.65c-0.37,0-0.64-0.29-0.64-0.65c0-0.37,0.28-0.66,0.66-0.66
		C347.12,115.51,347.37,115.8,347.37,116.17z M346.19,123.61v-5.8h1.05v5.8H346.19z"/>
	<path class="st3" d="M349,119.37c0-0.6-0.01-1.09-0.05-1.57h0.94l0.06,0.96h0.02c0.29-0.55,0.96-1.09,1.92-1.09
		c0.8,0,2.05,0.48,2.05,2.47v3.47h-1.05v-3.35c0-0.94-0.35-1.72-1.34-1.72c-0.7,0-1.24,0.49-1.42,1.08
		c-0.05,0.13-0.07,0.31-0.07,0.49v3.49H349V119.37z"/>
	<path class="st3" d="M360.66,117.8c-0.02,0.42-0.05,0.89-0.05,1.59v3.37c0,1.33-0.26,2.15-0.83,2.65c-0.56,0.53-1.38,0.7-2.11,0.7
		c-0.7,0-1.46-0.17-1.93-0.48l0.26-0.8c0.38,0.24,0.98,0.46,1.7,0.46c1.08,0,1.87-0.56,1.87-2.03v-0.65h-0.02
		c-0.32,0.54-0.95,0.97-1.85,0.97c-1.44,0-2.47-1.22-2.47-2.83c0-1.97,1.28-3.08,2.61-3.08c1.01,0,1.56,0.53,1.81,1.01h0.02
		l0.05-0.88H360.66z M359.57,120.09c0-0.18-0.01-0.34-0.06-0.48c-0.19-0.61-0.71-1.12-1.48-1.12c-1.01,0-1.73,0.85-1.73,2.2
		c0,1.14,0.58,2.09,1.71,2.09c0.65,0,1.24-0.41,1.46-1.08c0.06-0.18,0.08-0.38,0.08-0.56V120.09z"/>
	<path class="st3" d="M364.81,122.33c0.47,0.29,1.15,0.53,1.87,0.53c1.07,0,1.69-0.56,1.69-1.38c0-0.75-0.43-1.19-1.52-1.61
		c-1.32-0.47-2.13-1.15-2.13-2.29c0-1.26,1.04-2.2,2.61-2.2c0.83,0,1.43,0.19,1.79,0.4l-0.29,0.85c-0.26-0.14-0.8-0.38-1.54-0.38
		c-1.1,0-1.52,0.66-1.52,1.21c0,0.76,0.49,1.13,1.61,1.56c1.37,0.53,2.06,1.19,2.06,2.37c0,1.25-0.92,2.33-2.83,2.33
		c-0.78,0-1.63-0.23-2.06-0.52L364.81,122.33z"/>
	<path class="st3" d="M372,116.17c0.01,0.36-0.25,0.65-0.67,0.65c-0.37,0-0.64-0.29-0.64-0.65c0-0.37,0.28-0.66,0.66-0.66
		C371.75,115.51,372,115.8,372,116.17z M370.83,123.61v-5.8h1.05v5.8H370.83z"/>
	<path class="st3" d="M377.78,123.39c-0.28,0.14-0.89,0.34-1.67,0.34c-1.75,0-2.89-1.19-2.89-2.96c0-1.79,1.22-3.08,3.12-3.08
		c0.62,0,1.17,0.16,1.46,0.3l-0.24,0.82c-0.25-0.14-0.65-0.28-1.22-0.28c-1.33,0-2.05,0.98-2.05,2.19c0,1.34,0.86,2.17,2.01,2.17
		c0.6,0,1-0.16,1.29-0.29L377.78,123.39z"/>
	<path class="st3" d="M380.06,120.46h0.02c0.14-0.2,0.35-0.46,0.52-0.66l1.7-2h1.27l-2.24,2.39l2.55,3.42h-1.28l-2-2.78l-0.54,0.6
		v2.18h-1.04v-8.52h1.04V120.46z"/>
	<path class="st3" d="M384.85,115.09h1.05v8.52h-1.05V115.09z"/>
	<path class="st3" d="M388.26,120.89c0.02,1.43,0.94,2.02,1.99,2.02c0.76,0,1.21-0.13,1.61-0.3l0.18,0.75
		c-0.37,0.17-1.01,0.36-1.93,0.36c-1.79,0-2.85-1.18-2.85-2.93s1.03-3.13,2.72-3.13c1.89,0,2.4,1.67,2.4,2.73
		c0,0.22-0.02,0.38-0.04,0.49H388.26z M391.36,120.14c0.01-0.67-0.28-1.71-1.46-1.71c-1.07,0-1.54,0.98-1.62,1.71H391.36z"/>
	<path class="st3" d="M401.92,123.34c-0.38,0.19-1.15,0.38-2.13,0.38c-2.28,0-3.99-1.44-3.99-4.09c0-2.53,1.71-4.25,4.22-4.25
		c1.01,0,1.64,0.22,1.92,0.36l-0.25,0.85c-0.4-0.19-0.96-0.34-1.63-0.34c-1.89,0-3.15,1.21-3.15,3.33c0,1.98,1.14,3.25,3.11,3.25
		c0.64,0,1.28-0.13,1.7-0.34L401.92,123.34z"/>
	<path class="st3" d="M403.65,120.89c0.02,1.43,0.94,2.02,1.99,2.02c0.76,0,1.21-0.13,1.61-0.3l0.18,0.75
		c-0.37,0.17-1.01,0.36-1.93,0.36c-1.79,0-2.85-1.18-2.85-2.93s1.03-3.13,2.72-3.13c1.89,0,2.4,1.67,2.4,2.73
		c0,0.22-0.02,0.38-0.04,0.49H403.65z M406.74,120.14c0.01-0.67-0.28-1.71-1.46-1.71c-1.07,0-1.54,0.98-1.62,1.71H406.74z"/>
	<path class="st3" d="M409.07,115.09h1.05v8.52h-1.05V115.09z"/>
	<path class="st3" d="M411.91,115.09h1.05v8.52h-1.05V115.09z"/>
	<path class="st3" d="M417.32,115.63c0.64-0.1,1.39-0.17,2.22-0.17c1.5,0,2.57,0.35,3.27,1.01c0.72,0.66,1.14,1.59,1.14,2.9
		c0,1.32-0.41,2.4-1.16,3.14c-0.76,0.76-2,1.16-3.57,1.16c-0.74,0-1.37-0.04-1.9-0.1V115.63z M418.36,122.78
		c0.26,0.05,0.65,0.06,1.06,0.06c2.23,0,3.44-1.25,3.44-3.43c0.01-1.91-1.07-3.12-3.27-3.12c-0.54,0-0.95,0.05-1.22,0.11V122.78z"/>
	<path class="st3" d="M426.45,116.17c0.01,0.36-0.25,0.65-0.67,0.65c-0.37,0-0.64-0.29-0.64-0.65c0-0.37,0.28-0.66,0.66-0.66
		C426.2,115.51,426.45,115.8,426.45,116.17z M425.27,123.61v-5.8h1.05v5.8H425.27z"/>
	<path class="st3" d="M427.94,122.53c0.31,0.2,0.86,0.42,1.39,0.42c0.77,0,1.13-0.38,1.13-0.86c0-0.5-0.3-0.78-1.08-1.07
		c-1.04-0.37-1.54-0.95-1.54-1.64c0-0.94,0.76-1.7,2-1.7c0.59,0,1.1,0.17,1.43,0.36l-0.26,0.77c-0.23-0.14-0.65-0.34-1.19-0.34
		c-0.62,0-0.97,0.36-0.97,0.79c0,0.48,0.35,0.7,1.1,0.98c1.01,0.38,1.52,0.89,1.52,1.75c0,1.02-0.79,1.74-2.17,1.74
		c-0.64,0-1.22-0.16-1.63-0.4L427.94,122.53z"/>
	<path class="st3" d="M433.42,120.89c0.02,1.43,0.94,2.02,1.99,2.02c0.76,0,1.21-0.13,1.61-0.3l0.18,0.75
		c-0.37,0.17-1.01,0.36-1.93,0.36c-1.79,0-2.85-1.18-2.85-2.93s1.03-3.13,2.72-3.13c1.89,0,2.4,1.67,2.4,2.73
		c0,0.22-0.02,0.38-0.04,0.49H433.42z M436.51,120.14c0.01-0.67-0.28-1.71-1.46-1.71c-1.07,0-1.54,0.98-1.62,1.71H436.51z"/>
	<path class="st3" d="M442.06,123.61l-0.08-0.73h-0.04c-0.32,0.46-0.95,0.86-1.78,0.86c-1.17,0-1.77-0.83-1.77-1.67
		c0-1.4,1.25-2.17,3.49-2.16v-0.12c0-0.48-0.13-1.34-1.32-1.34c-0.54,0-1.1,0.17-1.51,0.43l-0.24-0.7c0.48-0.31,1.17-0.52,1.91-0.52
		c1.78,0,2.21,1.21,2.21,2.37v2.17c0,0.5,0.02,1,0.1,1.39H442.06z M441.9,120.64c-1.15-0.02-2.46,0.18-2.46,1.31
		c0,0.68,0.46,1.01,1,1.01c0.76,0,1.24-0.48,1.4-0.97c0.04-0.11,0.06-0.23,0.06-0.34V120.64z"/>
	<path class="st3" d="M444.48,122.53c0.31,0.2,0.86,0.42,1.39,0.42c0.77,0,1.13-0.38,1.13-0.86c0-0.5-0.3-0.78-1.08-1.07
		c-1.04-0.37-1.54-0.95-1.54-1.64c0-0.94,0.76-1.7,2-1.7c0.59,0,1.1,0.17,1.43,0.36l-0.26,0.77c-0.23-0.14-0.65-0.34-1.19-0.34
		c-0.62,0-0.97,0.36-0.97,0.79c0,0.48,0.35,0.7,1.1,0.98c1.01,0.38,1.52,0.89,1.52,1.75c0,1.02-0.79,1.74-2.17,1.74
		c-0.64,0-1.22-0.16-1.63-0.4L444.48,122.53z"/>
	<path class="st3" d="M449.97,120.89c0.02,1.43,0.94,2.02,1.99,2.02c0.76,0,1.21-0.13,1.61-0.3l0.18,0.75
		c-0.37,0.17-1.01,0.36-1.93,0.36c-1.79,0-2.85-1.18-2.85-2.93s1.03-3.13,2.72-3.13c1.89,0,2.4,1.67,2.4,2.73
		c0,0.22-0.02,0.38-0.04,0.49H449.97z M453.06,120.14c0.01-0.67-0.28-1.71-1.46-1.71c-1.07,0-1.54,0.98-1.62,1.71H453.06z"/>
	<path class="st3" d="M454.76,125.06c0.85-1.19,1.51-2.75,1.51-4.91c0-2.15-0.65-3.68-1.51-4.87h0.82c0.77,0.98,1.57,2.52,1.57,4.88
		c0,2.35-0.8,3.87-1.57,4.89H454.76z"/>
	<path class="st0" d="M283.72,161.02h-1.61v-1.39c0.34,0,0.64-0.02,0.89-0.07s0.46-0.12,0.64-0.22c0.18-0.1,0.32-0.24,0.43-0.41
		s0.2-0.38,0.28-0.63h1.61v8.5h-2.23V161.02z"/>
	<path class="st0" d="M293.51,158.24v1.61h-2.16v-1.61H293.51z M293.51,160.31v6.49h-2.16v-6.49H293.51z"/>
	<path class="st0" d="M296.5,160.31v0.79h0.02c0.28-0.64,0.8-0.96,1.57-0.96c0.24,0,0.46,0.03,0.67,0.08s0.38,0.15,0.53,0.28
		c0.15,0.14,0.27,0.32,0.36,0.54s0.13,0.51,0.13,0.86v4.9h-2.16v-4.28c0-0.27-0.04-0.47-0.12-0.59c-0.08-0.12-0.22-0.18-0.41-0.18
		c-0.19,0-0.33,0.06-0.41,0.18s-0.12,0.32-0.12,0.59v4.28h-2.16v-6.49H296.5z"/>
	<path class="st0" d="M306.22,158.48h2.42v5.14h0.74v1.61h-0.74v1.58h-2.09v-1.58h-3.02v-1.68L306.22,158.48z M306.63,160.78h-0.02
		l-1.39,2.83h1.42V160.78z"/>
	<path class="st0" d="M313.52,166.43c-0.3-0.88-0.46-1.81-0.46-2.8s0.15-1.93,0.46-2.82c0.3-0.89,0.72-1.74,1.25-2.57h1.75
		c-0.51,0.85-0.88,1.72-1.1,2.61c-0.22,0.89-0.34,1.82-0.34,2.78s0.11,1.88,0.34,2.76s0.59,1.74,1.1,2.59h-1.75
		C314.24,168.15,313.82,167.3,313.52,166.43z"/>
	<path class="st0" d="M316.89,160.01c0.07-0.36,0.21-0.66,0.41-0.91s0.48-0.45,0.84-0.58s0.83-0.2,1.42-0.2
		c0.56,0,1.02,0.06,1.37,0.18c0.35,0.12,0.63,0.29,0.83,0.5c0.2,0.21,0.34,0.46,0.42,0.74s0.11,0.58,0.11,0.9
		c0,0.58-0.1,1.06-0.29,1.45c-0.19,0.39-0.45,0.75-0.77,1.07l-1.32,1.28c-0.1,0.1-0.2,0.2-0.32,0.32s-0.19,0.24-0.23,0.37h2.93v1.68
		h-5.59c0-0.6,0.09-1.17,0.27-1.7c0.18-0.53,0.51-1.05,1-1.55l1.49-1.51c0.22-0.22,0.37-0.42,0.46-0.62s0.14-0.45,0.14-0.77
		c0-0.36-0.05-0.61-0.16-0.74c-0.1-0.14-0.24-0.2-0.42-0.2c-0.08,0-0.16,0.01-0.23,0.04c-0.07,0.03-0.14,0.08-0.2,0.16
		c-0.06,0.08-0.11,0.19-0.14,0.34c-0.04,0.15-0.05,0.34-0.05,0.58v0.36h-2.09C316.78,160.76,316.82,160.36,316.89,160.01z"/>
	<path class="st0" d="M328.13,158.48v1.68h-3.23l-0.1,1.43c0.21-0.19,0.44-0.34,0.7-0.46s0.55-0.17,0.87-0.17
		c0.7,0,1.22,0.22,1.58,0.66c0.36,0.44,0.54,1.12,0.54,2.04c0,0.56-0.05,1.05-0.14,1.46s-0.25,0.75-0.46,1.03
		c-0.22,0.27-0.5,0.47-0.86,0.6c-0.36,0.13-0.8,0.19-1.33,0.19c-0.98,0-1.69-0.21-2.13-0.62c-0.44-0.42-0.65-1.01-0.65-1.78v-0.28
		h2.09v0.29c0,0.4,0.05,0.67,0.16,0.82c0.11,0.14,0.26,0.22,0.45,0.22c0.11,0,0.21-0.02,0.28-0.05s0.14-0.12,0.2-0.25
		c0.06-0.13,0.1-0.31,0.12-0.55c0.02-0.24,0.04-0.56,0.04-0.97c0-0.48-0.05-0.81-0.16-1c-0.11-0.19-0.27-0.28-0.47-0.28
		c-0.18,0-0.33,0.06-0.44,0.17c-0.11,0.11-0.17,0.3-0.17,0.55h-2.02l0.19-4.72H328.13z"/>
	<path class="st0" d="M329.25,159.55c0.06-0.29,0.17-0.53,0.32-0.71c0.15-0.18,0.34-0.32,0.58-0.4s0.54-0.13,0.89-0.13
		s0.65,0.04,0.89,0.13c0.24,0.08,0.43,0.22,0.58,0.4c0.15,0.18,0.25,0.42,0.32,0.71c0.06,0.29,0.1,0.65,0.1,1.06
		c0,0.42-0.03,0.77-0.1,1.06c-0.06,0.29-0.17,0.53-0.32,0.71c-0.15,0.18-0.34,0.32-0.58,0.4c-0.24,0.08-0.54,0.13-0.89,0.13
		s-0.65-0.04-0.89-0.13s-0.43-0.22-0.58-0.4c-0.15-0.18-0.25-0.42-0.32-0.71c-0.06-0.29-0.1-0.65-0.1-1.06
		C329.15,160.2,329.19,159.84,329.25,159.55z M330.64,161.29c0.01,0.18,0.03,0.31,0.06,0.41c0.03,0.1,0.07,0.17,0.13,0.2
		s0.13,0.05,0.22,0.05s0.16-0.02,0.22-0.05c0.06-0.04,0.1-0.1,0.13-0.2c0.03-0.1,0.05-0.24,0.06-0.41c0.01-0.18,0.02-0.4,0.02-0.67
		c0-0.28-0.01-0.51-0.02-0.68c-0.01-0.17-0.03-0.31-0.06-0.41c-0.03-0.1-0.07-0.17-0.13-0.2c-0.06-0.04-0.13-0.05-0.22-0.05
		s-0.16,0.02-0.22,0.05c-0.06,0.04-0.1,0.1-0.13,0.2c-0.03,0.1-0.05,0.24-0.06,0.41c-0.01,0.17-0.02,0.4-0.02,0.68
		C330.62,160.89,330.62,161.11,330.64,161.29z M336.17,158.31l-3.8,8.63h-1.32l3.8-8.63H336.17z M334.41,163.61
		c0.06-0.29,0.17-0.53,0.32-0.71c0.15-0.18,0.34-0.32,0.58-0.4c0.24-0.08,0.54-0.13,0.89-0.13c0.35,0,0.65,0.04,0.89,0.13
		c0.24,0.08,0.43,0.22,0.58,0.4c0.15,0.18,0.25,0.42,0.32,0.71c0.06,0.29,0.1,0.65,0.1,1.06s-0.03,0.77-0.1,1.06
		c-0.06,0.29-0.17,0.53-0.32,0.71c-0.15,0.18-0.34,0.31-0.58,0.38c-0.24,0.07-0.54,0.11-0.89,0.11c-0.35,0-0.65-0.04-0.89-0.11
		c-0.24-0.07-0.43-0.2-0.58-0.38c-0.15-0.18-0.25-0.42-0.32-0.71s-0.1-0.65-0.1-1.06S334.35,163.9,334.41,163.61z M335.8,165.34
		c0.01,0.18,0.03,0.31,0.06,0.41c0.03,0.1,0.07,0.17,0.13,0.2c0.06,0.04,0.13,0.05,0.22,0.05s0.16-0.02,0.22-0.05s0.1-0.1,0.13-0.2
		c0.03-0.1,0.05-0.24,0.06-0.41c0.01-0.18,0.02-0.4,0.02-0.67c0-0.28-0.01-0.51-0.02-0.68c-0.01-0.17-0.03-0.31-0.06-0.41
		c-0.03-0.1-0.07-0.17-0.13-0.2s-0.13-0.05-0.22-0.05s-0.16,0.02-0.22,0.05c-0.06,0.04-0.1,0.1-0.13,0.2
		c-0.03,0.1-0.05,0.24-0.06,0.41c-0.01,0.17-0.02,0.4-0.02,0.68C335.78,164.94,335.78,165.17,335.8,165.34z"/>
	<path class="st0" d="M341.24,160.81c0.3,0.89,0.46,1.83,0.46,2.82s-0.15,1.93-0.46,2.8c-0.3,0.88-0.72,1.73-1.25,2.55h-1.72
		c0.49-0.85,0.84-1.71,1.07-2.59c0.22-0.88,0.34-1.8,0.34-2.76s-0.11-1.89-0.34-2.78c-0.22-0.89-0.58-1.76-1.07-2.61h1.72
		C340.52,159.06,340.93,159.92,341.24,160.81z"/>
	<path class="st3" d="M286.54,180.99c-0.28,0.14-0.89,0.34-1.67,0.34c-1.75,0-2.89-1.19-2.89-2.96c0-1.79,1.22-3.08,3.12-3.08
		c0.62,0,1.17,0.16,1.46,0.3l-0.24,0.82c-0.25-0.14-0.65-0.28-1.22-0.28c-1.33,0-2.05,0.98-2.05,2.19c0,1.34,0.86,2.17,2.01,2.17
		c0.6,0,1-0.16,1.29-0.29L286.54,180.99z"/>
	<path class="st3" d="M287.78,172.69h1.05v3.62h0.02c0.17-0.3,0.43-0.56,0.76-0.74c0.31-0.18,0.68-0.3,1.08-0.3
		c0.78,0,2.03,0.48,2.03,2.48v3.45h-1.05v-3.33c0-0.94-0.35-1.73-1.34-1.73c-0.68,0-1.22,0.48-1.42,1.06
		c-0.06,0.14-0.07,0.3-0.07,0.5v3.5h-1.05V172.69z"/>
	<path class="st3" d="M297.65,181.21l-0.08-0.73h-0.04c-0.32,0.46-0.95,0.86-1.78,0.86c-1.17,0-1.77-0.83-1.77-1.67
		c0-1.4,1.25-2.17,3.49-2.16v-0.12c0-0.48-0.13-1.34-1.32-1.34c-0.54,0-1.1,0.17-1.51,0.43l-0.24-0.7c0.48-0.31,1.17-0.52,1.91-0.52
		c1.78,0,2.21,1.21,2.21,2.37v2.17c0,0.5,0.02,1,0.1,1.39H297.65z M297.5,178.24c-1.15-0.02-2.46,0.18-2.46,1.31
		c0,0.68,0.46,1.01,1,1.01c0.76,0,1.24-0.48,1.4-0.97c0.04-0.11,0.06-0.23,0.06-0.34V178.24z"/>
	<path class="st3" d="M300.22,176.97c0-0.6-0.01-1.09-0.05-1.57h0.94l0.06,0.96h0.02c0.29-0.55,0.96-1.09,1.92-1.09
		c0.8,0,2.05,0.48,2.05,2.47v3.47h-1.05v-3.35c0-0.94-0.35-1.72-1.34-1.72c-0.7,0-1.24,0.49-1.42,1.08
		c-0.05,0.13-0.07,0.31-0.07,0.49v3.49h-1.05V176.97z"/>
	<path class="st3" d="M311.02,180.99c-0.28,0.14-0.89,0.34-1.67,0.34c-1.75,0-2.89-1.19-2.89-2.96c0-1.79,1.22-3.08,3.12-3.08
		c0.62,0,1.17,0.16,1.46,0.3l-0.24,0.82c-0.25-0.14-0.65-0.28-1.22-0.28c-1.33,0-2.05,0.98-2.05,2.19c0,1.34,0.86,2.17,2.01,2.17
		c0.6,0,1-0.16,1.29-0.29L311.02,180.99z"/>
	<path class="st3" d="M312.77,178.5c0.02,1.43,0.94,2.02,1.99,2.02c0.76,0,1.21-0.13,1.61-0.3l0.18,0.75
		c-0.37,0.17-1.01,0.36-1.93,0.36c-1.79,0-2.85-1.18-2.85-2.93s1.03-3.13,2.72-3.13c1.89,0,2.4,1.67,2.4,2.73
		c0,0.22-0.02,0.38-0.04,0.49H312.77z M315.87,177.74c0.01-0.67-0.28-1.72-1.46-1.72c-1.07,0-1.54,0.98-1.62,1.72H315.87z"/>
	<path class="st3" d="M326,178.26c0,2.15-1.49,3.08-2.89,3.08c-1.57,0-2.78-1.15-2.78-2.99c0-1.94,1.27-3.08,2.88-3.08
		C324.87,175.27,326,176.48,326,178.26z M321.39,178.32c0,1.27,0.73,2.23,1.76,2.23c1.01,0,1.76-0.95,1.76-2.25
		c0-0.98-0.49-2.23-1.74-2.23C321.93,176.06,321.39,177.21,321.39,178.32z"/>
	<path class="st3" d="M327.44,181.21v-5h-0.82v-0.8h0.82v-0.28c0-0.82,0.18-1.56,0.67-2.03c0.4-0.38,0.92-0.54,1.42-0.54
		c0.37,0,0.7,0.08,0.9,0.17l-0.14,0.82c-0.16-0.07-0.37-0.13-0.67-0.13c-0.9,0-1.13,0.79-1.13,1.68v0.31h1.4v0.8h-1.4v5H327.44z"/>
	<path class="st3" d="M333.38,176.97c0-0.6-0.01-1.09-0.05-1.57h0.94l0.06,0.96h0.02c0.29-0.55,0.96-1.09,1.92-1.09
		c0.8,0,2.05,0.48,2.05,2.47v3.47h-1.05v-3.35c0-0.94-0.35-1.72-1.34-1.72c-0.7,0-1.24,0.49-1.42,1.08
		c-0.05,0.13-0.07,0.31-0.07,0.49v3.49h-1.05V176.97z"/>
	<path class="st3" d="M345.29,178.26c0,2.15-1.49,3.08-2.89,3.08c-1.57,0-2.78-1.15-2.78-2.99c0-1.94,1.27-3.08,2.88-3.08
		C344.16,175.27,345.29,176.48,345.29,178.26z M340.69,178.32c0,1.27,0.73,2.23,1.76,2.23c1.01,0,1.76-0.95,1.76-2.25
		c0-0.98-0.49-2.23-1.74-2.23C341.22,176.06,340.69,177.21,340.69,178.32z"/>
	<path class="st3" d="M347.9,173.73v1.67h1.51v0.8h-1.51v3.13c0,0.72,0.2,1.13,0.79,1.13c0.28,0,0.48-0.04,0.61-0.07l0.05,0.79
		c-0.2,0.08-0.53,0.14-0.94,0.14c-0.49,0-0.89-0.16-1.14-0.44c-0.3-0.31-0.41-0.83-0.41-1.51v-3.17h-0.9v-0.8h0.9v-1.39
		L347.9,173.73z"/>
	<path class="st3" d="M353.14,172.69h1.05v3.62h0.02c0.17-0.3,0.43-0.56,0.76-0.74c0.31-0.18,0.68-0.3,1.08-0.3
		c0.78,0,2.03,0.48,2.03,2.48v3.45h-1.05v-3.33c0-0.94-0.35-1.73-1.34-1.73c-0.68,0-1.22,0.48-1.42,1.06
		c-0.06,0.14-0.07,0.3-0.07,0.5v3.5h-1.05V172.69z"/>
	<path class="st3" d="M363.02,181.21l-0.08-0.73h-0.04c-0.32,0.46-0.95,0.86-1.78,0.86c-1.17,0-1.77-0.83-1.77-1.67
		c0-1.4,1.25-2.17,3.49-2.16v-0.12c0-0.48-0.13-1.34-1.32-1.34c-0.54,0-1.1,0.17-1.51,0.43l-0.24-0.7c0.48-0.31,1.17-0.52,1.91-0.52
		c1.78,0,2.21,1.21,2.21,2.37v2.17c0,0.5,0.02,1,0.1,1.39H363.02z M362.86,178.24c-1.15-0.02-2.46,0.18-2.46,1.31
		c0,0.68,0.46,1.01,1,1.01c0.76,0,1.24-0.48,1.4-0.97c0.04-0.11,0.06-0.23,0.06-0.34V178.24z"/>
	<path class="st3" d="M365.9,175.4l1.14,3.26c0.19,0.53,0.35,1.01,0.47,1.49h0.04c0.13-0.48,0.3-0.96,0.49-1.49l1.13-3.26h1.1
		l-2.28,5.8h-1.01l-2.21-5.8H365.9z"/>
	<path class="st3" d="M372.44,173.77c0.01,0.36-0.25,0.65-0.67,0.65c-0.37,0-0.64-0.29-0.64-0.65c0-0.37,0.28-0.66,0.66-0.66
		C372.18,173.11,372.44,173.4,372.44,173.77z M371.26,181.21v-5.8h1.05v5.8H371.26z"/>
	<path class="st3" d="M374.07,176.97c0-0.6-0.01-1.09-0.05-1.57h0.94l0.06,0.96h0.02c0.29-0.55,0.96-1.09,1.92-1.09
		c0.8,0,2.05,0.48,2.05,2.47v3.47h-1.05v-3.35c0-0.94-0.35-1.72-1.34-1.72c-0.7,0-1.24,0.49-1.42,1.08
		c-0.05,0.13-0.07,0.31-0.07,0.49v3.49h-1.05V176.97z"/>
	<path class="st3" d="M385.73,175.4c-0.02,0.42-0.05,0.89-0.05,1.59v3.37c0,1.33-0.26,2.15-0.83,2.65c-0.56,0.53-1.38,0.7-2.11,0.7
		c-0.7,0-1.46-0.17-1.93-0.48l0.26-0.8c0.38,0.24,0.98,0.46,1.7,0.46c1.08,0,1.87-0.56,1.87-2.03v-0.65h-0.02
		c-0.32,0.54-0.95,0.97-1.85,0.97c-1.44,0-2.47-1.22-2.47-2.83c0-1.97,1.28-3.08,2.61-3.08c1.01,0,1.56,0.53,1.81,1.01h0.02
		l0.05-0.88H385.73z M384.64,177.69c0-0.18-0.01-0.34-0.06-0.48c-0.19-0.61-0.71-1.12-1.48-1.12c-1.01,0-1.73,0.85-1.73,2.2
		c0,1.14,0.58,2.09,1.71,2.09c0.65,0,1.24-0.41,1.46-1.08c0.06-0.18,0.08-0.38,0.08-0.56V177.69z"/>
	<path class="st3" d="M282.29,194.33c0.47,0.29,1.15,0.53,1.87,0.53c1.07,0,1.69-0.56,1.69-1.38c0-0.75-0.43-1.19-1.52-1.61
		c-1.32-0.47-2.13-1.15-2.13-2.29c0-1.26,1.04-2.2,2.61-2.2c0.83,0,1.43,0.19,1.79,0.4l-0.29,0.85c-0.26-0.14-0.8-0.38-1.54-0.38
		c-1.1,0-1.52,0.66-1.52,1.21c0,0.76,0.49,1.13,1.61,1.56c1.37,0.53,2.06,1.19,2.06,2.37c0,1.25-0.92,2.33-2.83,2.33
		c-0.78,0-1.63-0.23-2.06-0.52L282.29,194.33z"/>
	<path class="st3" d="M289.49,188.17c0.01,0.36-0.25,0.65-0.67,0.65c-0.37,0-0.64-0.29-0.64-0.65c0-0.37,0.28-0.66,0.66-0.66
		C289.24,187.51,289.49,187.8,289.49,188.17z M288.32,195.61v-5.8h1.05v5.8H288.32z"/>
	<path class="st3" d="M295.26,195.39c-0.28,0.14-0.89,0.34-1.67,0.34c-1.75,0-2.89-1.19-2.89-2.96c0-1.79,1.22-3.08,3.12-3.08
		c0.62,0,1.17,0.16,1.46,0.3l-0.24,0.82c-0.25-0.14-0.65-0.28-1.22-0.28c-1.33,0-2.05,0.98-2.05,2.19c0,1.34,0.86,2.17,2.01,2.17
		c0.6,0,1-0.16,1.29-0.29L295.26,195.39z"/>
	<path class="st3" d="M297.55,192.46h0.02c0.14-0.2,0.35-0.46,0.52-0.66l1.7-2h1.27l-2.24,2.39l2.55,3.42h-1.28l-2-2.78l-0.54,0.6
		v2.18h-1.04v-8.52h1.04V192.46z"/>
	<path class="st3" d="M302.33,187.09h1.05v8.52h-1.05V187.09z"/>
	<path class="st3" d="M305.75,192.89c0.02,1.43,0.94,2.02,1.99,2.02c0.76,0,1.21-0.13,1.61-0.3l0.18,0.75
		c-0.37,0.17-1.01,0.36-1.93,0.36c-1.79,0-2.85-1.18-2.85-2.93s1.03-3.13,2.72-3.13c1.89,0,2.4,1.67,2.4,2.73
		c0,0.22-0.02,0.38-0.04,0.49H305.75z M308.85,192.14c0.01-0.67-0.28-1.71-1.46-1.71c-1.07,0-1.54,0.98-1.62,1.71H308.85z"/>
	<path class="st3" d="M319.41,195.34c-0.38,0.19-1.15,0.38-2.13,0.38c-2.28,0-3.99-1.44-3.99-4.09c0-2.53,1.71-4.25,4.22-4.25
		c1.01,0,1.64,0.22,1.92,0.36l-0.25,0.85c-0.4-0.19-0.96-0.34-1.63-0.34c-1.89,0-3.15,1.21-3.15,3.33c0,1.98,1.14,3.25,3.11,3.25
		c0.64,0,1.28-0.13,1.7-0.34L319.41,195.34z"/>
	<path class="st3" d="M321.14,192.89c0.02,1.43,0.94,2.02,1.99,2.02c0.76,0,1.21-0.13,1.61-0.3l0.18,0.75
		c-0.37,0.17-1.01,0.36-1.93,0.36c-1.79,0-2.85-1.18-2.85-2.93s1.03-3.13,2.72-3.13c1.89,0,2.4,1.67,2.4,2.73
		c0,0.22-0.02,0.38-0.04,0.49H321.14z M324.23,192.14c0.01-0.67-0.28-1.71-1.46-1.71c-1.07,0-1.54,0.98-1.62,1.71H324.23z"/>
	<path class="st3" d="M326.56,187.09h1.05v8.52h-1.05V187.09z"/>
	<path class="st3" d="M329.39,187.09h1.05v8.52h-1.05V187.09z"/>
	<path class="st3" d="M334.81,187.63c0.64-0.1,1.39-0.17,2.22-0.17c1.5,0,2.57,0.35,3.27,1.01c0.72,0.66,1.14,1.59,1.14,2.9
		c0,1.32-0.41,2.4-1.16,3.14c-0.76,0.76-2,1.16-3.57,1.16c-0.74,0-1.37-0.04-1.9-0.1V187.63z M335.85,194.78
		c0.26,0.05,0.65,0.06,1.06,0.06c2.23,0,3.44-1.25,3.44-3.43c0.01-1.91-1.07-3.12-3.27-3.12c-0.54,0-0.95,0.05-1.22,0.11V194.78z"/>
	<path class="st3" d="M343.94,188.17c0.01,0.36-0.25,0.65-0.67,0.65c-0.37,0-0.64-0.29-0.64-0.65c0-0.37,0.28-0.66,0.66-0.66
		C343.69,187.51,343.94,187.8,343.94,188.17z M342.76,195.61v-5.8h1.05v5.8H342.76z"/>
	<path class="st3" d="M345.43,194.53c0.31,0.2,0.86,0.42,1.39,0.42c0.77,0,1.13-0.38,1.13-0.86c0-0.5-0.3-0.78-1.08-1.07
		c-1.04-0.37-1.54-0.95-1.54-1.64c0-0.94,0.76-1.7,2-1.7c0.59,0,1.1,0.17,1.43,0.36l-0.26,0.77c-0.23-0.14-0.65-0.34-1.19-0.34
		c-0.62,0-0.97,0.36-0.97,0.79c0,0.48,0.35,0.7,1.1,0.98c1.01,0.38,1.52,0.89,1.52,1.75c0,1.02-0.79,1.74-2.17,1.74
		c-0.64,0-1.22-0.16-1.63-0.4L345.43,194.53z"/>
	<path class="st3" d="M350.91,192.89c0.02,1.43,0.94,2.02,1.99,2.02c0.76,0,1.21-0.13,1.61-0.3l0.18,0.75
		c-0.37,0.17-1.01,0.36-1.93,0.36c-1.79,0-2.85-1.18-2.85-2.93s1.03-3.13,2.72-3.13c1.89,0,2.4,1.67,2.4,2.73
		c0,0.22-0.02,0.38-0.04,0.49H350.91z M354,192.14c0.01-0.67-0.28-1.71-1.46-1.71c-1.07,0-1.54,0.98-1.62,1.71H354z"/>
	<path class="st3" d="M359.55,195.61l-0.08-0.73h-0.04c-0.32,0.46-0.95,0.86-1.78,0.86c-1.17,0-1.77-0.83-1.77-1.67
		c0-1.4,1.25-2.17,3.49-2.16v-0.12c0-0.48-0.13-1.34-1.32-1.34c-0.54,0-1.1,0.17-1.51,0.43l-0.24-0.7c0.48-0.31,1.17-0.52,1.91-0.52
		c1.78,0,2.21,1.21,2.21,2.37v2.17c0,0.5,0.02,1,0.1,1.39H359.55z M359.39,192.64c-1.15-0.02-2.46,0.18-2.46,1.31
		c0,0.68,0.46,1.01,1,1.01c0.76,0,1.24-0.48,1.4-0.97c0.04-0.11,0.06-0.23,0.06-0.34V192.64z"/>
	<path class="st3" d="M361.97,194.53c0.31,0.2,0.86,0.42,1.39,0.42c0.77,0,1.13-0.38,1.13-0.86c0-0.5-0.3-0.78-1.08-1.07
		c-1.04-0.37-1.54-0.95-1.54-1.64c0-0.94,0.76-1.7,2-1.7c0.59,0,1.1,0.17,1.43,0.36l-0.26,0.77c-0.23-0.14-0.65-0.34-1.19-0.34
		c-0.62,0-0.97,0.36-0.97,0.79c0,0.48,0.35,0.7,1.1,0.98c1.01,0.38,1.52,0.89,1.52,1.75c0,1.02-0.79,1.74-2.17,1.74
		c-0.64,0-1.22-0.16-1.63-0.4L361.97,194.53z"/>
	<path class="st3" d="M367.46,192.89c0.02,1.43,0.94,2.02,1.99,2.02c0.76,0,1.21-0.13,1.61-0.3l0.18,0.75
		c-0.37,0.17-1.01,0.36-1.93,0.36c-1.79,0-2.85-1.18-2.85-2.93s1.03-3.13,2.72-3.13c1.89,0,2.4,1.67,2.4,2.73
		c0,0.22-0.02,0.38-0.04,0.49H367.46z M370.55,192.14c0.01-0.67-0.28-1.71-1.46-1.71c-1.07,0-1.54,0.98-1.62,1.71H370.55z"/>
	<path class="st3" d="M380.68,192.66c0,2.15-1.49,3.08-2.89,3.08c-1.57,0-2.78-1.15-2.78-2.99c0-1.94,1.27-3.08,2.88-3.08
		C379.55,189.67,380.68,190.88,380.68,192.66z M376.07,192.71c0,1.27,0.73,2.23,1.76,2.23c1.01,0,1.76-0.95,1.76-2.25
		c0-0.98-0.49-2.23-1.74-2.23C376.61,190.46,376.07,191.61,376.07,192.71z"/>
	<path class="st3" d="M382.01,191.61c0-0.68-0.01-1.27-0.05-1.81h0.92l0.04,1.14h0.05c0.26-0.78,0.9-1.27,1.61-1.27
		c0.12,0,0.2,0.01,0.3,0.04v1c-0.11-0.02-0.22-0.04-0.36-0.04c-0.74,0-1.27,0.56-1.42,1.36c-0.02,0.14-0.05,0.31-0.05,0.49v3.09
		h-1.04V191.61z"/>
	<path class="st3" d="M388.43,195.61c0.02-0.4,0.05-0.98,0.05-1.5v-7.02h1.04v3.65h0.02c0.37-0.65,1.04-1.07,1.98-1.07
		c1.44,0,2.46,1.2,2.45,2.96c0,2.08-1.31,3.11-2.6,3.11c-0.84,0-1.51-0.32-1.94-1.09h-0.04l-0.05,0.96H388.43z M389.52,193.28
		c0,0.13,0.02,0.26,0.05,0.38c0.2,0.73,0.82,1.24,1.58,1.24c1.1,0,1.76-0.9,1.76-2.23c0-1.16-0.6-2.16-1.73-2.16
		c-0.72,0-1.39,0.49-1.61,1.3c-0.02,0.12-0.06,0.26-0.06,0.43V193.28z"/>
	<path class="st3" d="M395.9,192.89c0.02,1.43,0.94,2.02,1.99,2.02c0.76,0,1.21-0.13,1.61-0.3l0.18,0.75
		c-0.37,0.17-1.01,0.36-1.93,0.36c-1.79,0-2.85-1.18-2.85-2.93s1.03-3.13,2.72-3.13c1.89,0,2.4,1.67,2.4,2.73
		c0,0.22-0.02,0.38-0.04,0.49H395.9z M398.99,192.14c0.01-0.67-0.28-1.71-1.46-1.71c-1.07,0-1.54,0.98-1.62,1.71H398.99z"/>
	<path class="st3" d="M402.5,188.17c0.01,0.36-0.25,0.65-0.67,0.65c-0.37,0-0.64-0.29-0.64-0.65c0-0.37,0.28-0.66,0.66-0.66
		C402.24,187.51,402.5,187.8,402.5,188.17z M401.32,195.61v-5.8h1.05v5.8H401.32z"/>
	<path class="st3" d="M404.13,191.37c0-0.6-0.01-1.09-0.05-1.57h0.94l0.06,0.96h0.02c0.29-0.55,0.96-1.09,1.92-1.09
		c0.8,0,2.05,0.48,2.05,2.47v3.47h-1.05v-3.35c0-0.94-0.35-1.72-1.34-1.72c-0.7,0-1.24,0.49-1.42,1.08
		c-0.05,0.13-0.07,0.31-0.07,0.49v3.49h-1.05V191.37z"/>
	<path class="st3" d="M415.79,189.8c-0.02,0.42-0.05,0.89-0.05,1.59v3.37c0,1.33-0.26,2.15-0.83,2.65c-0.56,0.53-1.38,0.7-2.11,0.7
		c-0.7,0-1.46-0.17-1.93-0.48l0.26-0.8c0.38,0.24,0.98,0.46,1.7,0.46c1.08,0,1.87-0.56,1.87-2.03v-0.65h-0.02
		c-0.32,0.54-0.95,0.97-1.85,0.97c-1.44,0-2.47-1.22-2.47-2.83c0-1.97,1.28-3.08,2.61-3.08c1.01,0,1.56,0.53,1.81,1.01h0.02
		l0.05-0.88H415.79z M414.7,192.09c0-0.18-0.01-0.34-0.06-0.48c-0.19-0.61-0.71-1.12-1.48-1.12c-1.01,0-1.73,0.85-1.73,2.2
		c0,1.14,0.58,2.09,1.71,2.09c0.65,0,1.24-0.41,1.46-1.08c0.06-0.18,0.08-0.38,0.08-0.56V192.09z"/>
	<path class="st3" d="M423.25,195.61l-0.08-0.73h-0.04c-0.32,0.46-0.95,0.86-1.78,0.86c-1.17,0-1.77-0.83-1.77-1.67
		c0-1.4,1.25-2.17,3.49-2.16v-0.12c0-0.48-0.13-1.34-1.32-1.34c-0.54,0-1.1,0.17-1.51,0.43l-0.24-0.7c0.48-0.31,1.17-0.52,1.91-0.52
		c1.78,0,2.21,1.21,2.21,2.37v2.17c0,0.5,0.02,1,0.1,1.39H423.25z M423.1,192.64c-1.15-0.02-2.46,0.18-2.46,1.31
		c0,0.68,0.46,1.01,1,1.01c0.76,0,1.24-0.48,1.4-0.97c0.04-0.11,0.06-0.23,0.06-0.34V192.64z"/>
	<path class="st3" d="M432.51,195.39c-0.28,0.14-0.89,0.34-1.67,0.34c-1.75,0-2.89-1.19-2.89-2.96c0-1.79,1.22-3.08,3.12-3.08
		c0.62,0,1.17,0.16,1.46,0.3l-0.24,0.82c-0.25-0.14-0.65-0.28-1.22-0.28c-1.33,0-2.05,0.98-2.05,2.19c0,1.34,0.86,2.17,2.01,2.17
		c0.6,0,1-0.16,1.29-0.29L432.51,195.39z"/>
	<path class="st3" d="M436.96,195.61l-0.08-0.73h-0.04c-0.32,0.46-0.95,0.86-1.78,0.86c-1.17,0-1.77-0.83-1.77-1.67
		c0-1.4,1.25-2.17,3.49-2.16v-0.12c0-0.48-0.13-1.34-1.32-1.34c-0.54,0-1.1,0.17-1.51,0.43l-0.24-0.7c0.48-0.31,1.17-0.52,1.91-0.52
		c1.78,0,2.21,1.21,2.21,2.37v2.17c0,0.5,0.02,1,0.1,1.39H436.96z M436.8,192.64c-1.15-0.02-2.46,0.18-2.46,1.31
		c0,0.68,0.46,1.01,1,1.01c0.76,0,1.24-0.48,1.4-0.97c0.04-0.11,0.06-0.23,0.06-0.34V192.64z"/>
	<path class="st3" d="M439.53,191.61c0-0.68-0.01-1.27-0.05-1.81h0.92l0.04,1.14h0.05c0.26-0.78,0.9-1.27,1.61-1.27
		c0.12,0,0.2,0.01,0.3,0.04v1c-0.11-0.02-0.22-0.04-0.36-0.04c-0.74,0-1.27,0.56-1.42,1.36c-0.02,0.14-0.05,0.31-0.05,0.49v3.09
		h-1.04V191.61z"/>
	<path class="st3" d="M443.5,191.61c0-0.68-0.01-1.27-0.05-1.81h0.92l0.04,1.14h0.05c0.26-0.78,0.9-1.27,1.61-1.27
		c0.12,0,0.2,0.01,0.3,0.04v1c-0.11-0.02-0.22-0.04-0.36-0.04c-0.74,0-1.27,0.56-1.42,1.36c-0.02,0.14-0.05,0.31-0.05,0.49v3.09
		h-1.04V191.61z"/>
	<path class="st3" d="M448.65,188.17c0.01,0.36-0.25,0.65-0.67,0.65c-0.37,0-0.64-0.29-0.64-0.65c0-0.37,0.28-0.66,0.66-0.66
		C448.4,187.51,448.65,187.8,448.65,188.17z M447.47,195.61v-5.8h1.05v5.8H447.47z"/>
	<path class="st3" d="M450.87,192.89c0.02,1.43,0.94,2.02,1.99,2.02c0.76,0,1.21-0.13,1.61-0.3l0.18,0.75
		c-0.37,0.17-1.01,0.36-1.93,0.36c-1.79,0-2.85-1.18-2.85-2.93s1.03-3.13,2.72-3.13c1.89,0,2.4,1.67,2.4,2.73
		c0,0.22-0.02,0.38-0.04,0.49H450.87z M453.96,192.14c0.01-0.67-0.28-1.71-1.46-1.71c-1.07,0-1.54,0.98-1.62,1.71H453.96z"/>
	<path class="st3" d="M456.29,191.61c0-0.68-0.01-1.27-0.05-1.81h0.92l0.04,1.14h0.05c0.26-0.78,0.9-1.27,1.61-1.27
		c0.12,0,0.2,0.01,0.3,0.04v1c-0.11-0.02-0.22-0.04-0.36-0.04c-0.74,0-1.27,0.56-1.42,1.36c-0.02,0.14-0.05,0.31-0.05,0.49v3.09
		h-1.04V191.61z"/>
</g>
</svg>
