<?xml version="1.0" encoding="utf-8"?>
<!-- Generator: Adobe Illustrator 23.0.6, SVG Export Plug-In . SVG Version: 6.00 Build 0)  -->
<svg version="1.1" id="Layer_1" xmlns="http://www.w3.org/2000/svg" xmlns:xlink="http://www.w3.org/1999/xlink" x="0px" y="0px"
	 viewBox="0 0 129.77 129.77" style="enable-background:new 0 0 129.77 129.77;" xml:space="preserve">
<style type="text/css">
	.st0{display:none;fill:#FFFFFF;}
	.st1{fill:#F05454;}
	.st2{fill:#CE3837;}
</style>
<circle class="st0" cx="64.88" cy="64.88" r="64.88"/>
<g>
	<g>
		<g>
			
				<ellipse transform="matrix(0.9931 -0.1168 0.1168 0.9931 -6.2265 8.7804)" class="st1" cx="71.77" cy="57.49" rx="9.08" ry="9.77"/>
			
				<ellipse transform="matrix(0.9819 -0.1894 0.1894 0.9819 -9.5887 14.6313)" class="st2" cx="71.77" cy="57.49" rx="4.1" ry="4.41"/>
		</g>
		<g>
			<path class="st1" d="M56.1,68.12l-0.28,0.23c-1.86,1.53-4.61,1.26-6.13-0.6l-7.62-9.28c-1.53-1.86-1.26-4.61,0.6-6.13l0.28-0.23
				c1.86-1.53,4.61-1.26,6.13,0.6l7.62,9.28C58.23,63.85,57.96,66.59,56.1,68.12z"/>
			
				<ellipse transform="matrix(0.773 -0.6345 0.6345 0.773 -25.7463 45.7598)" class="st2" cx="51.06" cy="58.85" rx="1.02" ry="6.17"/>
		</g>
		<g>
			
				<ellipse transform="matrix(0.3424 -0.9395 0.9395 0.3424 -31.4096 121.3105)" class="st1" cx="70.96" cy="83.09" rx="6.95" ry="10.92"/>
			
				<ellipse transform="matrix(0.3424 -0.9395 0.9395 0.3424 -29.5814 120.6941)" class="st2" cx="71.44" cy="81.48" rx="2.37" ry="5.32"/>
		</g>
		<g>
			
				<ellipse transform="matrix(0.624 -0.7815 0.7815 0.624 1.8026 75.2102)" class="st1" cx="79.05" cy="35.73" rx="7.66" ry="9.77"/>
			<ellipse transform="matrix(0.6066 -0.795 0.795 0.6066 2.7213 76.876)" class="st2" cx="79.04" cy="35.69" rx="3.9" ry="4.97"/>
		</g>
		<g>
			
				<ellipse transform="matrix(0.8344 -0.5512 0.5512 0.8344 -11.0539 33.1706)" class="st1" cx="49.67" cy="34.98" rx="10.92" ry="6.95"/>
			
				<ellipse transform="matrix(0.8344 -0.5512 0.5512 0.8344 -10.3874 32.4683)" class="st2" cx="48.84" cy="33.52" rx="5.32" ry="2.37"/>
		</g>
	</g>
	<g>
		<path class="st1" d="M32.57,97.42h1.03l2.55,4.12h0.02v-4.12h0.93v5.59h-1.03l-2.54-4.11H33.5v4.11h-0.93V97.42z"/>
		<path class="st1" d="M39.99,103.12c-0.32,0-0.61-0.05-0.86-0.16c-0.25-0.11-0.47-0.25-0.64-0.44c-0.17-0.19-0.31-0.41-0.4-0.67
			c-0.09-0.26-0.14-0.55-0.14-0.86c0-0.31,0.05-0.59,0.14-0.85c0.09-0.26,0.22-0.49,0.4-0.67c0.17-0.19,0.39-0.34,0.64-0.44
			c0.25-0.11,0.54-0.16,0.86-0.16s0.61,0.05,0.86,0.16c0.25,0.11,0.47,0.25,0.64,0.44c0.17,0.19,0.31,0.41,0.4,0.67
			c0.09,0.26,0.14,0.55,0.14,0.85c0,0.31-0.05,0.6-0.14,0.86c-0.09,0.26-0.22,0.48-0.4,0.67c-0.17,0.19-0.39,0.34-0.64,0.44
			C40.6,103.07,40.32,103.12,39.99,103.12z M39.99,102.42c0.2,0,0.37-0.04,0.52-0.13c0.15-0.08,0.27-0.19,0.36-0.33
			c0.09-0.14,0.16-0.29,0.21-0.46c0.04-0.17,0.07-0.34,0.07-0.52c0-0.17-0.02-0.34-0.07-0.52c-0.04-0.17-0.11-0.32-0.21-0.46
			c-0.09-0.13-0.21-0.24-0.36-0.32c-0.15-0.08-0.32-0.13-0.52-0.13s-0.37,0.04-0.52,0.13c-0.15,0.08-0.27,0.19-0.36,0.32
			c-0.09,0.13-0.16,0.29-0.21,0.46c-0.04,0.17-0.07,0.34-0.07,0.52c0,0.18,0.02,0.35,0.07,0.52c0.04,0.17,0.11,0.32,0.21,0.46
			c0.09,0.14,0.21,0.25,0.36,0.33C39.62,102.37,39.79,102.42,39.99,102.42z"/>
		<path class="st1" d="M42.78,98.97h0.84v0.78h0.02c0.03-0.11,0.08-0.22,0.15-0.32c0.08-0.1,0.17-0.2,0.27-0.29
			c0.11-0.09,0.23-0.15,0.36-0.21c0.13-0.05,0.26-0.08,0.4-0.08c0.1,0,0.18,0,0.22,0.01s0.08,0.01,0.12,0.02v0.86
			c-0.06-0.01-0.13-0.02-0.19-0.03c-0.07-0.01-0.13-0.01-0.19-0.01c-0.15,0-0.29,0.03-0.43,0.09c-0.13,0.06-0.25,0.15-0.35,0.27
			c-0.1,0.12-0.18,0.26-0.23,0.43c-0.06,0.17-0.09,0.37-0.09,0.59v1.93h-0.89V98.97z"/>
		<path class="st1" d="M45.53,98.97h0.84v0.56h0.02c0.07-0.1,0.14-0.19,0.22-0.27c0.08-0.08,0.17-0.15,0.26-0.21
			c0.1-0.06,0.21-0.1,0.33-0.14c0.12-0.03,0.27-0.05,0.43-0.05c0.25,0,0.47,0.05,0.68,0.16c0.21,0.11,0.36,0.28,0.45,0.51
			c0.15-0.21,0.33-0.37,0.52-0.49c0.2-0.12,0.45-0.18,0.74-0.18c0.43,0,0.76,0.1,1,0.31c0.24,0.21,0.36,0.56,0.36,1.05v2.79h-0.89
			v-2.36c0-0.16-0.01-0.31-0.02-0.44c-0.01-0.13-0.04-0.25-0.09-0.34c-0.05-0.1-0.12-0.17-0.22-0.22c-0.1-0.05-0.23-0.08-0.41-0.08
			c-0.3,0-0.52,0.09-0.66,0.28c-0.14,0.19-0.2,0.45-0.2,0.8v2.37h-0.89v-2.6c0-0.28-0.05-0.49-0.15-0.64
			c-0.1-0.14-0.29-0.22-0.56-0.22c-0.12,0-0.23,0.02-0.33,0.07c-0.11,0.05-0.2,0.12-0.28,0.2c-0.08,0.09-0.15,0.2-0.2,0.33
			c-0.05,0.13-0.07,0.28-0.07,0.45v2.4h-0.89V98.97z"/>
		<path class="st1" d="M55.73,102.11c0,0.11,0.01,0.19,0.04,0.23c0.03,0.05,0.08,0.07,0.17,0.07c0.03,0,0.06,0,0.09,0
			s0.08-0.01,0.13-0.02v0.62c-0.03,0.01-0.07,0.02-0.12,0.04c-0.05,0.01-0.1,0.03-0.15,0.04c-0.05,0.01-0.1,0.02-0.16,0.02
			c-0.05,0.01-0.1,0.01-0.13,0.01c-0.18,0-0.33-0.04-0.45-0.11c-0.12-0.07-0.2-0.2-0.23-0.38c-0.18,0.17-0.4,0.3-0.65,0.38
			c-0.26,0.08-0.51,0.12-0.75,0.12c-0.18,0-0.36-0.02-0.52-0.07c-0.17-0.05-0.31-0.12-0.44-0.22c-0.13-0.1-0.23-0.22-0.31-0.37
			c-0.08-0.15-0.11-0.32-0.11-0.52c0-0.25,0.05-0.45,0.14-0.61c0.09-0.16,0.21-0.28,0.36-0.37c0.15-0.09,0.32-0.15,0.5-0.19
			c0.19-0.04,0.37-0.07,0.56-0.09c0.16-0.03,0.32-0.05,0.46-0.07c0.15-0.01,0.28-0.04,0.39-0.07c0.11-0.03,0.2-0.08,0.27-0.14
			c0.06-0.07,0.1-0.16,0.1-0.29c0-0.11-0.03-0.21-0.08-0.28c-0.05-0.07-0.12-0.13-0.2-0.17c-0.08-0.04-0.17-0.07-0.27-0.08
			c-0.1-0.01-0.19-0.02-0.28-0.02c-0.25,0-0.46,0.05-0.62,0.16c-0.16,0.1-0.25,0.27-0.27,0.49h-0.89c0.02-0.26,0.08-0.48,0.19-0.65
			c0.11-0.17,0.25-0.31,0.42-0.41c0.17-0.1,0.36-0.18,0.58-0.22c0.21-0.04,0.43-0.06,0.66-0.06c0.2,0,0.39,0.02,0.59,0.06
			c0.19,0.04,0.37,0.11,0.52,0.2c0.15,0.09,0.28,0.22,0.37,0.36c0.09,0.15,0.14,0.33,0.14,0.54V102.11z M54.84,100.98
			c-0.14,0.09-0.3,0.14-0.5,0.16s-0.4,0.05-0.59,0.08c-0.09,0.02-0.19,0.04-0.27,0.07c-0.09,0.03-0.17,0.07-0.23,0.12
			c-0.07,0.05-0.12,0.11-0.16,0.2c-0.04,0.08-0.06,0.18-0.06,0.29c0,0.1,0.03,0.18,0.09,0.25c0.06,0.07,0.13,0.12,0.21,0.16
			c0.08,0.04,0.17,0.07,0.27,0.08c0.1,0.02,0.18,0.02,0.26,0.02c0.1,0,0.21-0.01,0.32-0.04c0.12-0.03,0.22-0.07,0.32-0.13
			c0.1-0.06,0.19-0.14,0.25-0.24c0.07-0.1,0.1-0.21,0.1-0.36V100.98z"/>
		<path class="st1" d="M56.72,97.42h0.89v5.59h-0.89V97.42z"/>
		<path class="st1" d="M60.88,97.42h2.72c0.5,0,0.9,0.11,1.21,0.34c0.3,0.23,0.45,0.58,0.45,1.04c0,0.28-0.07,0.52-0.21,0.72
			s-0.34,0.36-0.59,0.47v0.02c0.34,0.07,0.61,0.24,0.78,0.49c0.18,0.25,0.27,0.57,0.27,0.95c0,0.22-0.04,0.42-0.12,0.61
			c-0.08,0.19-0.2,0.35-0.37,0.49c-0.17,0.14-0.38,0.25-0.64,0.33c-0.26,0.08-0.57,0.12-0.93,0.12h-2.57V97.42z M61.86,99.76h1.6
			c0.23,0,0.43-0.07,0.59-0.2c0.16-0.13,0.23-0.32,0.23-0.58c0-0.28-0.07-0.48-0.21-0.59c-0.14-0.11-0.34-0.17-0.61-0.17h-1.6V99.76
			z M61.86,102.21h1.73c0.3,0,0.53-0.08,0.69-0.23c0.16-0.15,0.25-0.37,0.25-0.65c0-0.28-0.08-0.49-0.25-0.64
			c-0.16-0.15-0.4-0.22-0.69-0.22h-1.73V102.21z"/>
		<path class="st1" d="M66.29,97.42h0.89v5.59h-0.89V97.42z"/>
		<path class="st1" d="M70.01,103.12c-0.32,0-0.61-0.05-0.86-0.16c-0.25-0.11-0.47-0.25-0.64-0.44c-0.17-0.19-0.31-0.41-0.4-0.67
			c-0.09-0.26-0.14-0.55-0.14-0.86c0-0.31,0.05-0.59,0.14-0.85c0.09-0.26,0.22-0.49,0.4-0.67c0.17-0.19,0.39-0.34,0.64-0.44
			c0.25-0.11,0.54-0.16,0.86-0.16c0.32,0,0.61,0.05,0.86,0.16c0.25,0.11,0.47,0.25,0.64,0.44c0.17,0.19,0.31,0.41,0.4,0.67
			c0.09,0.26,0.14,0.55,0.14,0.85c0,0.31-0.05,0.6-0.14,0.86c-0.09,0.26-0.22,0.48-0.4,0.67c-0.17,0.19-0.39,0.34-0.64,0.44
			C70.62,103.07,70.33,103.12,70.01,103.12z M70.01,102.42c0.2,0,0.37-0.04,0.52-0.13c0.15-0.08,0.27-0.19,0.36-0.33
			c0.09-0.14,0.16-0.29,0.21-0.46c0.04-0.17,0.07-0.34,0.07-0.52c0-0.17-0.02-0.34-0.07-0.52c-0.04-0.17-0.11-0.32-0.21-0.46
			c-0.09-0.13-0.21-0.24-0.36-0.32c-0.15-0.08-0.32-0.13-0.52-0.13c-0.2,0-0.37,0.04-0.52,0.13c-0.15,0.08-0.27,0.19-0.36,0.32
			c-0.09,0.13-0.16,0.29-0.21,0.46c-0.04,0.17-0.07,0.34-0.07,0.52c0,0.18,0.02,0.35,0.07,0.52c0.04,0.17,0.11,0.32,0.21,0.46
			c0.09,0.14,0.21,0.25,0.36,0.33C69.64,102.37,69.81,102.42,70.01,102.42z"/>
		<path class="st1" d="M74.65,103.12c-0.32,0-0.61-0.05-0.86-0.16c-0.25-0.11-0.47-0.25-0.64-0.44c-0.17-0.19-0.31-0.41-0.4-0.67
			c-0.09-0.26-0.14-0.55-0.14-0.86c0-0.31,0.05-0.59,0.14-0.85c0.09-0.26,0.22-0.49,0.4-0.67c0.17-0.19,0.39-0.34,0.64-0.44
			c0.25-0.11,0.54-0.16,0.86-0.16c0.32,0,0.61,0.05,0.86,0.16c0.25,0.11,0.47,0.25,0.64,0.44c0.17,0.19,0.31,0.41,0.4,0.67
			c0.09,0.26,0.14,0.55,0.14,0.85c0,0.31-0.05,0.6-0.14,0.86c-0.09,0.26-0.22,0.48-0.4,0.67c-0.17,0.19-0.39,0.34-0.64,0.44
			C75.26,103.07,74.97,103.12,74.65,103.12z M74.65,102.42c0.2,0,0.37-0.04,0.52-0.13c0.15-0.08,0.27-0.19,0.36-0.33
			c0.09-0.14,0.16-0.29,0.21-0.46c0.04-0.17,0.07-0.34,0.07-0.52c0-0.17-0.02-0.34-0.07-0.52c-0.04-0.17-0.11-0.32-0.21-0.46
			c-0.09-0.13-0.21-0.24-0.36-0.32c-0.15-0.08-0.32-0.13-0.52-0.13c-0.2,0-0.37,0.04-0.52,0.13c-0.15,0.08-0.27,0.19-0.36,0.32
			c-0.09,0.13-0.16,0.29-0.21,0.46c-0.04,0.17-0.07,0.34-0.07,0.52c0,0.18,0.02,0.35,0.07,0.52c0.04,0.17,0.11,0.32,0.21,0.46
			c0.09,0.14,0.21,0.25,0.36,0.33C74.28,102.37,74.45,102.42,74.65,102.42z"/>
		<path class="st1" d="M81.24,103.01H80.4v-0.55h-0.02c-0.12,0.23-0.29,0.4-0.52,0.5c-0.23,0.1-0.47,0.15-0.73,0.15
			c-0.32,0-0.6-0.06-0.83-0.17s-0.43-0.26-0.59-0.46c-0.16-0.19-0.27-0.42-0.35-0.68c-0.08-0.26-0.12-0.55-0.12-0.85
			c0-0.37,0.05-0.68,0.15-0.95c0.1-0.27,0.23-0.49,0.39-0.66c0.16-0.17,0.35-0.3,0.56-0.38c0.21-0.08,0.43-0.12,0.65-0.12
			c0.13,0,0.25,0.01,0.38,0.04c0.13,0.02,0.26,0.06,0.38,0.11c0.12,0.05,0.23,0.12,0.33,0.2c0.1,0.08,0.19,0.18,0.25,0.29h0.02
			v-2.07h0.89V103.01z M78.13,101.03c0,0.17,0.02,0.34,0.07,0.51c0.04,0.17,0.11,0.32,0.2,0.45c0.09,0.13,0.21,0.23,0.35,0.31
			c0.14,0.08,0.31,0.12,0.5,0.12c0.2,0,0.37-0.04,0.51-0.13c0.14-0.08,0.26-0.19,0.35-0.33c0.09-0.14,0.16-0.29,0.2-0.46
			c0.04-0.17,0.07-0.34,0.07-0.52c0-0.45-0.1-0.8-0.3-1.05c-0.2-0.25-0.47-0.38-0.82-0.38c-0.21,0-0.38,0.04-0.53,0.13
			c-0.14,0.09-0.26,0.2-0.35,0.34c-0.09,0.14-0.16,0.3-0.2,0.47C78.15,100.67,78.13,100.85,78.13,101.03z"/>
		<path class="st1" d="M88.29,99.2c-0.04-0.16-0.1-0.31-0.17-0.45c-0.07-0.14-0.17-0.25-0.28-0.35c-0.11-0.1-0.25-0.18-0.4-0.23
			c-0.15-0.05-0.33-0.08-0.54-0.08c-0.3,0-0.55,0.06-0.77,0.18c-0.22,0.12-0.39,0.28-0.53,0.48c-0.14,0.2-0.24,0.43-0.3,0.68
			c-0.07,0.26-0.1,0.52-0.1,0.78c0,0.27,0.03,0.53,0.1,0.78c0.07,0.26,0.17,0.48,0.3,0.68c0.14,0.2,0.31,0.36,0.53,0.48
			c0.22,0.12,0.47,0.18,0.77,0.18c0.22,0,0.41-0.04,0.58-0.11c0.17-0.08,0.31-0.18,0.43-0.31c0.12-0.13,0.21-0.29,0.28-0.47
			c0.07-0.18,0.11-0.37,0.13-0.57h0.95c-0.02,0.33-0.09,0.64-0.22,0.92c-0.12,0.28-0.29,0.52-0.5,0.72
			c-0.21,0.2-0.45,0.36-0.74,0.47c-0.28,0.11-0.59,0.16-0.93,0.16c-0.42,0-0.79-0.08-1.12-0.23c-0.33-0.15-0.61-0.36-0.84-0.63
			s-0.41-0.58-0.53-0.93c-0.12-0.35-0.18-0.73-0.18-1.13c0-0.4,0.06-0.77,0.18-1.13c0.12-0.35,0.3-0.67,0.53-0.93
			s0.51-0.48,0.84-0.63c0.33-0.16,0.71-0.23,1.12-0.23c0.31,0,0.61,0.04,0.88,0.13c0.28,0.09,0.52,0.21,0.73,0.38
			c0.21,0.16,0.38,0.36,0.51,0.6c0.13,0.23,0.21,0.5,0.24,0.81H88.29z"/>
		<path class="st1" d="M90.74,101.22c0,0.16,0.02,0.31,0.07,0.45c0.04,0.15,0.11,0.27,0.2,0.38c0.09,0.11,0.2,0.2,0.34,0.26
			c0.14,0.07,0.3,0.1,0.49,0.1c0.26,0,0.47-0.06,0.63-0.17s0.28-0.28,0.36-0.5h0.84c-0.05,0.22-0.13,0.41-0.24,0.59
			c-0.12,0.17-0.25,0.32-0.41,0.43c-0.16,0.12-0.34,0.21-0.54,0.27s-0.41,0.09-0.63,0.09c-0.32,0-0.6-0.05-0.84-0.16
			c-0.25-0.1-0.45-0.25-0.62-0.44c-0.17-0.19-0.3-0.41-0.38-0.67c-0.09-0.26-0.13-0.55-0.13-0.86c0-0.29,0.05-0.56,0.14-0.82
			c0.09-0.26,0.22-0.48,0.39-0.68c0.17-0.2,0.37-0.35,0.61-0.47c0.24-0.11,0.51-0.17,0.81-0.17c0.32,0,0.6,0.07,0.86,0.2
			c0.25,0.13,0.46,0.31,0.63,0.53c0.17,0.22,0.29,0.47,0.36,0.75c0.08,0.28,0.1,0.58,0.06,0.88H90.74z M92.82,100.63
			c-0.01-0.14-0.04-0.28-0.09-0.41c-0.05-0.13-0.12-0.24-0.2-0.34c-0.09-0.1-0.19-0.17-0.31-0.23c-0.12-0.06-0.26-0.09-0.41-0.09
			c-0.16,0-0.3,0.03-0.43,0.08c-0.13,0.05-0.24,0.13-0.33,0.23c-0.09,0.1-0.16,0.21-0.22,0.34c-0.05,0.13-0.08,0.27-0.09,0.42H92.82
			z"/>
		<path class="st1" d="M94.42,97.42h0.89v5.59h-0.89V97.42z"/>
		<path class="st1" d="M96.3,97.42h0.89v5.59H96.3V97.42z"/>
	</g>
</g>
</svg>
