<?xml version="1.0" encoding="utf-8"?>
<!-- Generator: Adobe Illustrator 23.0.6, SVG Export Plug-In . SVG Version: 6.00 Build 0)  -->
<svg version="1.1" id="Layer_1" xmlns="http://www.w3.org/2000/svg" xmlns:xlink="http://www.w3.org/1999/xlink" x="0px" y="0px"
	 viewBox="0 0 599.04 367.2" style="enable-background:new 0 0 599.04 367.2;" xml:space="preserve">
<style type="text/css">
	.st0{fill:#E93D54;}
	.st1{fill:#ECAAAA;}
	.st2{fill:none;stroke:#FBCEBE;stroke-width:2;stroke-miterlimit:10;}
	.st3{fill:#EF5253;}
	.st4{fill:#CE3737;}
</style>
<g>
	
		<image style="overflow:visible;opacity:0.81;enable-background:new    ;" width="2497" height="1531" xlink:href="20B86D58CD113AF6.png"  transform="matrix(0.2398 0 0 0.2398 0.1027 -0.0235)">
	</image>
	<path class="st0" d="M341.12,289.88l67.82-43.49c0,0-65.51-11.58-100.64-35.44c-23.42-15.91-34.98-39.99-29.66-46.54
		c11.32-13.93,44.81-0.15,81.32,6.14c23.29,4.01,69.32,24.48,90.9,34.12l52.67,23.51l59.72-39.26c0,0-107.14-53.03-184.87-58.25
		c-77.74-5.22-79.91-8.72-108.06-18.35c-31.56-10.8-102.14-48.64-102.14-48.64l0,0c-10.14,9.83-17.97,18.37-31.94,20.5
		c-10.05,1.53-26.08,0.51-32.13-1.01L79.74,74l3.27,10.82c1.01,4.66,4.02,8.64,8.22,10.88l90.52,48.24
		c10.4,7.37,17.52,18.51,19.81,31.05c1.31,7.18,2.42,14.25,4.31,18.7C214.49,214.02,233.63,239.58,341.12,289.88"/>
	<path class="st1" d="M564.69,189.37l0.54-0.18c0,0-110.98-70.98-188.72-76.2c-77.74-5.22-79.91-8.72-108.06-18.35
		c-31.56-10.8-102.13-46.6-102.13-46.6l-9.43,15.8c-8.36,14.01-24.05,22.28-40.28,20.51c-5.97-0.66-11.68-2.01-16.9-2.91L82.75,74.5
		l97.15,51.77c10.4,7.37,17.52,18.51,19.81,31.05c1.31,7.18,2.42,14.25,4.31,18.7c8.29,19.55,26.31,43.93,123.16,90.46
		c6.47,19.1,22.08,32.57,40.32,32.57c24.03,0,43.51-23.37,43.51-52.2h-1.09l0.71-0.25c0,0-69.06-29.46-104.19-53.32
		c-23.42-15.91-34.98-39.99-29.66-46.54c11.32-13.93,44.81-0.15,81.32,6.14c23.29,4.01,69.32,24.48,90.9,34.12l42.16,18.82
		c5.52,17.28,19.44,29.57,35.79,29.57c21.18,0,38.36-20.6,38.36-46.02H564.69z"/>
	<g>
		<path class="st2" d="M79.74,74l99.13,51.79c10.4,7.37,17.52,18.51,19.81,31.05c1.31,7.18,2.42,14.25,4.31,18.7
			c8.29,19.55,26.31,43.93,123.16,90.46c6.47,19.1,22.08,32.57,40.32,32.57c24.03,0,43.51-23.37,43.51-52.2l0,0l0,0
			c0,0-69.44-29.71-104.57-53.57c-23.42-15.91-34.98-39.99-29.66-46.54c11.32-13.93,44.81-0.15,81.32,6.14
			c23.29,4.01,69.32,24.48,90.9,34.12l42.16,18.82c5.52,17.28,19.44,29.57,35.79,29.57c21.18,0,38.36-20.6,38.36-46.02l-0.08-0.18
			l0,0c0,0-110.98-70.98-188.72-76.2c-77.74-5.22-79.91-8.72-108.06-18.35c-31.56-10.8-101.1-46.12-101.1-46.12"/>
	</g>
	<path class="st3" d="M220.11,151.96L220.11,151.96c-1.13,0.93-2.81,0.77-3.74-0.37l-4.32-5.27c-0.93-1.13-0.77-2.81,0.37-3.74l0,0
		c1.13-0.93,2.81-0.77,3.74,0.37l4.32,5.27C221.4,149.35,221.24,151.03,220.11,151.96z"/>
	
		<ellipse transform="matrix(0.9931 -0.1168 0.1168 0.9931 -15.4543 29.3224)" class="st3" cx="242.35" cy="146.47" rx="5.31" ry="5.72"/>
	
		<ellipse transform="matrix(0.9819 -0.1894 0.1894 0.9819 -23.3505 48.5431)" class="st4" cx="242.35" cy="146.47" rx="2.4" ry="2.58"/>
	
		<ellipse transform="matrix(0.773 -0.6345 0.6345 0.773 -43.6044 171.0835)" class="st4" cx="217.24" cy="146.47" rx="0.6" ry="3.61"/>
	
		<ellipse transform="matrix(0.624 -0.7815 0.7815 0.624 -7.3352 226.4183)" class="st3" cx="231.59" cy="120.83" rx="4.48" ry="5.72"/>
	
		<ellipse transform="matrix(0.3424 -0.9395 0.9395 0.3424 -16.0808 323.9591)" class="st3" cx="223.4" cy="173.47" rx="4.07" ry="6.39"/>
	
		<ellipse transform="matrix(0.3424 -0.9395 0.9395 0.3424 -15.0109 323.5984)" class="st4" cx="223.68" cy="172.52" rx="1.39" ry="3.12"/>
	
		<ellipse transform="matrix(0.6066 -0.795 0.795 0.6066 -4.939 231.6285)" class="st4" cx="231.59" cy="120.81" rx="2.28" ry="2.91"/>
	
		<ellipse transform="matrix(0.8344 -0.5512 0.5512 0.8344 -32.4932 131.9874)" class="st3" cx="203.4" cy="120.07" rx="6.39" ry="4.07"/>
	
		<ellipse transform="matrix(0.8344 -0.5512 0.5512 0.8344 -32.1032 131.5764)" class="st4" cx="202.91" cy="119.21" rx="3.12" ry="1.39"/>
	<path class="st3" d="M366.16,134.86L366.16,134.86c1.28-0.72,1.73-2.34,1.01-3.62l-3.35-5.93c-0.72-1.28-2.34-1.73-3.62-1.01l0,0
		c-1.28,0.72-1.73,2.34-1.01,3.62l3.35,5.93C363.27,135.13,364.89,135.58,366.16,134.86z"/>
	
		<ellipse transform="matrix(0.467 -0.8843 0.8843 0.467 90.9764 472.3669)" class="st3" cx="437.32" cy="160.72" rx="5.31" ry="5.72"/>
	
		<ellipse transform="matrix(0.5306 -0.8476 0.8476 0.5306 69.0554 446.1305)" class="st4" cx="437.32" cy="160.72" rx="2.4" ry="2.58"/>
	
		<ellipse transform="matrix(0.8704 -0.4923 0.4923 0.8704 -17.1843 195.1157)" class="st4" cx="362.08" cy="130.2" rx="0.6" ry="3.61"/>
	
		<ellipse transform="matrix(0.9538 -0.3003 0.3003 0.9538 -23.1245 93.6735)" class="st3" cx="293.15" cy="122.06" rx="4.48" ry="5.72"/>
	
		<ellipse transform="matrix(0.0193 -0.9998 0.9998 0.0193 243.8435 534.2499)" class="st3" cx="394.24" cy="142.83" rx="6.39" ry="4.07"/>
	
		<ellipse transform="matrix(0.0193 -0.9998 0.9998 0.0193 242.9631 533.1885)" class="st4" cx="393.26" cy="142.75" rx="3.12" ry="1.39"/>
	
		<ellipse transform="matrix(0.9602 -0.2793 0.2793 0.9602 -22.4222 86.7264)" class="st4" cx="293.13" cy="122.05" rx="2.28" ry="2.91"/>
	
		<ellipse transform="matrix(0.8149 -0.5796 0.5796 0.8149 -13.7011 213.8178)" class="st3" cx="327.89" cy="128.36" rx="6.39" ry="4.07"/>
	
		<ellipse transform="matrix(0.8149 -0.5796 0.5796 0.8149 -13.3731 213.3164)" class="st4" cx="327.27" cy="127.59" rx="3.12" ry="1.39"/>
	<path class="st3" d="M348.37,256.68L348.37,256.68c1.07,1,1.13,2.69,0.12,3.76l-4.66,4.97c-1,1.07-2.69,1.13-3.76,0.12l0,0
		c-1.07-1-1.13-2.69-0.12-3.76l4.66-4.97C345.61,255.73,347.29,255.67,348.37,256.68z"/>
	
		<ellipse transform="matrix(0.9695 -0.2451 0.2451 0.9695 -47.0629 92.0299)" class="st3" cx="346.27" cy="235.13" rx="5.72" ry="5.31"/>
	
		<ellipse transform="matrix(0.9489 -0.3155 0.3155 0.9489 -56.4975 121.2589)" class="st4" cx="346.27" cy="235.13" rx="2.58" ry="2.4"/>
	
		<ellipse transform="matrix(0.6838 -0.7296 0.7296 0.6838 -81.3404 332.753)" class="st4" cx="343.29" cy="260.24" rx="3.61" ry="0.6"/>
	
		<ellipse transform="matrix(0.517 -0.856 0.856 0.517 -41.7621 375.6913)" class="st3" cx="312.02" cy="224.85" rx="5.72" ry="4.48"/>
	
		<ellipse transform="matrix(0.2173 -0.9761 0.9761 0.2173 35.2491 573.8162)" class="st3" cx="375.43" cy="264.93" rx="6.39" ry="4.07"/>
	
		<ellipse transform="matrix(0.2173 -0.9761 0.9761 0.2173 34.636 572.7477)" class="st4" cx="374.45" cy="264.78" rx="3.12" ry="1.39"/>
	
		<ellipse transform="matrix(0.4981 -0.8671 0.8671 0.4981 -38.3816 383.4072)" class="st4" cx="311.99" cy="224.86" rx="2.91" ry="2.28"/>
	
		<ellipse transform="matrix(0.7556 -0.655 0.655 0.7556 -88.2776 266.3554)" class="st3" cx="312.8" cy="251.48" rx="4.07" ry="6.39"/>
	
		<ellipse transform="matrix(0.7556 -0.655 0.655 0.7556 -88.8596 265.9877)" class="st4" cx="312.02" cy="252.07" rx="1.39" ry="3.12"/>
	<path class="st3" d="M292.7,215.44L292.7,215.44c1.13,0.93,2.81,0.77,3.74-0.37l4.32-5.27c0.93-1.13,0.77-2.81-0.37-3.74l0,0
		c-1.13-0.93-2.81-0.77-3.74,0.37l-4.32,5.27C291.4,212.84,291.57,214.51,292.7,215.44z"/>
	
		<ellipse transform="matrix(0.1168 -0.9931 0.9931 0.1168 44.7347 424.821)" class="st3" cx="261.23" cy="187.26" rx="5.72" ry="5.31"/>
	
		<ellipse transform="matrix(0.1894 -0.9819 0.9819 0.1894 27.8968 408.3053)" class="st4" cx="261.23" cy="187.26" rx="2.58" ry="2.4"/>
	
		<ellipse transform="matrix(0.1168 -0.9931 0.9931 0.1168 67.3846 245.8554)" class="st3" cx="171.93" cy="85.04" rx="5.72" ry="5.31"/>
	
		<ellipse transform="matrix(0.1894 -0.9819 0.9819 0.1894 55.8733 237.756)" class="st4" cx="171.93" cy="85.04" rx="2.58" ry="2.4"/>
	
		<ellipse transform="matrix(0.6345 -0.773 0.773 0.6345 -54.2421 305.2054)" class="st4" cx="295.57" cy="209.95" rx="3.61" ry="0.6"/>
	
		<ellipse transform="matrix(0.7815 -0.624 0.624 0.7815 -53.0186 193.6739)" class="st3" cx="249.97" cy="172.52" rx="5.72" ry="4.48"/>
	
		<ellipse transform="matrix(0.9395 -0.3424 0.3424 0.9395 -56.2456 104.8382)" class="st3" cx="268.77" cy="211.7" rx="6.39" ry="4.07"/>
	
		<ellipse transform="matrix(0.9395 -0.3424 0.3424 0.9395 -55.9389 104.6861)" class="st4" cx="268.49" cy="210.76" rx="3.12" ry="1.39"/>
	
		<ellipse transform="matrix(0.795 -0.6066 0.6066 0.795 -53.3939 187.0101)" class="st4" cx="249.97" cy="172.5" rx="2.91" ry="2.28"/>
	
		<ellipse transform="matrix(0.5512 -0.8344 0.8344 0.5512 -19.7418 282.9999)" class="st3" cx="253.18" cy="159.85" rx="4.07" ry="6.39"/>
	
		<ellipse transform="matrix(0.5512 -0.8344 0.8344 0.5512 -18.8093 283.0244)" class="st4" cx="253.67" cy="159" rx="1.39" ry="3.12"/>
</g>
</svg>
