<?xml version="1.0" encoding="utf-8"?>
<!-- Generator: Adobe Illustrator 23.0.6, SVG Export Plug-In . SVG Version: 6.00 Build 0)  -->
<svg version="1.1" id="Layer_1" xmlns="http://www.w3.org/2000/svg" xmlns:xlink="http://www.w3.org/1999/xlink" x="0px" y="0px"
	 viewBox="0 0 599 367.2" style="enable-background:new 0 0 599 367.2;" xml:space="preserve">
<style type="text/css">
	.st0{fill:#E93D54;}
	.st1{fill:#ECAAAA;}
	.st2{fill:none;stroke:#FBCEBE;stroke-width:2;stroke-miterlimit:10;}
	.st3{fill:#EF5253;}
	.st4{fill:#CE3737;}
</style>
<g>
	<path class="st0" d="M341.1,289.9l67.8-43.5c0,0-65.5-11.6-100.6-35.4c-23.4-15.9-35-40-29.7-46.5c11.3-13.9,44.8-0.1,81.3,6.1
		c23.3,4,69.3,24.5,90.9,34.1l52.7,23.5l59.7-39.3c0,0-107.1-53-184.9-58.2c-77.7-5.2-79.9-8.7-108.1-18.3
		c-31.6-10.8-102.1-48.6-102.1-48.6l0,0c-10.1,9.8-18,18.4-31.9,20.5c-10.1,1.5-26.1,0.5-32.1-1L79.7,74L83,84.8
		c1,4.7,4,8.6,8.2,10.9l90.5,48.2c10.4,7.4,17.5,18.5,19.8,31.1c1.3,7.2,2.4,14.2,4.3,18.7C214.5,214,233.6,239.6,341.1,289.9"/>
	<path class="st1" d="M564.7,189.4l0.5-0.2c0,0-111-71-188.7-76.2s-79.9-8.7-108.1-18.3C236.9,83.8,166.3,48,166.3,48l-9.4,15.8
		c-8.4,14-24.1,22.3-40.3,20.5c-6-0.7-11.7-2-16.9-2.9l-17-6.9l97.1,51.8c10.4,7.4,17.5,18.5,19.8,31.1c1.3,7.2,2.4,14.2,4.3,18.7
		c8.3,19.6,26.3,43.9,123.2,90.5c6.5,19.1,22.1,32.6,40.3,32.6c24,0,43.5-23.4,43.5-52.2h-1.1l0.7-0.2c0,0-69.1-29.5-104.2-53.3
		c-23.4-15.9-35-40-29.7-46.5c11.3-13.9,44.8-0.1,81.3,6.1c23.3,4,69.3,24.5,90.9,34.1L491,206c5.5,17.3,19.4,29.6,35.8,29.6
		c21.2,0,38.4-20.6,38.4-46L564.7,189.4L564.7,189.4z"/>
	<g>
		<path class="st2" d="M79.7,74l99.1,51.8c10.4,7.4,17.5,18.5,19.8,31c1.3,7.2,2.4,14.2,4.3,18.7c8.3,19.6,26.3,43.9,123.2,90.5
			c6.5,19.1,22.1,32.6,40.3,32.6c24,0,43.5-23.4,43.5-52.2l0,0l0,0c0,0-69.4-29.7-104.6-53.6c-23.4-15.9-35-40-29.7-46.5
			c11.3-13.9,44.8-0.1,81.3,6.1c23.3,4,69.3,24.5,90.9,34.1l42.2,18.8c5.5,17.3,19.4,29.6,35.8,29.6c21.2,0,38.4-20.6,38.4-46
			l-0.1-0.2l0,0c0,0-111-71-188.7-76.2s-79.9-8.7-108.1-18.3c-31.4-10.8-101-46.2-101-46.2"/>
	</g>
	<path class="st3" d="M220.1,152L220.1,152c-1.1,0.9-2.8,0.8-3.7-0.4l-4.3-5.3c-0.9-1.1-0.8-2.8,0.4-3.7l0,0
		c1.1-0.9,2.8-0.8,3.7,0.4l4.3,5.3C221.4,149.4,221.2,151,220.1,152z"/>
	
		<ellipse transform="matrix(0.9932 -0.1168 0.1168 0.9932 -15.4534 29.3036)" class="st3" cx="242.3" cy="146.5" rx="5.3" ry="5.7"/>
	
		<ellipse transform="matrix(0.9819 -0.1894 0.1894 0.9819 -23.3578 48.5633)" class="st4" cx="242.4" cy="146.5" rx="2.4" ry="2.6"/>
	<ellipse transform="matrix(0.773 -0.6345 0.6345 0.773 -43.5824 171.1401)" class="st4" cx="217.3" cy="146.5" rx="0.6" ry="3.6"/>
	<ellipse transform="matrix(0.624 -0.7815 0.7815 0.624 -7.3188 226.4085)" class="st3" cx="231.6" cy="120.8" rx="4.5" ry="5.7"/>
	
		<ellipse transform="matrix(0.3424 -0.9395 0.9395 0.3424 -16.0809 323.9754)" class="st3" cx="223.4" cy="173.5" rx="4.1" ry="6.4"/>
	
		<ellipse transform="matrix(0.3424 -0.9395 0.9395 0.3424 -14.995 323.5438)" class="st4" cx="223.6" cy="172.5" rx="1.4" ry="3.1"/>
	<ellipse transform="matrix(0.6066 -0.795 0.795 0.6066 -4.9196 231.6377)" class="st4" cx="231.6" cy="120.8" rx="2.3" ry="2.9"/>
	
		<ellipse transform="matrix(0.8344 -0.5512 0.5512 0.8344 -32.5042 132.0175)" class="st3" cx="203.4" cy="120.1" rx="6.4" ry="4.1"/>
	
		<ellipse transform="matrix(0.8344 -0.5512 0.5512 0.8344 -32.1004 131.5827)" class="st4" cx="202.9" cy="119.2" rx="3.1" ry="1.4"/>
	<path class="st3" d="M366.2,134.9L366.2,134.9c1.3-0.7,1.7-2.3,1-3.6l-3.4-5.9c-0.7-1.3-2.3-1.7-3.6-1l0,0c-1.3,0.7-1.7,2.3-1,3.6
		l3.4,5.9C363.3,135.1,364.9,135.6,366.2,134.9z"/>
	<ellipse transform="matrix(0.467 -0.8843 0.8843 0.467 90.9886 472.3784)" class="st3" cx="437.3" cy="160.7" rx="5.3" ry="5.7"/>
	
		<ellipse transform="matrix(0.5306 -0.8476 0.8476 0.5306 69.0039 446.0909)" class="st4" cx="437.3" cy="160.7" rx="2.4" ry="2.6"/>
	
		<ellipse transform="matrix(0.8704 -0.4923 0.4923 0.8704 -17.1709 195.1314)" class="st4" cx="362.1" cy="130.2" rx="0.6" ry="3.6"/>
	<ellipse transform="matrix(0.9538 -0.3003 0.3003 0.9538 -23.1413 93.658)" class="st3" cx="293.1" cy="122.1" rx="4.5" ry="5.7"/>
	
		<ellipse transform="matrix(1.930054e-02 -0.9998 0.9998 1.930054e-02 243.8219 534.1813)" class="st3" cx="394.2" cy="142.8" rx="6.4" ry="4.1"/>
	
		<ellipse transform="matrix(1.930054e-02 -0.9998 0.9998 1.930054e-02 243.0034 533.2254)" class="st4" cx="393.3" cy="142.7" rx="3.1" ry="1.4"/>
	<ellipse transform="matrix(0.9602 -0.2793 0.2793 0.9602 -22.4137 86.715)" class="st4" cx="293.1" cy="122" rx="2.3" ry="2.9"/>
	
		<ellipse transform="matrix(0.8149 -0.5796 0.5796 0.8149 -13.7192 213.8243)" class="st3" cx="327.9" cy="128.4" rx="6.4" ry="4.1"/>
	
		<ellipse transform="matrix(0.8149 -0.5796 0.5796 0.8149 -13.3661 213.3143)" class="st4" cx="327.3" cy="127.6" rx="3.1" ry="1.4"/>
	<path class="st3" d="M348.4,256.7L348.4,256.7c1.1,1,1.1,2.7,0.1,3.8l-4.7,5c-1,1.1-2.7,1.1-3.8,0.1l0,0c-1.1-1-1.1-2.7-0.1-3.8
		l4.7-5C345.6,255.7,347.3,255.7,348.4,256.7z"/>
	
		<ellipse transform="matrix(0.9695 -0.2451 0.2451 0.9695 -47.0589 92.0478)" class="st3" cx="346.3" cy="235.1" rx="5.7" ry="5.3"/>
	
		<ellipse transform="matrix(0.9489 -0.3155 0.3155 0.9489 -56.4846 121.2616)" class="st4" cx="346.3" cy="235.1" rx="2.6" ry="2.4"/>
	
		<ellipse transform="matrix(0.6838 -0.7296 0.7296 0.6838 -81.3283 332.7057)" class="st4" cx="343.2" cy="260.2" rx="3.6" ry="0.6"/>
	<ellipse transform="matrix(0.517 -0.856 0.856 0.517 -41.7776 375.6463)" class="st3" cx="312" cy="224.8" rx="5.7" ry="4.5"/>
	<ellipse transform="matrix(0.2173 -0.9761 0.9761 0.2173 35.1996 573.7996)" class="st3" cx="375.4" cy="265" rx="6.4" ry="4.1"/>
	
		<ellipse transform="matrix(0.2173 -0.9761 0.9761 0.2173 34.6855 572.7473)" class="st4" cx="374.5" cy="264.7" rx="3.1" ry="1.4"/>
	<ellipse transform="matrix(0.4981 -0.8671 0.8671 0.4981 -38.4133 383.4169)" class="st4" cx="312" cy="224.9" rx="2.9" ry="2.3"/>
	<ellipse transform="matrix(0.7556 -0.655 0.655 0.7556 -88.2896 266.347)" class="st3" cx="312.8" cy="251.5" rx="4.1" ry="6.4"/>
	<ellipse transform="matrix(0.7556 -0.655 0.655 0.7556 -88.8801 265.9785)" class="st4" cx="312" cy="252.1" rx="1.4" ry="3.1"/>
	<path class="st3" d="M292.7,215.4L292.7,215.4c1.1,0.9,2.8,0.8,3.7-0.4l4.3-5.3c0.9-1.1,0.8-2.8-0.4-3.7l0,0
		c-1.1-0.9-2.8-0.8-3.7,0.4l-4.3,5.3C291.4,212.8,291.6,214.5,292.7,215.4z"/>
	
		<ellipse transform="matrix(0.1168 -0.9932 0.9932 0.1168 44.7506 424.8631)" class="st3" cx="261.3" cy="187.3" rx="5.7" ry="5.3"/>
	<ellipse transform="matrix(0.1894 -0.9819 0.9819 0.1894 27.852 408.3773)" class="st4" cx="261.3" cy="187.3" rx="2.6" ry="2.4"/>
	<ellipse transform="matrix(0.1168 -0.9932 0.9932 0.1168 67.3335 245.8159)" class="st3" cx="171.9" cy="85.1" rx="5.7" ry="5.3"/>
	<ellipse transform="matrix(0.1894 -0.9819 0.9819 0.1894 55.7982 237.7358)" class="st4" cx="171.9" cy="85.1" rx="2.6" ry="2.4"/>
	<ellipse transform="matrix(0.6345 -0.773 0.773 0.6345 -54.197 305.1991)" class="st4" cx="295.6" cy="209.9" rx="3.6" ry="0.6"/>
	<ellipse transform="matrix(0.7815 -0.624 0.624 0.7815 -52.992 193.6911)" class="st3" cx="250" cy="172.5" rx="5.7" ry="4.5"/>
	
		<ellipse transform="matrix(0.9395 -0.3424 0.3424 0.9395 -56.2513 104.8009)" class="st3" cx="268.7" cy="211.7" rx="6.4" ry="4.1"/>
	
		<ellipse transform="matrix(0.9395 -0.3424 0.3424 0.9395 -55.9447 104.6793)" class="st4" cx="268.5" cy="210.8" rx="3.1" ry="1.4"/>
	<ellipse transform="matrix(0.795 -0.6066 0.6066 0.795 -53.385 186.9991)" class="st4" cx="250" cy="172.5" rx="2.9" ry="2.3"/>
	
		<ellipse transform="matrix(0.5512 -0.8344 0.8344 0.5512 -19.7353 283.0483)" class="st3" cx="253.2" cy="159.9" rx="4.1" ry="6.4"/>
	<ellipse transform="matrix(0.5512 -0.8344 0.8344 0.5512 -18.7918 283.0335)" class="st4" cx="253.7" cy="159" rx="1.4" ry="3.1"/>
</g>
</svg>
