<?xml version="1.0" encoding="utf-8"?>
<!-- Generator: Adobe Illustrator 23.0.6, SVG Export Plug-In . SVG Version: 6.00 Build 0)  -->
<svg version="1.1" id="Layer_1" xmlns="http://www.w3.org/2000/svg" xmlns:xlink="http://www.w3.org/1999/xlink" x="0px" y="0px"
	 viewBox="0 0 612 130.8" style="enable-background:new 0 0 612 130.8;" xml:space="preserve">
<style type="text/css">
	.st0{fill:#EDABAB;}
	.st1{fill:#F05353;}
	.st2{fill:#FFFFFF;}
	.st3{fill:none;stroke:#FFFFFF;stroke-miterlimit:10;}
</style>
<g>
 <rect class="st0" width="612" height="130.8"/>
	<circle class="st1" cx="65.8" cy="64.7" r="41.9"/>
	<g>
		<g>
			<path class="st2" d="M44.2,72.2c0,0.2,0,0.4,0,0.5c0,0.2,0.1,0.3,0.2,0.4c0.1,0.1,0.2,0.2,0.3,0.2s0.3,0.1,0.5,0.1
				c0.2,0,0.5-0.1,0.7-0.2c0.2-0.2,0.3-0.4,0.3-0.8c0-0.2,0-0.3-0.1-0.5c0-0.1-0.1-0.2-0.2-0.4c-0.1-0.1-0.3-0.2-0.4-0.3
				c-0.2-0.1-0.4-0.2-0.7-0.3c-0.4-0.1-0.7-0.3-0.9-0.4c-0.3-0.1-0.5-0.3-0.7-0.5s-0.3-0.4-0.4-0.7s-0.1-0.5-0.1-0.9
				c0-0.8,0.2-1.4,0.7-1.8c0.4-0.4,1.1-0.6,1.8-0.6c0.4,0,0.7,0,1,0.1c0.3,0.1,0.6,0.2,0.8,0.4c0.2,0.2,0.4,0.4,0.5,0.7
				c0.1,0.3,0.2,0.6,0.2,1v0.2h-1.6c0-0.4-0.1-0.7-0.2-0.9c-0.1-0.2-0.4-0.3-0.7-0.3c-0.2,0-0.3,0-0.5,0.1s-0.2,0.1-0.3,0.2
				c-0.1,0.1-0.1,0.2-0.1,0.3c0,0.1,0,0.2,0,0.4c0,0.2,0.1,0.5,0.2,0.6c0.1,0.2,0.3,0.3,0.7,0.5l1.3,0.5c0.3,0.1,0.6,0.3,0.8,0.4
				s0.4,0.3,0.5,0.5c0.1,0.2,0.2,0.4,0.2,0.6s0.1,0.4,0.1,0.7c0,0.9-0.2,1.5-0.7,1.9c-0.5,0.4-1.2,0.6-2.1,0.6c-0.9,0-1.6-0.2-2-0.6
				c-0.4-0.4-0.6-1-0.6-1.7v-0.3h1.6V72.2z"/>
			<path class="st2" d="M50.3,66.3v1.3h-1.6v-1.3H50.3z M50.3,68.4v6.1h-1.6v-6.1H50.3z"/>
			<path class="st2" d="M54.3,70.1c0-0.1-0.1-0.3-0.1-0.4s-0.1-0.2-0.2-0.3c-0.1-0.1-0.2-0.1-0.4-0.1c-0.2,0-0.3,0-0.5,0.1
				s-0.2,0.2-0.3,0.4c-0.1,0.2-0.1,0.4-0.1,0.6c0,0.3,0,0.6,0,0.9c0,0.4,0,0.7,0,1c0,0.3,0.1,0.5,0.1,0.7c0.1,0.2,0.1,0.3,0.3,0.4
				c0.1,0.1,0.3,0.1,0.4,0.1c0.3,0,0.5-0.1,0.6-0.3c0.1-0.2,0.2-0.6,0.2-1.1h1.5c0,0.8-0.2,1.4-0.5,1.8c-0.4,0.4-1,0.6-1.8,0.6
				c-0.4,0-0.7,0-1-0.1c-0.3-0.1-0.5-0.3-0.7-0.5c-0.2-0.2-0.3-0.6-0.4-1s-0.1-0.9-0.1-1.5c0-0.6,0.1-1.1,0.2-1.6
				c0.1-0.4,0.3-0.7,0.5-1c0.2-0.2,0.5-0.4,0.8-0.5c0.3-0.1,0.6-0.1,1-0.1c0.7,0,1.3,0.2,1.6,0.6s0.5,1,0.5,1.7h-1.5
				C54.4,70.4,54.4,70.3,54.3,70.1z"/>
			<path class="st2" d="M58.3,70.6L58.3,70.6l1.6-2.3h1.7l-1.8,2.4l2,3.7h-1.7L58.9,72l-0.6,0.7v1.8h-1.6v-8.1h1.6V70.6z"/>
			<path class="st2" d="M64,66.4v8.1h-1.6v-8.1H64z"/>
			<path class="st2" d="M66.4,72.1c0,0.2,0,0.4,0,0.5s0.1,0.3,0.1,0.5s0.1,0.2,0.2,0.3c0.1,0.1,0.2,0.1,0.4,0.1
				c0.3,0,0.5-0.1,0.6-0.3c0.1-0.2,0.2-0.5,0.2-0.9h1.4c0,0.7-0.2,1.2-0.6,1.6s-0.9,0.6-1.6,0.6c-0.6,0-1-0.1-1.3-0.3
				c-0.3-0.2-0.6-0.4-0.7-0.7c-0.2-0.3-0.2-0.7-0.3-1c0-0.4-0.1-0.8-0.1-1.2c0-0.4,0-0.8,0.1-1.2s0.2-0.7,0.3-1
				c0.2-0.3,0.4-0.5,0.7-0.7c0.3-0.2,0.7-0.3,1.3-0.3c0.5,0,0.8,0.1,1.1,0.2c0.3,0.1,0.5,0.4,0.7,0.6c0.2,0.3,0.3,0.6,0.3,1
				c0.1,0.4,0.1,0.8,0.1,1.3v0.4h-3.1V72.1z M68,70.1c0-0.2-0.1-0.3-0.1-0.5c-0.1-0.1-0.1-0.2-0.2-0.3c-0.1-0.1-0.2-0.1-0.4-0.1
				c-0.2,0-0.3,0-0.4,0.1c-0.1,0.1-0.2,0.2-0.2,0.3c-0.1,0.1-0.1,0.2-0.1,0.4c0,0.1,0,0.3,0,0.4v0.2H68C68,70.5,68,70.3,68,70.1z"/>
			<path class="st2" d="M76.3,67.8c-0.1-0.3-0.4-0.4-0.8-0.4c-0.2,0-0.4,0.1-0.5,0.2c-0.1,0.1-0.2,0.3-0.3,0.5
				c-0.1,0.2-0.1,0.6-0.2,1c0,0.4,0,0.9,0,1.5c0,0.6,0,1.1,0.1,1.5c0,0.4,0.1,0.7,0.2,0.9c0.1,0.2,0.2,0.3,0.3,0.4
				c0.1,0.1,0.3,0.1,0.5,0.1c0.1,0,0.3,0,0.4-0.1c0.1,0,0.2-0.1,0.3-0.3c0.1-0.1,0.2-0.4,0.2-0.6c0.1-0.3,0.1-0.6,0.1-1.1h1.6
				c0,0.4,0,0.9-0.1,1.2s-0.2,0.7-0.4,1c-0.2,0.3-0.4,0.5-0.8,0.7s-0.8,0.2-1.3,0.2c-0.6,0-1.1-0.1-1.5-0.3s-0.6-0.5-0.8-0.8
				c-0.2-0.4-0.3-0.8-0.4-1.3c-0.1-0.5-0.1-1.1-0.1-1.7c0-0.6,0-1.2,0.1-1.7c0.1-0.5,0.2-1,0.4-1.3c0.2-0.4,0.5-0.7,0.8-0.9
				s0.8-0.3,1.5-0.3c0.6,0,1,0.1,1.4,0.3c0.3,0.2,0.6,0.4,0.8,0.7c0.2,0.3,0.3,0.6,0.3,0.9s0.1,0.7,0.1,0.9h-1.6
				C76.5,68.5,76.5,68.1,76.3,67.8z"/>
			<path class="st2" d="M80.4,72.1c0,0.2,0,0.4,0,0.5s0.1,0.3,0.1,0.5s0.1,0.2,0.2,0.3c0.1,0.1,0.2,0.1,0.4,0.1
				c0.3,0,0.5-0.1,0.6-0.3c0.1-0.2,0.2-0.5,0.2-0.9h1.4c0,0.7-0.2,1.2-0.6,1.6s-0.9,0.6-1.6,0.6c-0.6,0-1-0.1-1.3-0.3
				c-0.3-0.2-0.6-0.4-0.7-0.7c-0.2-0.3-0.2-0.7-0.3-1c0-0.4-0.1-0.8-0.1-1.2c0-0.4,0-0.8,0.1-1.2s0.2-0.7,0.3-1
				c0.2-0.3,0.4-0.5,0.7-0.7c0.3-0.2,0.7-0.3,1.3-0.3c0.5,0,0.8,0.1,1.1,0.2c0.3,0.1,0.5,0.4,0.7,0.6c0.2,0.3,0.3,0.6,0.3,1
				c0.1,0.4,0.1,0.8,0.1,1.3v0.4h-3.1V72.1z M82,70.1c0-0.2-0.1-0.3-0.1-0.5c-0.1-0.1-0.1-0.2-0.2-0.3c-0.1-0.1-0.2-0.1-0.4-0.1
				c-0.2,0-0.3,0-0.4,0.1c-0.1,0.1-0.2,0.2-0.2,0.3c-0.1,0.1-0.1,0.2-0.1,0.4c0,0.1,0,0.3,0,0.4v0.2H82C82,70.5,82,70.3,82,70.1z"/>
			<path class="st2" d="M86,66.4v8.1h-1.6v-8.1H86z"/>
			<path class="st2" d="M88.7,66.4v8.1h-1.6v-8.1H88.7z"/>
			<path class="st2" d="M50.6,78.1H51l2.1,5.4h-0.4l-0.7-1.7h-2.6l-0.7,1.7h-0.4L50.6,78.1z M52,81.5l-1.2-3h0l-1.2,3H52z"/>
			<path class="st2" d="M54.3,83.2L54.3,83.2l1.1-3.5h0.4l1.1,3.5h0l1.1-3.5h0.3L57,83.5h-0.4L55.6,80h0l-1.1,3.5h-0.4l-1.2-3.9h0.3
				L54.3,83.2z"/>
			<path class="st2" d="M61.2,82.8L61.2,82.8c-0.1,0.1-0.1,0.2-0.2,0.3c-0.1,0.1-0.2,0.2-0.3,0.3c-0.1,0.1-0.3,0.1-0.4,0.2
				c-0.2,0-0.3,0.1-0.5,0.1c-0.4,0-0.7-0.1-1-0.3c-0.2-0.2-0.3-0.5-0.3-0.8c0-0.2,0-0.4,0.1-0.6c0.1-0.1,0.2-0.3,0.3-0.3
				c0.1-0.1,0.3-0.1,0.5-0.2c0.2,0,0.3-0.1,0.5-0.1l0.4,0c0.2,0,0.4,0,0.5-0.1c0.1,0,0.2-0.1,0.3-0.1c0.1-0.1,0.1-0.1,0.1-0.2
				c0-0.1,0-0.2,0-0.3c0-0.1,0-0.2-0.1-0.3c0-0.1-0.1-0.2-0.2-0.2c-0.1-0.1-0.2-0.1-0.3-0.2c-0.1,0-0.3-0.1-0.5-0.1
				c-0.3,0-0.6,0.1-0.8,0.3S59,80.5,59,80.8h-0.3c0-0.4,0.2-0.7,0.4-1c0.3-0.2,0.6-0.3,1.1-0.3c0.5,0,0.8,0.1,1,0.3s0.3,0.4,0.3,0.7
				v2.3c0,0.1,0,0.1,0,0.2c0,0.1,0,0.1,0,0.2s0,0.1,0.1,0.1c0,0,0.1,0,0.2,0c0.1,0,0.1,0,0.2,0v0.2c-0.1,0-0.2,0-0.2,0
				c-0.1,0-0.2,0-0.3,0s-0.1-0.1-0.2-0.1c0-0.1-0.1-0.1-0.1-0.2s0-0.1,0-0.2V82.8z M61.2,81.3c-0.1,0.1-0.2,0.1-0.3,0.2
				c-0.1,0-0.3,0.1-0.5,0.1l-0.5,0c-0.1,0-0.3,0-0.4,0.1c-0.1,0-0.3,0.1-0.4,0.1s-0.2,0.2-0.3,0.3c-0.1,0.1-0.1,0.3-0.1,0.4
				c0,0.3,0.1,0.5,0.3,0.6s0.4,0.2,0.7,0.2c0.3,0,0.6-0.1,0.8-0.2c0.2-0.1,0.3-0.3,0.4-0.4c0.1-0.2,0.2-0.3,0.2-0.4
				c0-0.1,0-0.2,0-0.3V81.3z"/>
			<path class="st2" d="M62.7,80.5L62.7,80.5c0.1-0.1,0.1-0.2,0.2-0.4c0.1-0.1,0.2-0.2,0.3-0.3c0.1-0.1,0.3-0.1,0.4-0.2
				c0.2,0,0.3-0.1,0.5-0.1v0.3c-0.2,0-0.3,0-0.5,0c-0.2,0.1-0.4,0.2-0.6,0.3c-0.1,0.1-0.1,0.1-0.2,0.2s-0.1,0.1-0.1,0.2
				c0,0.1-0.1,0.2-0.1,0.3c0,0.1,0,0.2,0,0.4v2.1h-0.3v-3.9h0.3V80.5z"/>
			<path class="st2" d="M64.6,81.6L64.6,81.6c0,0.3,0,0.5,0.1,0.7s0.1,0.4,0.3,0.5c0.1,0.2,0.3,0.3,0.4,0.4c0.2,0.1,0.4,0.1,0.6,0.1
				c0.4,0,0.7-0.1,0.9-0.3c0.2-0.2,0.4-0.5,0.5-0.8h0.3c-0.1,0.5-0.3,0.8-0.6,1c-0.3,0.2-0.7,0.4-1.1,0.4c-0.3,0-0.5-0.1-0.8-0.2
				s-0.4-0.2-0.5-0.4s-0.3-0.4-0.3-0.6s-0.1-0.5-0.1-0.8c0-0.3,0-0.5,0.1-0.8c0.1-0.2,0.2-0.5,0.3-0.7c0.1-0.2,0.3-0.3,0.5-0.5
				c0.2-0.1,0.5-0.2,0.8-0.2c0.3,0,0.5,0,0.7,0.2c0.2,0.1,0.4,0.2,0.5,0.4c0.1,0.2,0.2,0.4,0.3,0.6c0.1,0.2,0.1,0.5,0.1,0.7
				c0,0,0,0.1,0,0.1c0,0,0,0.1,0,0.1H64.6z M67.4,81.4c0-0.2,0-0.4-0.1-0.6s-0.1-0.4-0.3-0.5s-0.3-0.3-0.4-0.3
				c-0.2-0.1-0.4-0.1-0.6-0.1c-0.2,0-0.4,0-0.6,0.1c-0.2,0.1-0.3,0.2-0.4,0.3s-0.2,0.3-0.3,0.5c-0.1,0.2-0.1,0.4-0.1,0.6H67.4z"/>
			<path class="st2" d="M68.4,79.6h0.3v0.8h0c0.1-0.1,0.1-0.3,0.2-0.4c0.1-0.1,0.2-0.2,0.3-0.3c0.1-0.1,0.3-0.1,0.4-0.2
				c0.1,0,0.3-0.1,0.4-0.1c0.2,0,0.4,0,0.6,0.1c0.2,0.1,0.3,0.1,0.4,0.2c0.1,0.1,0.2,0.2,0.2,0.3c0.1,0.1,0.1,0.2,0.1,0.3
				c0,0.1,0,0.2,0,0.3c0,0.1,0,0.2,0,0.3v2.4h-0.3v-2.5c0-0.1,0-0.2,0-0.4c0-0.1-0.1-0.3-0.1-0.4c-0.1-0.1-0.2-0.2-0.3-0.3
				s-0.4-0.1-0.6-0.1c-0.2,0-0.4,0-0.6,0.1c-0.2,0.1-0.3,0.2-0.4,0.3c-0.1,0.1-0.2,0.3-0.3,0.5c-0.1,0.2-0.1,0.4-0.1,0.7v2.1h-0.3
				V79.6z"/>
			<path class="st2" d="M72.4,81.6L72.4,81.6c0,0.3,0,0.5,0.1,0.7s0.1,0.4,0.3,0.5c0.1,0.2,0.3,0.3,0.4,0.4c0.2,0.1,0.4,0.1,0.6,0.1
				c0.4,0,0.7-0.1,0.9-0.3c0.2-0.2,0.4-0.5,0.5-0.8h0.3c-0.1,0.5-0.3,0.8-0.6,1c-0.3,0.2-0.7,0.4-1.1,0.4c-0.3,0-0.5-0.1-0.8-0.2
				s-0.4-0.2-0.5-0.4s-0.3-0.4-0.3-0.6s-0.1-0.5-0.1-0.8c0-0.3,0-0.5,0.1-0.8c0.1-0.2,0.2-0.5,0.3-0.7c0.1-0.2,0.3-0.3,0.5-0.5
				c0.2-0.1,0.5-0.2,0.8-0.2c0.3,0,0.5,0,0.7,0.2c0.2,0.1,0.4,0.2,0.5,0.4c0.1,0.2,0.2,0.4,0.3,0.6c0.1,0.2,0.1,0.5,0.1,0.7
				c0,0,0,0.1,0,0.1c0,0,0,0.1,0,0.1H72.4z M75.2,81.4c0-0.2,0-0.4-0.1-0.6s-0.1-0.4-0.3-0.5s-0.3-0.3-0.4-0.3
				c-0.2-0.1-0.4-0.1-0.6-0.1c-0.2,0-0.4,0-0.6,0.1c-0.2,0.1-0.3,0.2-0.4,0.3s-0.2,0.3-0.3,0.5c-0.1,0.2-0.1,0.4-0.1,0.6H75.2z"/>
			<path class="st2" d="M76.3,82.2c0,0.2,0.1,0.3,0.1,0.5c0.1,0.1,0.2,0.3,0.3,0.4c0.1,0.1,0.2,0.2,0.4,0.2c0.2,0.1,0.3,0.1,0.5,0.1
				c0.1,0,0.3,0,0.4,0c0.1,0,0.3-0.1,0.4-0.1c0.1-0.1,0.2-0.1,0.3-0.3s0.1-0.2,0.1-0.4c0-0.2-0.1-0.4-0.2-0.5
				c-0.1-0.1-0.3-0.2-0.5-0.3c-0.2-0.1-0.4-0.1-0.6-0.1s-0.4-0.1-0.6-0.2s-0.4-0.2-0.5-0.3c-0.1-0.1-0.2-0.3-0.2-0.6
				c0-0.2,0-0.4,0.1-0.5c0.1-0.1,0.2-0.2,0.3-0.3c0.1-0.1,0.3-0.1,0.4-0.2c0.2,0,0.3,0,0.5,0c0.2,0,0.4,0,0.6,0.1
				c0.2,0,0.3,0.1,0.5,0.2s0.2,0.2,0.3,0.4c0.1,0.2,0.1,0.3,0.1,0.6h-0.3c0-0.2,0-0.3-0.1-0.5c-0.1-0.1-0.1-0.2-0.2-0.3
				c-0.1-0.1-0.2-0.1-0.4-0.2c-0.1,0-0.3-0.1-0.5-0.1c-0.1,0-0.3,0-0.4,0c-0.1,0-0.3,0.1-0.4,0.1c-0.1,0.1-0.2,0.1-0.3,0.2
				s-0.1,0.2-0.1,0.3c0,0.2,0,0.3,0.1,0.4c0.1,0.1,0.2,0.2,0.3,0.2c0.1,0.1,0.3,0.1,0.4,0.1c0.2,0,0.3,0.1,0.5,0.1
				c0.2,0,0.4,0.1,0.5,0.1c0.2,0,0.3,0.1,0.4,0.2c0.1,0.1,0.2,0.2,0.3,0.3s0.1,0.3,0.1,0.5c0,0.2,0,0.4-0.1,0.5s-0.2,0.2-0.4,0.3
				c-0.1,0.1-0.3,0.1-0.5,0.2c-0.2,0-0.4,0-0.5,0c-0.2,0-0.4,0-0.6-0.1c-0.2-0.1-0.4-0.1-0.5-0.3c-0.1-0.1-0.3-0.3-0.3-0.4
				c-0.1-0.2-0.1-0.4-0.1-0.6H76.3z"/>
			<path class="st2" d="M80,82.2c0,0.2,0.1,0.3,0.1,0.5c0.1,0.1,0.2,0.3,0.3,0.4c0.1,0.1,0.2,0.2,0.4,0.2c0.2,0.1,0.3,0.1,0.5,0.1
				c0.1,0,0.3,0,0.4,0c0.1,0,0.3-0.1,0.4-0.1c0.1-0.1,0.2-0.1,0.3-0.3s0.1-0.2,0.1-0.4c0-0.2-0.1-0.4-0.2-0.5
				c-0.1-0.1-0.3-0.2-0.5-0.3c-0.2-0.1-0.4-0.1-0.6-0.1s-0.4-0.1-0.6-0.2s-0.4-0.2-0.5-0.3c-0.1-0.1-0.2-0.3-0.2-0.6
				c0-0.2,0-0.4,0.1-0.5c0.1-0.1,0.2-0.2,0.3-0.3c0.1-0.1,0.3-0.1,0.4-0.2c0.2,0,0.3,0,0.5,0c0.2,0,0.4,0,0.6,0.1
				c0.2,0,0.3,0.1,0.5,0.2s0.2,0.2,0.3,0.4c0.1,0.2,0.1,0.3,0.1,0.6h-0.3c0-0.2,0-0.3-0.1-0.5c-0.1-0.1-0.1-0.2-0.2-0.3
				c-0.1-0.1-0.2-0.1-0.4-0.2c-0.1,0-0.3-0.1-0.5-0.1c-0.1,0-0.3,0-0.4,0c-0.1,0-0.3,0.1-0.4,0.1c-0.1,0.1-0.2,0.1-0.3,0.2
				s-0.1,0.2-0.1,0.3c0,0.2,0,0.3,0.1,0.4c0.1,0.1,0.2,0.2,0.3,0.2c0.1,0.1,0.3,0.1,0.4,0.1c0.2,0,0.3,0.1,0.5,0.1
				c0.2,0,0.4,0.1,0.5,0.1c0.2,0,0.3,0.1,0.4,0.2c0.1,0.1,0.2,0.2,0.3,0.3s0.1,0.3,0.1,0.5c0,0.2,0,0.4-0.1,0.5s-0.2,0.2-0.4,0.3
				c-0.1,0.1-0.3,0.1-0.5,0.2c-0.2,0-0.4,0-0.5,0c-0.2,0-0.4,0-0.6-0.1c-0.2-0.1-0.4-0.1-0.5-0.3c-0.1-0.1-0.3-0.3-0.3-0.4
				c-0.1-0.2-0.1-0.4-0.1-0.6H80z"/>
		</g>
		<g>
			<path class="st2" d="M71.7,51c0-3.8-2.5-7.1-5.9-8.2c0.9-0.3,1.8-0.5,2.8-0.5c4.8,0,8.7,3.9,8.7,8.7s-3.9,8.7-8.7,8.7
				c-1,0-1.9-0.2-2.8-0.5C69.2,58,71.7,54.8,71.7,51z"/>
			<path class="st2" d="M60,45.2c0.7,0,1.3,0.1,1.9,0.3c2.3,0.8,3.9,2.9,3.9,5.5s-1.6,4.7-3.9,5.5c-0.6,0.2-1.2,0.3-1.9,0.3
				c-3.2,0-5.8-2.6-5.8-5.8S56.8,45.2,60,45.2z"/>
		</g>
	</g>
	<circle class="st3" cx="65.8" cy="64.7" r="32.4"/>
	<g>
		<path class="st2" d="M130.1,55.3c0.4,0.9,1,1.6,1.8,2.1c0.7,0.5,1.6,0.9,2.6,1.2c1,0.3,2,0.4,3.1,0.4c0.7,0,1.5-0.1,2.3-0.2
			c0.8-0.1,1.6-0.4,2.3-0.7c0.7-0.3,1.3-0.8,1.8-1.4c0.5-0.6,0.7-1.4,0.7-2.3c0-1-0.3-1.8-1-2.4c-0.6-0.6-1.5-1.1-2.5-1.6
			s-2.2-0.8-3.5-1.1c-1.3-0.3-2.6-0.7-4-1c-1.4-0.3-2.7-0.8-4-1.3c-1.3-0.5-2.5-1.1-3.5-1.9c-1-0.8-1.9-1.8-2.5-3
			c-0.6-1.2-1-2.6-1-4.3c0-1.9,0.4-3.5,1.2-4.9c0.8-1.4,1.9-2.6,3.2-3.5c1.3-0.9,2.8-1.6,4.5-2.1c1.7-0.4,3.3-0.7,5-0.7
			c1.9,0,3.8,0.2,5.6,0.6c1.8,0.4,3.4,1.1,4.7,2.1c1.4,1,2.5,2.2,3.3,3.7c0.8,1.5,1.2,3.3,1.2,5.5h-7.9c-0.1-1.1-0.3-2-0.7-2.7
			c-0.4-0.7-0.9-1.3-1.6-1.7c-0.7-0.4-1.4-0.7-2.3-0.9c-0.8-0.2-1.8-0.3-2.8-0.3c-0.7,0-1.3,0.1-2,0.2c-0.7,0.1-1.3,0.4-1.8,0.7
			c-0.5,0.3-1,0.8-1.3,1.3s-0.5,1.2-0.5,2c0,0.7,0.1,1.3,0.4,1.8c0.3,0.4,0.8,0.9,1.6,1.2c0.8,0.4,1.9,0.8,3.4,1.1
			c1.4,0.4,3.3,0.9,5.6,1.5c0.7,0.1,1.6,0.4,2.9,0.8c1.2,0.4,2.4,0.9,3.7,1.7c1.2,0.8,2.3,1.9,3.1,3.2c0.9,1.3,1.3,3,1.3,5.1
			c0,1.7-0.3,3.3-1,4.7c-0.7,1.5-1.6,2.7-2.9,3.8c-1.3,1.1-2.9,1.9-4.8,2.5c-1.9,0.6-4.1,0.9-6.7,0.9c-2,0-4-0.3-5.9-0.8
			s-3.6-1.3-5.1-2.4c-1.5-1.1-2.6-2.4-3.5-4.1c-0.9-1.7-1.3-3.6-1.2-5.9h7.9C129.4,53.4,129.6,54.4,130.1,55.3z"/>
		<path class="st2" d="M156.9,33.5v-6.1h7.4v6.1H156.9z M164.3,37.6v26.8h-7.4V37.6H164.3z"/>
		<path class="st2" d="M182.9,42.5c-1.2,0-2.2,0.3-3,0.8c-0.8,0.5-1.4,1.2-1.9,2.1c-0.5,0.8-0.9,1.8-1.1,2.8c-0.2,1-0.3,2-0.3,3
			c0,1,0.1,2,0.3,3c0.2,1,0.5,1.9,1,2.7c0.5,0.8,1.1,1.5,1.9,2c0.8,0.5,1.8,0.8,2.9,0.8c1.8,0,3.1-0.5,4.1-1.5c1-1,1.5-2.3,1.8-4
			h7.1c-0.5,3.6-1.9,6.3-4.1,8.1c-2.3,1.9-5.2,2.8-8.8,2.8c-2,0-3.8-0.3-5.5-1c-1.7-0.7-3.1-1.6-4.3-2.8c-1.2-1.2-2.1-2.7-2.7-4.3
			s-1-3.5-1-5.5c0-2.1,0.3-4,0.9-5.8c0.6-1.8,1.5-3.3,2.7-4.6c1.2-1.3,2.6-2.3,4.3-3c1.7-0.7,3.6-1.1,5.8-1.1c1.6,0,3.1,0.2,4.6,0.6
			c1.5,0.4,2.8,1,3.9,1.9c1.2,0.8,2.1,1.9,2.8,3.2c0.7,1.3,1.1,2.8,1.2,4.5h-7.2C187.8,44,186,42.5,182.9,42.5z"/>
		<path class="st2" d="M207.9,27.4v19.8l9.3-9.6h8.7l-10.1,9.8L227,64.4h-8.9l-7.4-12l-2.8,2.7v9.2h-7.4v-37H207.9z"/>
		<path class="st2" d="M237.1,27.4v37h-7.4v-37H237.1z"/>
		<path class="st2" d="M250.8,58c1.1,1.1,2.7,1.6,4.8,1.6c1.5,0,2.8-0.4,3.8-1.1c1.1-0.7,1.7-1.5,2-2.4h6.5c-1,3.2-2.6,5.5-4.8,6.9
			c-2.1,1.4-4.7,2.1-7.8,2.1c-2.1,0-4-0.3-5.7-1c-1.7-0.7-3.1-1.6-4.3-2.9c-1.2-1.2-2.1-2.7-2.7-4.5c-0.6-1.7-1-3.6-1-5.7
			c0-2,0.3-3.9,1-5.6c0.7-1.7,1.6-3.2,2.8-4.5s2.7-2.3,4.3-3c1.7-0.7,3.5-1.1,5.6-1.1c2.3,0,4.3,0.4,6,1.3c1.7,0.9,3.1,2.1,4.2,3.5
			c1.1,1.5,1.9,3.2,2.4,5.1c0.5,1.9,0.7,3.9,0.5,6H249C249.1,55.2,249.7,56.9,250.8,58z M259.1,43.9c-0.9-1-2.2-1.5-4-1.5
			c-1.2,0-2.2,0.2-2.9,0.6c-0.8,0.4-1.4,0.9-1.9,1.5c-0.5,0.6-0.8,1.2-1,1.9c-0.2,0.7-0.3,1.2-0.3,1.8h12
			C260.6,46.3,260,44.9,259.1,43.9z"/>
		<path class="st2" d="M311.6,37.3c-0.5-0.8-1.1-1.5-1.8-2c-0.7-0.6-1.5-1-2.5-1.4s-1.9-0.5-2.9-0.5c-1.8,0-3.4,0.4-4.7,1.1
			c-1.3,0.7-2.3,1.7-3.1,2.9c-0.8,1.2-1.4,2.5-1.7,4.1c-0.4,1.5-0.5,3.1-0.5,4.7c0,1.6,0.2,3.1,0.5,4.5c0.4,1.5,0.9,2.8,1.7,4
			c0.8,1.2,1.8,2.1,3.1,2.8c1.3,0.7,2.8,1.1,4.7,1.1c2.5,0,4.4-0.8,5.8-2.3c1.4-1.5,2.3-3.5,2.6-6h7.9c-0.2,2.3-0.7,4.4-1.6,6.3
			c-0.9,1.9-2,3.5-3.4,4.8c-1.4,1.3-3.1,2.3-5,3c-1.9,0.7-4,1-6.3,1c-2.8,0-5.4-0.5-7.6-1.5c-2.3-1-4.2-2.3-5.7-4.1
			c-1.6-1.7-2.7-3.8-3.6-6.1c-0.8-2.3-1.2-4.8-1.2-7.5c0-2.8,0.4-5.3,1.2-7.7c0.8-2.4,2-4.4,3.6-6.2c1.6-1.8,3.5-3.1,5.7-4.1
			c2.3-1,4.8-1.5,7.6-1.5c2,0,4,0.3,5.8,0.9c1.8,0.6,3.4,1.4,4.9,2.6c1.4,1.1,2.6,2.5,3.5,4.2c0.9,1.7,1.5,3.6,1.8,5.7h-7.9
			C312.4,38.9,312.1,38.1,311.6,37.3z"/>
		<path class="st2" d="M333.4,58c1.1,1.1,2.7,1.6,4.8,1.6c1.5,0,2.8-0.4,3.8-1.1c1.1-0.7,1.7-1.5,2-2.4h6.5c-1,3.2-2.6,5.5-4.8,6.9
			c-2.1,1.4-4.7,2.1-7.8,2.1c-2.1,0-4-0.3-5.7-1c-1.7-0.7-3.1-1.6-4.3-2.9c-1.2-1.2-2.1-2.7-2.7-4.5c-0.6-1.7-1-3.6-1-5.7
			c0-2,0.3-3.9,1-5.6s1.6-3.2,2.8-4.5c1.2-1.3,2.7-2.3,4.3-3s3.5-1.1,5.6-1.1c2.3,0,4.3,0.4,6,1.3c1.7,0.9,3.1,2.1,4.2,3.5
			c1.1,1.5,1.9,3.2,2.4,5.1c0.5,1.9,0.7,3.9,0.5,6h-19.3C331.7,55.2,332.3,56.9,333.4,58z M341.7,43.9c-0.9-1-2.2-1.5-4-1.5
			c-1.2,0-2.2,0.2-2.9,0.6c-0.8,0.4-1.4,0.9-1.9,1.5c-0.5,0.6-0.8,1.2-1,1.9c-0.2,0.7-0.3,1.2-0.3,1.8h12
			C343.2,46.3,342.6,44.9,341.7,43.9z"/>
		<path class="st2" d="M362.8,27.4v37h-7.4v-37H362.8z"/>
		<path class="st2" d="M376.2,27.4v37h-7.4v-37H376.2z"/>
		<path class="st2" d="M415.6,27.4l13.8,37H421l-2.8-8.2h-13.8l-2.9,8.2h-8.2l14-37H415.6z M416.1,50.1l-4.7-13.6h-0.1l-4.8,13.6
			H416.1z"/>
		<path class="st2" d="M438.9,37.6v3.7h0.2c0.9-1.6,2.1-2.7,3.6-3.4c1.5-0.7,3-1.1,4.6-1.1c2,0,3.6,0.3,4.8,0.8s2.3,1.3,3,2.2
			c0.7,1,1.2,2.1,1.5,3.5c0.3,1.4,0.4,2.9,0.4,4.5v16.5h-7.4V49.3c0-2.2-0.3-3.9-1-4.9c-0.7-1.1-1.9-1.6-3.7-1.6
			c-2,0-3.5,0.6-4.4,1.8c-0.9,1.2-1.3,3.2-1.3,5.9v14h-7.4V37.6H438.9z"/>
		<path class="st2" d="M470.5,58c1.1,1.1,2.7,1.6,4.8,1.6c1.5,0,2.8-0.4,3.8-1.1c1.1-0.7,1.7-1.5,2-2.4h6.5c-1,3.2-2.6,5.5-4.8,6.9
			c-2.1,1.4-4.7,2.1-7.8,2.1c-2.1,0-4-0.3-5.7-1c-1.7-0.7-3.1-1.6-4.3-2.9c-1.2-1.2-2.1-2.7-2.7-4.5c-0.6-1.7-1-3.6-1-5.7
			c0-2,0.3-3.9,1-5.6s1.6-3.2,2.8-4.5c1.2-1.3,2.7-2.3,4.3-3s3.5-1.1,5.6-1.1c2.3,0,4.3,0.4,6,1.3c1.7,0.9,3.1,2.1,4.2,3.5
			c1.1,1.5,1.9,3.2,2.4,5.1c0.5,1.9,0.7,3.9,0.5,6h-19.3C468.8,55.2,469.4,56.9,470.5,58z M478.8,43.9c-0.9-1-2.2-1.5-4-1.5
			c-1.2,0-2.2,0.2-2.9,0.6c-0.8,0.4-1.4,0.9-1.9,1.5c-0.5,0.6-0.8,1.2-1,1.9c-0.2,0.7-0.3,1.2-0.3,1.8h12
			C480.3,46.3,479.7,44.9,478.8,43.9z"/>
		<path class="st2" d="M499.5,37.6v3.6h0.1c1-1.4,2.1-2.5,3.5-3.2c1.4-0.8,2.9-1.1,4.7-1.1c1.7,0,3.2,0.3,4.6,1
			c1.4,0.7,2.5,1.8,3.2,3.5c0.8-1.2,1.9-2.2,3.2-3.1c1.4-0.9,3-1.3,4.8-1.3c1.4,0,2.7,0.2,3.9,0.5c1.2,0.3,2.2,0.9,3.1,1.7
			c0.9,0.8,1.5,1.8,2,3c0.5,1.2,0.7,2.7,0.7,4.4v17.9h-7.4V49.2c0-0.9,0-1.7-0.1-2.5c-0.1-0.8-0.3-1.5-0.6-2.1
			c-0.3-0.6-0.8-1.1-1.4-1.4c-0.6-0.3-1.4-0.5-2.5-0.5s-1.9,0.2-2.5,0.6c-0.6,0.4-1.1,0.9-1.5,1.6s-0.6,1.4-0.7,2.2
			c-0.1,0.8-0.2,1.6-0.2,2.5v14.9h-7.4v-15c0-0.8,0-1.6-0.1-2.4c0-0.8-0.2-1.5-0.4-2.2c-0.3-0.7-0.7-1.2-1.3-1.6
			c-0.6-0.4-1.5-0.6-2.7-0.6c-0.3,0-0.8,0.1-1.4,0.2c-0.6,0.2-1.1,0.4-1.7,0.9c-0.5,0.4-1,1.1-1.4,1.9c-0.4,0.8-0.6,1.9-0.6,3.2
			v15.5h-7.4V37.6H499.5z"/>
		<path class="st2" d="M539.5,33.5v-6.1h7.4v6.1H539.5z M546.9,37.6v26.8h-7.4V37.6H546.9z"/>
		<path class="st2" d="M552.4,45.9c0.1-1.7,0.5-3.2,1.3-4.3c0.8-1.1,1.7-2.1,2.9-2.7c1.2-0.7,2.5-1.2,4-1.5c1.5-0.3,2.9-0.4,4.4-0.4
			c1.3,0,2.7,0.1,4.1,0.3c1.4,0.2,2.6,0.6,3.8,1.1c1.1,0.6,2.1,1.3,2.8,2.3c0.7,1,1.1,2.3,1.1,3.9v13.9c0,1.2,0.1,2.4,0.2,3.5
			c0.1,1.1,0.4,1.9,0.7,2.5h-7.5c-0.1-0.4-0.3-0.8-0.3-1.3c-0.1-0.4-0.1-0.9-0.2-1.3c-1.2,1.2-2.6,2.1-4.1,2.5
			c-1.6,0.5-3.2,0.7-4.9,0.7c-1.3,0-2.5-0.2-3.6-0.5c-1.1-0.3-2.1-0.8-2.9-1.5c-0.8-0.7-1.5-1.5-1.9-2.5c-0.5-1-0.7-2.2-0.7-3.6
			c0-1.5,0.3-2.8,0.8-3.8c0.5-1,1.2-1.8,2.1-2.4c0.8-0.6,1.8-1,2.9-1.3c1.1-0.3,2.2-0.5,3.3-0.7c1.1-0.2,2.2-0.3,3.3-0.4
			c1.1-0.1,2-0.3,2.9-0.5c0.8-0.2,1.5-0.5,2-0.9c0.5-0.4,0.7-1,0.7-1.7c0-0.8-0.1-1.4-0.4-1.9c-0.3-0.5-0.6-0.8-1-1.1
			S567,42,566.5,42c-0.6-0.1-1.2-0.1-1.8-0.1c-1.5,0-2.6,0.3-3.4,0.9c-0.8,0.6-1.3,1.7-1.5,3.1H552.4z M569.4,51.3
			c-0.3,0.3-0.7,0.5-1.2,0.6c-0.5,0.2-1,0.3-1.5,0.4c-0.5,0.1-1.1,0.2-1.7,0.3c-0.6,0.1-1.2,0.2-1.8,0.3c-0.6,0.1-1.1,0.2-1.6,0.4
			c-0.5,0.2-1,0.4-1.4,0.7c-0.4,0.3-0.7,0.7-1,1.1c-0.2,0.4-0.4,1-0.4,1.7c0,0.7,0.1,1.2,0.4,1.7c0.2,0.4,0.6,0.8,1,1.1
			c0.4,0.3,0.9,0.4,1.5,0.5c0.6,0.1,1.1,0.2,1.7,0.2c1.5,0,2.6-0.2,3.4-0.7c0.8-0.5,1.4-1.1,1.8-1.7c0.4-0.7,0.6-1.4,0.7-2
			c0.1-0.7,0.1-1.2,0.1-1.7V51.3z"/>
		<g>
			<path class="st2" d="M140.3,103.2c-1.5,1.4-3.6,2.1-6.3,2.1c-2.8,0-5-0.7-6.5-2c-1.6-1.3-2.3-3.4-2.3-6.3V83.2h2.9V97
				c0,1.9,0.5,3.4,1.5,4.4c1,1,2.5,1.5,4.4,1.5c1.8,0,3.2-0.5,4.2-1.5c1-1,1.4-2.5,1.4-4.4V83.2h2.9V97
				C142.5,99.8,141.8,101.8,140.3,103.2z"/>
			<path class="st2" d="M149.1,89.2v2.5h0.1c1.1-1.9,2.8-2.8,5.1-2.8c1,0,1.9,0.1,2.6,0.4c0.7,0.3,1.2,0.7,1.7,1.2
				c0.4,0.5,0.7,1.1,0.9,1.8c0.2,0.7,0.3,1.5,0.3,2.3v10.3h-2.6V94.2c0-1-0.3-1.7-0.8-2.3c-0.6-0.6-1.3-0.8-2.3-0.8
				c-0.8,0-1.5,0.1-2,0.4c-0.6,0.2-1.1,0.6-1.4,1c-0.4,0.4-0.7,1-0.9,1.6c-0.2,0.6-0.3,1.2-0.3,1.9v8.8h-2.6V89.2H149.1z"/>
			<path class="st2" d="M174.9,104.8v-2.1h-0.1c-0.4,0.9-1.1,1.5-2,1.9c-0.9,0.4-1.9,0.6-3,0.6c-1.2,0-2.3-0.2-3.2-0.7
				c-0.9-0.4-1.6-1-2.2-1.8c-0.6-0.7-1-1.6-1.3-2.6c-0.3-1-0.5-2-0.5-3.1c0-1.1,0.1-2.2,0.4-3.1c0.3-1,0.7-1.8,1.3-2.6
				c0.6-0.7,1.3-1.3,2.2-1.8c0.9-0.4,1.9-0.6,3.1-0.6c0.4,0,0.8,0,1.3,0.1c0.5,0.1,0.9,0.2,1.4,0.4c0.5,0.2,0.9,0.4,1.3,0.8
				c0.4,0.3,0.8,0.7,1,1.2h0.1v-8h2.6v21.6H174.9z M165.7,99.3c0.2,0.7,0.5,1.3,0.9,1.9s0.9,1,1.5,1.3c0.6,0.3,1.3,0.5,2.2,0.5
				c0.9,0,1.6-0.2,2.2-0.5c0.6-0.3,1.1-0.8,1.5-1.3c0.4-0.6,0.7-1.2,0.8-1.9c0.2-0.7,0.3-1.4,0.3-2.1c0-0.8-0.1-1.5-0.3-2.2
				c-0.2-0.7-0.5-1.3-0.9-1.9s-0.9-1-1.5-1.3c-0.6-0.3-1.4-0.5-2.3-0.5c-0.9,0-1.6,0.2-2.2,0.5c-0.6,0.3-1.1,0.8-1.5,1.4
				c-0.4,0.6-0.6,1.2-0.8,1.9c-0.2,0.7-0.2,1.5-0.2,2.2C165.4,97.9,165.5,98.6,165.7,99.3z"/>
			<path class="st2" d="M192.5,103.8c-1.2,0.9-2.6,1.3-4.4,1.3c-1.2,0-2.3-0.2-3.2-0.6c-0.9-0.4-1.7-1-2.3-1.7
				c-0.6-0.7-1.1-1.6-1.4-2.6c-0.3-1-0.5-2.1-0.5-3.3c0-1.2,0.2-2.3,0.5-3.3c0.4-1,0.9-1.8,1.5-2.6c0.7-0.7,1.4-1.3,2.3-1.7
				c0.9-0.4,1.9-0.6,2.9-0.6c1.4,0,2.5,0.3,3.5,0.9c0.9,0.6,1.7,1.3,2.2,2.2c0.6,0.9,0.9,1.9,1.1,2.9c0.2,1,0.3,2,0.3,3h-11.7
				c0,0.7,0.1,1.3,0.2,1.9c0.2,0.6,0.5,1.2,0.9,1.6s0.9,0.9,1.5,1.1c0.6,0.3,1.4,0.4,2.2,0.4c1.1,0,2-0.3,2.7-0.8
				c0.7-0.5,1.2-1.3,1.4-2.3h2.5C194.4,101.6,193.7,102.9,192.5,103.8z M191.9,93.8c-0.2-0.5-0.5-1-0.9-1.4
				c-0.4-0.4-0.9-0.7-1.4-0.9c-0.5-0.2-1.1-0.3-1.8-0.3c-0.7,0-1.3,0.1-1.8,0.3c-0.5,0.2-1,0.5-1.4,1c-0.4,0.4-0.7,0.9-0.9,1.4
				c-0.2,0.5-0.4,1.1-0.4,1.7h9C192.2,94.9,192.1,94.3,191.9,93.8z"/>
			<path class="st2" d="M200,89.2v3.3h0.1c0.6-1.3,1.4-2.2,2.3-2.8c0.9-0.6,2.1-0.9,3.4-0.8v2.7c-1,0-1.9,0.1-2.6,0.4
				c-0.7,0.3-1.3,0.7-1.8,1.2c-0.4,0.5-0.8,1.2-1,2c-0.2,0.8-0.3,1.7-0.3,2.7v7h-2.6V89.2H200z"/>
			<path class="st2" d="M209.7,101.3c0.2,0.4,0.6,0.7,1,0.9c0.4,0.2,0.8,0.4,1.3,0.5c0.5,0.1,1,0.2,1.5,0.2c0.4,0,0.8,0,1.3-0.1
				c0.4-0.1,0.9-0.2,1.2-0.3c0.4-0.2,0.7-0.4,0.9-0.7c0.2-0.3,0.4-0.7,0.4-1.2c0-0.7-0.3-1.2-0.8-1.5c-0.5-0.3-1.1-0.6-1.9-0.8
				s-1.6-0.4-2.5-0.6c-0.9-0.2-1.7-0.4-2.5-0.7c-0.8-0.3-1.4-0.7-1.9-1.3c-0.5-0.6-0.8-1.4-0.8-2.4c0-0.8,0.2-1.5,0.5-2
				c0.4-0.6,0.8-1,1.4-1.4s1.2-0.6,1.9-0.8c0.7-0.2,1.4-0.3,2.1-0.3c0.9,0,1.7,0.1,2.4,0.2c0.7,0.2,1.4,0.4,2,0.8
				c0.6,0.4,1,0.9,1.4,1.5c0.3,0.6,0.5,1.4,0.6,2.4h-2.6c0-0.5-0.2-0.9-0.4-1.3c-0.2-0.3-0.5-0.6-0.8-0.8c-0.3-0.2-0.7-0.3-1.1-0.4
				c-0.4-0.1-0.8-0.1-1.3-0.1c-0.4,0-0.8,0-1.2,0.1c-0.4,0.1-0.8,0.2-1.1,0.3c-0.3,0.2-0.6,0.4-0.8,0.6c-0.2,0.3-0.3,0.6-0.3,1
				c0,0.4,0.2,0.8,0.5,1.1c0.3,0.3,0.7,0.5,1.2,0.7c0.5,0.2,1,0.4,1.6,0.5c0.6,0.1,1.2,0.3,1.8,0.4c0.6,0.1,1.3,0.3,1.9,0.5
				c0.6,0.2,1.2,0.5,1.6,0.8c0.5,0.3,0.9,0.8,1.1,1.3c0.3,0.5,0.4,1.1,0.4,1.9c0,0.9-0.2,1.7-0.6,2.4c-0.4,0.6-0.9,1.1-1.5,1.5
				c-0.6,0.4-1.4,0.6-2.1,0.8c-0.8,0.2-1.6,0.2-2.4,0.2c-0.9,0-1.7-0.1-2.5-0.3c-0.8-0.2-1.5-0.5-2.1-0.9c-0.6-0.4-1.1-1-1.5-1.6
				c-0.4-0.7-0.6-1.5-0.6-2.5h2.6C209.3,100.5,209.5,100.9,209.7,101.3z"/>
			<path class="st2" d="M229.5,89.2v2.3h-3.1v9.7c0,0.3,0,0.5,0.1,0.7c0.1,0.2,0.1,0.3,0.3,0.4c0.1,0.1,0.3,0.2,0.6,0.2
				c0.3,0,0.6,0,1,0h1.2v2.3h-2c-0.7,0-1.2,0-1.7-0.1c-0.5-0.1-0.9-0.3-1.1-0.5c-0.3-0.2-0.5-0.6-0.7-1c-0.1-0.4-0.2-1-0.2-1.8v-9.9
				h-2.7v-2.3h2.7v-4.7h2.6v4.7H229.5z"/>
			<path class="st2" d="M246.2,104.8c-0.4,0.3-1.1,0.4-1.8,0.4c-0.7,0-1.2-0.2-1.6-0.6c-0.4-0.4-0.6-1-0.6-1.8
				c-0.7,0.8-1.5,1.5-2.5,1.8c-0.9,0.4-1.9,0.6-3,0.6c-0.7,0-1.4-0.1-2-0.2c-0.6-0.2-1.2-0.4-1.6-0.8c-0.5-0.3-0.8-0.8-1.1-1.3
				c-0.3-0.6-0.4-1.2-0.4-2c0-0.9,0.2-1.6,0.5-2.2c0.3-0.6,0.7-1,1.2-1.4c0.5-0.4,1.1-0.6,1.7-0.8c0.6-0.2,1.3-0.3,1.9-0.5
				c0.7-0.1,1.4-0.2,2-0.3c0.6-0.1,1.2-0.2,1.7-0.3c0.5-0.1,0.9-0.3,1.1-0.6c0.3-0.3,0.4-0.6,0.4-1.1c0-0.6-0.1-1-0.3-1.4
				c-0.2-0.3-0.5-0.6-0.8-0.8c-0.3-0.2-0.7-0.3-1.1-0.4c-0.4-0.1-0.8-0.1-1.2-0.1c-1.1,0-2,0.2-2.7,0.6c-0.7,0.4-1.1,1.2-1.2,2.3
				h-2.6c0-1,0.2-1.8,0.6-2.4c0.4-0.7,0.8-1.2,1.5-1.6c0.6-0.4,1.3-0.7,2.1-0.9c0.8-0.2,1.6-0.3,2.5-0.3c0.7,0,1.4,0.1,2.1,0.2
				c0.7,0.1,1.3,0.3,1.9,0.6c0.6,0.3,1,0.7,1.4,1.3c0.3,0.6,0.5,1.3,0.5,2.2v8c0,0.6,0,1,0.1,1.3c0.1,0.3,0.3,0.4,0.7,0.4
				c0.2,0,0.5,0,0.8-0.1V104.8z M242,96.7c-0.3,0.2-0.7,0.4-1.3,0.5s-1.1,0.2-1.6,0.3c-0.6,0.1-1.2,0.2-1.7,0.2
				c-0.6,0.1-1.1,0.2-1.6,0.4c-0.5,0.2-0.8,0.5-1.1,0.9s-0.4,0.9-0.4,1.5c0,0.4,0.1,0.8,0.3,1.1c0.2,0.3,0.4,0.5,0.7,0.7
				c0.3,0.2,0.6,0.3,1,0.4c0.4,0.1,0.7,0.1,1.1,0.1c0.8,0,1.6-0.1,2.2-0.3c0.6-0.2,1.1-0.5,1.5-0.9c0.4-0.4,0.7-0.7,0.8-1.1
				c0.2-0.4,0.3-0.8,0.3-1.2V96.7z"/>
			<path class="st2" d="M251,89.2v2.5h0.1c1.1-1.9,2.8-2.8,5.1-2.8c1,0,1.9,0.1,2.6,0.4c0.7,0.3,1.2,0.7,1.7,1.2
				c0.4,0.5,0.7,1.1,0.9,1.8c0.2,0.7,0.3,1.5,0.3,2.3v10.3H259V94.2c0-1-0.3-1.7-0.8-2.3c-0.6-0.6-1.3-0.8-2.3-0.8
				c-0.8,0-1.5,0.1-2,0.4c-0.6,0.2-1.1,0.6-1.4,1c-0.4,0.4-0.7,1-0.9,1.6c-0.2,0.6-0.3,1.2-0.3,1.9v8.8h-2.6V89.2H251z"/>
			<path class="st2" d="M276.8,104.8v-2.1h-0.1c-0.4,0.9-1.1,1.5-2,1.9c-0.9,0.4-1.9,0.6-3,0.6c-1.2,0-2.3-0.2-3.2-0.7
				s-1.6-1-2.2-1.8c-0.6-0.7-1-1.6-1.3-2.6c-0.3-1-0.5-2-0.5-3.1c0-1.1,0.1-2.2,0.4-3.1c0.3-1,0.7-1.8,1.3-2.6
				c0.6-0.7,1.3-1.3,2.2-1.8c0.9-0.4,1.9-0.6,3.1-0.6c0.4,0,0.8,0,1.3,0.1c0.5,0.1,0.9,0.2,1.4,0.4c0.5,0.2,0.9,0.4,1.3,0.8
				c0.4,0.3,0.8,0.7,1,1.2h0.1v-8h2.6v21.6H276.8z M267.6,99.3c0.2,0.7,0.5,1.3,0.9,1.9c0.4,0.5,0.9,1,1.5,1.3
				c0.6,0.3,1.3,0.5,2.2,0.5c0.9,0,1.6-0.2,2.2-0.5c0.6-0.3,1.1-0.8,1.5-1.3c0.4-0.6,0.7-1.2,0.8-1.9c0.2-0.7,0.3-1.4,0.3-2.1
				c0-0.8-0.1-1.5-0.3-2.2c-0.2-0.7-0.5-1.3-0.9-1.9c-0.4-0.5-0.9-1-1.5-1.3c-0.6-0.3-1.4-0.5-2.3-0.5c-0.9,0-1.6,0.2-2.2,0.5
				c-0.6,0.3-1.1,0.8-1.5,1.4c-0.4,0.6-0.6,1.2-0.8,1.9c-0.2,0.7-0.2,1.5-0.2,2.2C267.3,97.9,267.4,98.6,267.6,99.3z"/>
			<path class="st2" d="M283.5,86.4v-3.1h2.6v3.1H283.5z M286.1,89.2v15.6h-2.6V89.2H286.1z"/>
			<path class="st2" d="M292.5,89.2v2.5h0.1c1.1-1.9,2.8-2.8,5.1-2.8c1,0,1.9,0.1,2.6,0.4c0.7,0.3,1.2,0.7,1.7,1.2
				c0.4,0.5,0.7,1.1,0.9,1.8c0.2,0.7,0.3,1.5,0.3,2.3v10.3h-2.6V94.2c0-1-0.3-1.7-0.8-2.3c-0.6-0.6-1.3-0.8-2.3-0.8
				c-0.8,0-1.5,0.1-2,0.4c-0.6,0.2-1.1,0.6-1.4,1c-0.4,0.4-0.7,1-0.9,1.6s-0.3,1.2-0.3,1.9v8.8H290V89.2H292.5z"/>
			<path class="st2" d="M318.6,109.2c-1.2,1.3-3,1.9-5.5,1.9c-0.7,0-1.5-0.1-2.2-0.2c-0.8-0.2-1.4-0.4-2.1-0.8
				c-0.6-0.4-1.1-0.8-1.5-1.4c-0.4-0.6-0.6-1.3-0.7-2.1h2.6c0,0.5,0.2,0.9,0.4,1.2c0.3,0.3,0.6,0.6,1,0.8c0.4,0.2,0.8,0.3,1.3,0.4
				c0.5,0.1,0.9,0.1,1.3,0.1c0.8,0,1.6-0.1,2.1-0.4c0.6-0.3,1.1-0.7,1.5-1.2c0.4-0.5,0.7-1.1,0.8-1.9c0.2-0.7,0.3-1.5,0.3-2.4v-1
				h-0.1c-0.4,1-1.1,1.7-2,2.1c-0.9,0.5-1.9,0.7-2.9,0.7c-1.2,0-2.2-0.2-3.1-0.6c-0.9-0.4-1.6-1-2.2-1.7c-0.6-0.7-1-1.6-1.3-2.5
				c-0.3-1-0.4-2-0.4-3c0-0.9,0.1-1.9,0.4-2.9c0.2-1,0.6-1.9,1.2-2.7c0.6-0.8,1.3-1.5,2.2-2c0.9-0.5,2.1-0.8,3.4-0.8
				c1,0,1.9,0.2,2.7,0.6c0.8,0.4,1.5,1.1,1.9,1.9h0v-2.2h2.4v14.3C320.3,106,319.8,108,318.6,109.2z M315.3,102.2
				c0.6-0.4,1.1-0.8,1.4-1.4c0.4-0.6,0.6-1.2,0.8-1.9c0.2-0.7,0.3-1.5,0.3-2.2c0-0.7-0.1-1.4-0.2-2c-0.2-0.7-0.4-1.3-0.8-1.8
				c-0.4-0.5-0.8-1-1.4-1.3c-0.6-0.3-1.2-0.5-2.1-0.5c-0.8,0-1.5,0.2-2.1,0.5c-0.6,0.3-1.1,0.7-1.4,1.3c-0.4,0.5-0.6,1.1-0.8,1.8
				c-0.2,0.7-0.3,1.4-0.3,2.1c0,0.7,0.1,1.4,0.2,2.1c0.1,0.7,0.4,1.3,0.7,1.9c0.3,0.6,0.8,1,1.4,1.4c0.6,0.4,1.3,0.5,2.1,0.5
				S314.7,102.6,315.3,102.2z"/>
			<path class="st2" d="M339.3,89.2v2.3h-3.1v9.7c0,0.3,0,0.5,0.1,0.7c0.1,0.2,0.1,0.3,0.3,0.4c0.1,0.1,0.3,0.2,0.6,0.2
				c0.3,0,0.6,0,1,0h1.2v2.3h-2c-0.7,0-1.2,0-1.7-0.1c-0.5-0.1-0.9-0.3-1.1-0.5c-0.3-0.2-0.5-0.6-0.7-1c-0.1-0.4-0.2-1-0.2-1.8v-9.9
				h-2.7v-2.3h2.7v-4.7h2.6v4.7H339.3z"/>
			<path class="st2" d="M344.7,83.2v8.3h0.1c0.2-0.5,0.5-0.9,0.8-1.2c0.4-0.3,0.8-0.6,1.2-0.8c0.5-0.2,0.9-0.4,1.4-0.5
				c0.5-0.1,1-0.2,1.4-0.2c1,0,1.9,0.1,2.6,0.4c0.7,0.3,1.2,0.7,1.7,1.2c0.4,0.5,0.7,1.1,0.9,1.8c0.2,0.7,0.3,1.5,0.3,2.3v10.3h-2.6
				V94.2c0-1-0.3-1.7-0.8-2.3c-0.6-0.6-1.3-0.8-2.3-0.8c-0.8,0-1.5,0.1-2,0.4c-0.6,0.2-1.1,0.6-1.4,1c-0.4,0.4-0.7,1-0.9,1.6
				s-0.3,1.2-0.3,1.9v8.8h-2.6V83.2H344.7z"/>
			<path class="st2" d="M370,103.8c-1.2,0.9-2.6,1.3-4.4,1.3c-1.2,0-2.3-0.2-3.3-0.6c-0.9-0.4-1.7-1-2.3-1.7
				c-0.6-0.7-1.1-1.6-1.4-2.6c-0.3-1-0.5-2.1-0.5-3.3c0-1.2,0.2-2.3,0.5-3.3c0.4-1,0.9-1.8,1.5-2.6c0.7-0.7,1.4-1.3,2.3-1.7
				c0.9-0.4,1.9-0.6,2.9-0.6c1.4,0,2.5,0.3,3.5,0.9c0.9,0.6,1.7,1.3,2.2,2.2c0.6,0.9,0.9,1.9,1.1,2.9c0.2,1,0.3,2,0.3,3h-11.7
				c0,0.7,0.1,1.3,0.2,1.9c0.2,0.6,0.5,1.2,0.9,1.6c0.4,0.5,0.9,0.9,1.5,1.1c0.6,0.3,1.4,0.4,2.2,0.4c1.1,0,2-0.3,2.7-0.8
				c0.7-0.5,1.2-1.3,1.4-2.3h2.5C371.9,101.6,371.2,102.9,370,103.8z M369.4,93.8c-0.2-0.5-0.5-1-0.9-1.4c-0.4-0.4-0.9-0.7-1.4-0.9
				c-0.5-0.2-1.1-0.3-1.8-0.3c-0.7,0-1.3,0.1-1.8,0.3c-0.5,0.2-1,0.5-1.4,1c-0.4,0.4-0.7,0.9-0.9,1.4c-0.2,0.5-0.4,1.1-0.4,1.7h9
				C369.7,94.9,369.6,94.3,369.4,93.8z"/>
			<path class="st2" d="M397,104.6c-1.2,0.5-2.5,0.7-3.8,0.7c-1.6,0-3.1-0.3-4.3-0.9c-1.3-0.6-2.3-1.4-3.2-2.4c-0.9-1-1.6-2.2-2-3.5
				c-0.5-1.3-0.7-2.7-0.7-4.1c0-1.6,0.2-3.1,0.6-4.5c0.4-1.4,1.1-2.7,1.9-3.7c0.9-1.1,1.9-1.9,3.2-2.6c1.3-0.6,2.8-1,4.5-1
				c1.2,0,2.3,0.1,3.3,0.4c1,0.3,2,0.7,2.8,1.3c0.8,0.6,1.5,1.3,2.1,2.2c0.6,0.9,0.9,2,1.1,3.2h-2.9c-0.1-0.8-0.4-1.5-0.8-2.1
				c-0.4-0.6-0.9-1.1-1.4-1.5c-0.6-0.4-1.2-0.7-1.9-0.9c-0.7-0.2-1.5-0.3-2.3-0.3c-1.3,0-2.4,0.3-3.4,0.8c-0.9,0.5-1.7,1.2-2.3,2.1
				c-0.6,0.9-1,1.8-1.3,2.9c-0.3,1.1-0.4,2.2-0.4,3.4c0,1.1,0.2,2.2,0.5,3.3c0.3,1,0.8,2,1.4,2.8c0.6,0.8,1.4,1.4,2.3,1.9
				c0.9,0.5,2,0.7,3.2,0.7c1.1,0,2.1-0.2,3-0.5c0.9-0.4,1.6-0.9,2.2-1.5c0.6-0.6,1-1.4,1.3-2.2c0.3-0.9,0.4-1.8,0.4-2.8h-6.9v-2.4
				h9.5v11.4h-1.8l-0.8-2.7C399.3,103.3,398.2,104.1,397,104.6z"/>
			<path class="st2" d="M409.2,83.2v21.6h-2.6V83.2H409.2z"/>
			<path class="st2" d="M412.9,93.8c0.3-1,0.8-1.9,1.5-2.6c0.6-0.7,1.4-1.3,2.4-1.7c0.9-0.4,2-0.6,3.3-0.6c1.2,0,2.3,0.2,3.3,0.6
				c0.9,0.4,1.7,1,2.4,1.7c0.6,0.7,1.1,1.6,1.5,2.6c0.3,1,0.5,2.1,0.5,3.2c0,1.1-0.2,2.2-0.5,3.2c-0.3,1-0.8,1.8-1.5,2.6
				c-0.6,0.7-1.4,1.3-2.4,1.7c-0.9,0.4-2,0.6-3.3,0.6c-1.2,0-2.3-0.2-3.3-0.6c-0.9-0.4-1.7-1-2.4-1.7c-0.6-0.7-1.1-1.6-1.5-2.6
				c-0.3-1-0.5-2.1-0.5-3.2C412.4,95.9,412.5,94.8,412.9,93.8z M415.5,99.5c0.3,0.7,0.6,1.4,1,1.8c0.4,0.5,1,0.9,1.6,1.1
				c0.6,0.3,1.2,0.4,1.9,0.4c0.7,0,1.3-0.1,1.9-0.4c0.6-0.3,1.1-0.6,1.6-1.1c0.4-0.5,0.8-1.1,1-1.8c0.3-0.7,0.4-1.6,0.4-2.5
				c0-0.9-0.1-1.8-0.4-2.5c-0.3-0.7-0.6-1.4-1-1.9c-0.4-0.5-1-0.9-1.6-1.1c-0.6-0.3-1.2-0.4-1.9-0.4c-0.7,0-1.3,0.1-1.9,0.4
				c-0.6,0.3-1.1,0.6-1.6,1.1c-0.4,0.5-0.8,1.1-1,1.9c-0.3,0.7-0.4,1.6-0.4,2.5C415.1,98,415.2,98.8,415.5,99.5z"/>
			<path class="st2" d="M433.2,83.2v8.1h0.1c0.4-0.9,1.1-1.5,2-1.9c0.9-0.4,1.9-0.6,3-0.6c1.2,0,2.3,0.2,3.2,0.7
				c0.9,0.4,1.6,1,2.2,1.8c0.6,0.8,1,1.6,1.3,2.6c0.3,1,0.5,2,0.5,3.1c0,1.1-0.1,2.2-0.4,3.1c-0.3,1-0.7,1.8-1.3,2.6
				c-0.6,0.7-1.3,1.3-2.2,1.7c-0.9,0.4-1.9,0.6-3.1,0.6c-0.4,0-0.8,0-1.3-0.1c-0.5-0.1-0.9-0.2-1.4-0.4c-0.5-0.2-0.9-0.4-1.3-0.7
				c-0.4-0.3-0.8-0.7-1-1.2h-0.1v2.1h-2.6V83.2H433.2z M442.5,94.7c-0.2-0.7-0.5-1.3-0.9-1.9c-0.4-0.5-0.9-1-1.5-1.3
				c-0.6-0.3-1.3-0.5-2.2-0.5c-0.9,0-1.6,0.2-2.2,0.5c-0.6,0.3-1.1,0.8-1.5,1.3c-0.4,0.6-0.7,1.2-0.8,1.9c-0.2,0.7-0.3,1.4-0.3,2.1
				c0,0.8,0.1,1.5,0.3,2.2c0.2,0.7,0.5,1.3,0.9,1.9c0.4,0.5,0.9,1,1.5,1.3c0.6,0.3,1.4,0.5,2.3,0.5c0.9,0,1.6-0.2,2.2-0.5
				c0.6-0.3,1.1-0.8,1.4-1.4c0.4-0.6,0.6-1.2,0.8-1.9c0.2-0.7,0.2-1.5,0.2-2.2C442.8,96.1,442.7,95.4,442.5,94.7z"/>
			<path class="st2" d="M462.4,104.8c-0.4,0.3-1.1,0.4-1.8,0.4c-0.7,0-1.2-0.2-1.6-0.6c-0.4-0.4-0.6-1-0.6-1.8
				c-0.7,0.8-1.5,1.5-2.5,1.8c-0.9,0.4-1.9,0.6-3,0.6c-0.7,0-1.4-0.1-2-0.2c-0.6-0.2-1.2-0.4-1.6-0.8c-0.5-0.3-0.8-0.8-1.1-1.3
				c-0.3-0.6-0.4-1.2-0.4-2c0-0.9,0.2-1.6,0.5-2.2c0.3-0.6,0.7-1,1.2-1.4c0.5-0.4,1.1-0.6,1.7-0.8c0.6-0.2,1.3-0.3,1.9-0.5
				c0.7-0.1,1.4-0.2,2-0.3c0.6-0.1,1.2-0.2,1.7-0.3c0.5-0.1,0.9-0.3,1.1-0.6c0.3-0.3,0.4-0.6,0.4-1.1c0-0.6-0.1-1-0.3-1.4
				c-0.2-0.3-0.5-0.6-0.8-0.8c-0.3-0.2-0.7-0.3-1.1-0.4c-0.4-0.1-0.8-0.1-1.2-0.1c-1.1,0-2,0.2-2.7,0.6c-0.7,0.4-1.1,1.2-1.2,2.3
				h-2.6c0-1,0.2-1.8,0.6-2.4c0.4-0.7,0.8-1.2,1.5-1.6c0.6-0.4,1.3-0.7,2.1-0.9c0.8-0.2,1.6-0.3,2.5-0.3c0.7,0,1.4,0.1,2.1,0.2
				c0.7,0.1,1.3,0.3,1.9,0.6c0.6,0.3,1,0.7,1.4,1.3c0.3,0.6,0.5,1.3,0.5,2.2v8c0,0.6,0,1,0.1,1.3c0.1,0.3,0.3,0.4,0.7,0.4
				c0.2,0,0.5,0,0.8-0.1V104.8z M458.2,96.7c-0.3,0.2-0.7,0.4-1.3,0.5s-1.1,0.2-1.6,0.3c-0.6,0.1-1.2,0.2-1.7,0.2
				c-0.6,0.1-1.1,0.2-1.6,0.4c-0.5,0.2-0.8,0.5-1.1,0.9c-0.3,0.4-0.4,0.9-0.4,1.5c0,0.4,0.1,0.8,0.3,1.1c0.2,0.3,0.4,0.5,0.7,0.7
				c0.3,0.2,0.6,0.3,1,0.4c0.4,0.1,0.7,0.1,1.1,0.1c0.8,0,1.6-0.1,2.2-0.3c0.6-0.2,1.1-0.5,1.5-0.9c0.4-0.4,0.7-0.7,0.8-1.1
				c0.2-0.4,0.3-0.8,0.3-1.2V96.7z"/>
			<path class="st2" d="M467.5,83.2v21.6h-2.6V83.2H467.5z"/>
			<path class="st2" d="M483.3,83.2v21.6h-2.9V83.2H483.3z"/>
			<path class="st2" d="M490.1,89.2v2.3h0.1c1.2-1.8,2.9-2.7,5-2.7c1,0,1.8,0.2,2.6,0.6c0.8,0.4,1.3,1.1,1.7,2.1
				c0.5-0.8,1.2-1.5,2.1-2c0.9-0.5,1.8-0.7,2.8-0.7c0.8,0,1.5,0.1,2.1,0.3c0.6,0.2,1.2,0.4,1.6,0.8c0.5,0.4,0.8,0.8,1.1,1.4
				c0.3,0.6,0.4,1.3,0.4,2.1v11.5H507V94.6c0-0.5,0-0.9-0.1-1.4c-0.1-0.4-0.2-0.8-0.5-1.1c-0.2-0.3-0.5-0.6-0.9-0.7
				c-0.4-0.2-0.9-0.3-1.5-0.3c-1.3,0-2.3,0.4-3,1.1c-0.7,0.7-1.1,1.7-1.1,2.9v9.7h-2.6V94.6c0-0.5,0-1-0.1-1.4
				c-0.1-0.4-0.2-0.8-0.5-1.1c-0.2-0.3-0.5-0.6-0.9-0.7c-0.4-0.2-0.9-0.3-1.4-0.3c-0.7,0-1.4,0.2-1.9,0.5c-0.5,0.3-1,0.7-1.3,1.1
				c-0.3,0.4-0.6,0.9-0.7,1.3c-0.2,0.5-0.2,0.8-0.2,1.1v9.7h-2.6V89.2H490.1z"/>
			<path class="st2" d="M516.1,89.2v2.1h0.1c0.4-0.9,1.1-1.5,2-1.9c0.9-0.4,1.9-0.6,3-0.6c1.2,0,2.3,0.2,3.2,0.7
				c0.9,0.4,1.6,1,2.2,1.8c0.6,0.8,1,1.6,1.3,2.6c0.3,1,0.5,2,0.5,3.1c0,1.1-0.1,2.2-0.4,3.1c-0.3,1-0.7,1.8-1.3,2.6
				c-0.6,0.7-1.3,1.3-2.2,1.7c-0.9,0.4-1.9,0.6-3.1,0.6c-0.4,0-0.8,0-1.3-0.1c-0.5-0.1-0.9-0.2-1.4-0.4c-0.5-0.2-0.9-0.4-1.3-0.7
				c-0.4-0.3-0.8-0.7-1-1.2h-0.1v8h-2.6V89.2H516.1z M525.4,94.7c-0.2-0.7-0.5-1.3-0.9-1.9c-0.4-0.5-0.9-1-1.5-1.3
				c-0.6-0.3-1.3-0.5-2.2-0.5c-0.9,0-1.6,0.2-2.2,0.5c-0.6,0.3-1.1,0.8-1.5,1.3c-0.4,0.6-0.7,1.2-0.8,1.9c-0.2,0.7-0.3,1.4-0.3,2.1
				c0,0.8,0.1,1.5,0.3,2.2c0.2,0.7,0.5,1.3,0.9,1.9c0.4,0.5,0.9,1,1.5,1.3c0.6,0.3,1.4,0.5,2.3,0.5s1.6-0.2,2.2-0.5
				c0.6-0.3,1.1-0.8,1.4-1.4c0.4-0.6,0.6-1.2,0.8-1.9c0.2-0.7,0.2-1.5,0.2-2.2C525.7,96.1,525.6,95.4,525.4,94.7z"/>
			<path class="st2" d="M545.2,104.8c-0.4,0.3-1.1,0.4-1.8,0.4c-0.7,0-1.2-0.2-1.6-0.6c-0.4-0.4-0.6-1-0.6-1.8
				c-0.7,0.8-1.5,1.5-2.5,1.8c-0.9,0.4-1.9,0.6-3,0.6c-0.7,0-1.4-0.1-2-0.2c-0.6-0.2-1.2-0.4-1.6-0.8c-0.5-0.3-0.8-0.8-1.1-1.3
				c-0.3-0.6-0.4-1.2-0.4-2c0-0.9,0.2-1.6,0.5-2.2c0.3-0.6,0.7-1,1.2-1.4c0.5-0.4,1.1-0.6,1.7-0.8c0.6-0.2,1.3-0.3,1.9-0.5
				c0.7-0.1,1.4-0.2,2-0.3c0.6-0.1,1.2-0.2,1.7-0.3c0.5-0.1,0.9-0.3,1.1-0.6c0.3-0.3,0.4-0.6,0.4-1.1c0-0.6-0.1-1-0.3-1.4
				c-0.2-0.3-0.5-0.6-0.8-0.8c-0.3-0.2-0.7-0.3-1.1-0.4c-0.4-0.1-0.8-0.1-1.2-0.1c-1.1,0-2,0.2-2.7,0.6c-0.7,0.4-1.1,1.2-1.2,2.3
				h-2.6c0-1,0.2-1.8,0.6-2.4c0.4-0.7,0.8-1.2,1.5-1.6c0.6-0.4,1.3-0.7,2.1-0.9c0.8-0.2,1.6-0.3,2.5-0.3c0.7,0,1.4,0.1,2.1,0.2
				c0.7,0.1,1.3,0.3,1.9,0.6c0.6,0.3,1,0.7,1.4,1.3c0.3,0.6,0.5,1.3,0.5,2.2v8c0,0.6,0,1,0.1,1.3c0.1,0.3,0.3,0.4,0.7,0.4
				c0.2,0,0.5,0,0.8-0.1V104.8z M541.1,96.7c-0.3,0.2-0.7,0.4-1.3,0.5s-1.1,0.2-1.6,0.3c-0.6,0.1-1.2,0.2-1.7,0.2
				c-0.6,0.1-1.1,0.2-1.6,0.4c-0.5,0.2-0.8,0.5-1.1,0.9c-0.3,0.4-0.4,0.9-0.4,1.5c0,0.4,0.1,0.8,0.3,1.1c0.2,0.3,0.4,0.5,0.7,0.7
				c0.3,0.2,0.6,0.3,1,0.4c0.4,0.1,0.7,0.1,1.1,0.1c0.8,0,1.6-0.1,2.2-0.3c0.6-0.2,1.1-0.5,1.5-0.9c0.4-0.4,0.7-0.7,0.8-1.1
				c0.2-0.4,0.3-0.8,0.3-1.2V96.7z"/>
			<path class="st2" d="M557,91.9c-0.6-0.5-1.5-0.8-2.6-0.8c-0.9,0-1.7,0.2-2.3,0.5c-0.6,0.3-1.1,0.8-1.5,1.4
				c-0.4,0.6-0.6,1.2-0.8,1.9c-0.2,0.7-0.2,1.5-0.2,2.3c0,0.7,0.1,1.4,0.3,2.1c0.2,0.7,0.4,1.3,0.8,1.8s0.8,1,1.4,1.3
				c0.6,0.3,1.3,0.5,2.1,0.5c1.3,0,2.3-0.3,3-1c0.7-0.7,1.2-1.6,1.3-2.8h2.6c-0.3,1.9-1,3.4-2.2,4.5c-1.2,1-2.7,1.6-4.7,1.6
				c-1.2,0-2.2-0.2-3.2-0.6c-0.9-0.4-1.7-0.9-2.3-1.6c-0.6-0.7-1.1-1.5-1.4-2.5c-0.3-1-0.5-2.1-0.5-3.2c0-1.2,0.2-2.3,0.5-3.3
				c0.3-1,0.8-1.9,1.4-2.7c0.6-0.8,1.4-1.4,2.3-1.8c0.9-0.4,2-0.6,3.2-0.6c0.9,0,1.7,0.1,2.5,0.3c0.8,0.2,1.5,0.5,2.1,1
				c0.6,0.4,1.1,1,1.5,1.7c0.4,0.7,0.6,1.5,0.7,2.4h-2.7C558,93.2,557.6,92.5,557,91.9z"/>
			<path class="st2" d="M570.5,89.2v2.3h-3.1v9.7c0,0.3,0,0.5,0.1,0.7c0.1,0.2,0.1,0.3,0.3,0.4c0.1,0.1,0.3,0.2,0.6,0.2
				c0.3,0,0.6,0,1,0h1.2v2.3h-2c-0.7,0-1.2,0-1.7-0.1c-0.5-0.1-0.9-0.3-1.1-0.5c-0.3-0.2-0.5-0.6-0.7-1c-0.1-0.4-0.2-1-0.2-1.8v-9.9
				h-2.7v-2.3h2.7v-4.7h2.6v4.7H570.5z"/>
		</g>
	</g>
</g>
</svg>
