<?xml version="1.0" encoding="utf-8"?>
<!-- Generator: Adobe Illustrator 23.0.6, SVG Export Plug-In . SVG Version: 6.00 Build 0)  -->
<svg version="1.1" id="Layer_1" xmlns="http://www.w3.org/2000/svg" xmlns:xlink="http://www.w3.org/1999/xlink" x="0px" y="0px"
	 viewBox="0 0 83.88 83.88" style="enable-background:new 0 0 83.88 83.88;" xml:space="preserve">
<style type="text/css">
	.st0{fill:#F05454;}
	.st1{fill:#FFFFFF;}
	.st2{fill:none;stroke:#FFFFFF;stroke-miterlimit:10;}
</style>
<circle class="st0" cx="41.94" cy="41.94" r="41.94"/>
<g>
	<g>
		<path class="st1" d="M20.35,49.44c0,0.19,0.01,0.36,0.04,0.52c0.03,0.15,0.09,0.29,0.17,0.39s0.19,0.19,0.33,0.25
			s0.32,0.09,0.53,0.09c0.25,0,0.47-0.08,0.67-0.24c0.2-0.16,0.3-0.41,0.3-0.75c0-0.18-0.02-0.34-0.07-0.47
			c-0.05-0.13-0.13-0.25-0.24-0.36c-0.11-0.11-0.26-0.2-0.45-0.29c-0.19-0.09-0.41-0.18-0.69-0.27c-0.36-0.12-0.68-0.25-0.94-0.4
			c-0.26-0.14-0.49-0.31-0.66-0.5s-0.31-0.42-0.39-0.67s-0.12-0.55-0.12-0.88c0-0.8,0.22-1.4,0.67-1.79s1.06-0.59,1.83-0.59
			c0.36,0,0.7,0.04,1,0.12s0.57,0.21,0.79,0.38c0.22,0.18,0.4,0.4,0.52,0.68s0.19,0.61,0.19,0.99v0.23h-1.56
			c0-0.38-0.07-0.68-0.2-0.89c-0.14-0.21-0.36-0.31-0.68-0.31c-0.18,0-0.33,0.03-0.45,0.08c-0.12,0.05-0.22,0.12-0.29,0.21
			s-0.12,0.19-0.15,0.3c-0.03,0.11-0.04,0.23-0.04,0.35c0,0.25,0.05,0.46,0.16,0.63c0.11,0.17,0.33,0.33,0.68,0.47l1.26,0.54
			c0.31,0.14,0.56,0.28,0.76,0.42c0.2,0.15,0.35,0.31,0.47,0.48c0.12,0.17,0.2,0.36,0.24,0.56c0.05,0.2,0.07,0.43,0.07,0.68
			c0,0.85-0.25,1.47-0.74,1.86c-0.49,0.39-1.18,0.58-2.07,0.58c-0.92,0-1.58-0.2-1.98-0.6c-0.4-0.4-0.59-0.97-0.59-1.72V49.2h1.63
			V49.44z"/>
		<path class="st1" d="M26.49,43.55v1.34h-1.56v-1.34H26.49z M26.49,45.63v6.09h-1.56v-6.09H26.49z"/>
		<path class="st1" d="M30.49,47.39c-0.02-0.14-0.05-0.27-0.1-0.39c-0.05-0.12-0.12-0.21-0.21-0.28c-0.09-0.07-0.21-0.11-0.36-0.11
			c-0.19,0-0.34,0.04-0.46,0.13s-0.21,0.21-0.27,0.38c-0.06,0.17-0.1,0.38-0.12,0.65c-0.02,0.26-0.03,0.57-0.03,0.92
			c0,0.38,0.01,0.7,0.03,0.97c0.02,0.27,0.06,0.49,0.12,0.66c0.06,0.17,0.15,0.3,0.25,0.38c0.11,0.08,0.25,0.12,0.42,0.12
			c0.26,0,0.46-0.11,0.58-0.34c0.12-0.23,0.18-0.59,0.18-1.09h1.49c0,0.8-0.18,1.41-0.54,1.83c-0.36,0.42-0.95,0.63-1.78,0.63
			c-0.39,0-0.73-0.05-1.02-0.14c-0.29-0.09-0.53-0.26-0.72-0.51s-0.34-0.57-0.44-0.99c-0.1-0.41-0.15-0.92-0.15-1.53
			c0-0.63,0.06-1.15,0.18-1.56c0.12-0.41,0.29-0.74,0.51-0.99c0.22-0.25,0.48-0.42,0.78-0.51c0.3-0.1,0.63-0.15,1-0.15
			c0.72,0,1.27,0.21,1.64,0.63s0.55,1,0.55,1.72h-1.49C30.52,47.68,30.51,47.53,30.49,47.39z"/>
		<path class="st1" d="M34.45,47.91h0.02l1.57-2.28h1.72l-1.75,2.4l2.02,3.69h-1.72l-1.3-2.5l-0.55,0.72v1.78h-1.56v-8.08h1.56
			V47.91z"/>
		<path class="st1" d="M40.11,43.64v8.08h-1.56v-8.08H40.11z"/>
		<path class="st1" d="M42.55,49.4c0,0.18,0.01,0.36,0.04,0.53c0.03,0.17,0.07,0.32,0.13,0.45c0.06,0.13,0.14,0.24,0.24,0.32
			c0.1,0.08,0.22,0.12,0.36,0.12c0.26,0,0.46-0.09,0.58-0.28c0.12-0.19,0.2-0.48,0.25-0.86h1.4c-0.03,0.71-0.22,1.25-0.57,1.62
			c-0.35,0.37-0.89,0.55-1.64,0.55c-0.57,0-1.01-0.09-1.32-0.28c-0.32-0.19-0.55-0.44-0.7-0.75c-0.15-0.31-0.24-0.66-0.28-1.04
			c-0.03-0.38-0.05-0.77-0.05-1.16c0-0.41,0.03-0.8,0.08-1.18c0.06-0.38,0.17-0.71,0.34-1.01c0.17-0.29,0.41-0.53,0.73-0.7
			c0.32-0.17,0.74-0.26,1.27-0.26c0.45,0,0.82,0.07,1.12,0.22s0.52,0.35,0.69,0.62c0.17,0.27,0.28,0.59,0.34,0.97
			s0.09,0.81,0.09,1.27v0.35h-3.09V49.4z M44.1,47.37c-0.02-0.18-0.06-0.33-0.12-0.45c-0.06-0.12-0.14-0.22-0.24-0.28
			c-0.1-0.06-0.23-0.1-0.39-0.1s-0.29,0.04-0.39,0.11s-0.18,0.17-0.24,0.28s-0.1,0.25-0.13,0.39s-0.04,0.29-0.04,0.43v0.24h1.6
			C44.13,47.75,44.12,47.55,44.1,47.37z"/>
		<path class="st1" d="M52.46,45.08c-0.14-0.27-0.39-0.4-0.76-0.4c-0.2,0-0.37,0.05-0.5,0.16c-0.13,0.11-0.24,0.29-0.31,0.53
			c-0.08,0.25-0.13,0.57-0.16,0.96s-0.04,0.88-0.04,1.46c0,0.61,0.02,1.11,0.06,1.48c0.04,0.38,0.11,0.67,0.19,0.88
			c0.09,0.21,0.2,0.35,0.33,0.42c0.13,0.07,0.29,0.11,0.46,0.11c0.14,0,0.28-0.02,0.4-0.07c0.12-0.05,0.23-0.15,0.32-0.29
			c0.09-0.15,0.16-0.36,0.21-0.62s0.08-0.62,0.08-1.06h1.63c0,0.44-0.03,0.85-0.1,1.25c-0.07,0.39-0.19,0.74-0.38,1.03
			c-0.19,0.29-0.45,0.53-0.78,0.69s-0.77,0.25-1.31,0.25c-0.61,0-1.1-0.1-1.46-0.29s-0.64-0.48-0.83-0.85s-0.32-0.81-0.37-1.33
			c-0.06-0.51-0.08-1.08-0.08-1.7c0-0.61,0.03-1.18,0.08-1.69c0.06-0.52,0.18-0.96,0.37-1.33s0.47-0.66,0.83-0.87
			c0.36-0.21,0.85-0.31,1.46-0.31c0.58,0,1.04,0.09,1.38,0.28s0.59,0.43,0.75,0.72c0.17,0.29,0.27,0.6,0.31,0.94
			c0.04,0.34,0.06,0.65,0.06,0.95h-1.63C52.67,45.78,52.6,45.35,52.46,45.08z"/>
		<path class="st1" d="M56.59,49.4c0,0.18,0.01,0.36,0.04,0.53c0.03,0.17,0.07,0.32,0.13,0.45c0.06,0.13,0.14,0.24,0.24,0.32
			c0.1,0.08,0.22,0.12,0.36,0.12c0.26,0,0.46-0.09,0.58-0.28s0.2-0.48,0.25-0.86h1.4c-0.03,0.71-0.22,1.25-0.57,1.62
			c-0.35,0.37-0.89,0.55-1.64,0.55c-0.57,0-1.01-0.09-1.33-0.28c-0.32-0.19-0.55-0.44-0.7-0.75c-0.15-0.31-0.24-0.66-0.28-1.04
			c-0.03-0.38-0.05-0.77-0.05-1.16c0-0.41,0.03-0.8,0.08-1.18c0.06-0.38,0.17-0.71,0.34-1.01c0.17-0.29,0.41-0.53,0.73-0.7
			c0.32-0.17,0.74-0.26,1.27-0.26c0.45,0,0.82,0.07,1.12,0.22c0.29,0.15,0.52,0.35,0.68,0.62c0.17,0.27,0.28,0.59,0.34,0.97
			s0.09,0.81,0.09,1.27v0.35h-3.09V49.4z M58.14,47.37c-0.02-0.18-0.06-0.33-0.12-0.45c-0.06-0.12-0.14-0.22-0.24-0.28
			c-0.1-0.06-0.23-0.1-0.39-0.1c-0.16,0-0.29,0.04-0.39,0.11c-0.1,0.07-0.18,0.17-0.24,0.28s-0.1,0.25-0.13,0.39
			s-0.04,0.29-0.04,0.43v0.24h1.6C58.17,47.75,58.16,47.55,58.14,47.37z"/>
		<path class="st1" d="M62.11,43.64v8.08h-1.56v-8.08H62.11z"/>
		<path class="st1" d="M64.83,43.64v8.08h-1.56v-8.08H64.83z"/>
		<path class="st1" d="M26.77,55.39h0.36l2.13,5.39h-0.35l-0.68-1.73h-2.58l-0.69,1.73h-0.35L26.77,55.39z M28.13,58.77l-1.16-3.05
			h-0.02l-1.2,3.05H28.13z"/>
		<path class="st1" d="M30.46,60.45h0.02l1.06-3.55h0.38l1.06,3.55h0.02l1.09-3.55h0.32l-1.25,3.88H32.8l-1.06-3.52h-0.02
			l-1.07,3.52h-0.36l-1.23-3.88h0.31L30.46,60.45z"/>
		<path class="st1" d="M37.38,60.01h-0.02c-0.05,0.12-0.11,0.22-0.2,0.33c-0.09,0.1-0.19,0.2-0.31,0.28
			c-0.12,0.08-0.26,0.14-0.42,0.19c-0.16,0.05-0.33,0.07-0.51,0.07c-0.41,0-0.73-0.09-0.96-0.27c-0.23-0.18-0.34-0.45-0.34-0.83
			c0-0.23,0.04-0.41,0.14-0.55s0.21-0.26,0.34-0.34c0.14-0.08,0.29-0.14,0.46-0.18c0.17-0.04,0.33-0.06,0.49-0.08l0.45-0.04
			c0.21-0.02,0.37-0.04,0.49-0.07c0.12-0.03,0.21-0.08,0.27-0.14c0.06-0.06,0.1-0.13,0.11-0.22s0.02-0.2,0.02-0.34
			c0-0.11-0.02-0.2-0.06-0.29c-0.04-0.09-0.1-0.17-0.19-0.24c-0.09-0.07-0.2-0.12-0.33-0.17c-0.14-0.04-0.3-0.06-0.5-0.06
			c-0.35,0-0.63,0.09-0.84,0.26s-0.33,0.43-0.35,0.78h-0.29c0.02-0.43,0.16-0.75,0.41-0.96c0.25-0.21,0.62-0.32,1.08-0.32
			c0.47,0,0.81,0.09,1.02,0.28c0.21,0.18,0.32,0.42,0.32,0.72v2.26c0,0.06,0,0.11,0,0.17c0,0.06,0.01,0.11,0.03,0.15
			c0.02,0.04,0.04,0.08,0.08,0.11c0.04,0.03,0.09,0.04,0.15,0.04c0.05,0,0.12-0.01,0.21-0.02v0.24c-0.08,0.02-0.15,0.03-0.23,0.03
			c-0.12,0-0.21-0.01-0.28-0.04s-0.12-0.07-0.15-0.12c-0.04-0.05-0.06-0.11-0.07-0.18c-0.01-0.07-0.02-0.14-0.02-0.22V60.01z
			 M37.38,58.58c-0.07,0.09-0.18,0.14-0.32,0.17c-0.14,0.03-0.3,0.05-0.48,0.07l-0.48,0.05c-0.14,0.01-0.28,0.04-0.42,0.06
			c-0.14,0.03-0.27,0.07-0.38,0.14s-0.21,0.15-0.28,0.27c-0.07,0.11-0.11,0.26-0.11,0.44c0,0.29,0.09,0.5,0.27,0.64
			c0.18,0.14,0.43,0.21,0.75,0.21c0.33,0,0.59-0.06,0.78-0.18c0.19-0.12,0.34-0.25,0.44-0.41s0.17-0.3,0.19-0.45
			c0.03-0.14,0.04-0.24,0.04-0.29V58.58z"/>
		<path class="st1" d="M38.87,57.76h0.02c0.04-0.12,0.1-0.24,0.19-0.35c0.09-0.11,0.21-0.21,0.34-0.29
			c0.13-0.08,0.28-0.14,0.45-0.18c0.16-0.04,0.33-0.06,0.51-0.06v0.29c-0.15-0.02-0.32,0-0.52,0.04c-0.19,0.05-0.38,0.16-0.55,0.33
			c-0.07,0.08-0.13,0.15-0.19,0.22c-0.05,0.07-0.1,0.15-0.13,0.23c-0.04,0.09-0.06,0.18-0.08,0.29c-0.02,0.11-0.03,0.23-0.04,0.38
			v2.12h-0.29V56.9h0.29V57.76z"/>
		<path class="st1" d="M40.69,58.88v0.05c0,0.23,0.03,0.44,0.09,0.65c0.06,0.21,0.15,0.39,0.27,0.54s0.27,0.28,0.45,0.37
			s0.39,0.14,0.62,0.14c0.39,0,0.7-0.1,0.92-0.31c0.23-0.2,0.38-0.49,0.47-0.85h0.29c-0.09,0.45-0.27,0.8-0.55,1.04
			s-0.66,0.36-1.13,0.36c-0.29,0-0.54-0.05-0.75-0.15c-0.21-0.1-0.39-0.24-0.54-0.42s-0.25-0.39-0.32-0.63s-0.11-0.51-0.11-0.79
			c0-0.27,0.04-0.53,0.11-0.78c0.07-0.25,0.18-0.47,0.33-0.66s0.33-0.34,0.55-0.45c0.22-0.11,0.48-0.17,0.77-0.17
			c0.27,0,0.51,0.05,0.72,0.15s0.38,0.24,0.52,0.41s0.25,0.38,0.32,0.6c0.07,0.23,0.11,0.47,0.11,0.74c0,0.03,0,0.05,0,0.09
			c0,0.03,0,0.06,0,0.08H40.69z M43.55,58.63c-0.01-0.21-0.04-0.41-0.11-0.6c-0.06-0.19-0.15-0.36-0.27-0.5
			c-0.12-0.14-0.26-0.26-0.43-0.34c-0.17-0.09-0.36-0.13-0.58-0.13c-0.23,0-0.44,0.04-0.61,0.13c-0.18,0.09-0.33,0.2-0.45,0.35
			s-0.21,0.31-0.28,0.5c-0.07,0.19-0.11,0.39-0.12,0.59H43.55z"/>
		<path class="st1" d="M44.51,56.9h0.29v0.83h0.01c0.05-0.15,0.12-0.28,0.22-0.39c0.09-0.11,0.2-0.21,0.32-0.29
			c0.12-0.08,0.26-0.14,0.4-0.18c0.15-0.04,0.29-0.06,0.45-0.06c0.23,0,0.42,0.03,0.58,0.08c0.16,0.06,0.29,0.13,0.39,0.22
			c0.1,0.09,0.18,0.19,0.24,0.31c0.06,0.11,0.1,0.23,0.12,0.34c0.03,0.12,0.04,0.23,0.04,0.34c0.01,0.11,0.01,0.2,0.01,0.28v2.4
			h-0.29v-2.45c0-0.1-0.01-0.22-0.02-0.36c-0.01-0.15-0.06-0.29-0.13-0.42s-0.18-0.25-0.33-0.34s-0.35-0.14-0.62-0.14
			c-0.22,0-0.42,0.04-0.59,0.12c-0.17,0.08-0.32,0.19-0.44,0.34c-0.12,0.14-0.21,0.31-0.28,0.51c-0.06,0.2-0.09,0.42-0.09,0.65v2.1
			h-0.29V56.9z"/>
		<path class="st1" d="M48.53,58.88v0.05c0,0.23,0.03,0.44,0.09,0.65c0.06,0.21,0.15,0.39,0.27,0.54c0.12,0.16,0.27,0.28,0.45,0.37
			c0.18,0.09,0.39,0.14,0.62,0.14c0.39,0,0.7-0.1,0.92-0.31c0.23-0.2,0.38-0.49,0.47-0.85h0.29c-0.09,0.45-0.27,0.8-0.55,1.04
			s-0.66,0.36-1.13,0.36c-0.29,0-0.54-0.05-0.75-0.15c-0.21-0.1-0.39-0.24-0.54-0.42s-0.25-0.39-0.32-0.63s-0.11-0.51-0.11-0.79
			c0-0.27,0.04-0.53,0.11-0.78c0.07-0.25,0.18-0.47,0.33-0.66c0.15-0.19,0.33-0.34,0.55-0.45c0.22-0.11,0.48-0.17,0.77-0.17
			c0.27,0,0.51,0.05,0.72,0.15s0.38,0.24,0.52,0.41s0.25,0.38,0.32,0.6c0.07,0.23,0.11,0.47,0.11,0.74c0,0.03,0,0.05,0,0.09
			c0,0.03,0,0.06,0,0.08H48.53z M51.38,58.63c-0.01-0.21-0.04-0.41-0.11-0.6c-0.06-0.19-0.15-0.36-0.27-0.5
			c-0.12-0.14-0.26-0.26-0.43-0.34c-0.17-0.09-0.36-0.13-0.58-0.13c-0.23,0-0.44,0.04-0.61,0.13s-0.33,0.2-0.45,0.35
			s-0.21,0.31-0.28,0.5c-0.07,0.19-0.11,0.39-0.12,0.59H51.38z"/>
		<path class="st1" d="M52.48,59.49c0.01,0.18,0.05,0.34,0.12,0.48c0.07,0.14,0.16,0.26,0.28,0.36c0.11,0.1,0.25,0.17,0.4,0.22
			c0.15,0.05,0.31,0.08,0.49,0.08c0.13,0,0.26-0.01,0.4-0.03s0.28-0.06,0.4-0.12c0.12-0.06,0.22-0.14,0.31-0.25
			c0.08-0.11,0.12-0.25,0.12-0.41c0-0.22-0.07-0.38-0.2-0.49s-0.29-0.2-0.49-0.26s-0.41-0.11-0.64-0.15
			c-0.23-0.04-0.44-0.09-0.64-0.17c-0.2-0.08-0.36-0.18-0.49-0.32s-0.2-0.34-0.2-0.61c0-0.19,0.04-0.35,0.13-0.48
			c0.09-0.13,0.2-0.23,0.33-0.31c0.13-0.08,0.28-0.13,0.45-0.16c0.17-0.03,0.33-0.05,0.5-0.05c0.2,0,0.39,0.02,0.57,0.07
			s0.33,0.12,0.46,0.22c0.13,0.1,0.23,0.23,0.3,0.38c0.07,0.16,0.11,0.34,0.11,0.57h-0.29c0-0.18-0.03-0.33-0.09-0.45
			c-0.06-0.13-0.14-0.23-0.24-0.31s-0.23-0.14-0.37-0.17c-0.14-0.04-0.29-0.06-0.45-0.06c-0.13,0-0.26,0.01-0.4,0.04
			c-0.13,0.03-0.25,0.07-0.36,0.13c-0.11,0.06-0.19,0.14-0.26,0.23c-0.07,0.1-0.1,0.21-0.1,0.35c0,0.16,0.04,0.28,0.11,0.38
			c0.08,0.1,0.17,0.17,0.3,0.23c0.12,0.06,0.26,0.1,0.42,0.14s0.31,0.07,0.46,0.11c0.19,0.04,0.37,0.08,0.54,0.12
			s0.31,0.11,0.44,0.2s0.22,0.19,0.29,0.32s0.11,0.3,0.11,0.5c0,0.21-0.05,0.39-0.14,0.52s-0.22,0.25-0.36,0.33
			c-0.15,0.08-0.31,0.14-0.49,0.17c-0.18,0.03-0.35,0.05-0.53,0.05c-0.22,0-0.43-0.03-0.62-0.09c-0.19-0.06-0.35-0.15-0.49-0.26
			s-0.25-0.26-0.33-0.43c-0.08-0.17-0.12-0.37-0.13-0.6H52.48z"/>
		<path class="st1" d="M56.11,59.49c0.01,0.18,0.05,0.34,0.12,0.48c0.07,0.14,0.16,0.26,0.28,0.36c0.11,0.1,0.25,0.17,0.4,0.22
			c0.15,0.05,0.31,0.08,0.49,0.08c0.13,0,0.26-0.01,0.4-0.03s0.28-0.06,0.4-0.12c0.12-0.06,0.22-0.14,0.31-0.25
			c0.08-0.11,0.12-0.25,0.12-0.41c0-0.22-0.07-0.38-0.2-0.49s-0.29-0.2-0.49-0.26s-0.41-0.11-0.64-0.15
			c-0.23-0.04-0.44-0.09-0.64-0.17c-0.2-0.08-0.36-0.18-0.49-0.32s-0.2-0.34-0.2-0.61c0-0.19,0.04-0.35,0.13-0.48
			c0.09-0.13,0.2-0.23,0.33-0.31c0.13-0.08,0.28-0.13,0.45-0.16c0.17-0.03,0.33-0.05,0.5-0.05c0.2,0,0.39,0.02,0.57,0.07
			s0.33,0.12,0.46,0.22c0.13,0.1,0.23,0.23,0.3,0.38c0.07,0.16,0.11,0.34,0.11,0.57h-0.29c0-0.18-0.03-0.33-0.09-0.45
			c-0.06-0.13-0.14-0.23-0.24-0.31s-0.23-0.14-0.37-0.17c-0.14-0.04-0.29-0.06-0.45-0.06c-0.13,0-0.26,0.01-0.4,0.04
			c-0.13,0.03-0.25,0.07-0.36,0.13c-0.11,0.06-0.19,0.14-0.26,0.23c-0.07,0.1-0.1,0.21-0.1,0.35c0,0.16,0.04,0.28,0.11,0.38
			c0.08,0.1,0.17,0.17,0.3,0.23c0.12,0.06,0.26,0.1,0.42,0.14s0.31,0.07,0.46,0.11c0.19,0.04,0.37,0.08,0.54,0.12
			s0.31,0.11,0.44,0.2s0.22,0.19,0.29,0.32s0.11,0.3,0.11,0.5c0,0.21-0.05,0.39-0.14,0.52s-0.22,0.25-0.36,0.33
			c-0.15,0.08-0.31,0.14-0.49,0.17c-0.18,0.03-0.35,0.05-0.53,0.05c-0.22,0-0.43-0.03-0.62-0.09c-0.19-0.06-0.35-0.15-0.49-0.26
			s-0.25-0.26-0.33-0.43c-0.08-0.17-0.12-0.37-0.13-0.6H56.11z"/>
	</g>
	<g>
		<path class="st1" d="M47.83,28.24c0-3.81-2.45-7.05-5.87-8.23c0.89-0.31,1.84-0.48,2.84-0.48c4.81,0,8.71,3.9,8.71,8.71
			s-3.9,8.71-8.71,8.71c-0.99,0-1.95-0.17-2.84-0.48C45.37,35.3,47.83,32.06,47.83,28.24z"/>
		<path class="st1" d="M36.17,22.45c0.66,0,1.3,0.11,1.89,0.32c2.27,0.78,3.9,2.94,3.9,5.48s-1.63,4.69-3.9,5.48
			c-0.59,0.2-1.23,0.32-1.89,0.32c-3.2,0-5.79-2.59-5.79-5.79S32.97,22.45,36.17,22.45z"/>
	</g>
</g>
<circle class="st2" cx="41.94" cy="41.94" r="32.4"/>
</svg>
