<?xml version="1.0" encoding="utf-8"?>
<!-- Generator: Adobe Illustrator 23.0.6, SVG Export Plug-In . SVG Version: 6.00 Build 0)  -->
<svg version="1.1" id="Layer_1" xmlns="http://www.w3.org/2000/svg" xmlns:xlink="http://www.w3.org/1999/xlink" x="0px" y="0px"
	 viewBox="0 0 962.14 950.64" style="enable-background:new 0 0 962.14 950.64;" xml:space="preserve">
<style type="text/css">
	.st0{opacity:0.5;}
	.st1{fill:#ECAAAA;}
	.st2{opacity:0.52;}
	.st3{fill:#EA3F54;}
</style>
<g id="xTFy4W.tif" class="st0">
	<g>
		<path class="st1" d="M162.03,100.11c-6.05,8.68,5.32,10.25,5.28,16.06c0.89,0.52,1.79,1.04,2.68,1.55
			c0.47-1.39,0.73-2.9,1.45-4.14c3.11-5.42,8.04-6.62,13.37-4.41c7.82,3.25,15.59,1.04,23.23,0.24c6.54-0.69,9.52-6.74,13.19-11.66
			c4.32-5.8,9.42-11.03,14.35-16.34c1.11-1.19,2.94-1.7,5.27-1.77c-3.93,7.44-7.86,14.88-12.02,22.74c1.92,0.44,3.22,0.73,4.84,1.1
			c-0.81,1.37-1.94,2.5-2.12,3.77c-0.27,2.02,0.09,4.13,0.19,6.2c2.58-0.14,5.56,0.46,7.64-0.64c1.97-1.05,3.08-3.82,4.4-5.94
			c4.17-6.73,10.9-9.16,18.79-11.86c0.29,17.7-12.78,21.66-24.95,26.84c-2.86-5.3-6.44-3.13-10.18-0.33
			c-3.34,2.5-6.64,6.19-11.55,0.17c-0.3,2.85-0.49,4.52-0.64,6.2c-0.79,8.64-9.09,16.32-17.74,15.97c-2.9-0.12-3.77,1.17-5.21,3.28
			c-2.14,3.13-5,5.89-7.98,8.28c-7.36,5.91-15.05,11.4-22.41,17.3c-2.95,2.36-3.97,5.49-2.96,9.59c0.68,2.76,0.35,6.14-0.62,8.86
			c-1.58,4.44-0.26,6.75,2.58,10.6c4.28,5.81,10.04,7.87,15.31,11.56c7.21,5.04,12.16,3.19,18.26,0.18
			c0.56-0.28,1.23-0.34,2.78-0.75c-2.21,6.03-4.2,11.29-6.06,16.59c-2.8,7.96-0.47,14.81,5.11,20.62c3.96,4.12,7.29,3.61,9.47-1.6
			c2.68-6.4,5.27-12.92,6.96-19.63c1.87-7.41,5.72-12.96,12-17.04c2.25-1.46,4.57-2.84,6.62-4.55c5.17-4.31,6.6-9.31,3.34-15.23
			c-3.19-5.79-3.52-9.83,2.13-14.69c3.33-2.87,4.61-8.28,6.44-12.7c1.96-4.76,3.2-7.73,10.37-7.03c9.33,0.91,17.78,2.72,25.94,7.12
			c7.79,4.19,8.31,6.67,2.02,13.18c-2.2,2.28-4.38,4.56-6.78,7.07c17.03,11.76,27.56,0.3,38.86-9.64
			c5.89,5.64,9.38,12.44,9.89,20.55c0.12,1.86-0.9,4.26-2.21,5.64c-2.41,2.54-2.03,4.95,0.43,6.22c5.28,2.74,10.87,4.91,16.44,7.06
			c2.57,0.99,5.37,1.4,8.16,2.65c-5.91,2.19-10.25,5.6-13.63,12.91c3.82-0.61,6.31-0.66,8.57-1.43c6.05-2.06,11.65-1.29,16.92,2.09
			c3.93,2.53,4.14,5.59,0.68,8.74c-1.31,1.19-2.77,2.46-4.4,3.01c-16.68,5.57-31.51,16.37-49.65,17.79
			c-3.49,0.27-7.18,0.46-10.53-0.35c-7.14-1.72-13.79-1.28-20.18,2.43c-4.79,2.78-9.71,5.35-14.35,8.34
			c-3.49,2.25-6.08,5.33-5.93,9.75c0.73,0.67,1.46,1.34,2.2,2.01c1.27-2.13,2.34-4.41,3.85-6.36c4.77-6.16,11.4-8.95,18.93-9.93
			c5.07-0.66,8.39,1.47,9.5,6.45c0.85,3.82,1.66,7.72,1.83,11.61c0.18,4.23,2.17,6,6.05,5.48c3.14-0.42,6.21-1.45,9.3-2.23
			c3.44-0.86,6.85-2.18,10.34-2.41c1.96-0.13,5.01,1.01,5.76,2.49c0.67,1.33-0.56,4.94-1.97,5.76c-6.61,3.82-13.53,7.14-20.48,10.32
			c-1.05,0.48-3.04-0.49-4.33-1.24c-5.45-3.15-10.28-2.21-13.91,3.05c-2.01,2.92-3.81,5.99-5.6,8.83c-1.69-2.14-2.89-4.39-4.73-5.85
			c-4.73-3.78-7.58-3.25-11,1.77c-2.88,4.24-6.67,7.06-11.78,7.52c-4.87,0.43-7.19,3.08-8.46,7.54c-1.96,6.83-3.92,7.91-10.91,7.11
			c-2.94-0.34-5.9-0.45-9.66-0.72c2.84,6.12,0.11,8.03-4.52,10.28c-3.8,1.85-6.42,6.11-9.14,8.86c-2.02-0.57-4.81-2.38-6.76-1.71
			c-4.62,1.57-7,5.67-6.55,10.57c0.47,5.13,1.55,10.23,2.59,15.29c1.63,7.97-0.17,10.17-6.07,15.52
			c-10.69,9.68-20.86,20.01-30.48,30.76c-4.93,5.51-4.03,12.74-0.95,19.29c3.12,6.62,6.63,13.06,9.73,19.69
			c1.46,3.12,3.95,7.22,0.15,9.5c-1.47,0.88-6.21-1.84-8.22-4.06c-6.47-7.13-10.68-15.55-12.16-25.22
			c-0.37-2.44-1.18-4.85-2.04-7.18c-1.27-3.45-3.74-5.18-7.53-4.3c-4.82,1.13-9.07,0.12-13.23-2.58c-6.49-4.21-11.01-3.26-15.78,2.8
			c-4.4,5.59-6.11,6.41-12.01,2.4c-6.9-4.69-12.38-2.6-17.98,1.75c-13.57,10.55-18.64,29.56-13.44,45.82
			c2.9,9.09,3.79,18.81,5.92,28.17c0.93,4.08,1.98,8.43,4.22,11.84c3.52,5.35,9.08,6.84,14.56,3.61c4.78-2.81,8.83-6.97,12.86-10.89
			c3.05-2.97,5.18-6.92,8.36-9.69c4.49-3.91,9.64-2.17,9.97,3.85c0.35,6.2-1.06,12.6-2.36,18.77c-0.98,4.67-3.37,9.04-4.45,13.7
			c-1.29,5.54,0.64,6.98,6.24,5.85c14.11-2.84,26.78,3.11,26.01,19.36c-0.32,6.7,0.58,13.6,1.91,20.21
			c1.54,7.65,5.13,9.01,12.87,8.39c5.2-0.42,10.56,0.77,15.8,1.53c2.44,0.35,4.77,1.46,7.18,2.09c9.08,2.35,9.3,1.98,12.81-6.62
			c1.02-2.5,3.64-5.54,6.03-6.08c8.05-1.8,14.55-5.65,19.92-11.76c0.77-0.87,1.95-1.38,3.85-2.69c-0.46,6.54-0.91,12.12-1.2,17.71
			c-0.08,1.56-0.13,3.41,0.61,4.65c0.71,1.21,2.51,2.55,3.71,2.45c1.11-0.09,2.65-1.87,2.99-3.17c0.72-2.74,0.42-5.76,1.23-8.46
			c0.51-1.7,1.99-3.67,3.53-4.32c1.33-0.56,3.84,0.03,5.03,1.04c8.77,7.44,19.03,8.31,29.66,6.73c4.71-0.7,9.19-2.85,13.84-4.09
			c3.48-0.93,6.67-1.07,8.14,3.54c0.37,1.17,2.93,2.45,4.38,2.33c4.54-0.37,5.53,1.81,6.41,5.79c0.79,3.58,2.68,7.48,5.29,9.98
			c8.34,7.96,19.14,10.28,30.17,12.49c12.55,2.51,24.84,6.32,37.16,9.85c1.83,0.52,3.61,2.32,4.75,3.98
			c3.1,4.49,5.68,9.34,8.79,13.82c2.42,3.48,2.47,6.13-1.33,8.47c-4.26,2.62-8.54,5.23-12.68,8.02c-4.27,2.88-4.32,6.83-2.57,12.17
			c5.91-3.46,11.18-6.68,16.59-9.63c2.08-1.13,4.51-1.63,6.78-2.42c0.43,2.35,0.98,4.68,1.26,7.04c0.2,1.68,0.04,3.41,0.04,6.36
			c2.28-1.48,3.59-2.52,5.05-3.24c3.49-1.73,6.9-3.98,10.61-4.82c9.03-2.04,12.92,0.85,15.02,10.07c0.19,0.82,0.68,1.57,1.26,2.88
			c8.7-7.19,17.93-4.98,27.18-2.16c5.46,1.66,10.93,3.32,16.35,5.09c1.68,0.55,3.61,1.1,4.78,2.3c5.34,5.48,11.14,9.56,19.04,11.03
			c4.76,0.88,5.1,6.02,3.65,9.81c-1.9,4.93-4.36,9.84-7.56,14.02c-4,5.23-8.94,9.75-13.61,14.44c-0.79,0.8-2.49,1.53-3.41,1.22
			c-5.23-1.74-5.61,1.38-5.96,5.24c-0.98,10.82-1.17,21.85-3.52,32.39c-3.8,16.97-10.6,22.06-27.93,23.33
			c-8.76,0.64-16.14,3.71-22.41,10c-2.85,2.87-3.49,5.44-1.97,9.04c5.37,12.8,5.12,14.64-4.87,24.29
			c-4.67,4.51-7.23,9.59-7.26,16.07c-0.01,1.94-0.41,3.91-0.86,5.81c-1.39,5.82-4.31,7.63-10.21,6.35
			c-5.31-1.16-10.59-2.42-15.88-3.63c-0.36,0.52-0.72,1.03-1.08,1.55c1.63,2.59,3.15,5.25,4.92,7.74c5.04,7.09,3.38,11.11-5.03,12.3
			c-2.83,0.4-6.14-0.05-7.24,4.08c-1.13,4.24-1.84,8.03,2.55,10.93c1.12,0.74,1.84,2.08,2.64,3.01c-0.27,0.69-0.31,1.11-0.55,1.32
			c-7.25,6.6-7.11,6.99,1.47,11.96c2.19,1.27,4.53,3.39,5.37,5.65c1.77,4.78,5.06,7.58,9.26,9.89c5.17,2.83,10.26,5.81,15.31,8.84
			c1.88,1.13,3.55,2.63,5.05,4.47c-10.18,1.46-19.62-1.06-27.19-7.03c-13.88-10.96-27.15-22.72-40.13-34.74
			c-6.63-6.14-8.97-14.9-10.23-23.7c-2.23-15.6-7.34-30.17-15.73-43.5c-7.51-11.92-13.06-24.51-15.54-38.49
			c-2.1-11.85-9.13-19.79-20.56-23.99c-8.53-3.14-17.08-6.34-25.22-10.35c-8.36-4.12-15.38-9.58-15.73-20.53
			c-0.08-2.63-3.6-5.54-6.11-7.63c-10.99-9.16-22.66-17.56-33.13-27.27c-5.31-4.93-8.84-11.9-12.68-18.24
			c-1.79-2.95-0.09-5.3,3.19-6.62c7.57-3.04,8.11-5.04,2.96-11.65c-4.71-6.04-5.69-12.51-3.21-19.66
			c1.93-5.56,4.01-11.09,5.62-16.74c2.23-7.82,1.14-15.23-3.9-21.83c-2.39-3.12-4.57-6.49-7.39-9.18c-2.85-2.72-6.38-4.74-9.32-6.86
			c-1.19,0.93-1.64,1.1-1.72,1.37c-2.71,9.76-3.08,9.98-11.86,4.58c-5.48-3.37-10.98-6.78-16-10.77c-2.65-2.11-4.25-5.52-6.36-8.32
			c-2.51-3.32-4.38-7.85-7.71-9.67c-7.92-4.32-16.49-7.53-24.93-10.83c-3.68-1.44-5.86-3.59-8.09-6.96
			c-3.34-5.03-7.69-9.95-12.75-13.12c-6.73-4.22-14.44-6.99-21.93-9.86c-16.06-6.17-24.74-17.44-25.47-34.79
			c-0.73-17.46-4.07-34.28-11.37-50.37c-2.5-5.51-2.64-12.08-4.03-18.13c-0.7-3.05-1.52-6.14-2.87-8.93
			c-0.54-1.11-2.75-2.11-4.02-1.92c-0.97,0.14-1.89,2.14-2.42,3.47c-0.64,1.6-0.85,3.38-1.58,5.13c0.31-7.71-3.06-13.84-7.6-19.58
			c-4.11-5.2-5.03-11.27-2.39-17.19c4.14-9.3,5.19-19,4.36-28.85c-1.14-13.52,3.07-26.08,5.59-39.03
			c5.66-29.07,19.32-54.79,33.11-80.36c28.58-53.01,66.31-98.77,112.07-137.91C158.37,102.95,160.23,101.55,162.03,100.11z"/>
		<path class="st1" d="M804.86,120.53c2.31,1.34,5.01,2.27,6.87,4.07c69.08,67.14,115.29,147.39,137.07,241.31
			c10.88,46.91,15.23,94.54,11.67,142.68c-1.31,17.77-3.78,35.45-5.72,53.17c-5.64-0.01-7.12-2.91-6.89-6.64
			c0.7-11.76,1.38-23.53,2.62-35.24c0.9-8.52,0.1-16.54-2.41-24.79c-5.82-19.11-11.14-38.38-16.07-57.73
			c-1.32-5.2-4.31-4.89-7.88-4.67c-4.2,0.26-6.37,2.9-5.57,6.84c1.03,5.02,2.17,10.24,4.5,14.74c6.53,12.65,9.47,26.13,10.69,40.11
			c1.05,11.94,2.67,23.89,2.62,35.83c-0.04,10.24-1.99,20.48-3.32,30.69c-0.48,3.69-1.78,7.27-2.36,10.95
			c-0.78,4.96,1.15,8.42,5.76,10.96c1.79,0.99,2.71,3.94,3.55,6.18c0.98,2.62,0.8,5.85,2.25,8.09c2.63,4.08,2.55,7.92,1.06,12.18
			c-6.24,17.85-11.84,35.95-18.79,53.51c-6.34,16-18.05,28.5-29.35,41.29c-8.45,9.57-16.21,20.05-22.5,31.13
			c-8.31,14.62-17.2,28.21-30.79,38.67c-6.24,4.8-11.36,11.42-15.94,17.95c-11.04,15.74-24.26,29.1-40.25,39.7
			c-17.58,11.66-35.04,23.51-52.95,34.63c-4.91,3.05-11.2,4.13-17.03,5.28c-1.74,0.34-4.69-1.73-5.84-3.51
			c-0.75-1.15,0.15-4.34,1.35-5.64c14.92-16.16,24.94-35.31,33.41-55.26c11.08-26.1,24.2-50.9,41.38-73.61
			c5.96-7.87,10.18-17.17,14.43-26.18c3.85-8.14,3.23-16.57-0.55-24.9c-2.87-6.32-5.65-12.79-7.45-19.46
			c-2.79-10.38-0.97-20.56,3.31-30.33c0.76-1.75,1.42-3.54,2.44-6.12c-5.95-0.61-11.17-1.15-16.77-1.73c0-1.17,0.04-2.2-0.01-3.23
			c-0.26-5.59-2.01-7.82-7.58-7.06c-6.44,0.88-12.81,2.76-18.99,4.86c-3.83,1.3-7.23,3.86-10.86,5.79
			c-7.43,3.95-14.82,4.24-22.58,0.53c-2.87-1.37-6.53-1.86-9.73-1.59c-7.85,0.67-15.12-0.56-21.13-5.72
			c-8.37-7.17-16.43-14.71-24.55-22.16c-4.81-4.42-10.71-8.24-13.94-13.64c-4.52-7.54-7.57-16.13-10.19-24.59
			c-1.76-5.7-2.65-12.04-2.18-17.95c0.46-5.81,2.84-11.55,4.96-17.1c1.18-3.11,3.55-5.76,5.35-8.65c3.33-5.36,4.09-10.93,1.42-16.83
			c-3.31-7.33-2.7-14.68,0.46-21.83c7.28-16.45,19.65-28.85,33.02-40.3c2.48-2.12,5.89-3.49,9.09-4.34
			c5.77-1.54,8.78-5.21,9.84-10.77c1.42-7.46,1.32-15.29,7.59-21.19c9.57-9.01,19.95-15.84,33.47-17.65
			c12.88-1.73,25.46-5.09,38.73-4.65c4.99,0.17,10.1-3.7,15.19-5.66c3.93-1.52,7.8-3.68,11.87-4.23c5.39-0.73,7.51,2.67,5.64,7.77
			c-0.55,1.51-1.34,2.93-1.88,4.44c-3.4,9.52,0.17,18.6,9.74,21.78c8.88,2.96,16.64,6.62,22.29,14.57
			c2.83,3.98,7.21,6.92,11.13,10.04c6.39,5.08,13.16,2.9,15.2-4.99c1.02-3.95,1.19-8.11,1.75-12.18c0.67-4.89,2.75-6.35,6.62-3.25
			c4.88,3.91,8.87,8.98,12.97,13.78c1.31,1.54,1.76,3.82,2.59,5.74c7.72-2.1,15.18-4.07,22.6-6.17c4.41-1.25,5.6-5.19,5.74-8.85
			c0.38-10.01,0.43-20.04,0-30.05c-0.12-2.87-2.3-5.66-3.97-9.47c-2.05,3.17-3.34,5.15-4.88,7.52c-5.06-4.03-10.46-4.25-16.32-3.1
			c-1.29,0.25-3.89-1.86-4.55-3.44c-2.1-5.07-3.35-10.49-5.35-15.6c-2.17-5.53-1.48-8.65,3.51-11.86c1.65-1.06,3.36-2.24,5.21-2.71
			c4.61-1.17,7.1-2.8,5.35-8.44c-1.34-4.33,1.36-6.29,5.83-4.96c3.07,0.92,5.94,2.48,9.01,3.37c4.97,1.44,7.52-0.82,6.12-5.81
			c-0.99-3.53-2.79-6.96-4.78-10.07c-4.51-7.07-9.34-13.93-14.1-20.84c-2.47-3.59-5.5-6.06-10.76-4.53
			c1.08,2.65,2.58,5.02,2.87,7.53c0.18,1.53-1.51,3.28-2.36,4.93c-1.3-1.09-3.15-1.94-3.76-3.34c-0.91-2.07-0.28-5.01-1.52-6.68
			c-1.34-1.82-4.07-2.62-6.19-3.86c-0.8,1.88-2.49,3.86-2.27,5.61c1.32,10.45,3.31,20.81,4.62,31.26
			c1.11,8.82-2.38,13.07-11.05,14.54c-0.88,0.15-1.79,0.17-2.65,0.38c-6.76,1.62-8.26,5.69-3.55,10.7
			c3.15,3.36,7.12,5.94,10.49,9.11c1.41,1.33,2.21,3.3,3.29,4.98c-1.95,0.59-4.29,2.15-5.78,1.56c-2.68-1.05-5.74-2.9-7.09-5.28
			c-6.84-12.12-12.6-24.88-19.95-36.66c-3.21-5.15-8.93-9.08-14.19-12.51c-6.07-3.96-12.96-6.64-19.39-10.09
			c-5.65-3.03-8.52-1.84-8.73,4.6c-0.1,3.19,0.89,6.69,2.33,9.58c1.8,3.61,4.58,6.74,6.24,10.91c-2.65-2.4-5.34-4.76-7.95-7.2
			c-2.09-1.95-4.11-3.99-6.13-6.01c-4.19-4.19-8.15-6.14-13.91-1.69c-2.18,1.69-6.89,1.27-10.02,0.35
			c-8.35-2.46-12.81,0.66-13.81,9.2c-0.45,3.9-3.13,7.59-5.03,11.26c-1.59,3.07-4.64,5.81-5.09,8.97
			c-1.45,10.22-6.68,19.01-12.96,26.01c-4.56,5.09-13.38,6.45-20.43,9.13c-0.84,0.32-2.82-1.34-3.76-2.5
			c-3.15-3.85-6.95-5.98-12.03-5.89c-4.37,0.08-8.14-2-9.24-6.06c-3.25-11.99-6.21-24.09-8.6-36.28c-0.97-4.95,2.8-8.33,7.43-8.92
			c9.36-1.19,18.82-2.25,28.23-2.23c13.61,0.03,16.04-4.71,10.69-17.56c-2.26-5.44-6.18-8.95-12.31-9.95
			c-3.92-0.64-7.71-2.1-11.56-3.18c-0.05-0.56-0.1-1.11-0.15-1.67c2.06-1.08,4.05-2.38,6.21-3.21c12.79-4.89,21-13.78,24.32-27.16
			c0.86-3.46,2.24-6.78,3.22-10.21c1.91-6.67,5.41-11,12.87-12.62c8.46-1.83,9.33-8.79,2.66-15.84c-5.14-5.43-5.31-11.21-0.1-17.68
			c3.81,4.15,4.5,9.32,4.61,14.25c0.17,7.53,0.78,14.33,8.93,17.75c9.14,3.84,17.69,4.49,26.22-2.07c3.84-2.95,8.78-4.58,13.37-6.41
			c8.48-3.38,9-4.9,3.54-11.84c-2.3-2.93-4.49-5.94-6.08-9.73c1.42,0.81,2.75,2,4.27,2.32c1.65,0.35,4.33,0.53,5.01-0.38
			c0.89-1.19,0.33-3.52,0.24-5.35c-0.02-0.41-0.67-0.79-1.05-1.17c-6.12-6.05-6.12-6.06-0.54-12.77c2.13-2.56,4.27-5.11,6.4-7.66
			c-0.22-0.56-0.43-1.11-0.65-1.67c-2.43,0.3-4.9,0.45-7.29,0.92c-6.72,1.32-13.36,4.62-20.12-0.05
			c-9.27-6.4-16.49-14.36-19.06-25.61c-1.19-5.19-1.34-10.62-2.4-15.85c-0.82-4.09-3.15-7.24-7.78-7.71
			c-4.95-0.5-7.06,2.51-6.58,7.34c0.62,6.18,0.94,12.54,0.14,18.67c-1.38,10.68,2.61,17.89,11.83,22.96
			c13.04,7.18,18.42,17.9,16.57,32.47c-0.82,6.44-4.14,11.16-11,13.28c1.41-2.07,2.89-4.11,4.23-6.23
			c3.14-4.93,2.91-7.58-1.65-11.07c-3.38-2.59-7.06-4.91-10.87-6.8c-9.03-4.49-19.24-7.84-16.07-22.09
			c-0.75,0.09-1.5,0.18-2.25,0.27c-0.79,2.02-1.71,4-2.34,6.07c-2.07,6.78-4.83,8.13-11.04,4.9c-3.47-1.81-6.82-3.92-10.04-6.16
			c-6.02-4.17-7.8-10.19-3.76-16.25c4.62-6.93,6.71-13.71,4.89-22.14c-0.89-4.1,0.27-8.92,1.47-13.15
			c1.93-6.82,1.81-13.26-0.45-19.97c-1.1-3.28-1.48-7.05-1.15-10.51c0.46-4.84,6.16-7.42,9.58-4.34c5.88,5.3,13,7.11,20.32,8.95
			c12.08,3.03,21.99,10.06,31.45,17.8c0.6,0.49,0.87,1.38,1.44,2.33c-4.48,0.57-8.5,1.08-12.53,1.59c-0.14,0.62-0.28,1.23-0.42,1.85
			c3.37,2.45,6.9,4.73,10.08,7.41c3.5,2.95,6.49,6.53,10.09,9.35c2.54,1.99,5.59,3.54,8.67,4.49c0.98,0.3,3.3-1.74,3.98-3.2
			c0.54-1.16,0.02-3.85-0.93-4.47C805.13,132.5,805.31,126.79,804.86,120.53z"/>
		<path class="st1" d="M362.98,29.73c-2.38,0.36-4.87,0.38-7.1,1.14c-6.59,2.25-13.09,4.79-18.25,6.7c-2.29,2.52-3.6,4.62-5.48,5.85
			c-2.2,1.43-4.88,2.16-7.4,3.06c-0.93,0.33-2.66,0.71-2.92,0.32c-4.43-6.58-9.76-1.88-14.79-1.43c-1.82,0.16-4.64,0.16-5.39-0.91
			c-1.58-2.25-0.3-3.8,2.44-5.13c1.98-0.96,2.99-3.94,5.05-6.91c0.39,2.36,0.62,3.73,1,6.01c2.14-1.75,3.7-3.03,5.68-4.64
			c-4.59-3.81-2.09-6.41,0.83-9.12c7.89-7.31,18.01-9.6,28.57-13.41c-0.37,3.13-0.63,5.31-0.91,7.65c4.34-0.26,8.61-0.52,12.88-0.77
			c-0.01-0.32-0.02-0.63-0.03-0.95c-3.25-0.43-6.49-0.87-9.74-1.3c-0.04-0.75-0.08-1.49-0.12-2.24c9.58-3.09,17.88-10.21,29.13-8.13
			c0.73,0.13,1.64-1.29,2.52-1.35c4.19-0.3,8.4-0.37,12.6-0.54c1.5-0.06,3.02-0.07,4.5-0.26C404.28,2.3,412.52,1.19,421.5,0
			c-0.15,3.22-0.24,5.07-0.31,6.53c9.47,0,19.37,0.01,29.27-0.02c0.5,0,1.4-0.2,1.44-0.43c1.21-6.42,6.35-2.96,9.73-3.94
			c12.67-3.68,25.47-1.62,38.23-1c3.51,0.17,7,0.72,9.86,1.03c0.23,3.2,0.42,5.78,0.6,8.21c7.34-0.99,13.81-2,20.31-2.63
			c1.48-0.14,3.09,1,4.65,1.56c-0.92,1.37-1.54,3.18-2.81,4.04c-3.29,2.23-4.28,4.43-1.6,7.88c0.87,1.13,1.56,3.33,1.05,4.45
			c-2.65,5.85,1.18,7.65,5.36,9.45c1.79,0.77,3.54,1.65,4.01,1.87c1.33,2.98,1.65,5.42,3.03,6.51c6.36,5.02,6.67,7.75,0.92,13.75
			c-0.46,0.48-0.8,1.09-1.34,1.83c0.7,0.57,1.28,0.94,1.73,1.44c1.13,1.27,2.2,2.6,3.29,3.91c-2.01,0.62-4,1.62-6.05,1.76
			c-2.48,0.17-5.02-0.39-7.53-0.64c-0.14,0.49-0.29,0.99-0.43,1.48c3.46,1.93,7,3.74,10.36,5.83c2.86,1.78,5.99,3.5,8.1,5.99
			c1.58,1.87,2.74,5.12,2.31,7.42c-0.68,3.56-3.67,5.56-7.7,5.07c-0.87-0.11-1.76-0.02-3.15-0.02c2.11,5.07-0.94,7.38-4.45,9.66
			c-7.54,4.91-15.88,6.08-24.62,5.68c-2.66-0.12-5.34-0.02-7-0.02c-1.54,2.35-2.68,4.22-3.96,5.99c-2.27,3.15-5.12,6-6.83,9.43
			c-2.4,4.79-5.71,7.4-11.07,8c-5.84,0.66-11.66,1.69-17.43,2.85c-4.06,0.82-6.45,2.86-6.1,7.84c0.18,2.62-1.8,5.5-3.14,8.08
			c-2.44,4.69-5.62,9.04-7.61,13.9c-2.33,5.69-5.71,10.2-11.61,11.63c-2.85,0.69-6.29-0.6-9.36-1.39c-3.37-0.87-6.54-2.78-9.93-3.19
			c-6.36-0.78-11.56-3.29-14.14-9.14c-3-6.8-5.2-13.95-8.1-21.95c-9.75-2.85-8.25-12.71-9.54-21.02c-0.23-1.47,1.09-3.32,2.01-4.8
			c1.92-3.11,3.87-6.22,6.15-9.07c1.25-1.57,3.09-2.74,4.84-3.82c2.8-1.72,5.74-3.22,8.63-4.8c-0.23-0.63-0.45-1.25-0.68-1.88
			c-2.72-0.13-5.43-0.25-8.19-0.38c-2.69,7.19-12.43,9.97-17.07,4.86c-2.85-3.14-1.91-5.95,0.01-9.18c2.14-3.58,4.43-1.73,6.82-0.77
			c1.8,0.72,3.59,1.47,6.58,1.48c-1.59-2.59-3.65-5.02-4.63-7.82c-0.86-2.47-1.12-5.5-0.54-8.03c0.74-3.24,2.87-6.14,3.91-9.34
			c3.23-9.89-2.23-17.32-12.55-17.01c-6.6,0.19-13.19,1.11-19.79,1.23c-6.74,0.12-9.48-3.12-9.26-10.63
			c4.37-0.74,8.86-1.5,14.29-2.42c-3.22-1.92-9.35,0.99-7.54-5.64c2.58-0.95,5.14-2.53,7.78-2.68c9.58-0.54,18.59-5.82,19.91-11.37
			c-9.03,3.1-18.59,6.37-28.41,9.74C362.31,25.93,362.64,27.83,362.98,29.73z M342.31,22.55c-3.81,1.23-6.59,2.7-9.46,2.93
			c-5.47,0.43-10.6,1.01-13.2,7.27C325.39,25.65,336.7,31.85,342.31,22.55z M413.15,11.44c-0.09-0.62-0.19-1.23-0.28-1.85
			c-6.25,1.07-12.49,2.13-18.74,3.2c0.07,0.41,0.13,0.82,0.2,1.23C400.61,13.16,406.88,12.3,413.15,11.44z"/>
		<path class="st1" d="M291.57,98.62c-0.75-1.97-1.49-3.94-2.34-6.17c-12.92,3.17-24.77-1.19-36.81-3.94
			c-1.6-0.36-3.12-1.04-4.68-1.57c0.93-0.56,1.86-1.12,2.79-1.68c1.34-2.15,2.35-4.61,4.07-6.39c3.21-3.32,6.52-6.72,10.35-9.2
			c5.22-3.37,10.95-5.96,16.52-8.78c1.06-0.53,2.42-0.88,3.56-0.72c1.21,0.17,2.33,1.06,3.48,1.63c-0.84,0.95-1.51,2.29-2.57,2.79
			c-4.98,2.36-10.43,4.01-13,9.61c-0.14,0.31-0.18,0.66-0.7,2.67c8.2-7.68,16.4-12.75,25.94-15.1c0.34,0.4,0.67,0.81,1.01,1.21
			c-1.88,2.65-3.75,5.3-6.06,8.54c2.59-0.29,4.59-0.51,6.55-0.72c0.82-7.02,7.66-10.92,14.42-8.25c0.9,0.35,1.91,1.8,1.89,2.71
			c-0.03,0.98-1.02,2.42-1.94,2.79c-1.73,0.7-3.71,0.78-6.38,1.26c2.19,1.82,4.1,3.06,5.53,4.72c1.46,1.69,2.46,3.78,3.66,5.7
			c4.57-2.82,6.89-1.94,8.58,3.38c0.17,0.53,0.56,1.44,0.79,1.42c3.5-0.27,4.71,2.14,6.44,4.57c1.31,1.84,5.3,1.46,4.09,5.57
			c-1.2,4.05-3.01,7.01-7.73,7.03c-0.49,0-0.97,0.4-1.66,0.71c2.68,4.49,6.29,6.09,9.92,4.45c4.79,3.56,8.92,6.45,12.82,9.62
			c1.22,0.99,2.48,2.7,2.51,4.11c0.02,0.95-2.06,1.99-3.28,2.89c-4.1,3.02-8.85,5.44-12.18,9.14c-2.76,3.07-4.34,3.36-6.51,0.27
			c-1.49-2.13-2.42-4.63-3.79-6.86c-0.81-1.32-1.77-3.02-3.03-3.42c-1.02-0.33-3.12,0.67-3.77,1.69c-1,1.58-1.29,3.66-1.63,5.58
			c-0.08,0.45,0.72,1.36,1.3,1.59c5.5,2.16,6.1,7.06,6.71,11.9c0.15,1.15,0.25,2.74-0.38,3.49c-2.06,2.45-4.47,4.62-7.14,7.29
			c-3.67-2.3-7.67-4.8-11.66-7.31c-0.27,0.24-0.54,0.48-0.81,0.73c1.55,2.14,3.42,4.13,4.53,6.48c0.74,1.56,0.39,3.64,0.52,5.49
			c-1.68,0.04-3.5,0.53-5,0.03c-4.21-1.39-8.29-3.19-12.43-4.8c-0.82-0.32-1.72-0.71-2.54-0.63c-1.8,0.16-4.94,1.25-5.14,0.82
			c-1.38-2.89-1.97-6.15-3.13-9.16c-1.27-3.27-2.77-6.47-4.52-9.49c-0.2-0.35-2.73,0.55-4.13,1.02c-6.23,2.06-12.45,4.75-18.57-0.25
			c-0.39-0.32-0.64-0.83-1.67-2.22c4.42-2.11,8.44-4.89,12.87-5.9c4.4-1,9.21-0.22,14.17-0.22c0.42-8.1,7.58-9.86,13.13-12.98
			c7.29-4.11,7.73-5.81,1.94-11.81c-1.72-1.79-3.37-3.65-5.05-5.48C291.43,98.46,291.57,98.62,291.57,98.62z"/>
		<path class="st1" d="M707.41,259.04c-2.27-1.04-4.18-1.92-6.3-2.89c2.77-2.09,5.54-4.18,8.51-6.43c-3.7-2.29-6.98-4.32-10.41-6.44
			c1.08-2.23,1.91-3.97,2.88-5.99c-1.29-1.16-2.55-2.31-4.18-3.78c2.11-0.65,3.87-1.2,6.85-2.12c-2.05-4.67-3.98-9.08-6.08-13.89
			c-4.75,1.91-7.81,1.35-9.61-3.89c-0.73-2.15-4.29-3.33-7.45-5.59c-0.03-0.44-0.15-2.38-0.25-3.93c-1.26-0.48-2.97-0.67-3.15-1.28
			c-1.21-4.23-3.29-8.9,0.42-12.61c1.71-1.71,4.94-1.9,7.62-2.83c-0.92,3.77-1.53,6.31-2.22,9.12c1.77,0.12,1.96,0.18,2.13,0.13
			c11.79-3.1,12.14-2.8,11.08,9.57c-0.12,1.39-0.3,2.78-0.38,3.48c11.03,5.53,18.59,13.58,24.03,23.88
			c0.77,1.45,2.18,3.31,3.55,3.56c6.26,1.14,7.04,2.02,6.21,8.35c-0.2,1.55,0.14,3.17,1.19,4.59c0.64-3.1,1.28-6.21,2.05-9.95
			c5.81,7.35,3.31,14.36-4.85,15.35c-3.28,0.4-6.76-0.02-10.04-0.64C713.35,253.74,710.77,254.45,707.41,259.04z"/>
		<path class="st1" d="M252.93,64.19c-4.99,0.69-9.08,2.74-11.59,7.37c-0.49,0.91-1.32,1.9-2.23,2.26
			c-2.32,0.92-5.33,2.69-7.04,1.89c-1.79-0.83-2.38-4.24-3.53-6.58c-7.38,4.78-14.33,10.54-17.35,20.42
			c-2.51,8.22-13.75,12.76-21.94,10.57c-2.33-0.62-5.17,0.47-7.74,0.98c-4.72,0.94-9.2,4.11-14.63,1.57
			c4.62-4.08,9.02-7.94,13.39-11.83c0.38-0.34,0.94-0.95,0.85-1.26c-1.74-5.7,3.23-6.97,6.3-9.12c9.51-6.65,19.19-13.06,28.9-19.4
			c1.76-1.15,4-1.54,6.02-2.28c0.28,0.41,0.56,0.82,0.84,1.24c-2.75,3.94-5.49,7.87-8.24,11.81c0.42,0.4,0.84,0.8,1.26,1.19
			c5.34-5.06,10.4-10.64,19.06-10.14c-0.07,0.85-0.16,1.84-0.32,3.62c6.33-2.18,10.64-9.11,18.65-6.95
			c-0.28,1.55-0.58,3.19-0.87,4.83L252.93,64.19z"/>
		<path class="st1" d="M358.5,247.99c-2.2,3.33-4.41,6.66-6.55,9.91c1.52,1.78,3.3,3.86,5.78,6.75c1.89-0.3,4.98-1,8.11-1.25
			c2.97-0.23,5.55-0.44,4.68,4.53c-0.53,3.02,1.85,6.49,2.69,9.82c1.08,4.28,1.93,8.62,2.89,12.99c-7.8,1.08-12.37-1.01-15.44-6.28
			c-3.1,1.3-4.72,6.96-9.29,3.48c-0.95-0.72-0.49-3.29-0.81-6.13c-1.57-0.09-4.13-0.37-6.67-0.35c-2.86,0.02-5.75,0.68-8.56,0.41
			c-3.31-0.33-6.54-1.36-9.81-2.09c1.71-3.1,3.1-6.43,5.19-9.26c3.23-4.38,7.37-8.13,10.34-12.65c3.99-6.08,9.4-9.38,16.02-11.13
			C357.54,247.16,358.02,247.57,358.5,247.99z"/>
		<path class="st1" d="M135.81,499.37c-4.88-6.32-3.92-10.93,3.21-12.04c6.54-1.02,13.48-0.38,20.13,0.41
			c14.92,1.78,28.96,6.14,40.74,16.06c1.5,1.26,3.47,2.14,4.56,3.66c0.96,1.33,1.82,3.81,1.19,4.89c-0.65,1.12-3.12,1.3-4.84,1.64
			c-2.85,0.57-5.87,0.55-8.57,1.48c-5.72,1.98-10.67,0.19-15.85-1.81c0.35-1.08,0.37-1.68,0.68-2.06c4.52-5.56,3.84-7.72-3.36-9.76
			c-4.63-1.31-9.45-2.03-14-3.56c-3.86-1.3-7.46-3.39-12.65-5.82C144.52,494.02,140.31,496.6,135.81,499.37z"/>
		<path class="st1" d="M559.81,121.87c2.89,0.98,6.07,1.48,8.62,3.03c6.04,3.66,12,5.01,18.8,2.19c2.92-1.21,6.2-1.82,9.37-2.09
			c5.7-0.48,9.91,2.15,12.8,7.34c-7.21,7.82-15.07,13.38-26.61,11.69c-4.27-0.63-8.82,0.89-13.25,0.94
			c-8.22,0.08-9.94-2.52-7.95-10.22c0.51-1.99-0.39-4.43-0.95-6.58c-0.42-1.62-1.34-3.12-2.03-4.67
			C559.01,122.96,559.41,122.42,559.81,121.87z"/>
		<path class="st1" d="M611.11,13.25c0.89,0,1.88-0.25,2.67,0.04c11.49,4.19,23.97,6.6,32.31,16.68c1.58,1.9,2.96,5.62,2.12,7.4
			c-0.82,1.73-4.6,2.75-7.12,2.84c-7.5,0.28-13.75-2.02-18.3-8.81c-1.58-2.35-5.62-3.23-8.69-4.33c-1.59-0.57-3.55-0.06-5.32-0.19
			c-3.78-0.28-7.85-0.32-8.06-5.63c-0.17-4.26,3.49-7.74,8.27-8.04c0.71-0.04,1.43-0.01,2.14-0.01
			C611.11,13.21,611.11,13.23,611.11,13.25z"/>
		<path class="st1" d="M668.92,217c5.08-1.6,14.68,0.25,16.49,3.77c0.82,1.59-0.9,4.49-2.71,6.52c0.24,0.48,0.45,0.97,0.73,1.42
			c2.7,4.49,5.74,8.99,1.49,14.15c-3.22,3.91-13.78,6.88-18.37,5.06c-0.9-0.36-1.81-2.08-1.77-3.14c0.09-2.47,0.58-4.96,1.23-7.36
			c0.91-3.39,0.52-5.87-3.02-6.16c-0.27-2.63-0.5-4.85-0.78-7.51c2.55-0.68,5.75-1.53,9.47-2.52
			C670.71,219.77,669.92,218.56,668.92,217z"/>
		<path class="st1" d="M210.82,519.34c0.62-8.52,0.68-9.12,9.43-8.25c7.35,0.73,14.57,2.94,21.77,4.84
			c1.68,0.44,3.01,2.25,4.99,3.81c-1.43,0.94-2.2,1.84-3.09,1.97c-6.79,1.05-12.92,2.69-17.28,9.01c-2.34,3.4-6.16,4.29-8.59-1.18
			c-0.54-1.21-3.25-1.71-5.05-2.03c-2.27-0.41-4.7,0.02-6.93-0.51c-1.6-0.38-2.98-1.72-4.46-2.63c1.34-1.68,2.39-3.81,4.1-4.88
			C206.97,518.71,209.1,519.34,210.82,519.34z"/>
		<path class="st1" d="M295.97,47.68c6.28,0,12.47-0.14,18.64,0.1c1.58,0.06,3.12,1.31,4.68,2.01c-1.03,1.53-1.73,3.73-3.17,4.44
			c-2.89,1.44-6.14,2.69-9.32,2.91c-7.09,0.5-14.23,0.36-21.35,0.39c-1.74,0.01-3.57-0.05-5.2-0.56c-3.2-1.01-3.98-2.93-1.27-5.43
			c3-2.77,7.46-4.65,5.31-10.26c-0.25-0.65,1.99-3.26,2.94-3.18c3.6,0.28,7.83,0.34,10.54,2.28
			C301.11,42.76,298.72,45.88,295.97,47.68z"/>
		<path class="st1" d="M261.42,40.45c-1.48,7.23-4.36,12.65-12.02,13.93c-5.88,0.98-11.68,2.49-17.66,3.79
			c-1.11-4.3-0.04-6.85,3.67-8.53c3.72-1.68,7.29-3.71,10.82-5.78c2.75-1.61,4.67-1.74,4.96,2.6
			C254.92,44.27,258.17,42.36,261.42,40.45z"/>
		<path class="st1" d="M231.58,140.01c-6.62,0.3-9.91,9.91-17.61,4.82c5.63-6.14,10.81-11.81,16.88-18.43
			c-0.59,2.12-0.84,3.03-1.21,4.36c1.1,0.05,2.27-0.06,3.36,0.19c1.33,0.31,3.56,0.73,3.71,1.45c0.87,4.25,2.81,7.86,5.31,11.31
			c0.28,0.38-0.59,2.29-1.23,2.48c-1.18,0.35-3.01,0.45-3.8-0.24C234.87,144.13,233.18,141.83,231.58,140.01z"/>
		<path class="st1" d="M551.76,46.21c6.53-0.78,17.6,8.81,17.47,16.36c-4.94-1-9.81-1.62-14.39-3.12c-1.33-0.44-2.22-3.31-2.61-5.21
			C551.71,51.79,551.9,49.2,551.76,46.21z"/>
		<path class="st1" d="M252.76,64.37c1.78-1.02,3.77-1.8,5.29-3.11c4.63-4,9.51-4.41,16.03-1.08c-1.76,1.9-2.99,3.98-4.81,5.06
			c-3.97,2.36-8.17,4.38-12.43,6.18c-1.59,0.67-3.59,0.36-5.41,0.49c0.29-1.93,0.55-3.87,0.88-5.8c0.11-0.66,0.41-1.28,0.62-1.92
			C252.93,64.19,252.76,64.37,252.76,64.37z"/>
		<path class="st1" d="M288.08,33.98c1.04-2.56-0.01-6.66,5.39-5.58c1.18,0.23,2.83-1.83,4.24-2.87c2.58-1.91,5-4.31,7.34,0.52
			c0.59,1.21,2.82,1.62,4.04,2.26C305.32,41.18,296.17,34.69,288.08,33.98z"/>
		<path class="st1" d="M172.38,519.9c7.79,2.36,15.09,4.56,22.97,6.95c-3.4,4.41-6.07,8.29-11.6,6.83
			C179.78,532.63,172.69,524.64,172.38,519.9z"/>
		<path class="st1" d="M270.07,51.45c-2.93,1.22-5.86,2.44-9.05,3.77c-1.26-10.36,6.66-15.63,20.24-13.9
			c-1.82,2.28-3.37,4.24-4.93,6.19C274.25,48.82,272.16,50.14,270.07,51.45z"/>
		<path class="st1" d="M291.43,98.46c-0.25,2.52-0.52,5.05-0.76,7.57c-0.63,6.79-6.21,10.44-14.62,9.38
			c-2.29-5.83,3.72-7.23,6.08-10.22c2.27-2.88,6.22-4.43,9.44-6.57C291.57,98.62,291.43,98.46,291.43,98.46z"/>
		<path class="st1" d="M654.42,46.48c-1.33-5.09-2.57-9.85-3.84-14.71c8.26-1.33,9.18-0.83,10.71,5.08
			C662.69,42.25,661.64,44,654.42,46.48z"/>
		<path class="st1" d="M266.97,530.09c-7.45-0.34-13.82-3.84-13.97-7.51C264.29,520.23,267.23,521.71,266.97,530.09z"/>
		<path class="st1" d="M843.89,357.07c-7.96-4-2.12-12.64-5.92-18.21c0.39-0.32,0.79-0.64,1.18-0.96c2.27,1.85,4.54,3.69,7.05,5.73
			C838.15,347.77,847.78,353.01,843.89,357.07z"/>
		<path class="st1" d="M276.78,35.31c-1.89,0.89-3.72,2.07-5.71,2.58c-1.23,0.31-2.71-0.39-4.08-0.64c0.45-1.2,0.59-2.71,1.42-3.52
			c1.23-1.19,2.89-2.01,4.47-2.75c4.24-1.97,5.05-1.32,4.61,3.51C277.26,34.76,277.02,35.03,276.78,35.31z"/>
		<path class="st1" d="M232.74,163.01c-1.8-7.01,6.16-5.3,7.3-9.93C242.4,159.63,239.54,163.3,232.74,163.01z"/>
		<path class="st1" d="M270.07,51.45c2.09-1.31,4.18-2.63,6.27-3.94c0.49,0.74,1.57,1.86,1.37,2.17c-1.71,2.67-3.65,5.19-5.54,7.77
			C267.6,56.63,268.5,54.15,270.07,51.45z"/>
		<path class="st1" d="M665.3,195.93c1.71-4.25,2.94-7.32,4.42-11.03C672.75,190.52,671.93,192.63,665.3,195.93z"/>
		<path class="st1" d="M276.78,35.31c0.24-0.27,0.48-0.55,0.72-0.82c1.51-0.64,3.02-1.28,5.04-2.13c0.38,4.97-2.29,6.11-6.12,6.87
			C276.56,37.65,276.67,36.48,276.78,35.31z"/>
		<path class="st1" d="M230.19,151.61c-3.21,1.41-6.42,2.82-9.63,4.23c-0.3-0.7-0.61-1.4-0.91-2.1c3.28-1.42,6.55-2.84,9.83-4.26
			C229.72,150.19,229.95,150.9,230.19,151.61z"/>
	</g>
</g>
<g class="st2">
	<g>
		<path class="st3" d="M583.16,547.89c109.57-143.86,124.83-329.91,55.96-484.17c-8.58-19.21,11.16-38.88,30.57-30.76
			c43,18.01,84.17,42.68,122.03,74.34c187.86,157.14,225.83,434.82,86.79,636.44C722.68,969.71,411.74,1017.41,195.9,853
			c-39.54-30.11-72.98-65.23-100.25-103.76c-7.52-10.63,1.97-24.94,14.74-22.41C283.52,761.1,469.01,697.76,583.16,547.89z"/>
	</g>
</g>
</svg>
